<svg width="26" height="26" viewBox="0 0 26 26" fill="none" xmlns="http://www.w3.org/2000/svg">
<path d="M12.3145 11.8701C12.0199 11.9945 11.7838 12.1799 11.6086 12.4287C11.4334 12.6775 11.3445 12.9771 11.3445 13.3301C11.3445 13.782 11.535 14.1299 11.9133 14.3762C12.2713 14.6072 12.6471 14.6656 13.0406 14.5488C13.4951 14.4168 13.8023 14.0943 13.9648 13.5814C14.041 13.3453 14.0791 13.0813 14.0791 12.7867V11.5121C13.7592 11.5223 13.4596 11.5527 13.1777 11.6061C12.8959 11.6594 12.609 11.7482 12.3145 11.8701ZM13 1.625C6.71836 1.625 1.625 6.71836 1.625 13C1.625 19.2816 6.71836 24.375 13 24.375C19.2816 24.375 24.375 19.2816 24.375 13C24.375 6.71836 19.2816 1.625 13 1.625ZM13.909 8.29512C13.7262 8.01836 13.3986 7.87871 12.9264 7.87871C12.8934 7.87871 12.8502 7.88125 12.7918 7.88633C12.7359 7.89141 12.6242 7.92441 12.4643 7.98027C12.3036 8.03775 12.1509 8.11539 12.0098 8.21133C11.8701 8.30781 11.7178 8.46523 11.5527 8.67852C11.3902 8.89434 11.2607 9.1457 11.1643 9.43516L8.77754 9.22188C8.77754 8.90703 8.83848 8.59473 8.95527 8.28496C9.07461 7.97519 9.25488 7.67812 9.49863 7.39629C9.74238 7.11191 10.0344 6.86309 10.3746 6.6498C10.7148 6.43398 11.1262 6.26387 11.6035 6.13438C12.0834 6.00488 12.5963 5.94141 13.1498 5.94141C13.6906 5.94141 14.1807 6.00742 14.6174 6.13691C15.0541 6.26895 15.407 6.42891 15.6686 6.62187C15.9205 6.80366 16.1424 7.02385 16.3262 7.27441C16.5014 7.51816 16.6232 7.74414 16.6918 7.95234C16.7604 8.16055 16.7934 8.35098 16.7934 8.53125V13.165C16.7934 13.3275 16.8289 13.4951 16.9025 13.6678C16.9762 13.8404 17.0625 13.9928 17.1615 14.1248C17.2605 14.2568 17.3621 14.3762 17.4662 14.4879C17.5703 14.5971 17.6592 14.6834 17.7354 14.7393L17.8395 14.8256L15.9986 16.5877C15.7828 16.3922 15.5695 16.1967 15.3588 15.9936C15.148 15.7904 14.9906 15.6381 14.8891 15.534L14.7342 15.3766C14.6732 15.3182 14.6072 15.2318 14.5311 15.1176C14.3254 15.4273 14.0613 15.6965 13.7414 15.925C13.4189 16.1535 13.0736 16.3211 12.708 16.4252C12.3398 16.5293 11.9615 16.5902 11.573 16.6055C11.1846 16.6207 10.8113 16.5674 10.4584 16.4404C10.1055 16.3135 9.78555 16.1434 9.50371 15.925C9.22187 15.7066 8.99844 15.4121 8.83086 15.0363C8.66328 14.6605 8.57949 14.2365 8.57949 13.7566C8.57949 13.3148 8.65566 12.9111 8.80547 12.5455C8.95781 12.1773 9.15078 11.8727 9.38945 11.6289C9.62812 11.3852 9.91504 11.1668 10.2527 10.9764C10.5904 10.7859 10.923 10.6361 11.248 10.527C11.573 10.4203 11.9234 10.3289 12.3018 10.2553C12.6801 10.1816 13.0025 10.1334 13.2717 10.1105C13.5408 10.0877 13.81 10.0699 14.0791 10.0598V9.05937C14.0791 8.7166 14.0207 8.4627 13.909 8.29512ZM18.492 17.9334C18.4209 18.0172 18.3016 18.1314 18.134 18.2762C17.9664 18.4209 17.7074 18.5986 17.3596 18.8119C17.0117 19.0252 16.6283 19.2182 16.217 19.3934C15.8031 19.5686 15.2953 19.7209 14.691 19.8504C14.0893 19.9799 13.4672 20.0434 12.8299 20.0434C12.185 20.0434 11.5426 19.9621 10.8977 19.7996C10.2527 19.6371 9.68906 19.4365 9.20156 19.1979C8.7166 18.9592 8.24687 18.685 7.80254 18.3803C7.35566 18.073 6.99766 17.7988 6.72598 17.5551C6.45684 17.3113 6.22832 17.0803 6.04551 16.867C6.00234 16.8187 5.97441 16.7756 5.96426 16.7375C5.9541 16.6994 5.95664 16.6664 5.97187 16.6436C5.98711 16.6207 6.00996 16.6029 6.03789 16.5877C6.06822 16.5742 6.10157 16.569 6.13457 16.5726C6.16756 16.5762 6.19903 16.5884 6.22578 16.608C7.26426 17.2225 8.07676 17.6566 8.66074 17.9131C10.7656 18.8373 12.9264 19.0734 15.143 18.6215C16.1713 18.4107 17.2275 18.0578 18.3143 17.5602C18.3955 17.5297 18.4666 17.5221 18.525 17.5373C18.5834 17.5525 18.6139 17.5982 18.6139 17.6744C18.6139 17.7455 18.5732 17.8344 18.492 17.9334ZM20.0129 17.1971C19.9672 17.4789 19.8885 17.7455 19.7818 18.0045C19.599 18.4387 19.368 18.7662 19.0938 18.9795C19.0023 19.0531 18.9312 19.076 18.883 19.0506C18.8348 19.0252 18.8348 18.9617 18.883 18.8627C18.9973 18.6266 19.1166 18.3092 19.2436 17.9055C19.3705 17.5043 19.3883 17.2453 19.2969 17.1311C19.2689 17.093 19.2283 17.065 19.1699 17.0396C19.1141 17.0168 19.0404 17.0016 18.9516 16.9914C18.8627 16.9813 18.7814 16.9762 18.7129 16.9711C18.6418 16.966 18.5479 16.966 18.4285 16.9711C18.3092 16.9762 18.2254 16.9812 18.1721 16.9863C18.0275 17.0004 17.8827 17.0131 17.7379 17.0244C17.7049 17.0295 17.6693 17.0346 17.6338 17.0371C17.5957 17.0396 17.5652 17.0422 17.5449 17.0447L17.4764 17.0523C17.451 17.0549 17.4332 17.0574 17.4205 17.0574H17.3393L17.3139 17.0523L17.2986 17.0396L17.2859 17.0168C17.2529 16.933 17.3799 16.8289 17.6668 16.702C17.9537 16.575 18.233 16.4963 18.5021 16.4658C18.751 16.4277 19.043 16.4277 19.3781 16.4582C19.7133 16.4887 19.9189 16.5521 19.9951 16.6461C20.0535 16.735 20.0586 16.9178 20.0129 17.1971Z" fill="#17161B"/>
</svg>
