<svg width="24" height="24" viewBox="0 0 24 24" fill="none" xmlns="http://www.w3.org/2000/svg">
<path d="M23.1682 12.9478C22.9994 11.0536 22.7214 10.6847 22.6164 10.5459C22.375 10.2253 21.9888 10.0158 21.58 9.79594C21.5569 9.78371 21.537 9.76629 21.5217 9.74503C21.5065 9.72378 21.4964 9.69927 21.4923 9.67345C21.4882 9.64763 21.4901 9.62121 21.4979 9.59626C21.5057 9.57131 21.5192 9.54852 21.5374 9.52969C21.6131 9.45292 21.6713 9.36067 21.7079 9.25928C21.7446 9.15789 21.7588 9.04977 21.7497 8.94234C21.7321 8.75185 21.6435 8.57494 21.5016 8.44669C21.3596 8.31845 21.1746 8.24825 20.9833 8.25H20.2521C20.2207 8.25019 20.1894 8.25222 20.1583 8.25609C20.137 8.24683 20.1149 8.23946 20.0922 8.23406C19.6591 7.31859 19.0661 6.06516 17.8371 5.45344C16.0141 4.54687 12.656 4.5 11.9997 4.5C11.3435 4.5 7.98535 4.54687 6.16472 5.45203C4.93566 6.06375 4.34269 7.31719 3.90957 8.23266L3.90582 8.24016C3.88421 8.24319 3.863 8.24854 3.84253 8.25609C3.81143 8.25222 3.78013 8.25019 3.74878 8.25H3.01613C2.82483 8.24825 2.63985 8.31845 2.49789 8.44669C2.35593 8.57494 2.26735 8.75185 2.24972 8.94234C2.2414 9.04952 2.25631 9.15723 2.29344 9.25811C2.33057 9.359 2.38905 9.45067 2.46488 9.52688C2.48302 9.54571 2.49653 9.5685 2.50436 9.59345C2.51218 9.6184 2.5141 9.64482 2.50997 9.67064C2.50583 9.69646 2.49575 9.72096 2.48052 9.74222C2.4653 9.76348 2.44534 9.7809 2.42222 9.79313C2.01347 10.0144 1.62535 10.2239 1.38581 10.5431C1.28081 10.6838 1.00331 11.0508 0.834096 12.945C0.740346 14.0109 0.726283 15.1144 0.799877 15.825C0.954096 17.3016 1.24331 18.1941 1.2555 18.2311C1.29988 18.3659 1.38158 18.4853 1.4911 18.5755C1.60062 18.6656 1.73348 18.7229 1.87425 18.7406V18.75C1.87425 18.9489 1.95327 19.1397 2.09392 19.2803C2.23457 19.421 2.42534 19.5 2.62425 19.5H5.24925C5.44816 19.5 5.63893 19.421 5.77958 19.2803C5.92024 19.1397 5.99925 18.9489 5.99925 18.75C6.40285 18.75 6.68363 18.6778 6.98128 18.6009C7.41103 18.4851 7.85028 18.4081 8.29378 18.3708C9.72394 18.2344 11.1461 18.1875 11.9997 18.1875C12.836 18.1875 14.321 18.2344 15.7535 18.3708C16.1987 18.4082 16.6397 18.4855 17.0711 18.6019C17.3561 18.675 17.6266 18.7425 18.0011 18.7495C18.0011 18.9484 18.0801 19.1392 18.2208 19.2799C18.3615 19.4205 18.5522 19.4995 18.7511 19.4995H21.3761C21.575 19.4995 21.7658 19.4205 21.9065 19.2799C22.0471 19.1392 22.1261 18.9484 22.1261 18.7495V18.7439C22.2672 18.7265 22.4005 18.6694 22.5104 18.5792C22.6203 18.489 22.7022 18.3694 22.7468 18.2344C22.7589 18.1973 23.0482 17.3048 23.2024 15.8283C23.276 15.1172 23.2628 14.0156 23.1682 12.9478ZM5.26519 8.87391C5.64019 8.07703 6.0691 7.17516 6.83269 6.795C7.93613 6.24563 10.2232 5.99812 11.9997 5.99812C13.7763 5.99812 16.0633 6.24375 17.1668 6.795C17.9303 7.17516 18.3574 8.0775 18.7343 8.87391L18.7811 8.97563C18.8085 9.03353 18.8207 9.0975 18.8163 9.16142C18.812 9.22534 18.7914 9.28708 18.7564 9.34076C18.7214 9.39445 18.6733 9.43827 18.6166 9.46806C18.5598 9.49785 18.4964 9.51261 18.4324 9.51094C16.8747 9.46875 13.5935 9.33375 11.9997 9.33375C10.406 9.33375 7.12472 9.47203 5.56472 9.51422C5.50068 9.51589 5.43727 9.50113 5.38055 9.47134C5.32383 9.44155 5.27569 9.39773 5.24071 9.34405C5.20574 9.29037 5.18511 9.22862 5.18077 9.1647C5.17644 9.10078 5.18856 9.03681 5.21597 8.97891C5.23238 8.94422 5.24972 8.90906 5.26519 8.87391ZM5.82441 12.6066C5.01807 12.7036 4.20657 12.7515 3.39441 12.75C2.89753 12.75 2.38519 12.6094 2.29003 12.1669C2.22488 11.8692 2.23191 11.7019 2.26706 11.5336C2.2966 11.3906 2.34347 11.2866 2.57785 11.25C3.18722 11.1562 3.528 11.2739 4.5255 11.5678C5.18691 11.7623 5.6641 12.0216 5.93597 12.2269C6.07238 12.3281 5.99972 12.5925 5.82441 12.6066ZM16.2016 16.4503C15.5847 16.5206 14.351 16.4948 12.0138 16.4948C9.6766 16.4948 8.44332 16.5206 7.82644 16.4503C7.18988 16.3795 6.37847 15.7777 6.93253 15.2414C7.30144 14.888 8.16207 14.6236 9.30816 14.475C10.4543 14.3264 10.9394 14.25 12.0091 14.25C13.0788 14.25 13.5147 14.2969 14.71 14.4755C15.9053 14.6541 16.8086 14.9217 17.0857 15.2419C17.591 15.8156 16.8377 16.3758 16.2016 16.4531V16.4503ZM21.7094 12.1664C21.6157 12.6108 21.1 12.7495 20.605 12.7495C19.7773 12.7497 18.9503 12.7018 18.1282 12.6061C17.9847 12.5925 17.9182 12.3408 18.0635 12.2264C18.3311 12.0159 18.8135 11.7619 19.4739 11.5673C20.4714 11.2734 21.0466 11.1558 21.5407 11.2537C21.6611 11.2777 21.7249 11.407 21.7324 11.4881C21.7654 11.7139 21.7577 11.9438 21.7094 12.1669V12.1664Z" fill="#622CFD"/>
</svg>
