<svg width="24" height="24" viewBox="0 0 24 24" fill="none" xmlns="http://www.w3.org/2000/svg">
<path d="M4.875 1.50004C3.84 1.50004 3 2.33703 3 3.37203V16.1235C3 17.1585 3.84 17.9985 4.875 17.9985H7.5V15.6525C7.50002 15.1367 7.60647 14.6264 7.81269 14.1536C8.01891 13.6807 8.32047 13.2555 8.6985 12.9045L9.6765 11.9955C9.5328 11.9813 9.39625 11.926 9.28326 11.8361C9.17026 11.7461 9.08562 11.6255 9.03951 11.4887C8.99339 11.3519 8.98776 11.2046 9.02328 11.0647C9.05881 10.9247 9.13398 10.798 9.23978 10.6997C9.34557 10.6014 9.47749 10.5358 9.61968 10.5106C9.76188 10.4855 9.90831 10.5019 10.0414 10.558C10.1745 10.614 10.2885 10.7073 10.3699 10.8266C10.4512 10.9459 10.4964 11.0862 10.5 11.2305L12.96 8.94754C13.4298 8.51127 14.027 8.23699 14.6641 8.16492C15.3012 8.09284 15.9446 8.22676 16.5 8.54704C16.4802 8.06313 16.274 7.60564 15.9245 7.27039C15.575 6.93514 15.1093 6.74813 14.625 6.74854H13.8795C13.78 6.74854 13.6847 6.70903 13.6143 6.6387C13.544 6.56837 13.5045 6.47299 13.5045 6.37354L13.5075 3.37654C13.5075 2.34004 12.6675 1.49854 11.6325 1.49854L4.875 1.50004ZM6.75 6.00004C6.55109 6.00004 6.36032 5.92102 6.21967 5.78036C6.07902 5.63971 6 5.44895 6 5.25004C6 5.05112 6.07902 4.86036 6.21967 4.71971C6.36032 4.57905 6.55109 4.50004 6.75 4.50004C6.94891 4.50004 7.13968 4.57905 7.28033 4.71971C7.42098 4.86036 7.5 5.05112 7.5 5.25004C7.5 5.44895 7.42098 5.63971 7.28033 5.78036C7.13968 5.92102 6.94891 6.00004 6.75 6.00004ZM7.5 8.25004C7.5 8.44895 7.42098 8.63971 7.28033 8.78036C7.13968 8.92102 6.94891 9.00004 6.75 9.00004C6.55109 9.00004 6.36032 8.92102 6.21967 8.78036C6.07902 8.63971 6 8.44895 6 8.25004C6 8.05112 6.07902 7.86036 6.21967 7.71971C6.36032 7.57905 6.55109 7.50004 6.75 7.50004C6.94891 7.50004 7.13968 7.57905 7.28033 7.71971C7.42098 7.86036 7.5 8.05112 7.5 8.25004ZM6.75 12C6.55109 12 6.36032 11.921 6.21967 11.7804C6.07902 11.6397 6 11.4489 6 11.25C6 11.0511 6.07902 10.8604 6.21967 10.7197C6.36032 10.5791 6.55109 10.5 6.75 10.5C6.94891 10.5 7.13968 10.5791 7.28033 10.7197C7.42098 10.8604 7.5 11.0511 7.5 11.25C7.5 11.4489 7.42098 11.6397 7.28033 11.7804C7.13968 11.921 6.94891 12 6.75 12ZM10.5 5.25004C10.5 5.44895 10.421 5.63971 10.2803 5.78036C10.1397 5.92102 9.94891 6.00004 9.75 6.00004C9.55109 6.00004 9.36032 5.92102 9.21967 5.78036C9.07902 5.63971 9 5.44895 9 5.25004C9 5.05112 9.07902 4.86036 9.21967 4.71971C9.36032 4.57905 9.55109 4.50004 9.75 4.50004C9.94891 4.50004 10.1397 4.57905 10.2803 4.71971C10.421 4.86036 10.5 5.05112 10.5 5.25004ZM9.75 9.00004C9.55109 9.00004 9.36032 8.92102 9.21967 8.78036C9.07902 8.63971 9 8.44895 9 8.25004C9 8.05112 9.07902 7.86036 9.21967 7.71971C9.36032 7.57905 9.55109 7.50004 9.75 7.50004C9.94891 7.50004 10.1397 7.57905 10.2803 7.71971C10.421 7.86036 10.5 8.05112 10.5 8.25004C10.5 8.44895 10.421 8.63971 10.2803 8.78036C10.1397 8.92102 9.94891 9.00004 9.75 9.00004ZM16.02 10.0485C15.7426 9.79129 15.3783 9.64835 15 9.64835C14.6217 9.64835 14.2574 9.79129 13.98 10.0485L9.72 14.004C9.49287 14.2147 9.31168 14.47 9.18779 14.7539C9.06389 15.0378 8.99996 15.3443 9 15.654V20.9985C9 21.3964 9.15804 21.7779 9.43934 22.0592C9.72064 22.3405 10.1022 22.4985 10.5 22.4985H12.75C13.1478 22.4985 13.5294 22.3405 13.8107 22.0592C14.092 21.7779 14.25 21.3964 14.25 20.9985V19.4985H15.75V20.9985C15.75 21.3964 15.908 21.7779 16.1893 22.0592C16.4706 22.3405 16.8522 22.4985 17.25 22.4985H19.5C19.8978 22.4985 20.2794 22.3405 20.5607 22.0592C20.842 21.7779 21 21.3964 21 20.9985V15.6525C20.9998 15.343 20.9358 15.0369 20.8119 14.7532C20.688 14.4696 20.5069 14.2145 20.28 14.004L16.02 10.0485ZM10.74 15.1035L15 11.148L19.26 15.1035C19.3356 15.1736 19.3959 15.2586 19.4372 15.353C19.4785 15.4475 19.4999 15.5494 19.5 15.6525V21H17.25V19.5C17.25 19.1022 17.092 18.7207 16.8107 18.4394C16.5294 18.1581 16.1478 18 15.75 18H14.25C13.8522 18 13.4706 18.1581 13.1893 18.4394C12.908 18.7207 12.75 19.1022 12.75 19.5V21H10.5V15.654C10.5001 15.5509 10.5215 15.449 10.5628 15.3545C10.6041 15.2601 10.6644 15.1736 10.74 15.1035Z" fill="#622CFD"/>
<path d="M16.0012 10.7075C15.781 10.5096 15.4953 10.4001 15.1992 10.4001C14.9031 10.4001 14.6175 10.5096 14.3972 10.7075L9.99721 14.6611C9.87211 14.7736 9.77206 14.9112 9.70356 15.0648C9.63507 15.2185 9.59965 15.3849 9.59961 15.5531V21.1971C9.59961 21.5154 9.72604 21.8206 9.95108 22.0456C10.1761 22.2707 10.4813 22.3971 10.7996 22.3971H12.3996C12.7179 22.3971 13.0231 22.2707 13.2481 22.0456C13.4732 21.8206 13.5996 21.5154 13.5996 21.1971V19.5971C13.5996 19.491 13.6418 19.3893 13.7168 19.3143C13.7918 19.2393 13.8935 19.1971 13.9996 19.1971H16.3996C16.5057 19.1971 16.6074 19.2393 16.6825 19.3143C16.7575 19.3893 16.7996 19.491 16.7996 19.5971V21.1971C16.7996 21.5154 16.926 21.8206 17.1511 22.0456C17.3761 22.2707 17.6813 22.3971 17.9996 22.3971H19.5996C19.9179 22.3971 20.2231 22.2707 20.4481 22.0456C20.6732 21.8206 20.7996 21.5154 20.7996 21.1971V15.5531C20.7996 15.3849 20.7642 15.2185 20.6957 15.0648C20.6272 14.9112 20.5271 14.7736 20.402 14.6611L16.002 10.7075H16.0012Z" fill="#622CFD"/>
</svg>
