<svg width="23" height="20" viewBox="0 0 23 20" fill="none" xmlns="http://www.w3.org/2000/svg">
<path d="M21.835 7.54456C22.5298 7.16555 22.5298 6.16779 21.835 5.78877L12.1799 0.522384C11.583 0.196773 10.8615 0.196772 10.2645 0.522384L0.609475 5.78877C-0.0853889 6.16779 -0.0853885 7.16555 0.609475 7.54456L10.7434 13.0721C11.0418 13.2349 11.4026 13.2349 11.7011 13.0721L21.835 7.54456ZM4.18396 11.7147C3.85077 11.5328 3.44444 11.774 3.44444 12.1536V15.1621C3.44444 15.5279 3.64425 15.8646 3.96542 16.0399L10.7432 19.7386C11.0418 19.9015 11.4027 19.9015 11.7013 19.7386L18.479 16.0399C18.8002 15.8646 19 15.5279 19 15.1621V12.1536C19 11.774 18.5937 11.5328 18.2605 11.7147L11.7013 15.2941C11.4027 15.4571 11.0418 15.4571 10.7432 15.2941L4.18396 11.7147Z" fill="#622CFD"/>
</svg>
