<svg width="26" height="26" viewBox="0 0 26 26" fill="none" xmlns="http://www.w3.org/2000/svg">
<path d="M20.2692 21.1251C19.37 22.4684 18.4167 23.7792 16.965 23.8009C15.5134 23.8334 15.0475 22.9451 13.4009 22.9451C11.7434 22.9451 11.2342 23.7792 9.85835 23.8334C8.43919 23.8876 7.36668 22.4034 6.45668 21.0926C4.60418 18.4167 3.18502 13.4876 5.09168 10.1726C6.03418 8.52592 7.72418 7.48592 9.55502 7.45341C10.9417 7.43175 12.2634 8.39592 13.1192 8.39592C13.9642 8.39592 15.5675 7.23675 17.2467 7.41008C17.9509 7.44258 19.9225 7.69175 21.19 9.55508C21.0925 9.62008 18.8392 10.9417 18.8609 13.6826C18.8934 16.9542 21.7317 18.0484 21.7642 18.0592C21.7317 18.1351 21.3092 19.6192 20.2692 21.1251ZM14.0834 3.79175C14.8742 2.89258 16.185 2.21008 17.2684 2.16675C17.4092 3.43425 16.9 4.71258 16.1417 5.62258C15.3942 6.54342 14.1592 7.25842 12.9459 7.16091C12.7834 5.91508 13.39 4.61508 14.0834 3.79175Z" fill="#17161B"/>
</svg>
