<svg width="26" height="26" viewBox="0 0 26 26" fill="none" xmlns="http://www.w3.org/2000/svg">
<path d="M7.95989 9.4251L8.98819 2.6001H3.63999L1.40529 8.4501C1.33639 8.6581 1.29999 8.8739 1.29999 9.1001C1.29999 10.5353 2.79499 11.7001 4.64229 11.7001C6.34529 11.7001 7.75319 10.7069 7.95989 9.4251ZM13 11.7001C14.846 11.7001 16.3423 10.5353 16.3423 9.1001C16.3423 9.0468 16.3384 8.9935 16.3358 8.9428L15.6741 2.6001H10.3259L9.66289 8.9376C9.65981 8.99171 9.65808 9.0459 9.65769 9.1001C9.65769 10.5353 11.154 11.7001 13 11.7001ZM19.5 13.0599V18.2001H6.49999V13.0677C5.93059 13.2731 5.30399 13.3901 4.64229 13.3901C4.38879 13.3901 4.14309 13.3602 3.89999 13.3264V21.5801C3.89999 22.5811 4.71769 23.4001 5.71739 23.4001H20.28C21.281 23.4001 22.1 22.5798 22.1 21.5801V13.3277C21.8542 13.3654 21.6063 13.3867 21.3577 13.3914C20.7238 13.3908 20.095 13.2785 19.5 13.0599ZM24.596 8.4501L22.3587 2.6001H17.0118L18.0388 9.4147C18.239 10.7017 19.6469 11.7001 21.3577 11.7001C23.2037 11.7001 24.7 10.5353 24.7 9.1001C24.7 8.8739 24.6636 8.6581 24.596 8.4501Z" fill="#17161B"/>
</svg>
