<svg width="26" height="26" viewBox="0 0 26 26" fill="none" xmlns="http://www.w3.org/2000/svg">
<path d="M12.8603 23.5777C11.5711 23.5777 10.7109 22.9699 9.94284 22.4337C9.39792 22.0469 8.8855 21.6797 8.28209 21.5778C7.99479 21.5284 7.70368 21.5045 7.41217 21.5063C6.90084 21.5063 6.49459 21.5833 6.20534 21.6418C6.02117 21.6742 5.86734 21.7046 5.746 21.7046C5.62034 21.7046 5.46109 21.6699 5.39934 21.4576C5.34517 21.2843 5.31159 21.1196 5.278 20.9603C5.19134 20.5595 5.11875 20.3136 4.96817 20.2887C3.35509 20.0428 2.38984 19.6712 2.20134 19.2313C2.18617 19.1837 2.16775 19.1338 2.16775 19.0959C2.15692 18.9605 2.25442 18.85 2.38984 18.8251C3.66925 18.6128 4.81867 17.9324 5.78934 16.8123C6.54334 15.9423 6.91059 15.1017 6.94417 15.0107C6.94417 14.9998 6.95392 14.9998 6.95392 14.9998C7.13809 14.6196 7.176 14.2957 7.06442 14.0303C6.8575 13.5319 6.17067 13.3196 5.70267 13.1744C5.58242 13.1419 5.48059 13.1029 5.39392 13.0737C4.99309 12.9144 4.32575 12.5753 4.4135 12.1073C4.47634 11.7693 4.92484 11.5278 5.29209 11.5278C5.39392 11.5278 5.48059 11.5429 5.55209 11.5819C5.96375 11.7693 6.33534 11.8658 6.65384 11.8658C7.05034 11.8658 7.23884 11.7163 7.2865 11.6686C7.27642 11.4543 7.26378 11.2401 7.24859 11.0262C7.15109 9.54742 7.04059 7.71225 7.50859 6.66033C8.91475 3.51108 11.8993 3.25867 12.7833 3.25867L13.169 3.25H13.2232C14.1061 3.25 17.0907 3.49592 18.4968 6.65058C18.9703 7.7025 18.8543 9.54308 18.7568 11.0164L18.7482 11.089C18.7373 11.2862 18.7233 11.4747 18.7135 11.6686C18.7623 11.7065 18.9356 11.8517 19.2931 11.856C19.6029 11.8473 19.9409 11.7455 20.3266 11.5711C20.4333 11.5249 20.5483 11.5006 20.6646 11.4996C20.8 11.4996 20.9354 11.5321 21.0513 11.5711H21.0611C21.385 11.6924 21.5973 11.9188 21.5973 12.1561C21.6071 12.3782 21.4327 12.7162 20.6072 13.0498C20.5205 13.0823 20.4187 13.1224 20.2984 13.1506C19.8391 13.2914 19.1533 13.5135 18.9356 14.0064C18.8153 14.2664 18.8641 14.6001 19.0472 14.976C19.0472 14.9868 19.0569 14.9868 19.0569 14.9868C19.11 15.1212 20.5053 18.2899 23.6113 18.8067C23.6747 18.8174 23.7322 18.8507 23.773 18.9005C23.8139 18.9503 23.8353 19.0131 23.8333 19.0775C23.8341 19.1262 23.8225 19.1742 23.7998 19.2173C23.6113 19.6614 22.6547 20.0233 21.0318 20.2746C20.8823 20.2984 20.8098 20.5454 20.7231 20.9462C20.6884 21.1133 20.6479 21.2792 20.6018 21.4435C20.5541 21.6028 20.4523 21.6894 20.2789 21.6894H20.254C20.0999 21.6863 19.9465 21.6685 19.7958 21.6363C19.3987 21.5517 18.9938 21.5096 18.5878 21.5107C18.2967 21.5113 18.0062 21.5356 17.719 21.5833C17.1199 21.6808 16.6032 22.0523 16.0572 22.4391C15.2804 22.9699 14.4159 23.5777 13.1354 23.5777H12.8603Z" fill="#17161B"/>
</svg>
