<svg width="26" height="26" viewBox="0 0 26 26" fill="none" xmlns="http://www.w3.org/2000/svg">
<path d="M19.392 11.8084C15.9253 9.75008 10.1295 9.53341 6.82533 10.5626C6.28366 10.7251 5.74199 10.4001 5.57949 9.91258C5.41699 9.37091 5.74199 8.82925 6.22949 8.66675C10.0753 7.52925 16.4128 7.74591 20.4212 10.1292C20.9087 10.4001 21.0712 11.0501 20.8003 11.5376C20.5295 11.9167 19.8795 12.0792 19.392 11.8084ZM19.2837 14.8417C19.0128 15.2209 18.5253 15.3834 18.1462 15.1126C15.2212 13.3251 10.7795 12.7834 7.36699 13.8667C6.93366 13.9751 6.44616 13.7584 6.33783 13.3251C6.22949 12.8917 6.44616 12.4042 6.87949 12.2959C10.8337 11.1042 15.7087 11.7001 19.067 13.7584C19.392 13.9209 19.5545 14.4626 19.2837 14.8417ZM17.9837 17.8209C17.767 18.1459 17.3878 18.2542 17.0628 18.0376C14.517 16.4667 11.3212 16.1417 7.52949 17.0084C7.15032 17.1167 6.82533 16.8459 6.71699 16.5209C6.60866 16.1417 6.87949 15.8167 7.20449 15.7084C11.3212 14.7876 14.8962 15.1667 17.7128 16.9001C18.092 17.0626 18.1462 17.4959 17.9837 17.8209ZM13.0003 2.16675C11.5777 2.16675 10.1689 2.44696 8.85459 2.99139C7.54023 3.53581 6.34597 4.33379 5.34 5.33976C3.30836 7.3714 2.16699 10.1269 2.16699 13.0001C2.16699 15.8733 3.30836 18.6288 5.34 20.6604C6.34597 21.6664 7.54023 22.4643 8.85459 23.0088C10.1689 23.5532 11.5777 23.8334 13.0003 23.8334C15.8735 23.8334 18.629 22.692 20.6606 20.6604C22.6923 18.6288 23.8337 15.8733 23.8337 13.0001C23.8337 11.5774 23.5534 10.1687 23.009 8.85434C22.4646 7.53998 21.6666 6.34573 20.6606 5.33976C19.6547 4.33379 18.4604 3.53581 17.1461 2.99139C15.8317 2.44696 14.423 2.16675 13.0003 2.16675Z" fill="#17161B"/>
</svg>
