<svg width="21" height="21" viewBox="0 0 21 21" fill="none" xmlns="http://www.w3.org/2000/svg">
<path d="M16.3717 17.0625C15.6455 18.1475 14.8755 19.2062 13.703 19.2237C12.5305 19.25 12.1542 18.5325 10.8242 18.5325C9.48548 18.5325 9.07423 19.2062 7.96298 19.25C6.81673 19.2937 5.95048 18.095 5.21548 17.0362C3.71923 14.875 2.57298 10.8937 4.11298 8.21625C4.87423 6.88625 6.23923 6.04625 7.71798 6.02C8.83798 6.0025 9.90548 6.78125 10.5967 6.78125C11.2792 6.78125 12.5742 5.845 13.9305 5.985C14.4992 6.01125 16.0917 6.2125 17.1155 7.7175C17.0367 7.77 15.2167 8.8375 15.2342 11.0512C15.2605 13.6937 17.553 14.5775 17.5792 14.5862C17.553 14.6475 17.2117 15.8462 16.3717 17.0625ZM11.3755 3.0625C12.0142 2.33625 13.073 1.785 13.948 1.75C14.0617 2.77375 13.6505 3.80625 13.038 4.54125C12.4342 5.285 11.4367 5.8625 10.4567 5.78375C10.3255 4.7775 10.8155 3.7275 11.3755 3.0625Z" fill="#958F9F"/>
</svg>
