<svg width="22" height="22" viewBox="0 0 22 22" fill="none" xmlns="http://www.w3.org/2000/svg">
<path d="M9.4327 3.53828L1.66854 16.4999C1.50846 16.7772 1.42376 17.0915 1.42286 17.4116C1.42196 17.7317 1.5049 18.0465 1.66343 18.3246C1.82195 18.6027 2.05053 18.8345 2.32643 18.9968C2.60233 19.1592 2.91593 19.2464 3.23604 19.2499H18.7644C19.0845 19.2464 19.3981 19.1592 19.674 18.9968C19.9499 18.8345 20.1785 18.6027 20.337 18.3246C20.4955 18.0465 20.5784 17.7317 20.5775 17.4116C20.5766 17.0915 20.4919 16.7772 20.3319 16.4999L12.5677 3.53828C12.4043 3.26887 12.1742 3.04614 11.8996 2.89155C11.6251 2.73697 11.3153 2.65576 11.0002 2.65576C10.6851 2.65576 10.3753 2.73697 10.1008 2.89155C9.82621 3.04614 9.59612 3.26887 9.4327 3.53828Z" fill="#FA3131"/>
<path d="M11 8.25V11.9167" stroke="white" stroke-width="1.5" stroke-linecap="round" stroke-linejoin="round"/>
<path d="M11 15.5835H11.01" stroke="white" stroke-width="1.5" stroke-linecap="round" stroke-linejoin="round"/>
</svg>
