<svg width="181" height="127" viewBox="0 0 181 127" fill="none" xmlns="http://www.w3.org/2000/svg">
<g filter="url(#filter0_d_158_4743)">
<mask id="path-1-inside-1_158_4743" fill="white">
<path fill-rule="evenodd" clip-rule="evenodd" d="M169 58.1504C169 52.1882 157.462 47 151.5 47C140.178 47 131 37.8218 131 26.5C131 20.4081 126.247 10 120.155 10H32C22.5719 10 17.8579 10 14.9289 12.9289C12 15.8579 12 20.5719 12 30V93C12 102.428 12 107.142 14.9289 110.071C17.8579 113 22.5719 113 32 113H149C158.428 113 163.142 113 166.071 110.071C169 107.142 169 102.428 169 93V58.1504Z"/>
</mask>
<path fill-rule="evenodd" clip-rule="evenodd" d="M169 58.1504C169 52.1882 157.462 47 151.5 47C140.178 47 131 37.8218 131 26.5C131 20.4081 126.247 10 120.155 10H32C22.5719 10 17.8579 10 14.9289 12.9289C12 15.8579 12 20.5719 12 30V93C12 102.428 12 107.142 14.9289 110.071C17.8579 113 22.5719 113 32 113H149C158.428 113 163.142 113 166.071 110.071C169 107.142 169 102.428 169 93V58.1504Z" fill="white"/>
<path d="M166.071 110.071L166.778 110.778L166.071 110.071ZM151.5 46C140.73 46 132 37.2696 132 26.5H130C130 38.3741 139.626 48 151.5 48V46ZM32 11H120.155V9H32V11ZM15.636 13.636C16.8837 12.3883 18.5483 11.7084 21.1605 11.3572C23.8015 11.0021 27.2577 11 32 11V9C27.3142 9 23.6993 8.99788 20.894 9.37503C18.06 9.75606 15.9031 10.5406 14.2218 12.2218L15.636 13.636ZM13 30C13 25.2577 13.0021 21.8015 13.3572 19.1605C13.7084 16.5483 14.3883 14.8837 15.636 13.636L14.2218 12.2218C12.5406 13.9031 11.7561 16.06 11.375 18.894C10.9979 21.6993 11 25.3142 11 30H13ZM13 93V30H11V93H13ZM15.636 109.364C14.3883 108.116 13.7084 106.452 13.3572 103.839C13.0021 101.198 13 97.7423 13 93H11C11 97.6858 10.9979 101.301 11.375 104.106C11.7561 106.94 12.5406 109.097 14.2218 110.778L15.636 109.364ZM32 112C27.2577 112 23.8015 111.998 21.1605 111.643C18.5483 111.292 16.8837 110.612 15.636 109.364L14.2218 110.778C15.9031 112.459 18.06 113.244 20.894 113.625C23.6993 114.002 27.3142 114 32 114V112ZM149 112H32V114H149V112ZM165.364 109.364C164.116 110.612 162.452 111.292 159.839 111.643C157.198 111.998 153.742 112 149 112V114C153.686 114 157.301 114.002 160.106 113.625C162.94 113.244 165.097 112.459 166.778 110.778L165.364 109.364ZM168 93C168 97.7423 167.998 101.198 167.643 103.839C167.292 106.452 166.612 108.116 165.364 109.364L166.778 110.778C168.459 109.097 169.244 106.94 169.625 104.106C170.002 101.301 170 97.6858 170 93H168ZM168 58.1504V93H170V58.1504H168ZM132 26.5C132 23.2459 130.748 18.9496 128.727 15.464C126.744 12.0429 123.775 9 120.155 9V11C122.628 11 125.081 13.1612 126.997 16.467C128.876 19.7085 130 23.6622 130 26.5H132ZM151.5 48C154.262 48 158.468 49.2261 161.995 51.2109C163.749 52.1974 165.278 53.3404 166.356 54.5564C167.438 55.7769 168 56.9923 168 58.1504H170C170 56.3275 169.12 54.6585 167.852 53.2294C166.581 51.7957 164.853 50.5237 162.976 49.4679C159.244 47.368 154.7 46 151.5 46V48Z" fill="#9FA8BE" fill-opacity="0.2" mask="url(#path-1-inside-1_158_4743)"/>
</g>
<defs>
<filter id="filter0_d_158_4743" x="0" y="0" width="181" height="127" filterUnits="userSpaceOnUse" color-interpolation-filters="sRGB">
<feFlood flood-opacity="0" result="BackgroundImageFix"/>
<feColorMatrix in="SourceAlpha" type="matrix" values="0 0 0 0 0 0 0 0 0 0 0 0 0 0 0 0 0 0 127 0" result="hardAlpha"/>
<feOffset dy="2"/>
<feGaussianBlur stdDeviation="6"/>
<feComposite in2="hardAlpha" operator="out"/>
<feColorMatrix type="matrix" values="0 0 0 0 0.0901961 0 0 0 0 0.0862745 0 0 0 0 0.105882 0 0 0 0.06 0"/>
<feBlend mode="normal" in2="BackgroundImageFix" result="effect1_dropShadow_158_4743"/>
<feBlend mode="normal" in="SourceGraphic" in2="effect1_dropShadow_158_4743" result="shape"/>
</filter>
</defs>
</svg>
