<svg width="26" height="26" viewBox="0 0 26 26" fill="none" xmlns="http://www.w3.org/2000/svg">
<g clip-path="url(#clip0_342_3838)">
<path d="M8.78598 14.9153L12.6166 18.7449C12.7182 18.8465 12.856 18.9035 12.9996 18.9035C13.1432 18.9035 13.281 18.8465 13.3826 18.7449L17.2132 14.9153C17.3148 14.8138 17.4526 14.7567 17.5962 14.7567C17.7398 14.7567 17.8776 14.8138 17.9791 14.9153L19.6648 16.5999C19.7664 16.7015 19.8234 16.8392 19.8234 16.9829C19.8234 17.1265 19.7664 17.2643 19.6648 17.3658L13.3826 23.6481C13.281 23.7496 13.1432 23.8067 12.9996 23.8067C12.856 23.8067 12.7182 23.7496 12.6166 23.6481L6.33548 17.3658C6.23393 17.2643 6.17688 17.1265 6.17688 16.9829C6.17688 16.8392 6.23393 16.7015 6.33548 16.5999L8.02114 14.9153C8.12272 14.8138 8.26047 14.7567 8.4041 14.7567C8.54773 14.7567 8.68548 14.8138 8.78706 14.9153H8.78598ZM21.8878 10.8691L21.9626 10.9319L23.6482 12.6165C23.738 12.7061 23.7934 12.8244 23.8049 12.9507C23.8164 13.077 23.7832 13.2033 23.7111 13.3077L23.6482 13.3835L21.9626 15.0681C21.8729 15.1578 21.7547 15.2132 21.6284 15.2247C21.5021 15.2362 21.3757 15.203 21.2714 15.1309L21.1966 15.0681L19.511 13.3824C19.4217 13.2927 19.3666 13.1746 19.3553 13.0485C19.3441 12.9225 19.3773 12.7965 19.4492 12.6923L19.511 12.6165L21.1966 10.9319C21.2748 10.8537 21.3751 10.8013 21.4839 10.7817C21.5927 10.7622 21.705 10.7764 21.8055 10.8225L21.8878 10.8691ZM4.80364 10.9319L6.48931 12.6165C6.59086 12.7181 6.6479 12.8558 6.6479 12.9995C6.6479 13.1431 6.59086 13.2808 6.48931 13.3824L4.80364 15.0692C4.70206 15.1707 4.56431 15.2278 4.42068 15.2278C4.27705 15.2278 4.1393 15.1707 4.03773 15.0692L2.35098 13.3824C2.24943 13.2808 2.19238 13.1431 2.19238 12.9995C2.19238 12.8558 2.24943 12.7181 2.35098 12.6165L4.03664 10.9319C4.13822 10.8304 4.27597 10.7733 4.4196 10.7733C4.56323 10.7733 4.70206 10.8304 4.80364 10.9319ZM13.3078 10.8691L13.3836 10.9319L15.0682 12.6165C15.158 12.7061 15.2134 12.8244 15.2249 12.9507C15.2364 13.077 15.2032 13.2033 15.1311 13.3077L15.0682 13.3835L13.3836 15.0681C13.294 15.1578 13.1757 15.2132 13.0494 15.2247C12.9231 15.2362 12.7968 15.203 12.6925 15.1309L12.6166 15.0681L10.9321 13.3824C10.8426 13.2929 10.7873 13.1748 10.7759 13.0487C10.7644 12.9227 10.7974 12.7966 10.8692 12.6923L10.9321 12.6165L12.6166 10.9319C12.6948 10.8537 12.7951 10.8013 12.9039 10.7817C13.0127 10.7622 13.125 10.7764 13.2255 10.8225L13.3078 10.8691ZM13.3836 2.35191L19.6648 8.63308C19.7664 8.73466 19.8234 8.87241 19.8234 9.01604C19.8234 9.15967 19.7664 9.29742 19.6648 9.399L17.9791 11.0847C17.8776 11.1862 17.7398 11.2433 17.5962 11.2433C17.4526 11.2433 17.3148 11.1862 17.2132 11.0847L13.3836 7.25508C13.3333 7.20464 13.2736 7.16462 13.2077 7.13731C13.1419 7.11 13.0714 7.09595 13.0001 7.09595C12.9289 7.09595 12.8583 7.11 12.7925 7.13731C12.7267 7.16462 12.667 7.20464 12.6166 7.25508L8.78706 11.0847C8.68548 11.1862 8.54773 11.2433 8.4041 11.2433C8.26047 11.2433 8.12272 11.1862 8.02114 11.0847L6.33548 9.399C6.23393 9.29742 6.17688 9.15967 6.17688 9.01604C6.17688 8.87241 6.23393 8.73466 6.33548 8.63308L12.6166 2.35191C12.7182 2.25037 12.856 2.19332 12.9996 2.19332C13.1432 2.19332 13.2821 2.25037 13.3836 2.35191Z" fill="#EBB834"/>
</g>
<defs>
<clipPath id="clip0_342_3838">
<rect width="26" height="26" fill="white"/>
</clipPath>
</defs>
</svg>
