<svg width="22" height="22" viewBox="0 0 22 22" fill="none" xmlns="http://www.w3.org/2000/svg">
<path d="M4.09758 10.468L2.50258 8.87305L0.916748 10.468" stroke="#622CFD" stroke-linecap="round" stroke-linejoin="round"/>
<path d="M17.9026 11.5312L19.4976 13.1262L21.0926 11.5312" stroke="#622CFD" stroke-linecap="round" stroke-linejoin="round"/>
<path d="M19.4884 13.1267V11.0001C19.4884 6.30673 15.6842 2.51172 11.0001 2.51172C8.3234 2.51172 5.93089 3.75841 4.37256 5.69258" stroke="#622CFD" stroke-linecap="round" stroke-linejoin="round"/>
<path d="M2.51172 8.87305V10.9997C2.51172 15.6931 6.31589 19.4881 11.0001 19.4881C13.6767 19.4881 16.0692 18.2414 17.6276 16.3072" stroke="#622CFD" stroke-linecap="round" stroke-linejoin="round"/>
<path d="M8.25 7.79199H12.265C13.1542 7.79199 13.8692 8.59866 13.8692 9.39616C13.8692 10.2853 13.1542 11.0003 12.265 11.0003H8.25V7.79199Z" stroke="#622CFD" stroke-miterlimit="10" stroke-linecap="round" stroke-linejoin="round"/>
<path d="M8.25 11H12.8333C13.8417 11 14.6667 11.715 14.6667 12.6042C14.6667 13.4933 13.8417 14.2083 12.8333 14.2083H8.25V11Z" stroke="#622CFD" stroke-miterlimit="10" stroke-linecap="round" stroke-linejoin="round"/>
<path d="M10.8167 14.208V15.8122" stroke="#622CFD" stroke-miterlimit="10" stroke-linecap="round" stroke-linejoin="round"/>
<path d="M10.8167 6.1875V7.79167" stroke="#622CFD" stroke-miterlimit="10" stroke-linecap="round" stroke-linejoin="round"/>
</svg>
