<svg width="35" height="35" viewBox="0 0 35 35" fill="none" xmlns="http://www.w3.org/2000/svg">
<g clip-path="url(#clip0_60_1378)">
<path d="M21.3617 21.0335L21.366 21.0277C21.2312 21.4165 20.977 21.7529 20.6398 21.9888C20.2475 22.2644 19.6963 22.4817 18.9073 22.5196L16.0052 22.5254V18.2525C16.4252 18.2642 18.2875 18.2335 19.0954 18.2744C20.1483 18.3254 20.8031 18.7425 21.1517 19.2485C21.5338 19.7604 21.579 20.4444 21.3617 21.0335ZM18.2569 16.2779C18.9904 16.2429 19.4994 16.0417 19.8625 15.7879C20.1746 15.575 20.4094 15.2527 20.5333 14.8969C20.7288 14.35 20.6894 13.7156 20.335 13.2417C20.0098 12.7765 19.4046 12.39 18.4304 12.3433C17.7085 12.3054 16.3698 12.339 16.0038 12.3288V16.2794C16.0402 16.2852 18.2481 16.2779 18.2569 16.2779ZM35 17.5C35 27.1644 27.1644 35 17.5 35C7.83563 35 0 27.1644 0 17.5C0 7.83563 7.83563 0 17.5 0C27.1644 0 35 7.83563 35 17.5ZM25.3021 20.6238C25.3342 18.4698 23.4938 17.2229 22.5196 16.8729C23.5623 16.1569 24.2783 15.3519 24.2783 13.8323C24.2783 11.4187 21.8779 10.2885 20.4181 10.1442C20.2985 10.131 19.966 10.1252 19.966 10.1252V7.81813H17.5846L17.5904 10.1267H15.9979V7.82688H13.5771V10.115C13.1513 10.1252 10.589 10.1238 10.589 10.1238V12.1669H11.4217C12.2981 12.1902 12.6204 12.6948 12.5854 13.1542V21.964C12.58 22.1085 12.522 22.2462 12.4225 22.3511C12.3229 22.4561 12.1885 22.5211 12.0444 22.5342C11.6813 22.5502 11.1388 22.5342 11.1388 22.5342L10.6721 24.85H13.5829V27.1833H16.0052V24.8631H17.5963V27.1877H19.9646V24.8719C22.734 24.9448 25.2773 23.31 25.3021 20.6238Z" fill="#FFC700"/>
</g>
<defs>
<clipPath id="clip0_60_1378">
<rect width="35" height="35" fill="white"/>
</clipPath>
</defs>
</svg>
