<svg width="22" height="22" viewBox="0 0 22 22" fill="none" xmlns="http://www.w3.org/2000/svg">
<path d="M4.09752 10.4685L2.50252 8.87354L0.916687 10.4685" stroke="#958F9F" stroke-linecap="round" stroke-linejoin="round"/>
<path d="M17.9025 11.5317L19.4975 13.1267L21.0925 11.5317" stroke="#958F9F" stroke-linecap="round" stroke-linejoin="round"/>
<path d="M19.4883 13.1267V11.0001C19.4883 6.30673 15.6842 2.51172 11 2.51172C8.32333 2.51172 5.93083 3.75841 4.3725 5.69258" stroke="#958F9F" stroke-linecap="round" stroke-linejoin="round"/>
<path d="M2.51166 8.87354V11.0002C2.51166 15.6935 6.31583 19.4886 11 19.4886C13.6767 19.4886 16.0692 18.2419 17.6275 16.3077" stroke="#958F9F" stroke-linecap="round" stroke-linejoin="round"/>
<path d="M8.25 7.7915H12.265C13.1542 7.7915 13.8692 8.59817 13.8692 9.39567C13.8692 10.2848 13.1542 10.9998 12.265 10.9998H8.25V7.7915Z" stroke="#958F9F" stroke-miterlimit="10" stroke-linecap="round" stroke-linejoin="round"/>
<path d="M8.25 11H12.8333C13.8417 11 14.6667 11.715 14.6667 12.6042C14.6667 13.4933 13.8417 14.2083 12.8333 14.2083H8.25V11Z" stroke="#958F9F" stroke-miterlimit="10" stroke-linecap="round" stroke-linejoin="round"/>
<path d="M10.8167 14.2085V15.8127" stroke="#958F9F" stroke-miterlimit="10" stroke-linecap="round" stroke-linejoin="round"/>
<path d="M10.8167 6.1875V7.79167" stroke="#958F9F" stroke-miterlimit="10" stroke-linecap="round" stroke-linejoin="round"/>
</svg>
