<svg width="108" height="105" viewBox="0 0 108 105" fill="none" xmlns="http://www.w3.org/2000/svg">
<g clip-path="url(#clip0_198_3416)">
<path d="M74.6671 34.7788L74.8378 35.292H75.3787H87.542C88.3266 35.292 89.0791 35.6037 89.6339 36.1585C90.1887 36.7133 90.5004 37.4657 90.5004 38.2503C90.5004 39.0349 90.1887 39.7874 89.6339 40.3422C89.0791 40.897 88.3266 41.2087 87.542 41.2087H86.823L86.7927 41.927L86.782 42.1794L83.5677 87.1987C83.5677 87.1988 83.5677 87.1988 83.5677 87.1988C83.3805 89.8154 82.2091 92.264 80.2893 94.0516C78.3694 95.8393 75.8437 96.8333 73.2204 96.8337H42.5303C39.9071 96.8333 37.3813 95.8393 35.4614 94.0516C33.5416 92.264 32.3702 89.8154 32.183 87.1988C32.183 87.1988 32.183 87.1988 32.183 87.1987L28.9679 42.1648L28.9676 42.1602C28.9622 42.0911 28.9592 42.0218 28.9587 41.9526L28.9526 41.2087H28.2087C27.4241 41.2087 26.6716 40.897 26.1168 40.3422C25.562 39.7874 25.2504 39.0349 25.2504 38.2503C25.2504 37.4657 25.562 36.7133 26.1168 36.1585L25.5865 35.6281L26.1168 36.1585C26.6716 35.6037 27.4241 35.292 28.2087 35.292H40.372H40.9129L41.0837 34.7788L43.0972 28.727C43.0973 28.7269 43.0973 28.7268 43.0973 28.7268C43.5396 27.3988 44.3887 26.2438 45.5242 25.4254C46.6598 24.6069 48.0241 24.1667 49.4239 24.167H49.4241L66.3302 24.167C66.3302 24.167 66.3303 24.167 66.3304 24.167C67.7295 24.1674 69.093 24.608 70.2279 25.4264L70.6621 24.8243L70.2279 25.4264C71.3627 26.2448 72.2114 27.3995 72.6535 28.727L74.6671 34.7788ZM46.7504 52.3337H46.7503C45.6583 52.3338 44.6043 52.7347 43.7883 53.4603C42.9722 54.186 42.4509 55.1859 42.3231 56.2704L42.3206 56.2918L42.3193 56.3133L42.2934 56.7472L42.292 56.7696V56.792V79.042V79.0428C42.2933 80.1792 42.7284 81.2721 43.5085 82.0984C44.2886 82.9247 45.3547 83.422 46.4891 83.4885C47.6235 83.5551 48.7405 83.1861 49.6119 82.4567C50.4833 81.7274 51.0433 80.6928 51.1775 79.5644L51.1801 79.5426L51.1814 79.5207L51.2074 79.0868L51.2087 79.0644V79.042V56.792C51.2087 55.6096 50.739 54.4756 49.9029 53.6395C49.0668 52.8034 47.9328 52.3337 46.7504 52.3337ZM67.0419 30.5967L66.8711 30.0837H66.3304H49.4204H48.8796L48.7088 30.5967L47.4739 34.305L47.1453 35.292H48.1855H67.5652H68.6055L68.2768 34.305L67.0419 30.5967ZM69.0004 52.3337C67.8179 52.3337 66.6839 52.8034 65.8478 53.6395C65.0117 54.4756 64.542 55.6096 64.542 56.792V79.042C64.542 80.2244 65.0117 81.3584 65.8478 82.1945C66.684 83.0306 67.8179 83.5003 69.0004 83.5003C70.1828 83.5003 71.3168 83.0306 72.1529 82.1945C72.989 81.3584 73.4587 80.2244 73.4587 79.042V56.792C73.4587 55.6096 72.989 54.4756 72.1529 53.6395C71.3168 52.8034 70.1828 52.3337 69.0004 52.3337Z" fill="#FFC700" stroke="#17161B" stroke-width="1.5"/>
</g>
<path d="M101.375 36L102.146 40.4165C102.218 40.832 102.543 41.1574 102.959 41.2298L107.375 42L102.959 42.7702C102.544 42.8426 102.218 43.168 102.146 43.5835L101.375 48L100.605 43.5835C100.533 43.168 100.207 42.8426 99.792 42.7702L95.3755 42L99.792 41.2298C100.207 41.1574 100.533 40.832 100.605 40.4165L101.375 36Z" fill="#17161B"/>
<path d="M6.88586 50.6354L5.89834 52.7372C5.71898 53.119 5.79842 53.5722 6.09692 53.8702L7.7404 55.5109L5.6386 54.5233C5.25685 54.344 4.80362 54.4234 4.50563 54.7219L2.86498 56.3654L3.8525 54.2636C4.03186 53.8819 3.95242 53.4286 3.65392 53.1306L2.01043 51.49L4.11224 52.4775C4.49398 52.6569 4.94722 52.5774 5.2452 52.2789L6.88586 50.6354Z" fill="#17161B"/>
<path d="M87.3754 2L87.5516 3.01045C87.624 3.42596 87.9494 3.75133 88.3649 3.82379L89.3754 4L88.3649 4.17621C87.9494 4.24867 87.624 4.57404 87.5516 4.98955L87.3754 6L87.1992 4.98955C87.1267 4.57404 86.8013 4.24867 86.3858 4.17621L85.3754 4L86.3858 3.82379C86.8013 3.75133 87.1267 3.42596 87.1992 3.01045L87.3754 2Z" fill="#17161B"/>
<path d="M18.3754 0L20.0315 9.10089C20.1069 9.51575 20.4346 9.83868 20.8505 9.90818L30.3754 11.5L20.8505 13.0918C20.4346 13.1613 20.1069 13.4842 20.0315 13.8991L18.3754 23L16.7193 13.8991C16.6438 13.4842 16.3162 13.1613 15.9003 13.0918L6.37537 11.5L15.9003 9.90818C16.3162 9.83868 16.6438 9.51575 16.7193 9.10089L18.3754 0Z" fill="#17161B"/>
<defs>
<clipPath id="clip0_198_3416">
<rect width="89" height="89" fill="white" transform="translate(13.3754 16)"/>
</clipPath>
</defs>
</svg>
