<svg width="35" height="35" viewBox="0 0 35 35" fill="none" xmlns="http://www.w3.org/2000/svg">
<g clip-path="url(#clip0_60_1427)">
<path d="M17.5 35C27.165 35 35 27.165 35 17.5C35 7.83502 27.165 0 17.5 0C7.83502 0 0 7.83502 0 17.5C0 27.165 7.83502 35 17.5 35Z" fill="#C3A634"/>
<path fill-rule="evenodd" clip-rule="evenodd" d="M14.49 15.9797H19.2084V18.48H14.49V23.7497H17.4661C18.6441 23.7497 19.6077 23.5911 20.358 23.2717C21.1083 22.9534 21.6967 22.5127 22.1244 21.9483C22.5618 21.3614 22.8595 20.6824 22.995 19.9631C23.153 19.1517 23.23 18.3266 23.2247 17.5C23.23 16.6734 23.153 15.8483 22.995 15.0369C22.8597 14.3175 22.5619 13.6385 22.1244 13.0517C21.6967 12.4873 21.1072 12.0466 20.358 11.7283C19.6077 11.4089 18.6441 11.2503 17.4661 11.2503H14.49V15.9808V15.9797ZM11.4647 18.48H9.84375V15.9808H11.4647V8.75H18.6277C19.9511 8.75 21.0963 8.97969 22.0642 9.43578C23.0322 9.89406 23.8219 10.5186 24.4355 11.3116C25.048 12.1034 25.5041 13.0309 25.8027 14.093C26.1012 15.155 26.25 16.2914 26.25 17.5C26.2575 18.6509 26.1066 19.7973 25.8016 20.907C25.5041 21.968 25.048 22.8966 24.4344 23.6884C23.8219 24.4814 23.0322 25.1059 22.0642 25.5642C21.0963 26.0214 19.95 26.25 18.6277 26.25H11.4647V18.48Z" fill="white"/>
</g>
<defs>
<clipPath id="clip0_60_1427">
<rect width="35" height="35" fill="white"/>
</clipPath>
</defs>
</svg>
