<svg width="196" height="85" viewBox="0 0 196 85" fill="none" xmlns="http://www.w3.org/2000/svg">
<path d="M104.475 83.6223C85.7496 83.6223 70.5696 68.4261 70.5696 49.6808C70.5696 30.9354 85.7496 15.7393 104.475 15.7393C123.201 15.7393 138.381 30.9354 138.381 49.6808C138.381 68.4261 123.201 83.6223 104.475 83.6223Z" fill="#FFE178"/>
<path d="M106.558 83.3913C88.9878 83.3913 74.7442 69.1477 74.7442 51.5774C74.7442 34.007 88.9878 19.7634 106.558 19.7634C124.128 19.7634 138.372 34.007 138.372 51.5774C138.372 69.1477 124.128 83.3913 106.558 83.3913Z" fill="#FFC700"/>
<path d="M138.794 53.062C138.014 61.0113 134.505 68.4439 128.864 74.0936C125.669 77.3109 121.868 79.8619 117.682 81.5989C113.495 83.336 109.006 84.2245 104.474 84.213C96.4947 84.2141 88.7621 81.4458 82.5932 76.3797C76.4242 71.3134 72.2009 64.2627 70.6427 56.4288C69.0845 48.595 70.2879 40.4626 74.0479 33.4173C77.8078 26.372 83.8917 20.8497 91.2631 17.7913C98.6344 14.7329 106.837 14.3276 114.473 16.6446C122.11 18.9616 128.707 23.8575 133.142 30.498C137.577 37.1384 139.574 45.1127 138.794 53.062ZM104.475 83.0349C122.846 83.0349 137.795 68.0724 137.795 49.6795C137.795 31.2877 122.847 16.324 104.475 16.324C86.1019 16.324 71.1548 31.2865 71.1548 49.6795C71.1548 68.0724 86.1031 83.0349 104.475 83.0349Z" fill="#17161B" stroke="#17161B" stroke-width="0.6"/>
<path d="M103.054 64.4137L103.054 64.4137C103.841 65.2022 104.909 65.6451 106.023 65.6455C106.248 65.6453 106.472 65.6274 106.695 65.592C107.35 65.4855 107.97 65.2249 108.506 64.8317C109.041 64.4381 109.476 63.9228 109.774 63.3281L109.775 63.3275L130.707 21.6648C130.707 21.6648 130.707 21.6648 130.707 21.6648C131.208 20.6685 131.293 19.5138 130.943 18.4549C130.593 17.396 129.837 16.5199 128.843 16.019C127.848 15.5181 126.695 15.4334 125.638 15.7834C124.58 16.1334 123.705 16.8896 123.205 17.8859L122.534 17.5492L123.205 17.8859L105.349 53.425L104.883 54.3531L104.148 53.6186L89.6437 39.1093C88.8494 38.3667 87.7984 37.9613 86.7117 37.9784C85.6213 37.9956 84.5802 38.4369 83.8088 39.2091C83.0374 39.9813 82.5963 41.0239 82.5791 42.1161C82.562 43.2046 82.9672 44.257 83.709 45.0522L103.054 64.4137Z" fill="white" stroke="#17161B" stroke-width="1.5"/>
<path d="M71 0L72.6561 9.10089C72.7316 9.51575 73.0592 9.83868 73.4751 9.90818L83 11.5L73.4751 13.0918C73.0592 13.1613 72.7316 13.4842 72.6561 13.8991L71 23L69.3439 13.8991C69.2684 13.4842 68.9408 13.1613 68.5249 13.0918L59 11.5L68.5249 9.90818C68.9408 9.83868 69.2684 9.51575 69.3439 9.10089L71 0Z" fill="#17161B"/>
<path d="M184.513 51.8818L187.264 54.8547C187.551 55.1643 188.001 55.2607 188.389 55.0959L192.118 53.5129L189.145 56.2646C188.835 56.5511 188.739 57.001 188.904 57.3893L190.487 61.1181L187.735 58.1452C187.449 57.8357 186.999 57.7392 186.61 57.904L182.882 59.4871L185.855 56.7353C186.164 56.4488 186.261 55.9989 186.096 55.6107L184.513 51.8818Z" fill="#17161B"/>
<path d="M148 25.0002L148.77 29.4167C148.843 29.8322 149.168 30.1576 149.584 30.2301L154 31.0002L149.584 31.7704C149.168 31.8429 148.843 32.1683 148.77 32.5838L148 37.0002L147.23 32.5838C147.157 32.1683 146.832 31.8429 146.416 31.7704L142 31.0002L146.416 30.2301C146.832 30.1576 147.157 29.8322 147.23 29.4167L148 25.0002Z" fill="#17161B"/>
<path d="M23.0465 55.1235L22.7897 58.2893C22.7557 58.7089 22.988 59.1048 23.3709 59.2797L25.8902 60.4304L23.1229 60.3169C22.7023 60.2996 22.3159 60.5476 22.1564 60.9372L20.9532 63.8767L21.2101 60.7109C21.2441 60.2913 21.0117 59.8953 20.6288 59.7204L18.1096 58.5697L20.8768 58.6833C21.2975 58.7005 21.6838 58.4525 21.8433 58.0629L23.0465 55.1235Z" fill="#17161B"/>
<path d="M4.46262 18.6916L6.80745 21.4479C7.08075 21.7692 7.52623 21.8844 7.92103 21.736L11.3083 20.4625L8.55202 22.8074C8.23076 23.0807 8.11552 23.5261 8.26394 23.9209L9.53741 27.3082L7.19257 24.5519C6.91928 24.2307 6.4738 24.1154 6.079 24.2639L2.69169 25.5373L5.44801 23.1925C5.76927 22.9192 5.88451 22.4737 5.73608 22.0789L4.46262 18.6916Z" fill="#17161B"/>
<path d="M179 9L179.325 10.862C179.397 11.2775 179.723 11.6028 180.138 11.6753L182 12L180.138 12.3247C179.723 12.3972 179.397 12.7225 179.325 13.138L179 15L178.675 13.138C178.603 12.7225 178.277 12.3972 177.862 12.3247L176 12L177.862 11.6753C178.277 11.6028 178.603 11.2775 178.675 10.862L179 9Z" fill="#17161B"/>
<path d="M53.5105 39.635L52.523 41.7368C52.3436 42.1185 52.4231 42.5717 52.7216 42.8697L54.365 44.5104L52.2632 43.5229C51.8815 43.3435 51.4283 43.4229 51.1303 43.7214L49.4896 45.3649L50.4771 43.2631C50.6565 42.8814 50.5771 42.4281 50.2786 42.1302L48.6351 40.4895L50.7369 41.477C51.1186 41.6564 51.5719 41.5769 51.8698 41.2784L53.5105 39.635Z" fill="#17161B"/>
</svg>
