<svg width="196" height="85" viewBox="0 0 196 85" fill="none" xmlns="http://www.w3.org/2000/svg">
<path d="M104.475 83.6223C85.7496 83.6223 70.5696 68.4261 70.5696 49.6808C70.5696 30.9354 85.7496 15.7393 104.475 15.7393C123.201 15.7393 138.381 30.9354 138.381 49.6808C138.381 68.4261 123.201 83.6223 104.475 83.6223Z" fill="#FF6464"/>
<path d="M106.186 82.6282C88.6157 82.6282 74.3721 68.3846 74.3721 50.8142C74.3721 33.2438 88.6157 19.0002 106.186 19.0002C123.756 19.0002 138 33.2438 138 50.8142C138 68.3846 123.756 82.6282 106.186 82.6282Z" fill="#FA3131"/>
<path d="M138.135 52.6021C137.355 60.5513 133.845 67.984 128.205 73.6336C125.01 76.8509 121.209 79.4019 117.023 81.1389C112.836 82.876 108.347 83.7645 103.815 83.753C95.8355 83.7542 88.1029 80.9858 81.9341 75.9197C75.765 70.8535 71.5417 63.8027 69.9835 55.9688C68.4253 48.135 69.6287 40.0026 73.3887 32.9574C77.1486 25.9121 83.2325 20.3897 90.6039 17.3313C97.9752 14.2729 106.178 13.8677 113.814 16.1847C121.451 18.5017 128.048 23.3975 132.483 30.038C136.917 36.6784 138.915 44.6527 138.135 52.6021ZM103.815 82.5749C122.187 82.5749 137.135 67.6124 137.135 49.2195C137.135 30.8277 122.188 15.8641 103.815 15.8641C85.4427 15.8641 70.4956 30.8266 70.4956 49.2195C70.4956 67.6124 85.4439 82.5749 103.815 82.5749Z" fill="#17161B" stroke="#17161B" stroke-width="0.6"/>
<path d="M91.7338 65.8405L103.5 54.0742L115.266 65.8405C115.881 66.4549 116.664 66.7502 117.553 66.7502C118.443 66.7502 119.226 66.4549 119.84 65.8405C120.455 65.226 120.75 64.4431 120.75 63.5535C120.75 62.6639 120.455 61.881 119.84 61.2665L108.074 49.5002L119.84 37.734C120.455 37.1195 120.75 36.3366 120.75 35.447C120.75 34.5574 120.455 33.7745 119.84 33.16C119.226 32.5456 118.443 32.2502 117.553 32.2502C116.664 32.2502 115.881 32.5456 115.266 33.16L103.5 44.9263L91.7338 33.16C91.1193 32.5456 90.3364 32.2502 89.4468 32.2502C88.5571 32.2502 87.7743 32.5456 87.1598 33.16C86.5453 33.7745 86.25 34.5574 86.25 35.447C86.25 36.3366 86.5453 37.1195 87.1598 37.734L98.926 49.5002L87.1598 61.2665C86.5453 61.881 86.25 62.6639 86.25 63.5535C86.25 64.4431 86.5453 65.226 87.1598 65.8405C87.7743 66.4549 88.5571 66.7502 89.4468 66.7502C90.3364 66.7502 91.1193 66.4549 91.7338 65.8405Z" fill="white" stroke="#17161B" stroke-width="1.5"/>
<path d="M71 0L72.6561 9.10089C72.7316 9.51575 73.0592 9.83868 73.4751 9.90818L83 11.5L73.4751 13.0918C73.0592 13.1613 72.7316 13.4842 72.6561 13.8991L71 23L69.3439 13.8991C69.2684 13.4842 68.9408 13.1613 68.5249 13.0918L59 11.5L68.5249 9.90818C68.9408 9.83868 69.2684 9.51575 69.3439 9.10089L71 0Z" fill="#17161B"/>
<path d="M184.513 51.8818L187.264 54.8547C187.551 55.1643 188.001 55.2607 188.389 55.0959L192.118 53.5129L189.145 56.2646C188.835 56.5511 188.739 57.001 188.904 57.3893L190.487 61.1181L187.735 58.1452C187.449 57.8357 186.999 57.7392 186.61 57.904L182.882 59.4871L185.855 56.7353C186.164 56.4488 186.261 55.9989 186.096 55.6107L184.513 51.8818Z" fill="#17161B"/>
<path d="M148 25.0002L148.77 29.4167C148.843 29.8322 149.168 30.1576 149.584 30.2301L154 31.0002L149.584 31.7704C149.168 31.8429 148.843 32.1683 148.77 32.5838L148 37.0002L147.23 32.5838C147.157 32.1683 146.832 31.8429 146.416 31.7704L142 31.0002L146.416 30.2301C146.832 30.1576 147.157 29.8322 147.23 29.4167L148 25.0002Z" fill="#17161B"/>
<path d="M23.0465 55.1235L22.7897 58.2893C22.7557 58.7089 22.988 59.1048 23.3709 59.2797L25.8902 60.4304L23.1229 60.3169C22.7023 60.2996 22.3159 60.5476 22.1564 60.9372L20.9532 63.8767L21.2101 60.7109C21.2441 60.2913 21.0117 59.8953 20.6288 59.7204L18.1096 58.5697L20.8768 58.6833C21.2975 58.7005 21.6838 58.4525 21.8433 58.0629L23.0465 55.1235Z" fill="#17161B"/>
<path d="M4.46262 18.6916L6.80745 21.4479C7.08075 21.7692 7.52623 21.8844 7.92103 21.736L11.3083 20.4625L8.55202 22.8074C8.23076 23.0807 8.11552 23.5261 8.26394 23.9209L9.53741 27.3082L7.19257 24.5519C6.91928 24.2307 6.4738 24.1154 6.079 24.2639L2.69169 25.5373L5.44801 23.1925C5.76927 22.9192 5.88451 22.4737 5.73608 22.0789L4.46262 18.6916Z" fill="#17161B"/>
<path d="M179 9L179.325 10.862C179.397 11.2775 179.723 11.6028 180.138 11.6753L182 12L180.138 12.3247C179.723 12.3972 179.397 12.7225 179.325 13.138L179 15L178.675 13.138C178.603 12.7225 178.277 12.3972 177.862 12.3247L176 12L177.862 11.6753C178.277 11.6028 178.603 11.2775 178.675 10.862L179 9Z" fill="#17161B"/>
<path d="M53.5105 39.635L52.523 41.7368C52.3436 42.1185 52.4231 42.5717 52.7216 42.8697L54.365 44.5104L52.2632 43.5229C51.8815 43.3435 51.4283 43.4229 51.1303 43.7214L49.4896 45.3649L50.4771 43.2631C50.6565 42.8814 50.5771 42.4281 50.2786 42.1302L48.6351 40.4895L50.7369 41.477C51.1186 41.6564 51.5719 41.5769 51.8698 41.2784L53.5105 39.635Z" fill="#17161B"/>
</svg>
