<svg version="1.2" xmlns="http://www.w3.org/2000/svg" viewBox="0 0 35 35" width="35" height="35">
	<title>ethereum-svg</title>
	<style>
		.s0 { fill: #3a3a3a } 
	</style>
	<path id="Layer" fill-rule="evenodd" class="s0" d="m1.5 17.5c0-8.9 7.1-16 16-16 8.9 0 16 7.1 16 16 0 8.9-7.1 16-16 16-8.9 0-16-7.1-16-16zm17.2-11.1q-0.2-0.2-0.5-0.4-0.3-0.2-0.7-0.2-0.4 0-0.7 0.2-0.3 0.2-0.5 0.4l-7.3 10.3q-0.2 0.3-0.3 0.8 0.1 0.5 0.3 0.8l7.3 10.3q0.2 0.2 0.5 0.4 0.3 0.2 0.7 0.2 0.4 0 0.7-0.2 0.3-0.2 0.5-0.4l7.3-10.3q0.2-0.3 0.2-0.8 0-0.5-0.2-0.8zm-1.2 12.4l-3.4-1.4 3.4-1.3 3.4 1.3zm0.5 2.9l2.7-1-3.2 4.5-3.3-4.5 2.7 1c0.4 0.2 0.7 0.2 1.1 0zm2.7-7.4l-2.7-1.1c-0.4-0.1-0.7-0.1-1.1 0l-2.7 1.1 3.3-4.5z"/>
</svg>