<svg version="1.2" xmlns="http://www.w3.org/2000/svg" viewBox="0 0 34 34" width="20" height="20"><style>.a{fill:#4d66ff}.b{fill:#fff}</style><path class="a" d="m34 17c0-9.4-7.6-17-17-17-9.4 0-17 7.6-17 17 0 8.5 6.2 15.5 14.3 16.8v-11.9h-4.3v-4.9h4.3v-3.7c0-4.3 2.6-6.7 6.5-6.7 1.8 0 3.8 0.4 3.8 0.4v4.2h-2.2c-2.1 0-2.7 1.3-2.7 2.6v3.2h4.7l-0.8 4.9h-3.9v11.9c8.1-1.3 14.3-8.3 14.3-16.8z"/><path class="b" d="m23.6 21.9l0.8-4.9h-4.7v-3.2c0-1.3 0.6-2.6 2.7-2.6h2.2v-4.2c0 0-2-0.4-3.8-0.4-3.9 0-6.5 2.4-6.5 6.7v3.7h-4.3v4.9h4.3v11.9q1.4 0.2 2.7 0.2 1.3 0 2.7-0.2v-11.9z"/></svg>