<svg version="1.2" xmlns="http://www.w3.org/2000/svg" viewBox="0 0 29 29" width="20" height="20"><style>.a{fill:#ffc107}.b{fill:#ff3d00}.c{fill:#4caf50}.d{fill:#4d66ff}</style><path class="a" d="m28.1 11.4h-1.2v-0.1h-12.7v5.7h8c-1.2 3.3-4.3 5.7-8 5.7-4.7 0-8.5-3.8-8.5-8.5 0-4.7 3.8-8.5 8.5-8.5 2.1 0 4.1 0.8 5.6 2.1l4-4c-2.5-2.3-5.9-3.8-9.6-3.8-7.9 0-14.2 6.3-14.2 14.2 0 7.8 6.3 14.1 14.2 14.1 7.8 0 14.1-6.3 14.1-14.1q0-1.5-0.2-2.8z"/><path class="b" d="m1.6 7.6l4.7 3.4c1.2-3.1 4.3-5.3 7.9-5.3 2.1 0 4.1 0.8 5.6 2.1l4-4c-2.5-2.3-5.9-3.8-9.6-3.8-5.5 0-10.2 3.1-12.6 7.6z"/><path class="c" d="m14.2 28.3c3.6 0 7-1.4 9.5-3.6l-4.4-3.8c-1.5 1.2-3.3 1.8-5.1 1.8-3.7 0-6.8-2.4-8-5.7l-4.6 3.6c2.3 4.6 7.1 7.7 12.6 7.7z"/><path class="d" d="m28.1 11.4h-1.2v-0.1h-12.7v5.7h8c-0.6 1.6-1.6 2.9-2.9 3.9l4.4 3.8c-0.3 0.2 4.6-3.4 4.6-10.5q0-1.5-0.2-2.8z"/></svg>