<svg width="26" height="26" viewBox="0 0 26 26" fill="none" xmlns="http://www.w3.org/2000/svg">
<g clip-path="url(#clip0_342_3850)">
<path d="M13 0C10.4288 0 7.91543 0.762437 5.77759 2.1909C3.63975 3.61935 1.97351 5.64968 0.989572 8.02512C0.00563272 10.4006 -0.251811 13.0144 0.249797 15.5362C0.751405 18.0579 1.98954 20.3743 3.80762 22.1924C5.6257 24.0105 7.94208 25.2486 10.4638 25.7502C12.9856 26.2518 15.5995 25.9944 17.9749 25.0104C20.3503 24.0265 22.3807 22.3603 23.8091 20.2224C25.2376 18.0846 26 15.5712 26 13C26 9.55219 24.6304 6.24558 22.1924 3.80761C19.7544 1.36964 16.4478 0 13 0ZM12.7162 3.9845H15.5155C15.5728 3.98457 15.6292 3.99788 15.6805 4.02338C15.7318 4.04888 15.7765 4.08588 15.8111 4.1315C15.8457 4.17712 15.8693 4.23013 15.88 4.28637C15.8908 4.34262 15.8884 4.40059 15.873 4.45575L13.6738 11.9503L15.7376 11.3198L15.2956 12.8202L13.2113 13.4268L11.8593 17.992H19.0916C19.1489 17.9923 19.2054 18.0059 19.2566 18.0316C19.3078 18.0574 19.3523 18.0947 19.3868 18.1405C19.4212 18.1864 19.4445 18.2395 19.4549 18.2959C19.4654 18.3523 19.4626 18.4103 19.4469 18.4654L18.8164 20.6321C18.7862 20.7352 18.7235 20.8257 18.6376 20.8901C18.5516 20.9546 18.4472 20.9895 18.3398 20.9896H7.29409L9.16067 14.6824L7.09584 15.3108L7.55084 13.8363L9.62001 13.208L12.2438 4.34633C12.2726 4.24271 12.3344 4.15131 12.4199 4.086C12.5053 4.0207 12.6097 3.98506 12.7173 3.9845H12.7162Z" fill="#032D9B"/>
</g>
<defs>
<clipPath id="clip0_342_3850">
<rect width="26" height="26" fill="white"/>
</clipPath>
</defs>
</svg>
