<svg width="22" height="22" viewBox="0 0 22 22" fill="none" xmlns="http://www.w3.org/2000/svg">
<path d="M17.4167 10.0835H4.58333C3.57081 10.0835 2.75 10.9043 2.75 11.9168V18.3335C2.75 19.346 3.57081 20.1668 4.58333 20.1668H17.4167C18.4292 20.1668 19.25 19.346 19.25 18.3335V11.9168C19.25 10.9043 18.4292 10.0835 17.4167 10.0835Z" fill="#958F9F"/>
<path d="M6.41699 10.0835V6.41683C6.41699 5.20125 6.89988 4.03547 7.75942 3.17592C8.61896 2.31638 9.78475 1.8335 11.0003 1.8335C12.2159 1.8335 13.3817 2.31638 14.2412 3.17592C15.1008 4.03547 15.5837 5.20125 15.5837 6.41683V10.0835" stroke="#958F9F" stroke-width="1.5" stroke-linecap="round" stroke-linejoin="round"/>
</svg>
