<svg width="46" height="20" viewBox="0 0 46 20" fill="none" xmlns="http://www.w3.org/2000/svg">
<g clip-path="url(#clip0_26_1000)">
<path d="M17.4651 0.25614L11.4425 14.2839H7.51345L4.54969 3.08842C4.37 2.40053 4.21385 2.14737 3.66706 1.85649C2.7733 1.38246 1.29734 0.939123 0 0.663333L0.0875078 0.25614H6.41323C7.21823 0.25614 7.94309 0.779474 8.12745 1.68561L9.69342 9.80368L13.5596 0.25614H17.4651ZM22.7766 0.25614L19.7035 14.2839H15.9861L19.0596 0.25614H22.7766ZM32.86 9.70386C32.8754 6.00228 27.6178 5.79684 27.6521 4.14298C27.6647 3.64018 28.1552 3.10491 29.229 2.96807C29.7609 2.90088 31.2304 2.84737 32.8949 3.59614L33.546 0.619649C32.6517 0.30386 31.5008 0 30.0693 0C26.3947 0 23.8099 1.90561 23.7892 4.63649C23.7651 6.65649 25.6355 7.78228 27.0421 8.45509C28.4909 9.14211 28.9768 9.58368 28.9701 10.1977C28.9597 11.1389 27.8129 11.5556 26.7468 11.5711C24.8774 11.6 23.7937 11.0777 22.9292 10.6846L22.2545 13.7596C23.1242 14.1488 24.727 14.4868 26.3871 14.504C30.2935 14.504 32.8485 12.6202 32.86 9.70386ZM42.5631 14.2839H46L42.9974 0.25614H39.8265C39.1113 0.25614 38.5103 0.661404 38.2436 1.28439L32.6661 14.2839H36.5695L37.3437 12.1884H42.1126L42.5631 14.2839ZM38.4141 9.31386L40.3713 4.04597L41.4956 9.31386H38.414H38.4141ZM27.5341 18.1451H26.0236V19.5175H27.713V19.9302H25.5147V16.1228H27.6264V16.5354H26.0236V17.7384H27.5339V18.1454L27.5341 18.1451ZM28.4934 15.9195H29.0023V19.93H28.4934V15.9195ZM30.2863 18.6533C30.2978 19.3258 30.732 19.6025 31.2466 19.6025C31.6113 19.6025 31.8369 19.5404 32.0223 19.4614L32.1147 19.8174C31.9353 19.8963 31.623 19.9923 31.1772 19.9923C30.3154 19.9923 29.8006 19.4332 29.8006 18.6082C29.8006 17.7837 30.2978 17.1395 31.1138 17.1395C32.0338 17.1395 32.271 17.9193 32.271 18.4219C32.271 18.5235 32.265 18.5968 32.2534 18.6535L30.2863 18.6533ZM31.779 18.2975C31.7849 17.987 31.646 17.4954 31.0732 17.4954C30.5524 17.4954 30.3325 17.953 30.2919 18.2975H31.779ZM35.041 19.834C34.9081 19.8963 34.6128 19.9925 34.2369 19.9925C33.3922 19.9925 32.8426 19.4332 32.8426 18.597C32.8426 17.7553 33.4325 17.1396 34.3467 17.1396C34.6475 17.1396 34.9136 17.2128 35.0525 17.2865L34.9372 17.6649C34.8152 17.6028 34.6243 17.5347 34.3467 17.5347C33.7043 17.5347 33.3575 18.0037 33.3575 18.5689C33.3575 19.2014 33.7741 19.5912 34.3295 19.5912C34.6188 19.5912 34.8096 19.5235 34.9543 19.4614L35.041 19.834ZM36.4692 16.5407V17.196H37.198V17.5742H36.4692V19.0488C36.4692 19.3881 36.5677 19.5798 36.851 19.5798C36.9897 19.5798 37.071 19.5688 37.1463 19.5458L37.1694 19.9247C37.071 19.9584 36.9148 19.9923 36.7181 19.9923C36.4807 19.9923 36.2897 19.9132 36.1684 19.7835C36.0295 19.6307 35.9716 19.3881 35.9716 19.066V17.5742H35.5375V17.196H35.9716V16.6877L36.4694 16.5409L36.4692 16.5407ZM37.909 18.0491C37.909 17.727 37.9029 17.4503 37.8859 17.196H38.3315L38.3548 17.7381H38.3717C38.4993 17.3712 38.8114 17.1395 39.1526 17.1395C39.2049 17.1395 39.2455 17.1453 39.2919 17.1507V17.6198C39.2398 17.6082 39.1879 17.6082 39.118 17.6082C38.7597 17.6082 38.5047 17.8681 38.4355 18.2412C38.4236 18.3179 38.4178 18.3953 38.4181 18.4728V19.9304H37.909V18.0491ZM42.4212 18.5404C42.4212 19.5516 41.6977 19.9923 41.0268 19.9923C40.2744 19.9923 39.6845 19.4498 39.6845 18.5858C39.6845 17.6761 40.3035 17.1396 41.0731 17.1396C41.8773 17.1396 42.4212 17.7097 42.4212 18.5404ZM40.2051 18.5688C40.2051 19.1675 40.5522 19.6196 41.0498 19.6196C41.536 19.6196 41.9002 19.173 41.9002 18.5574C41.9002 18.0942 41.6631 17.5121 41.0613 17.5121C40.4656 17.5121 40.2051 18.0547 40.2051 18.5688ZM43.2014 17.936C43.2014 17.6481 43.1953 17.4219 43.178 17.1961H43.6294L43.6583 17.6481H43.6698C43.8087 17.3937 44.1327 17.1396 44.5956 17.1396C44.983 17.1396 45.5849 17.3656 45.5849 18.303V19.9302H45.0759V18.354C45.0759 17.9137 44.908 17.5461 44.4279 17.5461C44.098 17.5461 43.8375 17.7779 43.7453 18.0546C43.7219 18.1168 43.7104 18.2014 43.7104 18.2863V19.9302H43.2014V17.936Z" fill="white"/>
</g>
<defs>
<clipPath id="clip0_26_1000">
<rect width="46" height="20" fill="white"/>
</clipPath>
</defs>
</svg>
