<svg width="52" height="30" viewBox="0 0 52 30" fill="none" xmlns="http://www.w3.org/2000/svg">
<path d="M2.01061 11.0929L1 12.9944V29.5H51.5V19L51.01 17.6296C50.52 16.2591 49.54 13.5183 48.56 11.0368C47.5801 8.55541 46.6001 6.3334 45.6201 7.2664C44.6401 8.1994 43.6601 12.2874 42.6801 12.2606C41.7001 12.2337 40.7201 8.09205 39.7401 7.69746C38.7602 7.30288 37.7802 10.6554 36.8002 10.4004C35.8202 10.1454 34.8402 6.28287 33.8602 3.74851C32.8802 1.21414 31.9002 0.00793338 30.9203 1.98776C29.9403 3.96759 28.9603 9.13345 27.9803 12.0826C27.0003 15.0316 26.0203 15.764 25.0403 14.5487C24.0603 13.3334 23.0804 10.1705 22.1004 7.98187C21.1204 5.79323 20.1404 4.57885 19.1604 3.94567C18.1804 3.31249 17.2004 3.26052 16.2204 4.69178C15.2404 6.12305 14.2605 9.03755 13.2805 11.0651C12.3005 13.0927 11.3205 14.2334 10.3405 12.9944C9.36052 11.7553 8.38053 8.13647 7.40055 5.97457C6.42056 3.81268 5.44057 3.10771 4.46058 4.49326C3.48059 5.8788 2.50061 9.35486 2.01061 11.0929Z" fill="url(#paint0_linear_60_1397)" fill-opacity="0.6"/>
<path d="M1 12.8309L1.48999 11.0929C1.97999 9.35486 2.95998 5.8788 3.93996 4.49326C4.91995 3.10771 5.89994 3.81268 6.87993 5.97457C7.85992 8.13646 8.8399 11.7553 9.81989 12.9944C10.7999 14.2334 11.7799 13.0927 12.7599 11.0651C13.7398 9.03755 14.7198 6.12305 15.6998 4.69178C16.6798 3.26052 17.6598 3.31249 18.6398 3.94567C19.6198 4.57885 20.5998 5.79323 21.5797 7.98187C22.5597 10.1705 23.5397 13.3334 24.5197 14.5487C25.4997 15.764 26.4797 15.0316 27.4597 12.0826C28.4397 9.13345 29.4197 3.96759 30.3996 1.98776C31.3796 0.00793334 32.3596 1.21414 33.3396 3.74851C34.3196 6.28287 35.2996 10.1454 36.2796 10.4004C37.2596 10.6554 38.2395 7.30288 39.2195 7.69746C40.1995 8.09205 41.1795 12.2337 42.1595 12.2606C43.1395 12.2874 44.1195 8.1994 45.0995 7.2664C46.0795 6.3334 47.0594 8.55541 48.0394 11.0368C49.0194 13.5183 49.9994 16.2591 50.4894 17.6296L50.9794 19" stroke="#FA3131"/>
<defs>
<linearGradient id="paint0_linear_60_1397" x1="26.25" y1="1" x2="26.25" y2="29.5" gradientUnits="userSpaceOnUse">
<stop stop-color="#FA3131" stop-opacity="0.39"/>
<stop offset="1" stop-color="#FA3131" stop-opacity="0"/>
</linearGradient>
</defs>
</svg>
