<svg width="22" height="22" viewBox="0 0 22 22" fill="none" xmlns="http://www.w3.org/2000/svg">
<path d="M1.83331 11.5586H17.4166" stroke="#958F9F" stroke-miterlimit="10" stroke-linecap="round" stroke-linejoin="round"/>
<path d="M17.4166 9.42307V15.9772C17.3891 18.5897 16.6741 19.2497 13.9516 19.2497H5.29834C2.53001 19.2497 1.83331 18.5622 1.83331 15.8306V9.42307C1.83331 6.94807 2.41081 6.15057 4.58331 6.02224C4.80331 6.01307 5.04167 6.00391 5.29834 6.00391H13.9516C16.72 6.00391 17.4166 6.69141 17.4166 9.42307Z" stroke="#958F9F" stroke-linecap="round" stroke-linejoin="round"/>
<path d="M20.1666 6.16917V12.5767C20.1666 15.0517 19.5891 15.8492 17.4166 15.9775V9.42333C17.4166 6.69167 16.72 6.00417 13.9516 6.00417H5.29834C5.04167 6.00417 4.80331 6.01333 4.58331 6.0225C4.61081 3.41 5.32584 2.75 8.04834 2.75H16.7016C19.47 2.75 20.1666 3.4375 20.1666 6.16917Z" stroke="#958F9F" stroke-linecap="round" stroke-linejoin="round"/>
<path d="M4.8125 16.3262H6.38914" stroke="#958F9F" stroke-miterlimit="10" stroke-linecap="round" stroke-linejoin="round"/>
<path d="M8.35083 16.3262H11.5042" stroke="#958F9F" stroke-miterlimit="10" stroke-linecap="round" stroke-linejoin="round"/>
</svg>
