<svg width="22" height="22" viewBox="0 0 22 22" fill="none" xmlns="http://www.w3.org/2000/svg">
<path d="M13.9516 6.00439H5.29831C5.04165 6.00439 4.80331 6.01356 4.58331 6.02273C2.41081 6.15106 1.83331 6.94856 1.83331 9.42356V9.95523C1.83331 10.4594 2.24581 10.8719 2.74998 10.8719H16.5C17.0041 10.8719 17.4166 10.4594 17.4166 9.95523V9.42356C17.4166 6.69189 16.72 6.00439 13.9516 6.00439Z" fill="#622CFD"/>
<path d="M2.74998 12.2466C2.24581 12.2466 1.83331 12.6591 1.83331 13.1632V15.8307C1.83331 18.5624 2.52998 19.2499 5.29831 19.2499H13.9516C16.6741 19.2499 17.3891 18.5899 17.4166 15.9774V13.1632C17.4166 12.6591 17.0041 12.2466 16.5 12.2466H2.74998ZM6.37998 17.0132H4.81248C4.43665 17.0132 4.12498 16.7016 4.12498 16.3257C4.12498 15.9499 4.43665 15.6382 4.81248 15.6382H6.38915C6.76498 15.6382 7.07665 15.9499 7.07665 16.3257C7.07665 16.7016 6.76498 17.0132 6.37998 17.0132ZM11.5041 17.0132H8.35081C7.97498 17.0132 7.66331 16.7016 7.66331 16.3257C7.66331 15.9499 7.97498 15.6382 8.35081 15.6382H11.5041C11.88 15.6382 12.1916 15.9499 12.1916 16.3257C12.1916 16.7016 11.8891 17.0132 11.5041 17.0132Z" fill="#622CFD"/>
<path d="M20.1667 12.219V7.41564C20.1667 4.54647 18.5258 3.2998 16.0508 3.2998H7.865C7.16833 3.2998 6.545 3.40064 5.995 3.61147C5.56416 3.7673 5.17916 3.99647 4.8675 4.29897C4.7025 4.4548 4.83083 4.71147 5.06916 4.71147H15.0333C17.0958 4.71147 18.7642 6.3798 18.7642 8.4423V15.0148C18.7642 15.244 19.0117 15.3723 19.1767 15.2073C19.8092 14.5381 20.1667 13.5573 20.1667 12.219Z" fill="#622CFD"/>
</svg>
