<svg width="226" height="373" viewBox="0 0 226 373" fill="none" xmlns="http://www.w3.org/2000/svg">
<g clip-path="url(#clip0_58_1290)">
<path d="M74.4692 371.71V272.927L157.812 276.466V371.593" fill="#8053FF"/>
<path d="M74.4692 371.71V272.927L157.812 276.466V371.593" stroke="#17161B" stroke-linecap="round" stroke-linejoin="round"/>
<path d="M105.232 305.029L115.112 309.879V371.423" stroke="#17161B" stroke-linecap="round" stroke-linejoin="round"/>
<path d="M51.9067 225L49.76 235.769L75.4212 248.604L76.2206 229.617L51.9067 225Z" fill="white" stroke="#17161B" stroke-linecap="round" stroke-linejoin="round"/>
<path d="M98.1454 150.792C98.1454 150.792 69.0531 160.483 67.1938 161.229C65.3346 161.974 63.2777 164.211 63.4574 166.079C63.637 167.947 51.8977 223.473 51.8977 225C51.8977 226.527 72.7536 232.455 72.7536 232.455C72.7536 232.455 73.4991 275.568 73.6518 276.646C73.8045 277.724 75.0889 282.035 96.9598 282.43C115.049 282.771 141.016 283.517 146.935 283.176C157.713 282.556 158.117 278.891 158.683 277.786C159.249 276.682 158.683 226.698 158.683 226.698L196.461 244.661C196.461 244.661 196.838 244.284 196.65 239.622C196.461 234.961 183.105 200.102 177.141 184.59C171.177 169.079 168.159 164.83 160.92 159.441C153.68 154.052 136.121 146.759 136.121 146.759C136.121 146.759 121.75 149.741 111.501 149.929C101.253 150.118 98.1454 150.792 98.1454 150.792Z" fill="white" stroke="#17161B" stroke-linecap="round" stroke-linejoin="round"/>
<path d="M73.9482 188.615L74.0291 185.588" stroke="#17161B" stroke-linecap="round" stroke-linejoin="round"/>
<path d="M72.7896 232.464L73.8674 191.668" stroke="#17161B" stroke-linecap="round" stroke-linejoin="round"/>
<path d="M187.812 213.189C182.442 212.785 177.068 213.908 172.309 216.429C167.551 218.95 163.602 222.765 160.92 227.434L196.524 244.607C196.524 244.607 196.901 244.23 196.713 239.569C196.623 237.233 191.315 223.069 187.812 213.189Z" fill="white" stroke="#17161B" stroke-linecap="round" stroke-linejoin="round"/>
<path d="M113.064 157.906C113.064 157.906 118.84 175.986 121.076 176.768C123.313 177.549 122.944 171.917 122.944 171.917C122.944 171.917 138.043 148.43 137.486 146.005C137.24 144.687 136.734 143.431 135.998 142.31C135.263 141.189 134.312 140.226 133.202 139.475C130.399 137.427 129.097 136.87 128.163 137.05C127.229 137.229 112.499 155.516 112.499 155.516L113.064 157.906Z" fill="white" stroke="#17161B" stroke-linecap="round" stroke-linejoin="round"/>
<path d="M89.5677 151.537C89.5677 151.537 88.445 164.956 88.0767 167.013C87.7085 169.07 86.0199 172.231 87.3313 172.788C88.6426 173.345 94.5976 168.504 95.9089 166.447C97.2203 164.39 96.8071 163.654 97.2113 161.786C97.6155 159.917 92.1725 150.414 89.5677 151.537Z" fill="white" stroke="#17161B" stroke-linecap="round" stroke-linejoin="round"/>
<path d="M98.1454 143.139C98.1454 143.139 89.0108 150.046 89.5677 151.537C90.1246 153.028 103.364 174.89 103.364 174.89C103.364 174.89 102.618 155.13 102.061 149.157C101.505 143.184 98.1454 143.139 98.1454 143.139Z" fill="white" stroke="#17161B" stroke-linecap="round" stroke-linejoin="round"/>
<path d="M95.343 135.127L103.364 174.845C103.364 174.845 106.903 168.127 107.469 167.57C108.034 167.013 115.301 154.142 115.301 154.142C115.301 154.142 129.286 144.262 129.286 143.139C129.286 142.017 130.031 130.466 130.031 130.466C130.031 130.466 117.905 138.487 114.178 139.448C110.451 140.409 95.343 135.127 95.343 135.127Z" fill="#FFE1D9" stroke="#17161B" stroke-linecap="round" stroke-linejoin="round"/>
<path d="M95.343 135.127L98.7292 151.87L114.654 143.103L114.178 139.412C110.477 140.346 95.343 135.127 95.343 135.127Z" fill="#17161B" stroke="#17161B" stroke-linecap="round" stroke-linejoin="round"/>
<path d="M88.0768 101.562C88.0768 101.562 85.8403 98.2032 84.529 102.865C83.2176 107.526 89.1906 115.359 89.1906 115.359L89.9361 101.751L88.0768 101.562Z" fill="#FFE1D9" stroke="#17161B" stroke-linecap="round" stroke-linejoin="round"/>
<path d="M89.3792 87.5774C89.3792 87.5774 89.3791 121.511 89.936 124.682C90.4929 127.852 98.5137 144.073 102.241 145.196C105.969 146.319 111.942 146.094 113.81 145.564C115.678 145.034 128.54 134.786 130.031 130.466C131.522 126.146 132.824 120.182 132.824 120.182C132.824 120.182 138.42 117.2 139.723 112.906C141.025 108.613 140.468 104.706 139.166 103.215C138.604 102.444 137.826 101.86 136.929 101.535L134.872 98.6251C134.872 98.6251 135.438 93.7749 135.438 92.6611C135.438 91.5474 134.315 85.1972 127.04 82.2152C119.765 79.2332 98.7023 79.9787 94.2294 80.9128C89.7564 81.8469 89.3792 87.5774 89.3792 87.5774Z" fill="#FFE1D9" stroke="#17161B" stroke-linecap="round" stroke-linejoin="round"/>
<path d="M102.062 106.035C102.062 107.58 101.307 108.837 100.382 108.837C99.4569 108.837 98.7024 107.58 98.7024 106.035C98.7024 104.49 99.4569 103.242 100.382 103.242C101.307 103.242 102.062 104.49 102.062 106.035Z" fill="#17161B"/>
<path d="M121.076 107.715C121.076 109.26 120.331 110.517 119.397 110.517C118.463 110.517 117.726 109.26 117.726 107.715C117.726 106.17 118.472 104.921 119.397 104.921C120.322 104.921 121.076 106.17 121.076 107.715Z" fill="#17161B"/>
<path d="M95.7205 99.1372C96.7854 98.0966 98.2052 97.4985 99.6937 97.4635C101.182 97.4285 102.629 97.9592 103.741 98.9486" stroke="#17161B" stroke-linecap="round" stroke-linejoin="round"/>
<path d="M115.48 99.5232C115.48 99.5232 119.774 96.7209 123.879 101.382" stroke="#17161B" stroke-linecap="round" stroke-linejoin="round"/>
<path d="M106.723 103.242L105.232 123.199L113.621 123.568" stroke="#17161B" stroke-linecap="round" stroke-linejoin="round"/>
<path d="M106.166 131.768L109.894 132.145" stroke="#17161B" stroke-linecap="round" stroke-linejoin="round"/>
<path d="M86.3972 84.7839C86.3972 84.7839 84.1607 91.8706 85.0948 93.7658C86.0289 95.661 87.6996 99.9184 87.6996 99.9184C87.6996 99.9184 88.2565 105.308 88.8223 106.448L89.3792 87.5863C89.3792 87.5863 88.8223 82.7271 86.3972 84.7839Z" fill="#17161B" stroke="#17161B" stroke-linecap="round" stroke-linejoin="round"/>
<path d="M96.1065 68.9309C96.1065 68.9309 79.1397 75.829 79.8852 80.302C80.6307 84.7749 86.415 84.7929 86.415 84.7929C86.415 84.7929 81.9241 89.6341 91.0766 91.3137C100.229 92.9933 117.349 85.1522 117.349 85.1522C117.349 85.1522 114.923 90.5413 117.349 91.1251C119.774 91.7089 125.181 90.9365 125.181 90.9365C125.181 90.9365 125.369 96.3256 127.417 97.646C128.971 98.4969 130.689 99.0052 132.456 99.137C132.456 99.137 131.333 109.583 132.268 110.14C133.202 110.697 133.381 109.763 133.57 109.242C133.758 108.721 135.061 102.532 135.061 102.532L136.929 101.634L137.486 96.7837C137.486 96.7837 142.336 89.1401 140.845 84.6672C139.354 80.1942 134.504 75.1553 134.504 75.1553C129.655 69.2727 122.693 65.5257 115.112 64.7184C102.394 63.3352 96.1065 68.9309 96.1065 68.9309Z" fill="#17161B" stroke="#17161B" stroke-linecap="round" stroke-linejoin="round"/>
<path d="M49.6613 219.413C49.6613 219.413 50.2451 221.407 49.5445 229.06C48.8439 236.712 48.7182 245.775 52.1313 250.832C55.5444 255.889 65.191 258.485 68.4873 257.119C71.7837 255.754 72.7268 253.239 72.8435 247.114C72.9603 240.988 64.6071 217.806 64.6071 217.806L49.8948 215.919L49.6613 219.413Z" fill="#FFE1D9" stroke="#17161B" stroke-linecap="round" stroke-linejoin="round"/>
<path d="M49.8949 205.806C49.8949 205.806 45.6465 204.01 43.5627 201.557C41.4789 199.105 38.8741 195.27 38.1735 195.055C37.4729 194.839 34.0149 197.219 35.2275 200.345C36.44 203.471 41.1375 207.306 41.1375 207.306C41.1375 207.306 43.7333 211.384 44.1645 212.417C44.5956 213.449 45.88 217.357 47.1824 218.803C50.7751 222.764 53.2721 223.779 58.6522 223.868C64.0323 223.958 64.8407 221.83 65.4515 219.575C66.0623 217.321 66.3048 213.405 65.9635 213.288C65.6222 213.171 51.1883 210.225 50.5865 208.752C50.2093 207.81 49.9761 206.817 49.8949 205.806Z" fill="#FFE1D9" stroke="#17161B" stroke-linecap="round" stroke-linejoin="round"/>
<path d="M15.4133 271.589V244.832C15.4145 240.136 16.3413 235.486 18.1406 231.148C19.94 226.81 22.5767 222.869 25.9 219.551C29.2233 216.233 33.1681 213.602 37.5087 211.809C41.8494 210.016 46.5008 209.096 51.1971 209.102C60.6749 209.105 69.7639 212.871 76.4657 219.573C83.1675 226.274 86.9336 235.363 86.936 244.841V319.445C86.936 326.852 89.8778 333.955 95.1144 339.193C100.351 344.432 107.454 347.376 114.861 347.378C122.268 347.376 129.37 344.432 134.607 339.193C139.844 333.955 142.785 326.852 142.785 319.445V145.816" stroke="#17161B" stroke-width="12" stroke-linecap="round" stroke-linejoin="round"/>
<path d="M24.6198 265.921H6.87158V284.963H24.6198V265.921Z" fill="#8053FF" stroke="#17161B" stroke-linecap="round" stroke-linejoin="round"/>
<path d="M24.6199 265.921H21.5122V284.963H24.6199V265.921Z" fill="#8053FF" stroke="#17161B" stroke-linecap="round" stroke-linejoin="round"/>
<path d="M7.4375 270.79H24.4761" stroke="#17161B" stroke-linecap="round" stroke-linejoin="round"/>
<path d="M7.4375 274.365H24.4761" stroke="#17161B" stroke-linecap="round" stroke-linejoin="round"/>
<path d="M7.4375 277.948H24.4761" stroke="#17161B" stroke-linecap="round" stroke-linejoin="round"/>
<path d="M7.4375 281.523H24.4761" stroke="#17161B" stroke-linecap="round" stroke-linejoin="round"/>
<path d="M24.7636 288.538H14.4524V326.046H24.7636V288.538Z" fill="#17161B" stroke="#17161B" stroke-linecap="round" stroke-linejoin="round"/>
<path d="M23.2547 321.375H3.73706V343.722H23.2547V321.375Z" fill="white" stroke="#17161B" stroke-linecap="round" stroke-linejoin="round"/>
<path d="M8.59602 329.522H6.94336V343.723H8.59602V329.522Z" fill="#CCCCCC" stroke="#17161B" stroke-linecap="round" stroke-linejoin="round"/>
<path d="M11.7847 329.522H10.1321V343.723H11.7847V329.522Z" fill="#CCCCCC" stroke="#17161B" stroke-linecap="round" stroke-linejoin="round"/>
<path d="M14.9642 329.522H13.3115V343.723H14.9642V329.522Z" fill="#CCCCCC" stroke="#17161B" stroke-linecap="round" stroke-linejoin="round"/>
<path d="M23.2636 321.375H18.6829V343.722H23.2636V321.375Z" fill="white" stroke="#17161B" stroke-linecap="round" stroke-linejoin="round"/>
<path d="M13.7607 326.513H16.6799L19.3565 290.352H23.048V343.678H28.1856V283.364H15.2428L13.7607 326.513Z" fill="#8053FF" stroke="#17161B" stroke-linecap="round" stroke-linejoin="round"/>
<path d="M13.7606 326.513H1.93147L0.449463 283.364H15.2426L13.7606 326.513Z" fill="#17161B" stroke="#17161B" stroke-linecap="round" stroke-linejoin="round"/>
<path d="M63.0711 207.854C63.0711 207.854 66.2507 207.216 66.8166 208.914C67.3824 210.611 66.8884 214.985 66.3226 216.827C66.1591 217.486 65.7752 218.07 65.2345 218.482C64.6939 218.893 64.0288 219.108 63.3496 219.09C62.6154 218.9 61.9376 218.537 61.3735 218.03C62.06 216.095 62.4654 214.072 62.5771 212.021C62.5503 210.616 62.7165 209.214 63.0711 207.854Z" fill="#FFE1D9" stroke="#17161B" stroke-linecap="round" stroke-linejoin="round"/>
<path d="M58.266 207.486C58.266 207.486 60.8078 207.198 62.1461 207.98C63.4844 208.761 62.7838 212.92 62.5054 215.605C62.227 218.291 60.8797 219.494 59.4695 219.423C58.0594 219.351 56.0025 218.156 56.0025 217.447C56.0105 217.092 55.9865 216.737 55.9307 216.387C55.9307 216.387 56.4965 215.965 56.9187 213.423C57.3408 210.881 58.266 207.486 58.266 207.486Z" fill="#FFE1D9" stroke="#17161B" stroke-linecap="round" stroke-linejoin="round"/>
<path d="M52.9936 208.105C54.1875 207.577 55.5345 207.51 56.775 207.917C58.4815 208.68 57.8349 209.866 57.4576 214.024C57.0804 218.183 55.6612 219.611 53.9996 219.252C52.8769 219.018 51.0356 218.569 50.8829 216.925C50.7302 215.282 52.9936 208.105 52.9936 208.105Z" fill="#FFE1D9" stroke="#17161B" stroke-linecap="round" stroke-linejoin="round"/>
<path d="M51.4577 211.797C51.8336 210.482 51.8336 209.088 51.4577 207.773C50.793 206.031 47.308 205.761 46.7691 207.099C46.2302 208.438 45.4308 215.183 45.9697 215.947C46.5086 216.71 48.808 217.464 49.7152 216.755C50.6224 216.045 51.4577 211.797 51.4577 211.797Z" fill="#FFE1D9" stroke="#17161B" stroke-linecap="round" stroke-linejoin="round"/>
<path d="M162.573 208.06C162.573 208.06 155.019 201.153 151.049 195.539C147.079 189.926 142.067 187.923 137.63 186.557C133.193 185.192 129.834 187.312 129.977 189.728C130.121 192.144 132.537 193.752 132.537 193.752C132.537 193.752 130.238 205.339 131.136 207.62C132.034 209.901 131.298 211.671 132.636 213.764C133.974 215.856 136.66 217.249 144.923 218.461C153.187 219.674 154.193 219.692 154.193 219.692C154.193 219.692 175.201 254.389 180.024 258.493C184.848 262.598 194.395 262.984 197.755 259.58C201.114 256.176 201.266 243.332 199.497 240.808C197.728 238.284 162.573 208.06 162.573 208.06Z" fill="#FFE1D9" stroke="#17161B" stroke-linecap="round" stroke-linejoin="round"/>
</g>
<path d="M180.536 372.579C180.812 372.579 181.036 372.355 181.036 372.079C181.036 371.802 180.812 371.579 180.536 371.579L180.536 372.579ZM45.8081 372.579L180.536 372.579L180.536 371.579L45.8081 371.579L45.8081 372.579Z" fill="#17161B"/>
<g clip-path="url(#clip1_58_1290)">
<path d="M211.167 66.1673C225.616 51.7179 225.616 28.2908 211.167 13.8414C196.718 -0.607955 173.291 -0.607955 158.841 13.8414C144.392 28.2908 144.392 51.7179 158.841 66.1673C173.291 80.6167 196.718 80.6167 211.167 66.1673Z" fill="white" stroke="#622CFD" stroke-width="3" stroke-linecap="round" stroke-linejoin="round"/>
<path d="M185.109 25.2028L185.081 25.2L185.053 25.1999C179.381 25.1707 173.81 26.6941 168.942 29.6049L168.932 29.611L168.922 29.6175C166.945 30.9085 165.044 32.3109 163.227 33.8181L163.213 33.8298L163.199 33.8423C162.813 34.2044 162.34 34.4603 161.826 34.5848L161.967 35.168L161.826 34.5848C161.313 34.7089 160.778 34.6985 160.271 34.5546C159.894 34.4381 159.549 34.2378 159.261 33.9687C158.971 33.6984 158.747 33.3657 158.606 32.9959C158.464 32.6261 158.408 32.2289 158.442 31.8343C158.476 31.4442 158.598 31.0668 158.798 30.7301C159.155 30.1951 159.585 29.7132 160.077 29.2985L160.085 29.2918L160.093 29.2847C165.928 24.003 173.306 20.7365 181.139 19.967L181.14 19.9669C192.153 18.8547 201.712 22.203 210.037 29.4232L210.061 29.4441L210.087 29.4624C210.474 29.7317 210.801 30.0786 211.047 30.481C211.292 30.8822 211.451 31.3299 211.515 31.7958C211.576 32.3116 211.485 32.8341 211.253 33.2989C211.02 33.7649 210.656 34.1522 210.205 34.4129C209.754 34.6736 209.236 34.7961 208.716 34.7653C208.196 34.7345 207.697 34.5517 207.28 34.2395L207.269 34.2316L207.258 34.2241C206.771 33.8922 206.336 33.5069 205.86 33.085C205.728 32.9685 205.594 32.8492 205.454 32.7274L205.454 32.7274L205.447 32.721C199.96 28.099 193.068 25.476 185.898 25.2807L185.109 25.2028Z" fill="#17161B" stroke="white" stroke-width="1.2"/>
<path d="M201.553 43.0404L201.542 43.04L201.532 43.04C201.132 43.0386 200.737 42.9569 200.369 42.7996C200.002 42.6423 199.67 42.4126 199.393 42.1243L199.385 42.116L199.376 42.1079C195.718 38.5819 190.884 36.5325 185.806 36.3538C180.728 36.1751 175.763 37.8796 171.865 41.1397L171.864 41.1404C171.672 41.3015 171.494 41.4583 171.323 41.6091C170.949 41.9386 170.608 42.2388 170.229 42.4894L170.215 42.4988L170.201 42.5089C169.657 42.9146 168.98 43.0995 168.305 43.0268C167.63 42.954 167.008 42.6288 166.563 42.1165L166.563 42.1165L166.56 42.1136C166.121 41.6145 165.886 40.9681 165.903 40.3034C165.92 39.6388 166.186 39.0049 166.65 38.5284L166.65 38.5284L166.653 38.5254C169.235 35.8354 172.408 33.7843 175.921 32.5353L175.921 32.5355L175.934 32.5305C179.189 31.2877 182.663 30.7212 186.144 30.8657C189.625 31.0102 193.04 31.8626 196.18 33.3708L196.18 33.3709L196.191 33.3758C198.883 34.6043 201.331 36.3108 203.414 38.4124L203.414 38.4125L203.423 38.4215C203.819 38.8038 204.086 39.2995 204.189 39.8402C204.291 40.3809 204.223 40.94 203.994 41.4405L203.989 41.4528L203.984 41.4654C203.79 41.9461 203.452 42.3553 203.017 42.6371C202.582 42.919 202.071 43.0598 201.553 43.0404Z" fill="#17161B" stroke="white" stroke-width="1.2"/>
<path d="M195.979 46.767L195.988 46.7765L195.997 46.7857C196.485 47.2703 196.769 47.9234 196.79 48.6107C196.811 49.2961 196.57 49.9635 196.116 50.4769C195.634 50.995 194.972 51.3092 194.266 51.3549C193.56 51.4007 192.864 51.1746 192.319 50.7233C191.165 49.7159 189.888 48.8591 188.519 48.1735L188.497 48.1629L188.475 48.1539C186.635 47.4084 184.847 47.2361 183.141 47.5941C181.439 47.9512 179.856 48.8279 178.41 50.123L178.381 50.1488L178.356 50.1781C177.999 50.5912 177.547 50.9108 177.039 51.1088C176.535 51.3049 175.992 51.3759 175.455 51.3159C175.011 51.2379 174.595 51.0472 174.246 50.762C173.893 50.4734 173.621 50.0981 173.456 49.6728C173.292 49.2474 173.241 48.7867 173.309 48.3358C173.376 47.8861 173.559 47.4617 173.839 47.1038C175.255 45.3524 177.102 43.9997 179.199 43.1787L179.208 43.1752L179.217 43.1714C181.025 42.3955 182.968 41.9839 184.935 41.96C187.008 41.9509 189.061 42.3734 190.962 43.2007C192.864 44.0283 194.572 45.2428 195.979 46.767Z" fill="#17161B" stroke="white" stroke-width="1.2"/>
<path d="M185.07 60.2601V60.26L185.058 60.2602C184.61 60.2695 184.165 60.1882 183.75 60.0212C183.335 59.8542 182.958 59.605 182.641 59.2885C182.325 58.9721 182.076 58.595 181.909 58.1798C181.742 57.7646 181.661 57.3199 181.67 56.8725L181.67 56.8725L181.67 56.86C181.67 55.9671 182.021 55.1099 182.648 54.4737C183.274 53.8378 184.125 53.4738 185.018 53.4601C185.464 53.4552 185.907 53.5382 186.321 53.7043C186.735 53.8705 187.113 54.1167 187.432 54.4289C187.751 54.7411 188.006 55.1131 188.182 55.5236C188.357 55.9342 188.45 56.3754 188.455 56.8219C188.46 57.2684 188.377 57.7115 188.211 58.1259C188.045 58.5404 187.798 58.918 187.486 59.2373C187.174 59.5565 186.802 59.8112 186.391 59.9867C185.982 60.1618 185.542 60.2547 185.096 60.2601H185.07Z" fill="#17161B" stroke="white" stroke-width="1.2"/>
<path d="M153.93 58.8198L213.92 17.8198" stroke="#622CFD" stroke-width="3" stroke-linecap="round" stroke-linejoin="round"/>
</g>
<defs>
<clipPath id="clip0_58_1290">
<rect width="201.104" height="308.77" fill="white" transform="translate(0.000488281 64)"/>
</clipPath>
<clipPath id="clip1_58_1290">
<rect width="80.01" height="80.01" fill="white" transform="translate(145)"/>
</clipPath>
</defs>
</svg>
