<svg width="205" height="238" viewBox="0 0 205 238" fill="none" xmlns="http://www.w3.org/2000/svg">
<path d="M171.603 24.698H117.431C110.208 24.698 106.596 24.698 103.694 26.4929C100.793 28.2878 99.1805 31.5197 95.9556 37.9834L93.6273 42.6501C90.4024 49.1138 88.79 52.3457 85.8885 54.1406C82.9871 55.9355 79.3753 55.9355 72.1518 55.9355H24.1679C12.8543 55.9355 7.19741 55.9355 3.68269 59.4502C0.167969 62.9649 0.167969 68.6218 0.167969 79.9355V156.885C0.167969 168.199 0.167969 173.856 3.68269 177.371C7.19741 180.885 12.8543 180.885 24.168 180.885H163.188C174.502 180.885 180.159 180.885 183.674 177.371C187.188 173.856 187.188 168.199 187.188 156.885V40.2831C187.188 36.9501 187.188 35.2837 186.86 33.9081C185.809 29.511 182.375 26.0779 177.978 25.0268C176.603 24.698 174.936 24.698 171.603 24.698V24.698ZM171.603 48.1261C171.603 52.4391 168.107 55.9355 163.794 55.9355H123.641C117.774 55.9355 114.002 49.7081 116.72 44.5087V44.5087C118.067 41.9319 120.734 40.3167 123.641 40.3167H163.794C168.107 40.3167 171.603 43.8131 171.603 48.1261V48.1261Z" fill="#F1F2F5"/>
<path d="M167.103 181.035C167.101 183.862 167.1 185.275 166.221 186.153C165.343 187.031 163.93 187.031 161.103 187.031H80.0264C77.198 187.031 75.7837 187.031 74.9051 186.153C74.0265 185.274 74.0259 183.86 74.0247 181.031C74.02 169.869 74.0153 158.733 74.16 147.612C73.9268 139.325 75.97 131.134 80.0665 123.932C84.163 116.73 90.1553 110.794 97.3892 106.773C101.51 104.661 105.761 102.815 110.117 101.247C109.092 99.6622 108.446 97.8618 108.23 95.986C108.014 94.1101 108.233 92.2096 108.87 90.4326C109.885 88.047 111.44 85.931 113.412 84.252C115.465 82.6814 117.976 81.8306 120.559 81.8306C123.142 81.8306 125.653 82.6814 127.706 84.252C132.841 87.9708 133.806 92.939 131.053 101.291L145.718 107.442C141.195 112.072 138.077 117.895 136.727 124.231C135.377 130.568 135.851 137.158 138.092 143.236C140.334 149.313 144.251 154.628 149.389 158.561C154.527 162.495 160.673 164.885 167.114 165.455L167.103 181.035ZM69.9521 193.308C68.5007 193.082 67.0177 193.417 65.8036 194.245C64.5896 195.074 63.7353 196.334 63.4138 197.771C62.5599 201.835 62.0632 205.966 61.9295 210.117C61.7068 214.46 62.59 215.152 67.0206 215.152C77.4626 215.152 87.9045 215.226 98.3465 215.093C100.974 215.093 102.339 215.583 103.274 218.395C104.505 222.045 106.877 225.201 110.039 227.393C113.201 229.585 116.984 230.696 120.826 230.563C124.616 230.526 128.298 229.296 131.352 227.047C134.405 224.798 136.676 221.644 137.843 218.03C137.979 217.108 138.474 216.277 139.22 215.72C139.965 215.162 140.901 214.923 141.821 215.055H141.962C152.82 215.197 163.685 215.055 174.543 215.115C176.561 215.115 178.773 214.825 178.943 212.556C179.998 207.168 179.285 201.582 176.91 196.633C176.381 195.569 175.55 194.685 174.521 194.092C173.493 193.499 172.313 193.224 171.129 193.301C154.215 193.457 137.302 193.375 120.388 193.375C103.475 193.375 86.7616 193.524 69.9224 193.308H69.9521ZM169.852 103.976C162.559 104.023 155.583 106.966 150.451 112.159C145.319 117.352 142.451 124.372 142.475 131.68C142.498 138.989 145.412 145.99 150.577 151.15C155.742 156.309 162.737 159.207 170.03 159.207C177.323 159.207 184.319 156.309 189.484 151.15C194.649 145.99 197.562 138.989 197.586 131.68C197.61 124.372 194.741 117.352 189.609 112.159C184.478 106.966 177.501 104.023 170.208 103.976H169.852ZM59.2884 135.625C60.599 135.523 61.5658 134.438 61.6285 133.125C61.9735 125.908 65.3405 103.684 93.4641 92.5684C94.7872 92.0455 95.5084 90.5737 95.0368 89.2314V89.2314C94.5798 87.9306 93.1786 87.2124 91.8772 87.668C85.3408 89.9564 79.295 93.4819 74.0724 98.0607C68.2312 103.182 63.5561 109.501 60.3635 116.59C58.0794 121.843 56.8232 127.477 56.6536 133.188C56.6109 134.626 57.8541 135.737 59.2884 135.625V135.625Z" fill="#DFDEE4"/>
<path d="M164.813 146.154C164.832 145.16 165.143 144.193 165.708 143.374C166.272 142.556 167.065 141.923 167.987 141.554C168.909 141.185 169.919 141.097 170.891 141.3C171.863 141.504 172.753 141.99 173.45 142.698C174.147 143.406 174.621 144.305 174.811 145.281C175.002 146.257 174.9 147.268 174.52 148.187C174.14 149.107 173.498 149.893 172.674 150.448C171.851 151.003 170.882 151.302 169.889 151.308C168.589 151.355 167.324 150.881 166.372 149.993C165.42 149.104 164.859 147.874 164.813 146.571C164.805 146.432 164.805 146.293 164.813 146.154ZM166.668 138.166L165.369 112.5H174.342L173.088 138.166H166.668Z" fill="white"/>
</svg>
