<svg width="25" height="25" viewBox="0 0 25 25" fill="none" xmlns="http://www.w3.org/2000/svg">
<path d="M2.88509 10.4166C2.43717 10.4166 2.08301 10.0625 2.08301 9.61456V7.20831C2.08301 4.3854 4.38509 2.08331 7.20801 2.08331H9.61426C10.0622 2.08331 10.4163 2.43748 10.4163 2.8854C10.4163 3.33331 10.0622 3.68748 9.61426 3.68748H7.20801C5.26009 3.68748 3.68717 5.27081 3.68717 7.20831V9.61456C3.68717 10.0625 3.32259 10.4166 2.88509 10.4166Z" fill="white"/>
<path d="M22.1143 10.4166C21.6768 10.4166 21.3122 10.0625 21.3122 9.61456V7.20831C21.3122 5.2604 19.7288 3.68748 17.7913 3.68748H15.3851C14.9372 3.68748 14.583 3.3229 14.583 2.8854C14.583 2.4479 14.9372 2.08331 15.3851 2.08331H17.7913C20.6143 2.08331 22.9163 4.3854 22.9163 7.20831V9.61456C22.9163 10.0625 22.5622 10.4166 22.1143 10.4166Z" fill="white"/>
<path d="M17.792 22.9166H16.3441C15.9066 22.9166 15.542 22.5625 15.542 22.1146C15.542 21.6771 15.8962 21.3125 16.3441 21.3125H17.792C19.7399 21.3125 21.3128 19.7291 21.3128 17.7916V16.3541C21.3128 15.9166 21.667 15.5521 22.1149 15.5521C22.5524 15.5521 22.917 15.9062 22.917 16.3541V17.7916C22.917 20.6146 20.6149 22.9166 17.792 22.9166Z" fill="white"/>
<path d="M9.61426 22.9166H7.20801C4.38509 22.9166 2.08301 20.6146 2.08301 17.7916V15.3854C2.08301 14.9375 2.43717 14.5833 2.88509 14.5833C3.33301 14.5833 3.68717 14.9375 3.68717 15.3854V17.7916C3.68717 19.7396 5.27051 21.3125 7.20801 21.3125H9.61426C10.0518 21.3125 10.4163 21.6666 10.4163 22.1146C10.4163 22.5625 10.0622 22.9166 9.61426 22.9166Z" fill="white"/>
<path d="M19.2292 11.6979H17.8125H7.1875H5.77083C5.32292 11.6979 4.96875 12.0625 4.96875 12.5C4.96875 12.9375 5.32292 13.3021 5.77083 13.3021H7.1875H17.8125H19.2292C19.6771 13.3021 20.0312 12.9375 20.0312 12.5C20.0312 12.0625 19.6771 11.6979 19.2292 11.6979Z" fill="white"/>
<path d="M7.1875 14.5208V14.8646C7.1875 16.5937 8.58333 17.9896 10.3125 17.9896H14.6875C16.4167 17.9896 17.8125 16.5937 17.8125 14.8646V14.5208C17.8125 14.3958 17.7187 14.3021 17.5937 14.3021H7.40625C7.28125 14.3021 7.1875 14.3958 7.1875 14.5208Z" fill="white"/>
<path d="M7.1875 10.4792V10.1354C7.1875 8.40627 8.58333 7.01044 10.3125 7.01044H14.6875C16.4167 7.01044 17.8125 8.40627 17.8125 10.1354V10.4792C17.8125 10.6042 17.7187 10.6979 17.5937 10.6979H7.40625C7.28125 10.6979 7.1875 10.6042 7.1875 10.4792Z" fill="white"/>
</svg>
