<svg width="35" height="35" viewBox="0 0 35 35" fill="none" xmlns="http://www.w3.org/2000/svg">
<g clip-path="url(#clip0_60_1410)">
<path d="M25.4046 4.375C25.9187 4.37517 26.4237 4.51122 26.8683 4.76937C27.3128 5.02752 27.6813 5.39859 27.9363 5.845L32.7984 14.35C33.1157 14.9054 33.2416 15.5497 33.1568 16.1838C33.0719 16.8178 32.781 17.4063 32.3288 17.8588L18.7911 31.3965C18.6218 31.5658 18.4208 31.7001 18.1996 31.7917C17.9784 31.8834 17.7414 31.9305 17.5019 31.9305C17.2625 31.9305 17.0254 31.8834 16.8042 31.7917C16.583 31.7001 16.382 31.5658 16.2128 31.3965L2.67505 17.8588C2.22285 17.4063 1.93192 16.8178 1.84707 16.1838C1.76222 15.5497 1.88815 14.9054 2.20547 14.35L7.06609 5.84354C7.32115 5.39762 7.68946 5.02697 8.13376 4.7691C8.57806 4.51123 9.08259 4.37528 9.5963 4.375H25.4046ZM21.8755 8.75H13.1255C12.7538 8.75041 12.3963 8.89274 12.126 9.1479C11.8557 9.40307 11.693 9.75181 11.6713 10.1229C11.6495 10.4939 11.7702 10.8593 12.0088 11.1443C12.2473 11.4294 12.5857 11.6126 12.9548 11.6565L13.1255 11.6667H16.0421V13.9198C14.9367 14.0219 13.9319 14.2362 13.1196 14.541C12.5436 14.7569 12.0273 15.031 11.6423 15.3738C11.2573 15.715 10.938 16.186 10.938 16.7708C10.938 17.3556 11.2573 17.8267 11.6423 18.1679C12.0273 18.5106 12.5436 18.7848 13.1196 18.9992C13.9859 19.3244 15.0709 19.549 16.2653 19.6408C16.1498 19.8246 16.077 20.0319 16.0523 20.2475L16.0421 20.4167V23.3333C16.0425 23.705 16.1849 24.0625 16.44 24.3328C16.6952 24.6031 17.0439 24.7658 17.415 24.7875C17.7861 24.8093 18.1514 24.6886 18.4365 24.45C18.7215 24.2115 18.9047 23.8731 18.9486 23.504L18.9588 23.3333V20.4167C18.9593 20.1422 18.8819 19.8731 18.7357 19.6408C19.9301 19.549 21.0151 19.3258 21.8813 18.9992C22.4573 18.7848 22.9736 18.5106 23.3586 18.1679C23.7436 17.8267 24.063 17.3556 24.063 16.7708C24.063 16.186 23.7436 15.715 23.3586 15.3738C22.9736 15.031 22.4573 14.7569 21.8813 14.5425C21.088 14.2579 20.2644 14.0661 19.4269 13.9708L18.9588 13.9198V11.6667H21.8755C22.2472 11.6663 22.6047 11.5239 22.875 11.2688C23.1452 11.0136 23.3079 10.6649 23.3297 10.2938C23.3515 9.92274 23.2307 9.55736 22.9922 9.27233C22.7536 8.98729 22.4152 8.80411 22.0461 8.76021L21.8755 8.75ZM18.9573 15.3854C19.7799 15.4577 20.5903 15.6326 21.3694 15.906C21.8492 16.0869 22.1861 16.2838 22.3903 16.4646C22.4789 16.5327 22.5491 16.622 22.5944 16.7242L22.6046 16.7708L22.5944 16.8175C22.5491 16.9197 22.4789 17.0089 22.3903 17.0771C22.1861 17.2579 21.8492 17.4563 21.3694 17.6342C20.4142 17.9929 19.0463 18.2292 17.5005 18.2292C15.9546 18.2292 14.5867 17.9929 13.6315 17.6342C13.1517 17.4548 12.8148 17.2579 12.6092 17.0771C12.5206 17.0089 12.4504 16.9197 12.4051 16.8175L12.3963 16.7708C12.3963 16.7519 12.4036 16.6469 12.6092 16.4646C12.8134 16.2838 13.1517 16.0854 13.6315 15.9075C14.2732 15.6669 15.1001 15.4802 16.0436 15.3854C16.0604 15.7605 16.2212 16.1147 16.4926 16.3742C16.764 16.6337 17.125 16.7785 17.5005 16.7785C17.876 16.7785 18.237 16.6337 18.5083 16.3742C18.7797 16.1147 18.9406 15.7605 18.9573 15.3854Z" fill="#11A679"/>
</g>
<defs>
<clipPath id="clip0_60_1410">
<rect width="35" height="35" fill="white"/>
</clipPath>
</defs>
</svg>
