<svg width="269" height="266" viewBox="0 0 269 266" fill="none" xmlns="http://www.w3.org/2000/svg">
<rect x="1" y="1" width="262" height="262" rx="10" fill="white"/>
<g filter="url(#filter0_d_175_1314)">
<path d="M28 42.0541C28 35.4289 28 32.1163 30.0582 30.0582C32.1163 28 35.4289 28 42.0541 28H221.946C228.571 28 231.884 28 233.942 30.0582C236 32.1163 236 35.4289 236 42.0541V221.946C236 228.571 236 231.884 233.942 233.942C231.884 236 228.571 236 221.946 236H42.0541C35.4289 236 32.1163 236 30.0582 233.942C28 231.884 28 228.571 28 221.946V42.0541Z" fill="white"/>
<path d="M42.0541 28.5H221.946C225.273 28.5 227.717 28.5011 229.59 28.7528C231.448 29.0026 232.668 29.491 233.588 30.4117C234.509 31.3324 234.997 32.552 235.247 34.4101C235.499 36.2826 235.5 38.7273 235.5 42.0541V221.946C235.5 225.273 235.499 227.717 235.247 229.59C234.997 231.448 234.509 232.668 233.588 233.588C232.668 234.509 231.448 234.997 229.59 235.247C227.717 235.499 225.273 235.5 221.946 235.5H42.0541C38.7273 235.5 36.2826 235.499 34.4101 235.247C32.552 234.997 31.3324 234.509 30.4117 233.588C29.491 232.668 29.0026 231.448 28.7528 229.59C28.5011 227.717 28.5 225.273 28.5 221.946V42.0541C28.5 38.7273 28.5011 36.2826 28.7528 34.4101C29.0026 32.552 29.491 31.3324 30.4117 30.4117C31.3324 29.491 32.552 29.0026 34.4101 28.7528C36.2826 28.5011 38.7273 28.5 42.0541 28.5Z" stroke="#622CFD" stroke-opacity="0.1"/>
</g>
<g filter="url(#filter1_d_175_1314)">
<g clip-path="url(#clip0_175_1314)">
<path d="M235.297 28H28V236H235.297V28Z" fill="white"/>
<path d="M45.5805 39.2432H39.2051V45.6402H45.5805V39.2432Z" fill="#17161B"/>
<path d="M51.9559 39.2432H45.5805V45.6402H51.9559V39.2432Z" fill="#17161B"/>
<path d="M58.3313 39.2432H51.9559V45.6402H58.3313V39.2432Z" fill="#17161B"/>
<path d="M64.7067 39.2432H58.3313V45.6402H64.7067V39.2432Z" fill="#17161B"/>
<path d="M71.0821 39.2432H64.7067V45.6402H71.0821V39.2432Z" fill="#17161B"/>
<path d="M77.4575 39.2432H71.0821V45.6402H77.4575V39.2432Z" fill="#17161B"/>
<path d="M83.8329 39.2432H77.4575V45.6402H83.8329V39.2432Z" fill="#17161B"/>
<path d="M96.5837 39.2432H90.2083V45.6402H96.5837V39.2432Z" fill="#17161B"/>
<path d="M115.71 39.2432H109.335V45.6402H115.71V39.2432Z" fill="#17161B"/>
<path d="M122.085 39.2432H115.71V45.6402H122.085V39.2432Z" fill="#17161B"/>
<path d="M128.461 39.2432H122.085V45.6402H128.461V39.2432Z" fill="#17161B"/>
<path d="M147.587 39.2432H141.212V45.6402H147.587V39.2432Z" fill="#17161B"/>
<path d="M160.338 39.2432H153.962V45.6402H160.338V39.2432Z" fill="#17161B"/>
<path d="M185.839 39.2432H179.464V45.6402H185.839V39.2432Z" fill="#17161B"/>
<path d="M192.215 39.2432H185.839V45.6402H192.215V39.2432Z" fill="#17161B"/>
<path d="M198.59 39.2432H192.215V45.6402H198.59V39.2432Z" fill="#17161B"/>
<path d="M204.966 39.2432H198.59V45.6402H204.966V39.2432Z" fill="#17161B"/>
<path d="M211.341 39.2432H204.966V45.6402H211.341V39.2432Z" fill="#17161B"/>
<path d="M217.716 39.2432H211.341V45.6402H217.716V39.2432Z" fill="#17161B"/>
<path d="M224.092 39.2432H217.716V45.6402H224.092V39.2432Z" fill="#17161B"/>
<path d="M45.5805 45.6402H39.2051V52.0372H45.5805V45.6402Z" fill="#17161B"/>
<path d="M83.8329 45.6402H77.4575V52.0372H83.8329V45.6402Z" fill="#17161B"/>
<path d="M102.959 45.6402H96.5837V52.0372H102.959V45.6402Z" fill="#17161B"/>
<path d="M128.461 45.6402H122.085V52.0372H128.461V45.6402Z" fill="#17161B"/>
<path d="M153.962 45.6402H147.587V52.0372H153.962V45.6402Z" fill="#17161B"/>
<path d="M173.089 45.6402H166.713V52.0372H173.089V45.6402Z" fill="#17161B"/>
<path d="M185.839 45.6402H179.464V52.0372H185.839V45.6402Z" fill="#17161B"/>
<path d="M224.092 45.6402H217.716V52.0372H224.092V45.6402Z" fill="#17161B"/>
<path d="M45.5805 52.0372H39.2051V58.4342H45.5805V52.0372Z" fill="#17161B"/>
<path d="M58.3313 52.0372H51.9559V58.4342H58.3313V52.0372Z" fill="#17161B"/>
<path d="M64.7067 52.0372H58.3313V58.4342H64.7067V52.0372Z" fill="#17161B"/>
<path d="M71.0821 52.0372H64.7067V58.4342H71.0821V52.0372Z" fill="#17161B"/>
<path d="M83.8329 52.0372H77.4575V58.4342H83.8329V52.0372Z" fill="#17161B"/>
<path d="M96.5837 52.0372H90.2083V58.4342H96.5837V52.0372Z" fill="#17161B"/>
<path d="M109.335 52.0372H102.959V58.4342H109.335V52.0372Z" fill="#17161B"/>
<path d="M115.71 52.0372H109.335V58.4342H115.71V52.0372Z" fill="#17161B"/>
<path d="M147.587 52.0372H141.212V58.4342H147.587V52.0372Z" fill="#17161B"/>
<path d="M153.962 52.0372H147.587V58.4342H153.962V52.0372Z" fill="#17161B"/>
<path d="M160.338 52.0372H153.962V58.4342H160.338V52.0372Z" fill="#17161B"/>
<path d="M185.839 52.0372H179.464V58.4342H185.839V52.0372Z" fill="#17161B"/>
<path d="M198.59 52.0372H192.215V58.4342H198.59V52.0372Z" fill="#17161B"/>
<path d="M204.966 52.0372H198.59V58.4342H204.966V52.0372Z" fill="#17161B"/>
<path d="M211.341 52.0372H204.966V58.4342H211.341V52.0372Z" fill="#17161B"/>
<path d="M224.092 52.0372H217.716V58.4342H224.092V52.0372Z" fill="#17161B"/>
<path d="M45.5805 58.4342H39.2051V64.8312H45.5805V58.4342Z" fill="#17161B"/>
<path d="M58.3313 58.4342H51.9559V64.8312H58.3313V58.4342Z" fill="#17161B"/>
<path d="M64.7067 58.4342H58.3313V64.8312H64.7067V58.4342Z" fill="#17161B"/>
<path d="M71.0821 58.4342H64.7067V64.8312H71.0821V58.4342Z" fill="#17161B"/>
<path d="M83.8329 58.4342H77.4575V64.8312H83.8329V58.4342Z" fill="#17161B"/>
<path d="M96.5837 58.4342H90.2083V64.8312H96.5837V58.4342Z" fill="#17161B"/>
<path d="M102.959 58.4342H96.5837V64.8312H102.959V58.4342Z" fill="#17161B"/>
<path d="M109.335 58.4342H102.959V64.8312H109.335V58.4342Z" fill="#17161B"/>
<path d="M134.836 58.4342H128.461V64.8312H134.836V58.4342Z" fill="#17161B"/>
<path d="M141.212 58.4342H134.836V64.8312H141.212V58.4342Z" fill="#17161B"/>
<path d="M166.713 58.4342H160.338V64.8312H166.713V58.4342Z" fill="#17161B"/>
<path d="M185.839 58.4342H179.464V64.8312H185.839V58.4342Z" fill="#17161B"/>
<path d="M198.59 58.4342H192.215V64.8312H198.59V58.4342Z" fill="#17161B"/>
<path d="M204.966 58.4342H198.59V64.8312H204.966V58.4342Z" fill="#17161B"/>
<path d="M211.341 58.4342H204.966V64.8312H211.341V58.4342Z" fill="#17161B"/>
<path d="M224.092 58.4342H217.716V64.8312H224.092V58.4342Z" fill="#17161B"/>
<path d="M45.5805 64.8312H39.2051V71.2283H45.5805V64.8312Z" fill="#17161B"/>
<path d="M58.3313 64.8312H51.9559V71.2283H58.3313V64.8312Z" fill="#17161B"/>
<path d="M64.7067 64.8312H58.3313V71.2283H64.7067V64.8312Z" fill="#17161B"/>
<path d="M71.0821 64.8312H64.7067V71.2283H71.0821V64.8312Z" fill="#17161B"/>
<path d="M83.8329 64.8312H77.4575V71.2283H83.8329V64.8312Z" fill="#17161B"/>
<path d="M134.836 64.8312H128.461V71.2283H134.836V64.8312Z" fill="#17161B"/>
<path d="M147.587 64.8312H141.212V71.2283H147.587V64.8312Z" fill="#17161B"/>
<path d="M160.338 64.8312H153.962V71.2283H160.338V64.8312Z" fill="#17161B"/>
<path d="M185.839 64.8312H179.464V71.2283H185.839V64.8312Z" fill="#17161B"/>
<path d="M198.59 64.8312H192.215V71.2283H198.59V64.8312Z" fill="#17161B"/>
<path d="M204.966 64.8312H198.59V71.2283H204.966V64.8312Z" fill="#17161B"/>
<path d="M211.341 64.8312H204.966V71.2283H211.341V64.8312Z" fill="#17161B"/>
<path d="M224.092 64.8312H217.716V71.2283H224.092V64.8312Z" fill="#17161B"/>
<path d="M45.5805 71.2283H39.2051V77.6253H45.5805V71.2283Z" fill="#17161B"/>
<path d="M83.8329 71.2283H77.4575V77.6253H83.8329V71.2283Z" fill="#17161B"/>
<path d="M96.5837 71.2283H90.2083V77.6253H96.5837V71.2283Z" fill="#17161B"/>
<path d="M109.335 71.2283H102.959V77.6253H109.335V71.2283Z" fill="#17161B"/>
<path d="M115.71 71.2283H109.335V77.6253H115.71V71.2283Z" fill="#17161B"/>
<path d="M147.587 71.2283H141.212V77.6253H147.587V71.2283Z" fill="#17161B"/>
<path d="M153.962 71.2283H147.587V77.6253H153.962V71.2283Z" fill="#17161B"/>
<path d="M166.713 71.2283H160.338V77.6253H166.713V71.2283Z" fill="#17161B"/>
<path d="M185.839 71.2283H179.464V77.6253H185.839V71.2283Z" fill="#17161B"/>
<path d="M224.092 71.2283H217.716V77.6253H224.092V71.2283Z" fill="#17161B"/>
<path d="M45.5805 77.6253H39.2051V84.0223H45.5805V77.6253Z" fill="#17161B"/>
<path d="M51.9559 77.6253H45.5805V84.0223H51.9559V77.6253Z" fill="#17161B"/>
<path d="M58.3313 77.6253H51.9559V84.0223H58.3313V77.6253Z" fill="#17161B"/>
<path d="M64.7067 77.6253H58.3313V84.0223H64.7067V77.6253Z" fill="#17161B"/>
<path d="M71.0821 77.6253H64.7067V84.0223H71.0821V77.6253Z" fill="#17161B"/>
<path d="M77.4575 77.6253H71.0821V84.0223H77.4575V77.6253Z" fill="#17161B"/>
<path d="M83.8329 77.6253H77.4575V84.0223H83.8329V77.6253Z" fill="#17161B"/>
<path d="M96.5837 77.6253H90.2083V84.0223H96.5837V77.6253Z" fill="#17161B"/>
<path d="M109.335 77.6253H102.959V84.0223H109.335V77.6253Z" fill="#17161B"/>
<path d="M122.085 77.6253H115.71V84.0223H122.085V77.6253Z" fill="#17161B"/>
<path d="M134.836 77.6253H128.461V84.0223H134.836V77.6253Z" fill="#17161B"/>
<path d="M147.587 77.6253H141.212V84.0223H147.587V77.6253Z" fill="#17161B"/>
<path d="M160.338 77.6253H153.962V84.0223H160.338V77.6253Z" fill="#17161B"/>
<path d="M173.089 77.6253H166.713V84.0223H173.089V77.6253Z" fill="#17161B"/>
<path d="M185.839 77.6253H179.464V84.0223H185.839V77.6253Z" fill="#17161B"/>
<path d="M192.215 77.6253H185.839V84.0223H192.215V77.6253Z" fill="#17161B"/>
<path d="M198.59 77.6253H192.215V84.0223H198.59V77.6253Z" fill="#17161B"/>
<path d="M204.966 77.6253H198.59V84.0223H204.966V77.6253Z" fill="#17161B"/>
<path d="M211.341 77.6253H204.966V84.0223H211.341V77.6253Z" fill="#17161B"/>
<path d="M217.716 77.6253H211.341V84.0223H217.716V77.6253Z" fill="#17161B"/>
<path d="M224.092 77.6253H217.716V84.0223H224.092V77.6253Z" fill="#17161B"/>
<path d="M96.5837 84.0223H90.2083V90.4193H96.5837V84.0223Z" fill="#17161B"/>
<path d="M102.959 84.0223H96.5837V90.4193H102.959V84.0223Z" fill="#17161B"/>
<path d="M109.335 84.0223H102.959V90.4193H109.335V84.0223Z" fill="#17161B"/>
<path d="M122.085 84.0223H115.71V90.4193H122.085V84.0223Z" fill="#17161B"/>
<path d="M141.212 84.0223H134.836V90.4193H141.212V84.0223Z" fill="#17161B"/>
<path d="M147.587 84.0223H141.212V90.4193H147.587V84.0223Z" fill="#17161B"/>
<path d="M160.338 84.0223H153.962V90.4193H160.338V84.0223Z" fill="#17161B"/>
<path d="M45.5805 90.4193H39.2051V96.8163H45.5805V90.4193Z" fill="#17161B"/>
<path d="M51.9559 90.4193H45.5805V96.8163H51.9559V90.4193Z" fill="#17161B"/>
<path d="M64.7067 90.4193H58.3313V96.8163H64.7067V90.4193Z" fill="#17161B"/>
<path d="M83.8329 90.4193H77.4575V96.8163H83.8329V90.4193Z" fill="#17161B"/>
<path d="M90.2083 90.4193H83.8329V96.8163H90.2083V90.4193Z" fill="#17161B"/>
<path d="M109.335 90.4193H102.959V96.8163H109.335V90.4193Z" fill="#17161B"/>
<path d="M115.71 90.4193H109.335V96.8163H115.71V90.4193Z" fill="#17161B"/>
<path d="M122.085 90.4193H115.71V96.8163H122.085V90.4193Z" fill="#17161B"/>
<path d="M128.461 90.4193H122.085V96.8163H128.461V90.4193Z" fill="#17161B"/>
<path d="M134.836 90.4193H128.461V96.8163H134.836V90.4193Z" fill="#17161B"/>
<path d="M147.587 90.4193H141.212V96.8163H147.587V90.4193Z" fill="#17161B"/>
<path d="M160.338 90.4193H153.962V96.8163H160.338V90.4193Z" fill="#17161B"/>
<path d="M166.713 90.4193H160.338V96.8163H166.713V90.4193Z" fill="#17161B"/>
<path d="M179.464 90.4193H173.089V96.8163H179.464V90.4193Z" fill="#17161B"/>
<path d="M185.839 90.4193H179.464V96.8163H185.839V90.4193Z" fill="#17161B"/>
<path d="M192.215 90.4193H185.839V96.8163H192.215V90.4193Z" fill="#17161B"/>
<path d="M204.966 90.4193H198.59V96.8163H204.966V90.4193Z" fill="#17161B"/>
<path d="M211.341 90.4193H204.966V96.8163H211.341V90.4193Z" fill="#17161B"/>
<path d="M224.092 90.4193H217.716V96.8163H224.092V90.4193Z" fill="#17161B"/>
<path d="M58.3313 96.8163H51.9559V103.213H58.3313V96.8163Z" fill="#17161B"/>
<path d="M71.0821 96.8163H64.7067V103.213H71.0821V96.8163Z" fill="#17161B"/>
<path d="M90.2083 96.8163H83.8329V103.213H90.2083V96.8163Z" fill="#17161B"/>
<path d="M109.335 96.8163H102.959V103.213H109.335V96.8163Z" fill="#17161B"/>
<path d="M115.71 96.8163H109.335V103.213H115.71V96.8163Z" fill="#17161B"/>
<path d="M122.085 96.8163H115.71V103.213H122.085V96.8163Z" fill="#17161B"/>
<path d="M134.836 96.8163H128.461V103.213H134.836V96.8163Z" fill="#17161B"/>
<path d="M147.587 96.8163H141.212V103.213H147.587V96.8163Z" fill="#17161B"/>
<path d="M153.962 96.8163H147.587V103.213H153.962V96.8163Z" fill="#17161B"/>
<path d="M160.338 96.8163H153.962V103.213H160.338V96.8163Z" fill="#17161B"/>
<path d="M166.713 96.8163H160.338V103.213H166.713V96.8163Z" fill="#17161B"/>
<path d="M173.089 96.8163H166.713V103.213H173.089V96.8163Z" fill="#17161B"/>
<path d="M179.464 96.8163H173.089V103.213H179.464V96.8163Z" fill="#17161B"/>
<path d="M198.59 96.8163H192.215V103.213H198.59V96.8163Z" fill="#17161B"/>
<path d="M204.966 96.8163H198.59V103.213H204.966V96.8163Z" fill="#17161B"/>
<path d="M217.716 96.8163H211.341V103.213H217.716V96.8163Z" fill="#17161B"/>
<path d="M224.092 96.8163H217.716V103.213H224.092V96.8163Z" fill="#17161B"/>
<path d="M58.3313 103.213H51.9559V109.61H58.3313V103.213Z" fill="#17161B"/>
<path d="M64.7067 103.213H58.3313V109.61H64.7067V103.213Z" fill="#17161B"/>
<path d="M71.0821 103.213H64.7067V109.61H71.0821V103.213Z" fill="#17161B"/>
<path d="M77.4575 103.213H71.0821V109.61H77.4575V103.213Z" fill="#17161B"/>
<path d="M83.8329 103.213H77.4575V109.61H83.8329V103.213Z" fill="#17161B"/>
<path d="M115.71 103.213H109.335V109.61H115.71V103.213Z" fill="#17161B"/>
<path d="M122.085 103.213H115.71V109.61H122.085V103.213Z" fill="#17161B"/>
<path d="M128.461 103.213H122.085V109.61H128.461V103.213Z" fill="#17161B"/>
<path d="M134.836 103.213H128.461V109.61H134.836V103.213Z" fill="#17161B"/>
<path d="M147.587 103.213H141.212V109.61H147.587V103.213Z" fill="#17161B"/>
<path d="M153.962 103.213H147.587V109.61H153.962V103.213Z" fill="#17161B"/>
<path d="M160.338 103.213H153.962V109.61H160.338V103.213Z" fill="#17161B"/>
<path d="M198.59 103.213H192.215V109.61H198.59V103.213Z" fill="#17161B"/>
<path d="M204.966 103.213H198.59V109.61H204.966V103.213Z" fill="#17161B"/>
<path d="M51.9559 109.61H45.5805V116.007H51.9559V109.61Z" fill="#17161B"/>
<path d="M58.3313 109.61H51.9559V116.007H58.3313V109.61Z" fill="#17161B"/>
<path d="M90.2083 109.61H83.8329V116.007H90.2083V109.61Z" fill="#17161B"/>
<path d="M102.959 109.61H96.5837V116.007H102.959V109.61Z" fill="#17161B"/>
<path d="M109.335 109.61H102.959V116.007H109.335V109.61Z" fill="#17161B"/>
<path d="M115.71 109.61H109.335V116.007H115.71V109.61Z" fill="#17161B"/>
<path d="M153.962 109.61H147.587V116.007H153.962V109.61Z" fill="#17161B"/>
<path d="M160.338 109.61H153.962V116.007H160.338V109.61Z" fill="#17161B"/>
<path d="M166.713 109.61H160.338V116.007H166.713V109.61Z" fill="#17161B"/>
<path d="M179.464 109.61H173.089V116.007H179.464V109.61Z" fill="#17161B"/>
<path d="M204.966 109.61H198.59V116.007H204.966V109.61Z" fill="#17161B"/>
<path d="M211.341 109.61H204.966V116.007H211.341V109.61Z" fill="#17161B"/>
<path d="M224.092 109.61H217.716V116.007H224.092V109.61Z" fill="#17161B"/>
<path d="M58.3313 116.007H51.9559V122.404H58.3313V116.007Z" fill="#17161B"/>
<path d="M71.0821 116.007H64.7067V122.404H71.0821V116.007Z" fill="#17161B"/>
<path d="M83.8329 116.007H77.4575V122.404H83.8329V116.007Z" fill="#17161B"/>
<path d="M96.5837 116.007H90.2083V122.404H96.5837V116.007Z" fill="#17161B"/>
<path d="M102.959 116.007H96.5837V122.404H102.959V116.007Z" fill="#17161B"/>
<path d="M115.71 116.007H109.335V122.404H115.71V116.007Z" fill="#17161B"/>
<path d="M141.212 116.007H134.836V122.404H141.212V116.007Z" fill="#17161B"/>
<path d="M160.338 116.007H153.962V122.404H160.338V116.007Z" fill="#17161B"/>
<path d="M173.089 116.007H166.713V122.404H173.089V116.007Z" fill="#17161B"/>
<path d="M179.464 116.007H173.089V122.404H179.464V116.007Z" fill="#17161B"/>
<path d="M192.215 116.007H185.839V122.404H192.215V116.007Z" fill="#17161B"/>
<path d="M204.966 116.007H198.59V122.404H204.966V116.007Z" fill="#17161B"/>
<path d="M211.341 116.007H204.966V122.404H211.341V116.007Z" fill="#17161B"/>
<path d="M217.716 116.007H211.341V122.404H217.716V116.007Z" fill="#17161B"/>
<path d="M58.3313 122.404H51.9559V128.801H58.3313V122.404Z" fill="#17161B"/>
<path d="M71.0821 122.404H64.7067V128.801H71.0821V122.404Z" fill="#17161B"/>
<path d="M90.2083 122.404H83.8329V128.801H90.2083V122.404Z" fill="#17161B"/>
<path d="M96.5837 122.404H90.2083V128.801H96.5837V122.404Z" fill="#17161B"/>
<path d="M115.71 122.404H109.335V128.801H115.71V122.404Z" fill="#17161B"/>
<path d="M128.461 122.404H122.085V128.801H128.461V122.404Z" fill="#17161B"/>
<path d="M141.212 122.404H134.836V128.801H141.212V122.404Z" fill="#17161B"/>
<path d="M153.962 122.404H147.587V128.801H153.962V122.404Z" fill="#17161B"/>
<path d="M173.089 122.404H166.713V128.801H173.089V122.404Z" fill="#17161B"/>
<path d="M179.464 122.404H173.089V128.801H179.464V122.404Z" fill="#17161B"/>
<path d="M185.839 122.404H179.464V128.801H185.839V122.404Z" fill="#17161B"/>
<path d="M211.341 122.404H204.966V128.801H211.341V122.404Z" fill="#17161B"/>
<path d="M224.092 122.404H217.716V128.801H224.092V122.404Z" fill="#17161B"/>
<path d="M51.9559 128.801H45.5805V135.198H51.9559V128.801Z" fill="#17161B"/>
<path d="M58.3313 128.801H51.9559V135.198H58.3313V128.801Z" fill="#17161B"/>
<path d="M77.4575 128.801H71.0821V135.198H77.4575V128.801Z" fill="#17161B"/>
<path d="M83.8329 128.801H77.4575V135.198H83.8329V128.801Z" fill="#17161B"/>
<path d="M90.2083 128.801H83.8329V135.198H90.2083V128.801Z" fill="#17161B"/>
<path d="M96.5837 128.801H90.2083V135.198H96.5837V128.801Z" fill="#17161B"/>
<path d="M109.335 128.801H102.959V135.198H109.335V128.801Z" fill="#17161B"/>
<path d="M115.71 128.801H109.335V135.198H115.71V128.801Z" fill="#17161B"/>
<path d="M134.836 128.801H128.461V135.198H134.836V128.801Z" fill="#17161B"/>
<path d="M179.464 128.801H173.089V135.198H179.464V128.801Z" fill="#17161B"/>
<path d="M198.59 128.801H192.215V135.198H198.59V128.801Z" fill="#17161B"/>
<path d="M204.966 128.801H198.59V135.198H204.966V128.801Z" fill="#17161B"/>
<path d="M211.341 128.801H204.966V135.198H211.341V128.801Z" fill="#17161B"/>
<path d="M217.716 128.801H211.341V135.198H217.716V128.801Z" fill="#17161B"/>
<path d="M45.5805 135.198H39.2051V141.595H45.5805V135.198Z" fill="#17161B"/>
<path d="M51.9559 135.198H45.5805V141.595H51.9559V135.198Z" fill="#17161B"/>
<path d="M58.3313 135.198H51.9559V141.595H58.3313V135.198Z" fill="#17161B"/>
<path d="M102.959 135.198H96.5837V141.595H102.959V135.198Z" fill="#17161B"/>
<path d="M109.335 135.198H102.959V141.595H109.335V135.198Z" fill="#17161B"/>
<path d="M115.71 135.198H109.335V141.595H115.71V135.198Z" fill="#17161B"/>
<path d="M141.212 135.198H134.836V141.595H141.212V135.198Z" fill="#17161B"/>
<path d="M166.713 135.198H160.338V141.595H166.713V135.198Z" fill="#17161B"/>
<path d="M173.089 135.198H166.713V141.595H173.089V135.198Z" fill="#17161B"/>
<path d="M179.464 135.198H173.089V141.595H179.464V135.198Z" fill="#17161B"/>
<path d="M198.59 135.198H192.215V141.595H198.59V135.198Z" fill="#17161B"/>
<path d="M211.341 135.198H204.966V141.595H211.341V135.198Z" fill="#17161B"/>
<path d="M224.092 135.198H217.716V141.595H224.092V135.198Z" fill="#17161B"/>
<path d="M45.5805 141.595H39.2051V147.992H45.5805V141.595Z" fill="#17161B"/>
<path d="M64.7067 141.595H58.3313V147.992H64.7067V141.595Z" fill="#17161B"/>
<path d="M83.8329 141.595H77.4575V147.992H83.8329V141.595Z" fill="#17161B"/>
<path d="M96.5837 141.595H90.2083V147.992H96.5837V141.595Z" fill="#17161B"/>
<path d="M102.959 141.595H96.5837V147.992H102.959V141.595Z" fill="#17161B"/>
<path d="M122.085 141.595H115.71V147.992H122.085V141.595Z" fill="#17161B"/>
<path d="M166.713 141.595H160.338V147.992H166.713V141.595Z" fill="#17161B"/>
<path d="M185.839 141.595H179.464V147.992H185.839V141.595Z" fill="#17161B"/>
<path d="M192.215 141.595H185.839V147.992H192.215V141.595Z" fill="#17161B"/>
<path d="M204.966 141.595H198.59V147.992H204.966V141.595Z" fill="#17161B"/>
<path d="M211.341 141.595H204.966V147.992H211.341V141.595Z" fill="#17161B"/>
<path d="M217.716 141.595H211.341V147.992H217.716V141.595Z" fill="#17161B"/>
<path d="M45.5805 147.992H39.2051V154.389H45.5805V147.992Z" fill="#17161B"/>
<path d="M64.7067 147.992H58.3313V154.389H64.7067V147.992Z" fill="#17161B"/>
<path d="M71.0821 147.992H64.7067V154.389H71.0821V147.992Z" fill="#17161B"/>
<path d="M77.4575 147.992H71.0821V154.389H77.4575V147.992Z" fill="#17161B"/>
<path d="M90.2083 147.992H83.8329V154.389H90.2083V147.992Z" fill="#17161B"/>
<path d="M96.5837 147.992H90.2083V154.389H96.5837V147.992Z" fill="#17161B"/>
<path d="M109.335 147.992H102.959V154.389H109.335V147.992Z" fill="#17161B"/>
<path d="M122.085 147.992H115.71V154.389H122.085V147.992Z" fill="#17161B"/>
<path d="M128.461 147.992H122.085V154.389H128.461V147.992Z" fill="#17161B"/>
<path d="M166.713 147.992H160.338V154.389H166.713V147.992Z" fill="#17161B"/>
<path d="M173.089 147.992H166.713V154.389H173.089V147.992Z" fill="#17161B"/>
<path d="M211.341 147.992H204.966V154.389H211.341V147.992Z" fill="#17161B"/>
<path d="M224.092 147.992H217.716V154.389H224.092V147.992Z" fill="#17161B"/>
<path d="M45.5805 154.389H39.2051V160.786H45.5805V154.389Z" fill="#17161B"/>
<path d="M51.9559 154.389H45.5805V160.786H51.9559V154.389Z" fill="#17161B"/>
<path d="M71.0821 154.389H64.7067V160.786H71.0821V154.389Z" fill="#17161B"/>
<path d="M83.8329 154.389H77.4575V160.786H83.8329V154.389Z" fill="#17161B"/>
<path d="M96.5837 154.389H90.2083V160.786H96.5837V154.389Z" fill="#17161B"/>
<path d="M102.959 154.389H96.5837V160.786H102.959V154.389Z" fill="#17161B"/>
<path d="M115.71 154.389H109.335V160.786H115.71V154.389Z" fill="#17161B"/>
<path d="M128.461 154.389H122.085V160.786H128.461V154.389Z" fill="#17161B"/>
<path d="M134.836 154.389H128.461V160.786H134.836V154.389Z" fill="#17161B"/>
<path d="M141.212 154.389H134.836V160.786H141.212V154.389Z" fill="#17161B"/>
<path d="M147.587 154.389H141.212V160.786H147.587V154.389Z" fill="#17161B"/>
<path d="M166.713 154.389H160.338V160.786H166.713V154.389Z" fill="#17161B"/>
<path d="M173.089 154.389H166.713V160.786H173.089V154.389Z" fill="#17161B"/>
<path d="M198.59 154.389H192.215V160.786H198.59V154.389Z" fill="#17161B"/>
<path d="M217.716 154.389H211.341V160.786H217.716V154.389Z" fill="#17161B"/>
<path d="M45.5805 160.786H39.2051V167.184H45.5805V160.786Z" fill="#17161B"/>
<path d="M58.3313 160.786H51.9559V167.184H58.3313V160.786Z" fill="#17161B"/>
<path d="M71.0821 160.786H64.7067V167.184H71.0821V160.786Z" fill="#17161B"/>
<path d="M77.4575 160.786H71.0821V167.184H77.4575V160.786Z" fill="#17161B"/>
<path d="M90.2083 160.786H83.8329V167.184H90.2083V160.786Z" fill="#17161B"/>
<path d="M96.5837 160.786H90.2083V167.184H96.5837V160.786Z" fill="#17161B"/>
<path d="M102.959 160.786H96.5837V167.184H102.959V160.786Z" fill="#17161B"/>
<path d="M115.71 160.786H109.335V167.184H115.71V160.786Z" fill="#17161B"/>
<path d="M128.461 160.786H122.085V167.184H128.461V160.786Z" fill="#17161B"/>
<path d="M134.836 160.786H128.461V167.184H134.836V160.786Z" fill="#17161B"/>
<path d="M141.212 160.786H134.836V167.184H141.212V160.786Z" fill="#17161B"/>
<path d="M147.587 160.786H141.212V167.184H147.587V160.786Z" fill="#17161B"/>
<path d="M166.713 160.786H160.338V167.184H166.713V160.786Z" fill="#17161B"/>
<path d="M185.839 160.786H179.464V167.184H185.839V160.786Z" fill="#17161B"/>
<path d="M204.966 160.786H198.59V167.184H204.966V160.786Z" fill="#17161B"/>
<path d="M211.341 160.786H204.966V167.184H211.341V160.786Z" fill="#17161B"/>
<path d="M224.092 160.786H217.716V167.184H224.092V160.786Z" fill="#17161B"/>
<path d="M45.5805 167.184H39.2051V173.581H45.5805V167.184Z" fill="#17161B"/>
<path d="M58.3313 167.184H51.9559V173.581H58.3313V167.184Z" fill="#17161B"/>
<path d="M77.4575 167.184H71.0821V173.581H77.4575V167.184Z" fill="#17161B"/>
<path d="M83.8329 167.184H77.4575V173.581H83.8329V167.184Z" fill="#17161B"/>
<path d="M102.959 167.184H96.5837V173.581H102.959V167.184Z" fill="#17161B"/>
<path d="M109.335 167.184H102.959V173.581H109.335V167.184Z" fill="#17161B"/>
<path d="M128.461 167.184H122.085V173.581H128.461V167.184Z" fill="#17161B"/>
<path d="M134.836 167.184H128.461V173.581H134.836V167.184Z" fill="#17161B"/>
<path d="M147.587 167.184H141.212V173.581H147.587V167.184Z" fill="#17161B"/>
<path d="M153.962 167.184H147.587V173.581H153.962V167.184Z" fill="#17161B"/>
<path d="M173.089 167.184H166.713V173.581H173.089V167.184Z" fill="#17161B"/>
<path d="M179.464 167.184H173.089V173.581H179.464V167.184Z" fill="#17161B"/>
<path d="M185.839 167.184H179.464V173.581H185.839V167.184Z" fill="#17161B"/>
<path d="M192.215 167.184H185.839V173.581H192.215V167.184Z" fill="#17161B"/>
<path d="M198.59 167.184H192.215V173.581H198.59V167.184Z" fill="#17161B"/>
<path d="M204.966 167.184H198.59V173.581H204.966V167.184Z" fill="#17161B"/>
<path d="M211.341 167.184H204.966V173.581H211.341V167.184Z" fill="#17161B"/>
<path d="M217.716 167.184H211.341V173.581H217.716V167.184Z" fill="#17161B"/>
<path d="M224.092 167.184H217.716V173.581H224.092V167.184Z" fill="#17161B"/>
<path d="M109.335 173.581H102.959V179.978H109.335V173.581Z" fill="#17161B"/>
<path d="M115.71 173.581H109.335V179.978H115.71V173.581Z" fill="#17161B"/>
<path d="M128.461 173.581H122.085V179.978H128.461V173.581Z" fill="#17161B"/>
<path d="M141.212 173.581H134.836V179.978H141.212V173.581Z" fill="#17161B"/>
<path d="M160.338 173.581H153.962V179.978H160.338V173.581Z" fill="#17161B"/>
<path d="M173.089 173.581H166.713V179.978H173.089V173.581Z" fill="#17161B"/>
<path d="M45.5805 179.978H39.2051V186.375H45.5805V179.978Z" fill="#17161B"/>
<path d="M51.9559 179.978H45.5805V186.375H51.9559V179.978Z" fill="#17161B"/>
<path d="M58.3313 179.978H51.9559V186.375H58.3313V179.978Z" fill="#17161B"/>
<path d="M64.7067 179.978H58.3313V186.375H64.7067V179.978Z" fill="#17161B"/>
<path d="M71.0821 179.978H64.7067V186.375H71.0821V179.978Z" fill="#17161B"/>
<path d="M77.4575 179.978H71.0821V186.375H77.4575V179.978Z" fill="#17161B"/>
<path d="M83.8329 179.978H77.4575V186.375H83.8329V179.978Z" fill="#17161B"/>
<path d="M96.5837 179.978H90.2083V186.375H96.5837V179.978Z" fill="#17161B"/>
<path d="M102.959 179.978H96.5837V186.375H102.959V179.978Z" fill="#17161B"/>
<path d="M115.71 179.978H109.335V186.375H115.71V179.978Z" fill="#17161B"/>
<path d="M128.461 179.978H122.085V186.375H128.461V179.978Z" fill="#17161B"/>
<path d="M134.836 179.978H128.461V186.375H134.836V179.978Z" fill="#17161B"/>
<path d="M173.089 179.978H166.713V186.375H173.089V179.978Z" fill="#17161B"/>
<path d="M45.5805 186.375H39.2051V192.772H45.5805V186.375Z" fill="#17161B"/>
<path d="M83.8329 186.375H77.4575V192.772H83.8329V186.375Z" fill="#17161B"/>
<path d="M102.959 186.375H96.5837V192.772H102.959V186.375Z" fill="#17161B"/>
<path d="M115.71 186.375H109.335V192.772H115.71V186.375Z" fill="#17161B"/>
<path d="M153.962 186.375H147.587V192.772H153.962V186.375Z" fill="#17161B"/>
<path d="M160.338 186.375H153.962V192.772H160.338V186.375Z" fill="#17161B"/>
<path d="M173.089 186.375H166.713V192.772H173.089V186.375Z" fill="#17161B"/>
<path d="M45.5805 192.772H39.2051V199.169H45.5805V192.772Z" fill="#17161B"/>
<path d="M58.3313 192.772H51.9559V199.169H58.3313V192.772Z" fill="#17161B"/>
<path d="M64.7067 192.772H58.3313V199.169H64.7067V192.772Z" fill="#17161B"/>
<path d="M71.0821 192.772H64.7067V199.169H71.0821V192.772Z" fill="#17161B"/>
<path d="M83.8329 192.772H77.4575V199.169H83.8329V192.772Z" fill="#17161B"/>
<path d="M102.959 192.772H96.5837V199.169H102.959V192.772Z" fill="#17161B"/>
<path d="M109.335 192.772H102.959V199.169H109.335V192.772Z" fill="#17161B"/>
<path d="M115.71 192.772H109.335V199.169H115.71V192.772Z" fill="#17161B"/>
<path d="M134.836 192.772H128.461V199.169H134.836V192.772Z" fill="#17161B"/>
<path d="M141.212 192.772H134.836V199.169H141.212V192.772Z" fill="#17161B"/>
<path d="M147.587 192.772H141.212V199.169H147.587V192.772Z" fill="#17161B"/>
<path d="M173.089 192.772H166.713V199.169H173.089V192.772Z" fill="#17161B"/>
<path d="M45.5805 199.169H39.2051V205.566H45.5805V199.169Z" fill="#17161B"/>
<path d="M58.3313 199.169H51.9559V205.566H58.3313V199.169Z" fill="#17161B"/>
<path d="M64.7067 199.169H58.3313V205.566H64.7067V199.169Z" fill="#17161B"/>
<path d="M71.0821 199.169H64.7067V205.566H71.0821V199.169Z" fill="#17161B"/>
<path d="M83.8329 199.169H77.4575V205.566H83.8329V199.169Z" fill="#17161B"/>
<path d="M96.5837 199.169H90.2083V205.566H96.5837V199.169Z" fill="#17161B"/>
<path d="M102.959 199.169H96.5837V205.566H102.959V199.169Z" fill="#17161B"/>
<path d="M122.085 199.169H115.71V205.566H122.085V199.169Z" fill="#17161B"/>
<path d="M141.212 199.169H134.836V205.566H141.212V199.169Z" fill="#17161B"/>
<path d="M153.962 199.169H147.587V205.566H153.962V199.169Z" fill="#17161B"/>
<path d="M160.338 199.169H153.962V205.566H160.338V199.169Z" fill="#17161B"/>
<path d="M166.713 199.169H160.338V205.566H166.713V199.169Z" fill="#17161B"/>
<path d="M45.5805 205.566H39.2051V211.963H45.5805V205.566Z" fill="#17161B"/>
<path d="M58.3313 205.566H51.9559V211.963H58.3313V205.566Z" fill="#17161B"/>
<path d="M64.7067 205.566H58.3313V211.963H64.7067V205.566Z" fill="#17161B"/>
<path d="M71.0821 205.566H64.7067V211.963H71.0821V205.566Z" fill="#17161B"/>
<path d="M83.8329 205.566H77.4575V211.963H83.8329V205.566Z" fill="#17161B"/>
<path d="M109.335 205.566H102.959V211.963H109.335V205.566Z" fill="#17161B"/>
<path d="M122.085 205.566H115.71V211.963H122.085V205.566Z" fill="#17161B"/>
<path d="M128.461 205.566H122.085V211.963H128.461V205.566Z" fill="#17161B"/>
<path d="M134.836 205.566H128.461V211.963H134.836V205.566Z" fill="#17161B"/>
<path d="M166.713 205.566H160.338V211.963H166.713V205.566Z" fill="#17161B"/>
<path d="M173.089 205.566H166.713V211.963H173.089V205.566Z" fill="#17161B"/>
<path d="M45.5805 211.963H39.2051V218.36H45.5805V211.963Z" fill="#17161B"/>
<path d="M83.8329 211.963H77.4575V218.36H83.8329V211.963Z" fill="#17161B"/>
<path d="M96.5837 211.963H90.2083V218.36H96.5837V211.963Z" fill="#17161B"/>
<path d="M109.335 211.963H102.959V218.36H109.335V211.963Z" fill="#17161B"/>
<path d="M115.71 211.963H109.335V218.36H115.71V211.963Z" fill="#17161B"/>
<path d="M122.085 211.963H115.71V218.36H122.085V211.963Z" fill="#17161B"/>
<path d="M134.836 211.963H128.461V218.36H134.836V211.963Z" fill="#17161B"/>
<path d="M141.212 211.963H134.836V218.36H141.212V211.963Z" fill="#17161B"/>
<path d="M166.713 211.963H160.338V218.36H166.713V211.963Z" fill="#17161B"/>
<path d="M173.089 211.963H166.713V218.36H173.089V211.963Z" fill="#17161B"/>
<path d="M45.5805 218.36H39.2051V224.757H45.5805V218.36Z" fill="#17161B"/>
<path d="M51.9559 218.36H45.5805V224.757H51.9559V218.36Z" fill="#17161B"/>
<path d="M58.3313 218.36H51.9559V224.757H58.3313V218.36Z" fill="#17161B"/>
<path d="M64.7067 218.36H58.3313V224.757H64.7067V218.36Z" fill="#17161B"/>
<path d="M71.0821 218.36H64.7067V224.757H71.0821V218.36Z" fill="#17161B"/>
<path d="M77.4575 218.36H71.0821V224.757H77.4575V218.36Z" fill="#17161B"/>
<path d="M83.8329 218.36H77.4575V224.757H83.8329V218.36Z" fill="#17161B"/>
<path d="M96.5837 218.36H90.2083V224.757H96.5837V218.36Z" fill="#17161B"/>
<path d="M102.959 218.36H96.5837V224.757H102.959V218.36Z" fill="#17161B"/>
<path d="M115.71 218.36H109.335V224.757H115.71V218.36Z" fill="#17161B"/>
<path d="M128.461 218.36H122.085V224.757H128.461V218.36Z" fill="#17161B"/>
<path d="M134.836 218.36H128.461V224.757H134.836V218.36Z" fill="#17161B"/>
<path d="M147.587 218.36H141.212V224.757H147.587V218.36Z" fill="#17161B"/>
<path d="M166.713 218.36H160.338V224.757H166.713V218.36Z" fill="#17161B"/>
<path d="M173.089 218.36H166.713V224.757H173.089V218.36Z" fill="#17161B"/>
<path d="M185.839 179.566H179.464V185.963H185.839V179.566Z" fill="#17161B"/>
<path d="M192.215 179.566H185.839V185.963H192.215V179.566Z" fill="#17161B"/>
<path d="M198.59 179.566H192.215V185.963H198.59V179.566Z" fill="#17161B"/>
<path d="M204.966 179.566H198.59V185.963H204.966V179.566Z" fill="#17161B"/>
<path d="M211.341 179.566H204.966V185.963H211.341V179.566Z" fill="#17161B"/>
<path d="M217.716 179.566H211.341V185.963H217.716V179.566Z" fill="#17161B"/>
<path d="M224.092 179.566H217.716V185.963H224.092V179.566Z" fill="#17161B"/>
<path d="M185.839 185.963H179.464V192.36H185.839V185.963Z" fill="#17161B"/>
<path d="M224.092 185.963H217.716V192.36H224.092V185.963Z" fill="#17161B"/>
<path d="M185.839 192.36H179.464V198.757H185.839V192.36Z" fill="#17161B"/>
<path d="M198.59 192.36H192.215V198.757H198.59V192.36Z" fill="#17161B"/>
<path d="M204.966 192.36H198.59V198.757H204.966V192.36Z" fill="#17161B"/>
<path d="M211.341 192.36H204.966V198.757H211.341V192.36Z" fill="#17161B"/>
<path d="M224.092 192.36H217.716V198.757H224.092V192.36Z" fill="#17161B"/>
<path d="M185.839 198.757H179.464V205.154H185.839V198.757Z" fill="#17161B"/>
<path d="M198.59 198.757H192.215V205.154H198.59V198.757Z" fill="#17161B"/>
<path d="M204.966 198.757H198.59V205.154H204.966V198.757Z" fill="#17161B"/>
<path d="M211.341 198.757H204.966V205.154H211.341V198.757Z" fill="#17161B"/>
<path d="M224.092 198.757H217.716V205.154H224.092V198.757Z" fill="#17161B"/>
<path d="M185.839 205.154H179.464V211.551H185.839V205.154Z" fill="#17161B"/>
<path d="M198.59 205.154H192.215V211.551H198.59V205.154Z" fill="#17161B"/>
<path d="M204.966 205.154H198.59V211.551H204.966V205.154Z" fill="#17161B"/>
<path d="M211.341 205.154H204.966V211.551H211.341V205.154Z" fill="#17161B"/>
<path d="M224.092 205.154H217.716V211.551H224.092V205.154Z" fill="#17161B"/>
<path d="M185.839 211.551H179.464V217.948H185.839V211.551Z" fill="#17161B"/>
<path d="M224.092 211.551H217.716V217.948H224.092V211.551Z" fill="#17161B"/>
<path d="M185.839 217.948H179.464V224.345H185.839V217.948Z" fill="#17161B"/>
<path d="M192.215 217.948H185.839V224.345H192.215V217.948Z" fill="#17161B"/>
<path d="M198.59 217.948H192.215V224.345H198.59V217.948Z" fill="#17161B"/>
<path d="M204.966 217.948H198.59V224.345H204.966V217.948Z" fill="#17161B"/>
<path d="M211.341 217.948H204.966V224.345H211.341V217.948Z" fill="#17161B"/>
<path d="M217.716 217.948H211.341V224.345H217.716V217.948Z" fill="#17161B"/>
<path d="M224.092 217.948H217.716V224.345H224.092V217.948Z" fill="#17161B"/>
<path d="M160.338 141.595H153.962V147.992H160.338V141.595Z" fill="#17161B"/>
<path d="M160.338 147.992H153.962V154.389L160.338 154.389V147.992Z" fill="#17161B"/>
<path d="M153.962 154.389L147.587 154.389V160.786L153.962 160.786L153.962 154.389Z" fill="#17161B"/>
<path d="M166.665 122.404H160.289V128.801H166.665V122.404Z" fill="#17161B"/>
<path d="M160.338 128.801H153.962V135.198L160.338 135.198V128.801Z" fill="#17161B"/>
<path d="M150.98 145.981H144.605V152.378L150.98 152.378V145.981Z" fill="#17161B"/>
<g filter="url(#filter2_d_175_1314)">
<ellipse cx="131.299" cy="132.352" rx="23.461" ry="23.5405" fill="white"/>
<path d="M154.26 132.352C154.26 145.078 143.978 155.392 131.299 155.392C118.619 155.392 108.338 145.078 108.338 132.352C108.338 119.625 118.619 109.311 131.299 109.311C143.978 109.311 154.26 119.625 154.26 132.352Z" stroke="#9FA8BE" stroke-opacity="0.15"/>
</g>
<g filter="url(#filter3_d_175_1314)">
<rect x="113.44" y="114.433" width="35.0164" height="35.1351" rx="17.5082" fill="url(#paint0_linear_175_1314)"/>
<rect x="113.94" y="114.933" width="34.0164" height="34.1351" rx="17.0082" stroke="#9FA8BE" stroke-opacity="0.15"/>
</g>
<path d="M124.21 130.98C123.558 131.068 123.018 131.113 122.591 131.113C122.444 131.113 122.371 131.057 122.371 130.946C122.371 130.692 122.546 130.426 122.894 130.149C123.254 129.861 123.834 129.612 124.632 129.401C124.992 128.138 125.403 126.98 125.864 125.928C124.739 125.983 123.817 126.349 123.097 127.025C122.917 127.202 122.771 127.34 122.658 127.44C122.546 127.54 122.444 127.59 122.354 127.59C122.276 127.59 122.197 127.523 122.118 127.39C122.039 127.257 122 127.08 122 126.859C122.011 126.006 122.596 125.313 123.755 124.781C124.913 124.25 126.342 123.989 128.041 124L133.103 124.083C133.406 124.083 133.558 124.2 133.558 124.432C133.558 124.499 133.513 124.621 133.423 124.798C133.333 124.964 133.254 125.147 133.187 125.346C133.041 125.745 132.726 125.945 132.242 125.945H131.702L129.458 125.928H128.159C128.069 126.559 127.799 127.59 127.349 129.019L130.437 129.069C130.617 129.069 130.707 129.174 130.707 129.384C130.707 129.451 130.678 129.567 130.622 129.733C130.566 129.9 130.515 130.071 130.47 130.249C130.38 130.614 130.189 130.797 129.897 130.797L127.332 130.681H127.113C127.045 130.681 126.966 130.686 126.876 130.697C126.291 132.813 125.999 134.486 125.999 135.716C125.999 136.369 125.352 136.696 124.059 136.696C123.777 136.696 123.609 136.558 123.552 136.281C123.507 135.993 123.485 135.616 123.485 135.151C123.485 134.154 123.727 132.763 124.21 130.98Z" fill="white"/>
<path d="M135.065 129.484C135.65 128.83 136.398 128.504 137.309 128.504C138.614 128.504 139.441 129.024 139.79 130.066C139.891 130.376 139.941 130.719 139.941 131.096C139.941 131.938 139.66 132.769 139.098 133.589C138.547 134.408 137.877 134.962 137.09 135.25H137.292C138.114 135.25 138.946 134.951 139.79 134.353C140.33 133.976 140.751 133.589 141.055 133.19C141.37 132.78 141.606 132.575 141.764 132.575C141.921 132.575 142 132.752 142 133.107C142 133.727 141.73 134.353 141.19 134.984C140.38 135.893 139.345 136.425 138.085 136.58C137.174 136.679 136.527 136.696 136.145 136.63C135.763 136.563 135.47 136.48 135.268 136.38C134.829 136.159 134.61 135.826 134.61 135.383C134.61 135.14 134.66 134.918 134.761 134.719C135.65 134.719 136.325 134.386 136.786 133.722C137.247 133.057 137.478 132.226 137.478 131.229C137.478 130.985 137.388 130.769 137.208 130.581C137.028 130.381 136.786 130.282 136.482 130.282C136.19 130.282 135.869 130.409 135.521 130.664C135.172 130.919 134.891 131.24 134.677 131.628C134.475 132.004 134.289 132.381 134.12 132.758C133.951 133.123 133.817 133.589 133.715 134.154C133.535 135.173 133.327 136.458 133.091 138.009C132.866 139.571 132.725 140.407 132.669 140.518C132.613 140.64 132.529 140.751 132.416 140.85C132.304 140.95 132.185 141 132.062 141C131.837 141 131.651 140.934 131.505 140.801C131.1 140.457 130.864 140.191 130.796 140.003C130.729 139.826 130.695 139.593 130.695 139.305C130.695 138.219 130.881 136.696 131.252 134.735C131.623 132.774 132.264 130.736 133.175 128.62C133.31 128.31 133.547 128.155 133.884 128.155C134.233 128.155 134.565 128.454 134.88 129.052C134.97 129.207 135.031 129.351 135.065 129.484Z" fill="white"/>
</g>
<rect x="28.5" y="28.5" width="206.297" height="207" rx="7.5" stroke="#622CFD" stroke-opacity="0.1" shape-rendering="crispEdges"/>
</g>
<path d="M32 2H11C6.02944 2 2 6.02944 2 11V32" stroke="#622CFD" stroke-width="3" stroke-linecap="round"/>
<path d="M32 264H11C6.02944 264 2 259.971 2 255V234" stroke="#622CFD" stroke-width="3" stroke-linecap="round"/>
<path d="M232 2H253C257.971 2 262 6.02944 262 11V32" stroke="#622CFD" stroke-width="3" stroke-linecap="round"/>
<path d="M232 264H253C257.971 264 262 259.971 262 255V234" stroke="#622CFD" stroke-width="3" stroke-linecap="round"/>
<path d="M1 128H263V243C263 252.428 263 257.142 260.071 260.071C257.142 263 252.428 263 243 263H21C11.5719 263 6.85786 263 3.92893 260.071C1 257.142 1 252.428 1 243V128Z" fill="url(#paint1_linear_175_1314)"/>
<rect x="9" y="127" width="260" height="2" rx="1" fill="#622CFD"/>
<defs>
<filter id="filter0_d_175_1314" x="13" y="15" width="238" height="238" filterUnits="userSpaceOnUse" color-interpolation-filters="sRGB">
<feFlood flood-opacity="0" result="BackgroundImageFix"/>
<feColorMatrix in="SourceAlpha" type="matrix" values="0 0 0 0 0 0 0 0 0 0 0 0 0 0 0 0 0 0 127 0" result="hardAlpha"/>
<feOffset dy="2"/>
<feGaussianBlur stdDeviation="7.5"/>
<feComposite in2="hardAlpha" operator="out"/>
<feColorMatrix type="matrix" values="0 0 0 0 0.305882 0 0 0 0 0.627451 0 0 0 0 0.968627 0 0 0 0.08 0"/>
<feBlend mode="normal" in2="BackgroundImageFix" result="effect1_dropShadow_175_1314"/>
<feBlend mode="normal" in="SourceGraphic" in2="effect1_dropShadow_175_1314" result="shape"/>
</filter>
<filter id="filter1_d_175_1314" x="13" y="15" width="237.297" height="238" filterUnits="userSpaceOnUse" color-interpolation-filters="sRGB">
<feFlood flood-opacity="0" result="BackgroundImageFix"/>
<feColorMatrix in="SourceAlpha" type="matrix" values="0 0 0 0 0 0 0 0 0 0 0 0 0 0 0 0 0 0 127 0" result="hardAlpha"/>
<feOffset dy="2"/>
<feGaussianBlur stdDeviation="7.5"/>
<feComposite in2="hardAlpha" operator="out"/>
<feColorMatrix type="matrix" values="0 0 0 0 0.305882 0 0 0 0 0.627451 0 0 0 0 0.968627 0 0 0 0.08 0"/>
<feBlend mode="normal" in2="BackgroundImageFix" result="effect1_dropShadow_175_1314"/>
<feBlend mode="normal" in="SourceGraphic" in2="effect1_dropShadow_175_1314" result="shape"/>
</filter>
<filter id="filter2_d_175_1314" x="92.8379" y="95.811" width="76.9219" height="77.0811" filterUnits="userSpaceOnUse" color-interpolation-filters="sRGB">
<feFlood flood-opacity="0" result="BackgroundImageFix"/>
<feColorMatrix in="SourceAlpha" type="matrix" values="0 0 0 0 0 0 0 0 0 0 0 0 0 0 0 0 0 0 127 0" result="hardAlpha"/>
<feOffset dy="2"/>
<feGaussianBlur stdDeviation="7.5"/>
<feComposite in2="hardAlpha" operator="out"/>
<feColorMatrix type="matrix" values="0 0 0 0 0.305882 0 0 0 0 0.627451 0 0 0 0 0.968627 0 0 0 0.15 0"/>
<feBlend mode="normal" in2="BackgroundImageFix" result="effect1_dropShadow_175_1314"/>
<feBlend mode="normal" in="SourceGraphic" in2="effect1_dropShadow_175_1314" result="shape"/>
</filter>
<filter id="filter3_d_175_1314" x="98.4404" y="101.433" width="65.0166" height="65.1353" filterUnits="userSpaceOnUse" color-interpolation-filters="sRGB">
<feFlood flood-opacity="0" result="BackgroundImageFix"/>
<feColorMatrix in="SourceAlpha" type="matrix" values="0 0 0 0 0 0 0 0 0 0 0 0 0 0 0 0 0 0 127 0" result="hardAlpha"/>
<feOffset dy="2"/>
<feGaussianBlur stdDeviation="7.5"/>
<feComposite in2="hardAlpha" operator="out"/>
<feColorMatrix type="matrix" values="0 0 0 0 0.305882 0 0 0 0 0.627451 0 0 0 0 0.968627 0 0 0 0.08 0"/>
<feBlend mode="normal" in2="BackgroundImageFix" result="effect1_dropShadow_175_1314"/>
<feBlend mode="normal" in="SourceGraphic" in2="effect1_dropShadow_175_1314" result="shape"/>
</filter>
<linearGradient id="paint0_linear_175_1314" x1="112.086" y1="114.433" x2="131.205" y2="139.32" gradientUnits="userSpaceOnUse">
<stop stop-color="#913AFF"/>
<stop offset="1" stop-color="#622CFD"/>
</linearGradient>
<linearGradient id="paint1_linear_175_1314" x1="132" y1="31.7132" x2="126.6" y2="249.962" gradientUnits="userSpaceOnUse">
<stop stop-color="#622CFD"/>
<stop offset="1" stop-color="#622CFD" stop-opacity="0"/>
</linearGradient>
<clipPath id="clip0_175_1314">
<rect x="28" y="28" width="207.297" height="208" rx="8" fill="white"/>
</clipPath>
</defs>
</svg>
