<svg width="159" height="233" viewBox="0 0 159 233" fill="none" xmlns="http://www.w3.org/2000/svg">
<g clip-path="url(#clip0_56_5960)">
<path d="M103.709 269.849C102.795 269.849 101.796 269.849 100.691 269.849C93.5521 269.508 80.3145 166.09 76.4261 134.413C76.4139 134.283 76.4348 134.152 76.4869 134.033C76.5389 133.913 76.6204 133.809 76.7236 133.73C77.361 133.218 92.5959 121.549 103.772 121.549C110.147 121.549 113.929 125.304 115.034 132.429C120.133 165.387 111.273 267.524 111.188 268.569C111.174 268.711 111.12 268.846 111.034 268.959C110.948 269.072 110.832 269.158 110.699 269.209C108.419 269.801 106.062 270.046 103.709 269.934V269.849Z" fill="#C6B4F9"/>
<path d="M103.772 122.232C108.936 122.232 113.1 124.834 114.396 132.471C119.539 165.706 110.551 268.42 110.551 268.42C108.349 268.967 106.08 269.19 103.815 269.081H100.84C93.7646 268.74 77.276 134.306 77.276 134.306C77.276 134.306 92.8296 122.296 103.879 122.296M103.879 120.781C92.4472 120.781 77.021 132.599 76.3623 133.111C76.1566 133.269 75.9955 133.478 75.8949 133.717C75.7943 133.957 75.7577 134.218 75.7886 134.477C75.7886 134.818 80.0383 168.501 84.9253 201.779C95.1244 270.318 98.6516 270.489 100.776 270.574C101.818 270.574 102.901 270.574 103.815 270.574C106.255 270.7 108.7 270.441 111.061 269.806C111.33 269.712 111.566 269.54 111.739 269.313C111.913 269.085 112.017 268.812 112.038 268.526C112.42 264.26 121.005 165.258 115.884 132.215C114.396 122.68 108.532 120.696 103.879 120.696V120.781Z" fill="#17161B"/>
<path d="M96.6543 123.427C89.6788 126.015 83.1153 129.608 77.1698 134.093C77.1698 134.093 93.6583 268.484 100.734 268.868C102.264 268.868 103.539 268.868 104.665 268.868C102.03 221.937 97.5043 140.364 96.6543 123.427Z" fill="#8053FF"/>
<path d="M67.0344 270.916C65.2403 270.875 63.4601 270.588 61.7436 270.062C54.243 267.929 52.6919 155.147 52.4582 132.578C52.459 132.363 52.5428 132.156 52.6919 132.002C52.8304 131.874 53.0135 131.805 53.2019 131.81L90.4498 134.711C90.5539 134.712 90.6563 134.738 90.7486 134.786C90.841 134.834 90.9206 134.903 90.981 134.988C91.0462 135.068 91.0933 135.16 91.119 135.26C91.1447 135.359 91.1484 135.463 91.1298 135.564L72.4527 268.846C72.4313 268.994 72.3728 269.133 72.2827 269.252C71.5617 269.872 70.7231 270.339 69.8174 270.625C68.9118 270.911 67.9579 271.01 67.0132 270.916H67.0344Z" fill="#C6B4F9"/>
<path d="M53.2019 132.557L90.3861 135.458L71.7302 268.74C71.0787 269.274 70.3284 269.673 69.5225 269.915C68.7165 270.156 67.8709 270.236 67.0344 270.148C65.3122 270.117 63.6028 269.844 61.9561 269.337C54.6042 267.204 53.2019 132.557 53.2019 132.557ZM53.2019 131.042C52.8233 131.044 52.4592 131.189 52.1819 131.447C52.0271 131.592 51.9038 131.767 51.8197 131.961C51.7356 132.156 51.6925 132.366 51.6932 132.578C51.6932 132.919 52.0757 166.709 53.3293 200.2C55.9004 269.145 59.5763 270.212 61.5311 270.788C63.3168 271.331 65.1686 271.626 67.0344 271.662C68.0823 271.758 69.1386 271.639 70.1393 271.312C71.14 270.986 72.0643 270.459 72.8564 269.764C73.0486 269.532 73.1736 269.251 73.2176 268.953L91.8947 135.671C91.9407 135.26 91.8265 134.847 91.576 134.519C91.4454 134.358 91.2843 134.224 91.102 134.125C90.9197 134.026 90.7197 133.964 90.5136 133.943L53.3293 131.063L53.2019 131.042Z" fill="#17161B"/>
<path d="M61.8286 133.239L53.1594 132.557C53.1594 132.557 54.5617 267.204 61.9136 269.337L62.891 269.572L61.8286 133.239Z" fill="#8053FF"/>
<path d="M29.1277 13.6311C29.1277 13.6311 31.3801 5.46098 33.9298 4.77835C36.4796 4.09573 39.7093 8.70343 41.6641 6.74089C43.619 4.77835 47.1674 1.96695e-06 48.0386 0.853279C49.3347 2.15453 44.1077 8.38344 43.789 10.1967C43.4702 12.0099 44.6389 14.2284 42.0466 15.5083C39.7099 16.8807 37.2019 17.9352 34.5885 18.6441C33.2499 18.6441 29.1277 13.6311 29.1277 13.6311Z" fill="#FFE1D9" stroke="#17161B" stroke-width="0.71" stroke-linecap="round" stroke-linejoin="round"/>
<path d="M36.3309 10.3673C36.3309 10.3673 36.3309 11.6259 37.3295 11.3699C38.3282 11.1139 40.283 7.44485 40.283 7.44485" stroke="#17161B" stroke-width="0.71" stroke-linecap="round" stroke-linejoin="round"/>
<path d="M43.6402 10.1753C43.6402 10.1753 38.2219 8.81009 37.797 9.72736C37.372 10.6446 39.9218 11.8606 39.9218 12.3512C39.9218 12.8418 38.6469 13.6311 38.6469 13.6311" stroke="#17161B" stroke-width="0.71" stroke-linecap="round" stroke-linejoin="round"/>
<path d="M34.4398 4.71436C34.4398 4.71436 32.4637 9.40738 33.5261 9.40738C33.7854 9.43897 34.0485 9.40695 34.2927 9.31407C34.537 9.22118 34.7551 9.07021 34.9285 8.87408" stroke="#17161B" stroke-width="0.71" stroke-linecap="round" stroke-linejoin="round"/>
<path d="M36.4796 5.33298C36.4796 5.33298 34.2061 9.42871 35.0773 10.3673C35.9484 11.3059 38.2645 6.39957 38.2645 6.39957" stroke="#17161B" stroke-width="0.71" stroke-linecap="round" stroke-linejoin="round"/>
<path d="M51.2046 88.0156C43.2578 88.0156 16.9313 86.181 11.2581 62.7372C6.371 42.5786 17.9937 23.9558 28.5965 11.8819C28.7339 11.7307 28.9243 11.6389 29.1278 11.6259C29.3244 11.6315 29.5127 11.7071 29.659 11.8392C31.55 13.6738 34.2698 16.2336 36.5009 18.0895C36.5844 18.1608 36.6521 18.2489 36.6996 18.3481C36.7472 18.4473 36.7736 18.5554 36.7771 18.6655C36.7763 18.8806 36.6925 19.087 36.5433 19.2414C31.2738 24.0838 26.8542 49.3194 32.4212 58.1082C33.9723 60.5614 37.8395 61.7986 43.9164 61.7986C56.1979 61.7986 73.1326 56.5723 73.3026 56.5296H73.5363H73.7488C75.5761 57.1056 76.6386 59.6868 76.7023 63.8038C76.851 71.1207 73.5151 83.2372 65.9508 85.9677C61.136 87.462 56.116 88.182 51.0771 88.1009L51.2046 88.0156Z" fill="#CFC1F9"/>
<path d="M29.1065 12.5005C31.2313 14.463 33.8236 16.9589 36.0121 18.7934C30.3601 23.9984 26.0468 49.5967 31.7625 58.6201C33.6749 61.6279 38.3282 62.6519 43.8952 62.6519C56.4316 62.5452 73.5151 57.2976 73.5151 57.2976C78.4022 58.8548 75.9586 81.5733 65.6745 85.3064C60.9793 86.6891 56.0953 87.3155 51.2046 87.1623C36.3309 87.1623 16.7189 82.0639 11.9805 62.4599C6.5835 40.5093 21.8396 20.6706 29.1065 12.5005ZM29.1065 10.9859C28.904 10.9941 28.7053 11.0437 28.5226 11.1318C28.34 11.2198 28.1771 11.3444 28.0441 11.4979C17.2076 23.5931 5.52109 42.3652 10.4719 62.9079C16.2939 86.9063 43.0878 88.7622 51.2046 88.7622C56.293 88.8551 61.3638 88.1351 66.227 86.629C74.2375 83.7065 77.6372 71.4833 77.4885 63.7185C77.4885 59.2601 76.1711 56.4443 74.0038 55.7403C73.8558 55.7196 73.7056 55.7196 73.5576 55.7403C73.4098 55.7164 73.2592 55.7164 73.1114 55.7403C72.9414 55.7403 56.1129 60.9667 43.9377 60.9667C38.222 60.9667 34.461 59.8147 33.0799 57.6389C27.6404 49.1061 31.9325 24.4677 37.0746 19.732C37.2304 19.585 37.3528 19.406 37.4335 19.2073C37.5141 19.0085 37.5511 18.7946 37.542 18.5801C37.5446 18.3636 37.4981 18.1493 37.4061 17.9534C37.314 17.7575 37.1789 17.5852 37.0108 17.4495C34.886 15.5936 32.0812 13.0551 30.1902 11.2419C29.9121 10.9684 29.5383 10.8152 29.149 10.8153L29.1065 10.9859Z" fill="#17161B"/>
<path d="M71.1565 71.2273C71.1565 71.2273 21.0535 81.8933 16.6763 58.1082C12.9579 37.8428 26.4505 19.0494 30.6151 13.8231L29.1065 12.5005C21.8396 20.6706 6.58348 40.5093 11.938 62.5452C18.6737 90.2767 55.4117 88.9968 65.6745 85.2637C67.4857 84.401 69.1045 83.1797 70.4336 81.673C71.7627 80.1664 72.7747 78.4056 73.4088 76.4963C72.1977 73.3179 71.1565 71.2273 71.1565 71.2273Z" fill="#8053FF"/>
<path d="M81.8656 147.83C72.87 148.104 63.9825 145.803 56.2404 141.196C50.9071 137.762 49.7172 124.429 53.0319 105.508C57.069 82.3413 66.9919 57.1056 76.5748 54.9297C79.6639 54.1635 82.8277 53.7414 86.009 53.6711C94.3595 53.6711 99.3528 57.6602 100.415 65.2544C101.308 71.526 104.41 80.1867 107.682 89.2741C115.14 110.051 123.618 133.623 110.402 141.196C103.411 145.228 92.1922 147.83 81.8656 147.83Z" fill="#CFC1F9"/>
<path d="M86.009 54.4178C91.9797 54.4178 98.4179 56.5509 99.6716 65.361C102.604 85.8824 128.357 130.018 110.041 140.556C101.309 144.978 91.6438 147.217 81.8656 147.084C73.007 147.323 64.262 145.038 56.6441 140.492C43.3853 131.959 60.6813 59.2388 76.7448 55.6123C79.7756 54.8429 82.8835 54.4207 86.009 54.3538M86.009 52.8392C82.7707 52.9121 79.55 53.3413 76.4049 54.1191C66.1633 56.4443 56.3254 82.2346 52.2883 105.316C50.6734 114.552 47.7836 136.567 55.8367 141.751C63.6947 146.449 72.7235 148.802 81.8656 148.534C92.3197 148.534 103.666 145.889 110.784 141.793C124.532 133.901 115.948 110.009 108.383 88.9541C105.132 79.8667 102.009 71.2913 101.159 65.0837C100.033 57.0629 94.7845 52.8392 86.009 52.8392Z" fill="#17161B"/>
<path d="M99.6715 65.361C97.8017 52.1992 84.6066 54.0125 78.4234 55.3137C84.3304 58.9615 90.1311 68.3262 91.7885 90.4047C94.3382 124.237 82.588 138.7 75.9374 146.764C89.0475 148.065 102.625 144.865 110.126 140.556C128.357 130.018 102.604 85.8824 99.6715 65.361Z" fill="#8053FF"/>
<path d="M102.944 146.892C102.09 146.893 101.265 146.582 100.623 146.017C99.9817 145.451 99.5677 144.67 99.4591 143.82C98.6304 137.1 97.5255 136.588 97.5255 136.588H95.6769C94.147 136.588 92.0222 136.759 89.9187 136.759C83.7567 136.759 82.4181 135.863 81.9506 135.01C81.4249 134.067 81.092 133.029 80.9716 131.956C80.8512 130.882 80.9456 129.796 81.2494 128.76C81.3832 128.395 81.6013 128.068 81.8858 127.804C82.1702 127.541 82.5129 127.349 82.8855 127.245C84.7129 126.754 90.1736 122.701 89.4512 119.395C89.3573 118.624 89.4343 117.842 89.6768 117.104C89.9192 116.366 90.3211 115.692 90.8536 115.128C92.1223 113.658 93.6971 112.485 95.4667 111.693C97.2364 110.9 99.1578 110.507 101.095 110.542C102.926 110.548 104.74 110.888 106.45 111.545C112.672 109.302 119.2 108.029 125.807 107.769C129.448 107.548 133.071 108.44 136.197 110.329C143.251 115.32 141.127 125.112 139.873 130.957C139.513 132.199 139.313 133.482 139.278 134.775C139.937 137.378 139.533 141.623 137.642 142.135C136.002 142.498 134.328 142.691 132.649 142.711C131.542 142.859 130.419 142.585 129.504 141.943C128.93 141.367 128.718 139.809 128.335 136.759C128.187 135.671 128.017 134.135 127.825 133.346C121.992 135.281 115.963 136.562 109.849 137.164C109.752 137.155 109.654 137.167 109.562 137.2C109.47 137.233 109.387 137.287 109.318 137.356C108.851 137.868 108.936 139.49 108.999 140.812C108.999 142.604 109.169 144.311 108.277 145.228C106.806 146.277 105.045 146.836 103.241 146.828L102.944 146.892Z" fill="#FFE178"/>
<path d="M125.807 108.494C129.309 108.303 132.789 109.173 135.793 110.99C144.76 117.39 137.918 132.322 138.577 134.988C139.236 137.655 138.577 141.132 137.493 141.388C135.915 141.736 134.306 141.922 132.691 141.943C131.783 142.045 130.867 141.85 130.078 141.388C129.143 140.449 129.036 132.301 128.123 132.301C128.067 132.285 128.008 132.285 127.953 132.301C126.89 133.367 113.079 136.29 109.892 136.29C106.705 136.29 109.382 142.967 107.767 144.567C106.414 145.453 104.836 145.934 103.22 145.953H102.944C102.272 145.958 101.622 145.716 101.117 145.271C100.611 144.827 100.286 144.212 100.203 143.543C99.8203 140.471 98.9916 135.671 97.5467 135.671C96.5056 135.671 93.2971 135.906 89.9187 135.906C86.5402 135.906 83.2042 135.65 82.6093 134.562C81.3982 132.429 81.1007 128.418 83.0768 127.885C85.0528 127.352 91.0448 123.085 90.1736 119.16C89.4937 116.024 94.4233 111.097 101.095 111.097C102.932 111.103 104.75 111.465 106.45 112.163C112.671 109.905 119.198 108.61 125.807 108.324M125.807 106.809C119.199 107.094 112.673 108.381 106.45 110.627C104.727 109.996 102.908 109.671 101.074 109.667C99.0214 109.634 96.9868 110.055 95.1141 110.899C93.2414 111.743 91.5766 112.991 90.2374 114.552C89.6222 115.219 89.1636 116.015 88.8951 116.882C88.6267 117.75 88.5553 118.667 88.6863 119.565C89.2812 122.275 84.4366 125.965 82.673 126.52C82.1885 126.653 81.7427 126.9 81.373 127.242C81.0033 127.583 80.7205 128.009 80.5482 128.482C80.2005 129.624 80.0852 130.824 80.2093 132.012C80.3335 133.199 80.6944 134.349 81.2707 135.394C81.9719 136.652 83.7142 137.527 89.8974 137.527C92.0222 137.527 94.147 137.42 95.6981 137.356H97.1855C98.0538 139.438 98.5639 141.652 98.6941 143.905C98.8242 144.942 99.3287 145.895 100.112 146.583C100.895 147.271 101.903 147.647 102.944 147.638H103.347C105.329 147.651 107.261 147.014 108.851 145.825C109.338 145.101 109.672 144.285 109.833 143.426C109.993 142.568 109.977 141.685 109.786 140.833C109.675 139.888 109.711 138.931 109.892 137.996C115.794 137.38 121.623 136.187 127.294 134.434C127.422 135.202 127.528 136.162 127.613 136.908C128.038 140.407 128.272 141.793 129.015 142.54C130.065 143.34 131.383 143.7 132.691 143.543C134.436 143.524 136.175 143.317 137.876 142.924C140.34 142.263 140.808 137.655 140 134.647C140.095 133.48 140.294 132.323 140.595 131.191C141.828 125.538 144.101 115.043 136.622 109.859C133.368 107.848 129.58 106.88 125.764 107.086L125.807 106.809Z" fill="#17161B"/>
<path d="M106.45 112.291C97.2923 108.622 89.3243 115.363 90.1742 119.288C91.0241 123.213 85.4359 127.202 83.2898 127.949C84.4573 127.942 85.6066 127.658 86.6441 127.12C87.6816 126.583 88.5781 125.807 89.2605 124.856C91.5341 121.613 90.7691 119.182 92.2353 117.07C93.7014 114.958 96.0812 112.355 99.2046 112.355C102.328 112.355 105.26 113.678 108.83 112.355C110.955 111.523 116.373 109.924 120.729 108.814C115.864 109.482 111.08 110.647 106.45 112.291Z" fill="#F1F0FF"/>
<path d="M109.892 112.633C109.892 112.633 116.946 110.499 117.541 111.161C118.136 111.822 117.902 112.249 117.902 112.249C115.216 112.849 112.499 113.304 109.764 113.614C109.531 113.379 109.892 112.633 109.892 112.633Z" fill="#17161B"/>
<path d="M135.793 110.947C134.236 109.875 132.468 109.148 130.609 108.814C131.218 109.72 131.566 110.777 131.615 111.868C131.664 112.96 131.411 114.044 130.885 115C125.722 126.114 104.325 131.319 93.8283 130.125C89.7344 129.442 85.5319 129.922 81.6956 131.511C81.7894 132.587 82.1003 133.632 82.6093 134.583C83.7992 136.716 95.3582 135.692 97.483 135.692C98.9278 135.692 99.7565 140.492 100.139 143.564C100.23 144.281 100.596 144.935 101.159 145.385C101.723 145.835 102.44 146.047 103.156 145.974C104.772 145.956 106.35 145.475 107.703 144.588C109.318 142.988 106.641 136.311 109.828 136.311C113.015 136.311 126.827 133.389 127.889 132.322C128.951 131.255 129.036 140.3 130.014 141.303C130.991 142.305 136.261 141.623 137.429 141.303C138.598 140.983 139.193 137.506 138.513 134.903C137.833 132.301 144.696 117.262 135.793 110.947Z" fill="#FFC700"/>
<path d="M100.075 113.614C100.075 113.614 102.944 105.23 104.984 106.02C107.023 106.809 106.386 113.614 106.386 113.614" fill="#FFC700"/>
<path d="M100.075 113.614C100.075 113.614 102.944 105.23 104.984 106.02C107.023 106.809 106.386 113.614 106.386 113.614" stroke="#17161B" stroke-width="0.71" stroke-linecap="round" stroke-linejoin="round"/>
<path d="M105.047 106.02C102.923 105.23 101.01 113.465 101.01 113.465C101.01 113.465 103.539 107.812 104.452 107.556C105.855 107.193 105.685 113.315 105.685 113.315C105.685 113.315 106.662 106.638 105.047 106.02Z" fill="#F1F0FF"/>
<path d="M87.7726 44.0078C87.1119 44.0228 86.4591 43.8608 85.8815 43.5385C84.8453 42.6665 83.9868 41.6017 83.353 40.4027C81.6531 37.8002 79.3158 34.2164 76.1074 33.3631C74.5435 32.791 73.1519 31.8258 72.0657 30.5598C70.9794 29.2937 70.2348 27.7691 69.9029 26.1316C69.3646 24.5378 69.262 22.8283 69.6058 21.1811C69.9497 19.534 70.7273 18.0096 71.8577 16.7669C72.505 16.1646 73.2699 15.7038 74.1038 15.4137C74.9377 15.1236 75.8226 15.0106 76.7023 15.0817C79.3828 15.2562 82.0275 15.7944 84.5641 16.6816C87.1839 17.5963 89.9136 18.1559 92.6809 18.3455C93.0701 18.3673 93.4603 18.3673 93.8495 18.3455C94.3214 18.2804 94.7969 18.2448 95.2732 18.2388C96.164 18.1531 97.0616 18.3052 97.875 18.6798C98.6885 19.0544 99.3888 19.6382 99.9052 20.372C100.417 21.3983 100.684 22.5305 100.684 23.6784C100.684 24.8264 100.417 25.9586 99.9052 26.9849C99.5343 28.0409 99.5343 29.1926 99.9052 30.2487C100.554 32.6152 100.554 35.1137 99.9052 37.4802C99.4644 39.0954 98.491 40.5127 97.1441 41.5008C95.7972 42.4888 94.1564 42.989 92.4897 42.9198H92.1709C90.8379 43.5618 89.3961 43.9453 87.9213 44.0504L87.7726 44.0078Z" fill="#17161B"/>
<path d="M76.7023 15.8283C81.3557 15.8283 87.6026 19.0921 92.6809 19.0921C93.0985 19.1139 93.517 19.1139 93.9346 19.0921C94.3803 19.0623 94.8275 19.0623 95.2732 19.0921C100.84 19.0921 100.33 24.3184 99.1828 26.7716C98.0354 29.2247 100.713 31.9126 99.1828 37.4375C98.7884 38.8971 97.9106 40.1783 96.694 41.0701C95.4774 41.9619 93.9946 42.4112 92.4897 42.3439H92.0222C90.6923 42.9943 89.2488 43.3783 87.7726 43.4745C87.2484 43.4983 86.7274 43.3804 86.264 43.1332C84.3941 42.0026 81.5469 34.2591 76.2986 32.8512C71.0503 31.4433 67.7994 22.1852 72.389 17.5988C72.9519 17.06 73.6206 16.6451 74.3523 16.3807C75.0841 16.1162 75.8628 16.008 76.6386 16.0629M76.6386 14.5484C75.6713 14.4944 74.7033 14.6429 73.7962 14.9844C72.889 15.3259 72.0625 15.853 71.369 16.5322C70.161 17.8684 69.3278 19.5025 68.9545 21.2677C68.5812 23.0329 68.6812 24.8659 69.2442 26.5796C69.6282 28.3378 70.4491 29.97 71.6305 31.3239C72.812 32.6779 74.3155 33.7096 76.0011 34.3231C78.9334 35.091 81.1644 38.5895 82.8218 41.064C83.5048 42.352 84.4366 43.4905 85.5628 44.4131C86.2606 44.8129 87.0545 45.0121 87.8576 44.989C89.3982 44.9134 90.9081 44.529 92.2984 43.8584H92.4684C94.3017 43.9233 96.1031 43.3645 97.5803 42.2725C99.0575 41.1806 100.124 39.6196 100.606 37.8428C101.288 35.3649 101.288 32.7479 100.606 30.27C100.309 28.9048 100.16 28.1368 100.479 27.4755C101.061 26.3368 101.364 25.0755 101.364 23.7958C101.364 22.516 101.061 21.2547 100.479 20.116C99.9004 19.2744 99.1097 18.6019 98.1877 18.1672C97.2657 17.7325 96.2453 17.5511 95.2307 17.6415C94.7287 17.5998 94.2241 17.5998 93.7221 17.6415C93.3612 17.664 92.9993 17.664 92.6384 17.6415C89.9423 17.4519 87.2837 16.8994 84.7341 15.9989C82.1281 15.0908 79.4124 14.5383 76.6598 14.3564L76.6386 14.5484Z" fill="#17161B"/>
<path d="M86.4552 59.4308C87.1564 59.1108 84.8403 50.194 86.4552 48.5515C88.07 46.9089 96.0593 41.5973 94.1045 39.6134C92.1497 37.6295 88.7925 42.2159 88.7925 40.1467C88.7925 38.0775 92.1072 33.7471 90.5136 31.4219C88.92 29.0968 86.0727 31.4219 81.6106 31.4219C77.1485 31.4219 74.9175 30.1633 74.2375 31.6139C73.5576 33.0645 74.11 37.6935 71.794 40.0187C69.4779 42.3439 74.3225 41.2986 74.3225 43.3465C74.3225 45.3943 72.1977 49.6181 74.8325 50.0874C77.4672 50.5567 78.7634 49.7034 78.0197 54.9297C77.276 60.156 76.8935 63.6972 86.4552 59.4308Z" fill="#FFE1D9" stroke="#17161B" stroke-width="0.71" stroke-linecap="round" stroke-linejoin="round"/>
<path d="M74.8457 37.1034C74.8883 37.2769 74.979 37.435 75.1075 37.5594C75.2359 37.6838 75.3969 37.7695 75.5719 37.8067C75.747 37.8438 75.929 37.831 76.0971 37.7695C76.2651 37.7081 76.4124 37.6006 76.522 37.4593C76.6316 37.3181 76.6991 37.1488 76.7167 36.971C76.7343 36.7932 76.7014 36.614 76.6216 36.4541C76.5419 36.2941 76.4185 36.1598 76.2658 36.0667C76.1131 35.9736 75.9372 35.9253 75.7582 35.9275C75.4827 35.9663 75.2333 36.1109 75.0629 36.3305C74.8925 36.55 74.8146 36.8273 74.8457 37.1034Z" fill="#17161B"/>
<path d="M75.6399 45.7997C75.6399 45.7997 78.5084 46.6317 78.8271 44.4985" stroke="#17161B" stroke-width="0.71" stroke-linecap="round" stroke-linejoin="round"/>
<path d="M77.33 34.6496C77.33 34.6496 76.5394 33.4321 74.8198 34.116" stroke="#17161B" stroke-width="0.71" stroke-linecap="round" stroke-linejoin="round"/>
<path d="M120.601 118.243C120.601 118.243 116.351 119.118 114.694 117.475C113.037 115.832 108.107 113.507 109.594 116.622C111.082 119.736 111.294 120.227 110.763 121.016C110.232 121.805 99.6928 124.749 100.925 125.602C102.158 126.456 109.084 124.088 108.298 125.24C107.512 126.392 101.329 130.679 103.794 130.829C106.258 130.978 109.956 127.565 109.786 127.8C109.616 128.034 105.536 134.583 107.406 133.623C109.276 132.663 112.229 127.906 112.378 128.696C112.527 129.485 111.634 134.626 112.782 132.962C113.929 131.298 115.735 127.458 118.476 126.562C121.217 125.666 121.982 121.123 120.601 118.243Z" fill="#FFE1D9" stroke="#17161B" stroke-width="0.71" stroke-linecap="round" stroke-linejoin="round"/>
<path d="M120.218 126.456C120.077 126.455 119.938 126.414 119.818 126.339C119.698 126.264 119.601 126.156 119.539 126.029C118.466 123.69 117.592 121.263 116.925 118.776C116.876 118.601 116.895 118.414 116.978 118.251C117.061 118.089 117.201 117.965 117.371 117.902L119.092 117.24C124.766 115.107 133.371 111.779 133.371 103.695C133.371 94.4791 116.946 89.0608 109.998 86.757C108.723 86.3517 107.746 86.0104 107.215 85.7757C100.181 82.8959 87.3264 62.5666 88.58 56.4656C88.6546 55.851 88.96 55.2881 89.4338 54.8917C89.9076 54.4953 90.5142 54.2953 91.1298 54.3324H91.576C114.333 56.4656 151.984 77.9896 151.942 97.231C151.942 119.31 128.569 125.858 120.325 126.413L120.218 126.456Z" fill="#CFC1F9"/>
<path d="M91.1298 55.1644H91.4486C114.821 57.2976 151.177 79.2481 151.113 97.2949C151.113 119.373 127.443 125.24 120.219 125.709C119.175 123.421 118.315 121.053 117.647 118.627C123.363 116.344 134.136 113.187 134.136 103.695C134.136 92.2393 111.039 86.629 107.427 85.0931C99.3953 81.6586 83.863 55.2284 91.1298 55.2284M91.1298 53.7138C90.3483 53.6837 89.5831 53.9431 88.9797 54.4426C88.3763 54.9422 87.977 55.647 87.8576 56.423C86.5402 62.8225 99.5016 83.4719 106.853 86.5863C107.448 86.8423 108.383 87.1623 109.701 87.5889C116.075 89.7221 132.627 95.1404 132.627 103.801C132.627 111.374 124.638 114.467 118.816 116.6C118.2 116.814 117.626 117.048 117.095 117.262C116.759 117.395 116.483 117.645 116.315 117.966C116.147 118.287 116.1 118.658 116.181 119.011C116.873 121.547 117.768 124.022 118.859 126.413C118.982 126.669 119.176 126.885 119.416 127.036C119.657 127.187 119.935 127.267 120.219 127.266C128.59 126.712 152.473 119.992 152.537 97.4016C152.537 77.8189 114.503 55.8897 91.5123 53.7565L91.1298 53.7138Z" fill="#17161B"/>
<path d="M140.447 100.729C140.68 82.0853 107.576 77.4776 96.1868 66.0437C93.1905 63.3997 90.8605 60.0809 89.3874 56.359C87.7513 61.628 100.415 82.1066 107.406 85.0931C111.018 86.629 134.115 92.2393 134.115 103.695C134.115 113.166 123.342 116.323 117.626 118.627C117.626 119.075 117.924 119.736 118.157 120.461C126.04 118.904 140.298 114.233 140.447 100.729Z" fill="#8053FF"/>
</g>
<path d="M76.1727 203.923V212.338C76.1727 215.137 87.4215 217.406 101.303 217.406C115.185 217.406 126.425 215.137 126.425 212.338V203.923H76.1727Z" fill="#FEDA5B"/>
<path d="M121.194 203.923V210.66C121.194 213.459 109.945 215.728 96.0721 215.728C89.9461 215.805 83.8277 215.273 77.8073 214.139C81.4125 216.046 90.567 217.406 101.303 217.406C115.176 217.406 126.425 215.137 126.425 212.338V203.923H121.194Z" fill="#E7BA1A"/>
<path d="M101.295 208.982C115.169 208.982 126.416 206.713 126.416 203.914C126.416 201.115 115.169 198.845 101.295 198.845C87.4201 198.845 76.1727 201.115 76.1727 203.914C76.1727 206.713 87.4201 208.982 101.295 208.982Z" fill="#FFC700"/>
<path d="M101.304 198.854H99.3066C112.252 199.057 122.44 201.238 122.44 203.905C122.44 206.572 112.252 208.744 99.3066 208.947C99.9693 208.947 100.632 208.947 101.304 208.947C115.177 208.947 126.425 206.687 126.425 203.887C126.425 201.088 115.177 198.854 101.304 198.854Z" fill="#DEAD00"/>
<path d="M101.294 206.748C109.059 206.748 115.353 205.479 115.353 203.914C115.353 202.348 109.059 201.079 101.294 201.079C93.53 201.079 87.2357 202.348 87.2357 203.914C87.2357 205.479 93.53 206.748 101.294 206.748Z" fill="#F1F0FF" fill-opacity="0.7"/>
<path d="M100.217 206.174V205.653C99.0527 205.648 97.8899 205.568 96.7356 205.415L97.3453 204.77C98.4724 204.928 99.6092 205.008 100.747 205.009C101.914 205.009 102.709 204.885 102.709 204.664C102.709 204.443 102.055 204.32 100.544 204.187C98.3527 203.984 96.8593 203.711 96.8593 203.172C96.8593 202.633 98.1229 202.289 100.314 202.192V201.653H102.32V202.139C103.313 202.142 104.304 202.203 105.289 202.324L104.697 202.951C103.721 202.826 102.738 202.764 101.755 202.766C100.42 202.766 99.9874 202.916 99.9874 203.075C99.9874 203.234 100.703 203.366 102.444 203.543C104.883 203.781 105.864 204.081 105.864 204.585C105.864 205.088 104.573 205.468 102.223 205.6V206.165L100.217 206.174Z" fill="#DEAD00"/>
<path d="M63.271 217.722C76.1302 211.05 81.1419 195.224 74.4649 182.374C67.788 169.524 51.9508 164.516 39.0916 171.189C26.2324 177.861 21.2207 193.686 27.8976 206.536C34.5746 219.386 50.4118 224.394 63.271 217.722Z" fill="#FFC700"/>
<path d="M56.3087 168.752C53.0085 168.108 49.6148 168.108 46.3147 168.752H46.5886C52.5465 169.955 57.9017 173.187 61.7394 177.897C65.5771 182.607 67.6592 188.502 67.63 194.576C67.6008 200.65 65.4621 206.525 61.5792 211.197C57.6964 215.87 52.3103 219.051 46.3412 220.196C53.1178 221.387 60.0915 219.87 65.7596 215.973C71.4278 212.075 75.3366 206.108 76.6439 199.357C77.9511 192.607 76.5522 185.613 72.7485 179.884C68.9448 174.154 63.0408 170.147 56.3087 168.726V168.752Z" fill="#DEAD00"/>
<path d="M66.0463 205.592C72.2012 197.391 70.538 185.757 62.3315 179.607C54.1249 173.456 42.4827 175.118 36.3277 183.319C30.1728 191.519 31.836 203.153 40.0425 209.304C48.249 215.454 59.8913 213.792 66.0463 205.592Z" fill="#F1F0FF" fill-opacity="0.7"/>
<path d="M46.0674 207.269L46.7566 203.817C44.6191 203.33 42.6156 202.377 40.8893 201.026L42.8333 197C44.4772 198.387 46.4377 199.348 48.5416 199.799C50.6182 200.205 52.191 199.693 52.4826 198.236C52.7742 196.779 51.7669 195.755 49.2574 194.307C45.6344 192.232 43.337 189.892 44.0439 186.36C44.6801 183.163 47.4371 181.062 51.4753 181.115L52.1645 177.671L55.6991 178.377L55.0629 181.574C56.8782 181.964 58.5911 182.731 60.0908 183.825L58.2175 187.72C56.7512 186.591 55.0467 185.812 53.2337 185.441C50.8744 184.965 49.9024 185.83 49.6992 186.854C49.4606 188.046 50.5828 189.062 53.437 190.845C57.4664 193.229 58.8095 195.578 58.1556 198.845C57.5017 202.112 54.6741 204.382 50.3442 204.276L49.6108 207.984L46.0674 207.269Z" fill="#DEAD00"/>
<path d="M139.289 219.81C149.926 214.291 154.072 201.2 148.549 190.571C143.026 179.942 129.925 175.799 119.288 181.318C108.652 186.837 104.506 199.928 110.029 210.557C115.552 221.186 128.652 225.329 139.289 219.81Z" fill="#FFC700"/>
<path d="M133.531 179.303C130.801 178.77 127.994 178.77 125.264 179.303H125.49C130.419 180.298 134.848 182.972 138.023 186.868C141.197 190.764 142.919 195.64 142.895 200.664C142.871 205.688 141.102 210.548 137.89 214.413C134.678 218.278 130.223 220.909 125.286 221.857C130.891 222.842 136.66 221.587 141.348 218.363C146.037 215.139 149.27 210.203 150.351 204.619C151.433 199.035 150.276 193.25 147.129 188.511C143.983 183.772 139.099 180.457 133.531 179.282V179.303Z" fill="#DEAD00"/>
<path d="M141.585 209.776C146.676 202.993 145.301 193.369 138.512 188.282C131.724 183.194 122.094 184.569 117.003 191.352C111.911 198.136 113.287 207.759 120.075 212.847C126.864 217.934 136.494 216.559 141.585 209.776Z" fill="#F1F0FF" fill-opacity="0.7"/>
<path d="M125.059 211.164L125.629 208.308C123.861 207.905 122.204 207.117 120.776 206L122.384 202.669C123.744 203.816 125.365 204.612 127.106 204.984C128.823 205.32 130.124 204.897 130.366 203.692C130.607 202.486 129.773 201.639 127.698 200.441C124.701 198.725 122.8 196.789 123.385 193.868C123.911 191.224 126.192 189.485 129.532 189.529L130.102 186.681L133.026 187.265L132.5 189.909C134.001 190.232 135.418 190.866 136.659 191.771L135.109 194.992C133.896 194.059 132.487 193.415 130.987 193.108C129.035 192.714 128.231 193.429 128.063 194.277C127.866 195.263 128.794 196.103 131.155 197.578C134.488 199.55 135.599 201.493 135.058 204.195C134.517 206.898 132.178 208.775 128.597 208.687L127.99 211.755L125.059 211.164Z" fill="#DEAD00"/>
<path d="M0.931152 215.931V224.346C0.931152 227.145 12.1799 229.406 26.0619 229.406C39.9439 229.406 51.1838 227.145 51.1838 224.346V215.931H0.931152Z" fill="#FEDA5B"/>
<path d="M46.3145 215.931V221.45C46.3145 224.249 35.057 226.519 21.1838 226.519C12.8776 226.519 5.5169 225.706 0.948486 224.452C1.22241 227.198 12.3563 229.415 26.0615 229.415C39.9347 229.415 51.1834 227.145 51.1834 224.346V215.931H46.3145Z" fill="#E7BA1A"/>
<path d="M51.1835 215.931C51.1835 218.722 39.9348 220.991 26.0616 220.991C12.1885 220.991 0.930908 218.722 0.930908 215.931C0.930908 213.141 12.1796 210.863 26.0616 210.863C39.9436 210.863 51.1835 213.132 51.1835 215.931Z" fill="#FFC700"/>
<path d="M48.4265 213.618C48.5846 213.748 48.7147 213.91 48.8089 214.092C48.903 214.274 48.9593 214.473 48.9743 214.677C48.9743 217.477 37.7256 219.737 23.8525 219.737C14.1324 219.737 5.64949 218.616 1.48755 216.982C3.89105 219.269 13.9822 220.991 26.0616 220.991C39.9347 220.991 51.1834 218.722 51.1834 215.931C51.1834 215.092 50.1849 214.315 48.4265 213.618Z" fill="#DEAD00"/>
<path d="M40.1207 215.931C40.1207 217.494 33.8203 218.757 26.062 218.757C18.3036 218.757 11.9856 217.494 11.9856 215.931C11.9856 214.368 18.2948 213.132 26.062 213.132C33.8292 213.132 40.1207 214.36 40.1207 215.931Z" fill="#F1F0FF" fill-opacity="0.7"/>
<path d="M24.9745 218.183V217.653C23.8103 217.65 22.6475 217.573 21.493 217.424L22.1115 216.77C23.2349 216.936 24.3691 217.019 25.5047 217.017C26.6711 217.017 27.4752 216.894 27.4752 216.673C27.4752 216.452 26.8125 216.329 25.3015 216.196C23.11 215.993 21.6167 215.719 21.6167 215.181C21.6167 214.642 22.8891 214.298 25.0717 214.201V213.671H27.0864V214.157C28.0789 214.16 29.0703 214.222 30.0555 214.342L29.4546 214.969C28.4792 214.839 27.4961 214.774 26.5121 214.775C25.1778 214.775 24.7448 214.934 24.7448 215.084C24.7448 215.234 25.4694 215.384 27.2013 215.56C29.6401 215.79 30.621 216.099 30.621 216.594C30.621 217.088 29.3309 217.477 26.9804 217.618V218.183H24.9745Z" fill="#DEAD00"/>
<path d="M49.8016 220.574V227.963C49.8016 230.421 60.1332 232.406 72.8834 232.406C85.6335 232.406 95.957 230.421 95.957 227.963V220.574H49.8016Z" fill="#FEDA5B"/>
<path d="M91.4841 220.574V225.42C91.4841 227.878 81.1444 229.87 68.4024 229.87C60.7734 229.87 54.0128 229.157 49.8169 228.056C50.0685 230.467 60.2946 232.413 72.8824 232.413C85.6244 232.413 95.956 230.421 95.956 227.963V220.574H91.4841Z" fill="#E7BA1A"/>
<path d="M95.9568 220.574C95.9568 223.024 85.6252 225.016 72.8832 225.016C60.1412 225.016 49.8015 223.024 49.8015 220.574C49.8015 218.124 60.133 216.123 72.8832 216.123C85.6333 216.123 95.9568 218.116 95.9568 220.574Z" fill="#FFC700"/>
<path d="M93.4247 218.542C93.57 218.657 93.6894 218.799 93.7759 218.958C93.8624 219.118 93.9141 219.293 93.9279 219.473C93.9279 221.931 83.5963 223.916 70.8543 223.916C61.9268 223.916 54.1355 222.931 50.3129 221.497C52.5204 223.505 61.7888 225.017 72.8833 225.017C85.6253 225.017 95.9569 223.024 95.9569 220.574C95.9569 219.837 95.0398 219.155 93.4247 218.542Z" fill="#DEAD00"/>
<path d="M85.7963 220.574C85.7963 221.946 80.0096 223.055 72.8838 223.055C65.758 223.055 59.9551 221.946 59.9551 220.574C59.9551 219.201 65.7499 218.116 72.8838 218.116C80.0177 218.116 85.7963 219.194 85.7963 220.574Z" fill="#F1F0FF" fill-opacity="0.7"/>
<path d="M71.8853 222.551V222.086C70.816 222.083 69.748 222.016 68.6876 221.884L69.2557 221.311C70.2875 221.456 71.3292 221.529 72.3723 221.528C73.4436 221.528 74.1821 221.419 74.1821 221.225C74.1821 221.032 73.5734 220.923 72.1856 220.807C70.1728 220.628 68.8012 220.388 68.8012 219.915C68.8012 219.442 69.9699 219.14 71.9746 219.054V218.589H73.825V219.016C74.7366 219.019 75.6471 219.073 76.552 219.178L76.0001 219.729C75.1042 219.615 74.2013 219.558 73.2975 219.558C72.072 219.558 71.6743 219.698 71.6743 219.83C71.6743 219.962 72.3398 220.093 73.9305 220.248C76.1705 220.45 77.0714 220.721 77.0714 221.156C77.0714 221.59 75.8865 221.931 73.7276 222.055V222.551H71.8853Z" fill="#DEAD00"/>
<path d="M63.3768 209.234V215.826C63.3768 218.019 72.1891 219.79 83.0642 219.79C93.9393 219.79 102.745 218.019 102.745 215.826V209.234H63.3768Z" fill="#FEDA5B"/>
<path d="M98.9295 209.234V213.557C98.9295 215.75 90.1104 217.528 79.2422 217.528C72.7351 217.528 66.9687 216.891 63.3898 215.909C63.6044 218.06 72.3267 219.796 83.0633 219.796C93.9315 219.796 102.744 218.019 102.744 215.826V209.234H98.9295Z" fill="#E7BA1A"/>
<path d="M102.744 209.234C102.744 211.419 93.9321 213.197 83.0639 213.197C72.1957 213.197 63.3765 211.419 63.3765 209.234C63.3765 207.048 72.1888 205.263 83.0639 205.263C93.939 205.263 102.744 207.041 102.744 209.234Z" fill="#FFC700"/>
<path d="M100.585 207.421C100.708 207.524 100.81 207.65 100.884 207.793C100.958 207.935 101.002 208.091 101.014 208.252C101.014 210.444 92.2015 212.215 81.3333 212.215C73.7186 212.215 67.0731 211.337 63.8126 210.057C65.6955 211.849 73.6009 213.197 83.0639 213.197C93.9321 213.197 102.744 211.42 102.744 209.234C102.744 208.577 101.962 207.968 100.585 207.421Z" fill="#DEAD00"/>
<path d="M94.0779 209.234C94.0779 210.458 89.1422 211.447 83.0643 211.447C76.9865 211.447 72.0369 210.458 72.0369 209.234C72.0369 208.009 76.9795 207.041 83.0643 207.041C89.1491 207.041 94.0779 208.002 94.0779 209.234Z" fill="#F1F0FF" fill-opacity="0.7"/>
<path d="M82.2125 210.998V210.583C81.3005 210.58 80.3895 210.52 79.485 210.403L79.9696 209.891C80.8497 210.021 81.7382 210.086 82.6278 210.085C83.5416 210.085 84.1715 209.988 84.1715 209.815C84.1715 209.642 83.6523 209.545 82.4686 209.441C80.7518 209.282 79.582 209.068 79.582 208.646C79.582 208.224 80.5788 207.954 82.2886 207.878V207.463H83.8669V207.843C84.6444 207.846 85.4211 207.895 86.1929 207.989L85.7221 208.48C84.958 208.378 84.1879 208.327 83.417 208.328C82.3717 208.328 82.0325 208.452 82.0325 208.57C82.0325 208.687 82.6001 208.805 83.9569 208.943C85.8675 209.123 86.6359 209.365 86.6359 209.753C86.6359 210.14 85.6252 210.444 83.7839 210.555V210.998H82.2125Z" fill="#DEAD00"/>
<path d="M97.3147 220.094V226.686C97.3147 228.879 106.127 230.65 117.002 230.65C127.877 230.65 136.682 228.879 136.682 226.686V220.094H97.3147Z" fill="#FEDA5B"/>
<path d="M132.867 220.094V224.417C132.867 226.61 124.048 228.388 113.18 228.388C106.673 228.388 100.907 227.752 97.3277 226.769C97.5423 228.921 106.265 230.657 117.001 230.657C127.869 230.657 136.682 228.879 136.682 226.686V220.094H132.867Z" fill="#E7BA1A"/>
<path d="M136.682 220.094C136.682 222.28 127.87 224.057 117.002 224.057C106.134 224.057 97.3147 222.28 97.3147 220.094C97.3147 217.908 106.127 216.123 117.002 216.123C127.877 216.123 136.682 217.901 136.682 220.094Z" fill="#FFC700"/>
<path d="M134.523 218.282C134.647 218.384 134.749 218.51 134.822 218.653C134.896 218.796 134.94 218.952 134.952 219.112C134.952 221.305 126.14 223.076 115.272 223.076C107.657 223.076 101.011 222.197 97.751 220.917C99.6339 222.709 107.539 224.058 117.002 224.058C127.87 224.058 136.683 222.28 136.683 220.094C136.683 219.437 135.9 218.828 134.523 218.282Z" fill="#DEAD00"/>
<path d="M128.015 220.094C128.015 221.318 123.08 222.308 117.002 222.308C110.924 222.308 105.974 221.318 105.974 220.094C105.974 218.87 110.917 217.901 117.002 217.901C123.086 217.901 128.015 218.863 128.015 220.094Z" fill="#F1F0FF" fill-opacity="0.7"/>
<path d="M116.15 221.858V221.443C115.238 221.44 114.327 221.38 113.423 221.263L113.907 220.751C114.788 220.881 115.676 220.946 116.566 220.945C117.479 220.945 118.109 220.848 118.109 220.675C118.109 220.502 117.59 220.405 116.406 220.301C114.69 220.142 113.52 219.928 113.52 219.506C113.52 219.084 114.517 218.814 116.226 218.738V218.323H117.805V218.703C118.582 218.706 119.359 218.755 120.131 218.849L119.66 219.34C118.896 219.238 118.126 219.187 117.355 219.188C116.31 219.188 115.97 219.312 115.97 219.43C115.97 219.547 116.538 219.665 117.895 219.803C119.805 219.983 120.574 220.225 120.574 220.613C120.574 221 119.563 221.304 117.722 221.415V221.858H116.15Z" fill="#DEAD00"/>
<path d="M108.174 211.949V218.541C108.174 220.734 116.987 222.504 127.862 222.504C138.737 222.504 147.542 220.734 147.542 218.541V211.949H108.174Z" fill="#FEDA5B"/>
<path d="M143.727 211.949V216.272C143.727 218.465 134.908 220.242 124.04 220.242C117.533 220.242 111.767 219.606 108.188 218.624C108.402 220.775 117.125 222.511 127.861 222.511C138.729 222.511 147.542 220.734 147.542 218.541V211.949H143.727Z" fill="#E7BA1A"/>
<path d="M147.542 211.949C147.542 214.134 138.73 215.912 127.862 215.912C116.994 215.912 108.174 214.134 108.174 211.949C108.174 209.763 116.987 207.978 127.862 207.978C138.737 207.978 147.542 209.756 147.542 211.949Z" fill="#FFC700"/>
<path d="M145.383 210.136C145.507 210.238 145.608 210.365 145.682 210.507C145.756 210.65 145.8 210.806 145.812 210.966C145.812 213.159 137 214.93 126.131 214.93C118.517 214.93 111.871 214.051 108.611 212.772C110.494 214.563 118.399 215.912 127.862 215.912C138.73 215.912 147.542 214.134 147.542 211.949C147.542 211.291 146.76 210.683 145.383 210.136Z" fill="#DEAD00"/>
<path d="M138.875 211.948C138.875 213.173 133.939 214.162 127.861 214.162C121.784 214.162 116.834 213.173 116.834 211.948C116.834 210.724 121.777 209.756 127.861 209.756C133.946 209.756 138.875 210.717 138.875 211.948Z" fill="#F1F0FF" fill-opacity="0.7"/>
<path d="M127.01 213.713V213.298C126.098 213.295 125.187 213.235 124.283 213.118L124.767 212.606C125.648 212.736 126.536 212.801 127.426 212.8C128.339 212.8 128.969 212.703 128.969 212.53C128.969 212.357 128.45 212.26 127.266 212.156C125.55 211.997 124.38 211.783 124.38 211.361C124.38 210.939 125.377 210.669 127.086 210.593V210.178H128.665V210.558C129.442 210.561 130.219 210.609 130.991 210.704L130.52 211.195C129.756 211.093 128.986 211.042 128.215 211.043C127.17 211.043 126.83 211.167 126.83 211.285C126.83 211.402 127.398 211.52 128.755 211.658C130.665 211.838 131.434 212.08 131.434 212.467C131.434 212.855 130.423 213.159 128.582 213.27V213.713H127.01Z" fill="#DEAD00"/>
<path d="M100.029 201.088V207.681C100.029 209.873 108.841 211.644 119.716 211.644C130.591 211.644 139.397 209.873 139.397 207.681V201.088H100.029Z" fill="#FEDA5B"/>
<path d="M135.582 201.088V205.412C135.582 207.605 126.763 209.382 115.895 209.382C109.388 209.382 103.621 208.746 100.042 207.764C100.257 209.915 108.979 211.651 119.716 211.651C130.584 211.651 139.396 209.873 139.396 207.681V201.088H135.582Z" fill="#E7BA1A"/>
<path d="M139.397 201.088C139.397 203.274 130.585 205.052 119.716 205.052C108.848 205.052 100.029 203.274 100.029 201.088C100.029 198.902 108.841 197.118 119.716 197.118C130.591 197.118 139.397 198.896 139.397 201.088Z" fill="#FFC700"/>
<path d="M137.237 199.276C137.361 199.378 137.463 199.505 137.537 199.647C137.61 199.79 137.654 199.946 137.666 200.106C137.666 202.299 128.854 204.07 117.986 204.07C110.371 204.07 103.726 203.191 100.465 201.912C102.348 203.703 110.253 205.052 119.716 205.052C130.585 205.052 139.397 203.274 139.397 201.089C139.397 200.431 138.615 199.823 137.237 199.276Z" fill="#DEAD00"/>
<path d="M130.73 201.088C130.73 202.313 125.795 203.302 119.717 203.302C113.639 203.302 108.689 202.313 108.689 201.088C108.689 199.864 113.632 198.896 119.717 198.896C125.802 198.896 130.73 199.857 130.73 201.088Z" fill="#F1F0FF" fill-opacity="0.7"/>
<path d="M118.865 202.852V202.437C117.953 202.435 117.042 202.375 116.138 202.257L116.622 201.746C117.502 201.876 118.391 201.94 119.28 201.939C120.194 201.939 120.824 201.842 120.824 201.669C120.824 201.497 120.305 201.4 119.121 201.296C117.404 201.137 116.234 200.922 116.234 200.5C116.234 200.078 117.231 199.809 118.941 199.733V199.318H120.519V199.698C121.297 199.701 122.074 199.749 122.845 199.843L122.375 200.334C121.61 200.232 120.84 200.182 120.069 200.182C119.024 200.182 118.685 200.307 118.685 200.424C118.685 200.542 119.253 200.66 120.609 200.798C122.52 200.978 123.288 201.22 123.288 201.607C123.288 201.995 122.278 202.299 120.436 202.41V202.852H118.865Z" fill="#DEAD00"/>
<path d="M81.0243 194.301V200.893C81.0243 203.086 89.8365 204.857 100.712 204.857C111.587 204.857 120.392 203.086 120.392 200.893V194.301H81.0243Z" fill="#FEDA5B"/>
<path d="M116.577 194.301V198.624C116.577 200.817 107.758 202.595 96.8897 202.595C90.3826 202.595 84.6162 201.959 81.0374 200.976C81.2519 203.128 89.9742 204.864 100.711 204.864C111.579 204.864 120.391 203.086 120.391 200.893V194.301H116.577Z" fill="#E7BA1A"/>
<path d="M120.392 194.301C120.392 196.487 111.58 198.265 100.711 198.265C89.8431 198.265 81.024 196.487 81.024 194.301C81.024 192.115 89.8362 190.33 100.711 190.33C111.586 190.33 120.392 192.108 120.392 194.301Z" fill="#FFC700"/>
<path d="M118.233 192.489C118.356 192.591 118.458 192.717 118.532 192.86C118.606 193.003 118.65 193.159 118.662 193.319C118.662 195.512 109.849 197.283 98.9813 197.283C91.3666 197.283 84.7211 196.404 81.4606 195.124C83.3435 196.916 91.2489 198.265 100.712 198.265C111.58 198.265 120.392 196.487 120.392 194.301C120.392 193.644 119.61 193.035 118.233 192.489Z" fill="#DEAD00"/>
<path d="M111.726 194.301C111.726 195.525 106.79 196.514 100.712 196.514C94.6344 196.514 89.6849 195.525 89.6849 194.301C89.6849 193.076 94.6275 192.108 100.712 192.108C106.797 192.108 111.726 193.07 111.726 194.301Z" fill="#F1F0FF" fill-opacity="0.7"/>
<path d="M99.8605 196.065V195.65C98.9485 195.648 98.0375 195.588 97.1331 195.47L97.6176 194.958C98.4977 195.088 99.3862 195.153 100.276 195.152C101.19 195.152 101.82 195.055 101.82 194.882C101.82 194.709 101.3 194.612 100.117 194.509C98.3999 194.35 97.23 194.135 97.23 193.713C97.23 193.291 98.2268 193.021 99.9366 192.945V192.53H101.515V192.911C102.292 192.913 103.069 192.962 103.841 193.056L103.37 193.547C102.606 193.445 101.836 193.394 101.065 193.395C100.02 193.395 99.6805 193.519 99.6805 193.637C99.6805 193.755 100.248 193.872 101.605 194.011C103.516 194.19 104.284 194.433 104.284 194.82C104.284 195.207 103.273 195.512 101.432 195.622V196.065H99.8605Z" fill="#DEAD00"/>
<path d="M87.8113 183.441V190.033C87.8113 192.226 96.6235 193.997 107.499 193.997C118.374 193.997 127.179 192.226 127.179 190.033V183.441H87.8113Z" fill="#FEDA5B"/>
<path d="M123.365 183.441V187.764C123.365 189.957 114.545 191.735 103.677 191.735C97.1701 191.735 91.4037 191.099 87.8248 190.116C88.0394 192.268 96.7617 194.004 107.498 194.004C118.367 194.004 127.179 192.226 127.179 190.033V183.441H123.365Z" fill="#E7BA1A"/>
<path d="M127.179 183.441C127.179 185.627 118.367 187.405 107.499 187.405C96.6304 187.405 87.8113 185.627 87.8113 183.441C87.8113 181.255 96.6235 179.47 107.499 179.47C118.374 179.47 127.179 181.248 127.179 183.441Z" fill="#FFC700"/>
<path d="M125.019 181.629C125.143 181.731 125.245 181.857 125.319 182C125.393 182.143 125.437 182.299 125.449 182.459C125.449 184.652 116.636 186.422 105.768 186.422C98.1535 186.422 91.508 185.544 88.2476 184.264C90.1305 186.056 98.0359 187.405 107.499 187.405C118.367 187.405 127.179 185.627 127.179 183.441C127.179 182.784 126.397 182.175 125.019 181.629Z" fill="#DEAD00"/>
<path d="M118.513 183.441C118.513 184.665 113.577 185.654 107.499 185.654C101.421 185.654 96.4719 184.665 96.4719 183.441C96.4719 182.217 101.414 181.248 107.499 181.248C113.584 181.248 118.513 182.21 118.513 183.441Z" fill="#F1F0FF" fill-opacity="0.7"/>
<path d="M106.647 185.205V184.79C105.735 184.787 104.824 184.727 103.92 184.61L104.405 184.098C105.285 184.228 106.173 184.293 107.063 184.292C107.977 184.292 108.606 184.195 108.606 184.022C108.606 183.849 108.087 183.752 106.904 183.649C105.187 183.489 104.017 183.275 104.017 182.853C104.017 182.431 105.014 182.161 106.724 182.085V181.67H108.302V182.051C109.079 182.053 109.856 182.102 110.628 182.196L110.157 182.687C109.393 182.585 108.623 182.534 107.852 182.535C106.807 182.535 106.467 182.659 106.467 182.777C106.467 182.895 107.035 183.012 108.392 183.15C110.302 183.33 111.071 183.572 111.071 183.96C111.071 184.347 110.06 184.652 108.219 184.762V185.205H106.647Z" fill="#DEAD00"/>
<path d="M15.5935 205.444V211.377C15.5935 213.351 23.5251 214.945 33.3134 214.945C43.1017 214.945 51.0271 213.351 51.0271 211.377V205.444H15.5935Z" fill="#FEDA5B"/>
<path d="M47.5936 205.444V209.335C47.5936 211.309 39.6558 212.909 29.8737 212.909C24.0169 212.909 18.8268 212.336 15.6055 211.452C15.7987 213.388 23.6493 214.951 33.313 214.951C43.0951 214.951 51.0266 213.351 51.0266 211.377V205.444H47.5936Z" fill="#E7BA1A"/>
<path d="M51.0267 205.443C51.0267 207.411 43.0951 209.011 33.313 209.011C23.531 209.011 15.5931 207.411 15.5931 205.443C15.5931 203.476 23.5247 201.87 33.313 201.87C43.1014 201.87 51.0267 203.47 51.0267 205.443Z" fill="#FFC700"/>
<path d="M49.0831 203.812C49.1946 203.905 49.2863 204.018 49.3527 204.147C49.4191 204.275 49.4588 204.415 49.4694 204.56C49.4694 206.533 41.5378 208.127 31.7557 208.127C24.902 208.127 18.9206 207.336 15.986 206.185C17.6807 207.797 24.7961 209.011 33.3133 209.011C43.0954 209.011 51.027 207.411 51.027 205.444C51.027 204.852 50.323 204.304 49.0831 203.812Z" fill="#DEAD00"/>
<path d="M43.2266 205.443C43.2266 206.545 38.7841 207.436 33.3136 207.436C27.8431 207.436 23.3882 206.545 23.3882 205.443C23.3882 204.341 27.8369 203.47 33.3136 203.47C38.7904 203.47 43.2266 204.335 43.2266 205.443Z" fill="#F1F0FF" fill-opacity="0.7"/>
<path d="M32.5469 207.031V206.658C31.726 206.655 30.9061 206.601 30.092 206.496L30.5282 206.035C31.3203 206.152 32.12 206.21 32.9207 206.209C33.7432 206.209 34.3102 206.122 34.3102 205.967C34.3102 205.811 33.8429 205.724 32.7774 205.63C31.2322 205.487 30.1793 205.294 30.1793 204.914C30.1793 204.535 31.0765 204.292 32.6154 204.223V203.85H34.036V204.192C34.7358 204.195 35.4349 204.238 36.1295 204.323L35.7058 204.765C35.0181 204.673 34.3249 204.627 33.631 204.628C32.6902 204.628 32.3849 204.74 32.3849 204.846C32.3849 204.952 32.8958 205.058 34.117 205.182C35.8367 205.344 36.5283 205.562 36.5283 205.911C36.5283 206.259 35.6186 206.533 33.9613 206.633V207.031H32.5469Z" fill="#DEAD00"/>
<path d="M25.3679 198.112V204.046C25.3679 206.02 33.2995 207.613 43.0878 207.613C52.8761 207.613 60.8015 206.02 60.8015 204.046V198.112H25.3679Z" fill="#FEDA5B"/>
<path d="M57.368 198.112V202.004C57.368 203.977 49.4302 205.578 39.6481 205.578C33.7913 205.578 28.6012 205.005 25.3799 204.121C25.5731 206.057 33.4237 207.62 43.0874 207.62C52.8695 207.62 60.8011 206.02 60.8011 204.046V198.112H57.368Z" fill="#E7BA1A"/>
<path d="M60.8015 198.112C60.8015 200.08 52.8699 201.68 43.0878 201.68C33.3057 201.68 25.3679 200.08 25.3679 198.112C25.3679 196.145 33.2995 194.539 43.0878 194.539C52.8761 194.539 60.8015 196.139 60.8015 198.112Z" fill="#FFC700"/>
<path d="M58.8575 196.481C58.969 196.573 59.0607 196.687 59.1271 196.815C59.1935 196.944 59.2332 197.084 59.2438 197.228C59.2438 199.202 51.3122 200.796 41.5301 200.796C34.6764 200.796 28.695 200.005 25.7604 198.853C27.4551 200.466 34.5705 201.68 43.0878 201.68C52.8698 201.68 60.8014 200.08 60.8014 198.112C60.8014 197.521 60.0974 196.973 58.8575 196.481Z" fill="#DEAD00"/>
<path d="M53.0012 198.112C53.0012 199.214 48.5588 200.105 43.0883 200.105C37.6178 200.105 33.1629 199.214 33.1629 198.112C33.1629 197.01 37.6116 196.139 43.0883 196.139C48.565 196.139 53.0012 197.004 53.0012 198.112Z" fill="#F1F0FF" fill-opacity="0.7"/>
<path d="M42.3216 199.7V199.326C41.5007 199.324 40.6808 199.27 39.8668 199.165L40.3029 198.704C41.095 198.821 41.8947 198.879 42.6955 198.878C43.5179 198.878 44.0849 198.791 44.0849 198.635C44.0849 198.48 43.6176 198.393 42.5522 198.299C41.007 198.156 39.954 197.963 39.954 197.583C39.954 197.203 40.8512 196.961 42.3902 196.892V196.519H43.8107V196.861C44.5105 196.863 45.2096 196.907 45.9042 196.992L45.4806 197.434C44.7928 197.342 44.0996 197.296 43.4058 197.297C42.4649 197.297 42.1596 197.409 42.1596 197.515C42.1596 197.621 42.6705 197.726 43.8917 197.851C45.6114 198.013 46.303 198.231 46.303 198.579C46.303 198.928 45.3933 199.202 43.736 199.302V199.7H42.3216Z" fill="#DEAD00"/>
<defs>
<clipPath id="clip0_56_5960">
<rect width="143.319" height="224.804" fill="white" transform="translate(9.30328)"/>
</clipPath>
</defs>
</svg>
