<svg width="189" height="219" viewBox="0 0 189 219" fill="none" xmlns="http://www.w3.org/2000/svg">
<line x1="70" y1="218.5" x2="189" y2="218.5" stroke="#232227"/>
<g clip-path="url(#clip0_7_1271)">
<path d="M125.144 325.272L141.443 177.272L104.654 176.51C103.77 195.058 101.498 232.106 99.4382 264.636C98.3993 281.045 97.4144 296.305 96.6894 307.463C96.3268 313.042 96.0292 317.596 95.8222 320.755C95.7187 322.334 95.6379 323.565 95.583 324.401L95.5203 325.353L95.5043 325.596L95.5025 325.623C95.8047 327.503 97.6117 329.005 100.461 330.034C103.3 331.06 107.002 331.547 110.695 331.496C114.389 331.445 118.025 330.857 120.736 329.769C123.486 328.665 125.085 327.137 125.141 325.312L125.142 325.292L125.144 325.272Z" fill="#E0D5FF" stroke="#17161B"/>
<path d="M175.478 326.73L175.475 326.71L175.473 326.69L162.328 176.5H129.585L153.265 326.764C153.266 326.765 153.266 326.765 153.266 326.766C153.357 327.3 153.716 327.814 154.377 328.294C155.039 328.775 155.962 329.19 157.08 329.526C159.313 330.197 162.22 330.523 165.086 330.499C167.956 330.474 170.735 330.098 172.719 329.395C173.714 329.043 174.468 328.623 174.938 328.159C175.393 327.71 175.565 327.243 175.478 326.73Z" fill="#E0D5FF" stroke="#17161B"/>
<path d="M81.7006 105.344C81.7006 105.344 82.4639 109.502 83.418 111.014C84.3722 112.527 87.0437 114.228 87.2346 117.441C87.3456 119.582 87.3456 121.727 87.2346 123.868C87.2346 123.868 95.4402 128.782 102.119 132.185C106.105 134.221 110.254 135.928 114.523 137.288L112.615 152.977C112.615 152.977 92.3869 138.989 87.6162 134.642C82.8455 130.294 78.4565 125.38 77.6932 125.191C76.9299 125.002 70.8234 116.685 70.6326 115.74C70.4418 114.795 73.495 112.905 74.4491 113.094C75.4033 113.283 76.5482 111.014 77.1207 109.124C77.6932 107.234 77.6932 104.966 79.029 104.966C79.9317 104.984 80.8288 105.111 81.7006 105.344Z" fill="#FFE1D9" stroke="#17161B" stroke-linecap="round" stroke-linejoin="round"/>
<path d="M53.9925 105.526L77.4337 129.077C77.7756 129.421 78.2271 129.637 78.7114 129.688C79.1957 129.739 79.6829 129.622 80.09 129.357L86.1202 125.41C86.3745 125.243 86.589 125.024 86.7488 124.766C86.9085 124.509 87.0097 124.22 87.0453 123.92C87.081 123.62 87.0501 123.316 86.9549 123.028C86.8597 122.741 86.7025 122.478 86.4942 122.258L65.1215 99.5753C64.8365 99.2712 64.4658 99.0588 64.0575 98.9658C63.6492 98.8728 63.2221 98.9034 62.8316 99.0536L54.7405 102.131C54.4158 102.254 54.1272 102.456 53.9006 102.717C53.674 102.979 53.5165 103.292 53.4423 103.628C53.3682 103.965 53.3796 104.315 53.4756 104.646C53.5716 104.977 53.7493 105.279 53.9925 105.526Z" fill="#17161B" stroke="#17161B" stroke-linecap="round" stroke-linejoin="round"/>
<path d="M102.577 182.38C112.465 185.756 122.935 187.135 133.37 186.435C143.804 185.735 153.991 182.971 163.329 178.305C163.817 171.576 164.138 163.463 164.138 160.514C164.138 155.411 168.527 136.509 170.817 126.302C173.107 116.095 170.054 104.754 167.382 93.9798C164.711 83.2057 154.215 75.834 154.215 75.834L128.263 88.1202C128.263 88.1202 108.798 105.321 107.081 114.583C105.363 123.845 112.233 132.351 112.233 134.43C112.233 136.169 105.066 169.633 102.577 182.38Z" fill="#8053FF" stroke="#17161B" stroke-linecap="round" stroke-linejoin="round"/>
<path d="M154.704 134.589C154.704 134.589 164.543 127.376 165.329 126.982" stroke="#17161B" stroke-linecap="round" stroke-linejoin="round"/>
<path d="M152.734 137.901L163.558 135.564" stroke="#17161B" stroke-linecap="round" stroke-linejoin="round"/>
<path d="M124.255 73.9671L126.545 78.6926L147.154 65.0832L141.62 57.5225L123.301 72.644L124.255 73.9671Z" fill="#17161B" stroke="#17161B" stroke-linecap="round" stroke-linejoin="round"/>
<path d="M144.597 63.1169L124.659 76.9909C124.11 77.3723 123.71 77.9282 123.524 78.5664C123.338 79.2045 123.377 79.8865 123.637 80.4991L127.69 90.1617C127.831 90.4989 128.044 90.8018 128.314 91.0495C128.585 91.2973 128.907 91.484 129.257 91.5968C129.607 91.7096 129.978 91.7459 130.344 91.703C130.71 91.6602 131.062 91.5393 131.377 91.3487L154.505 77.3236C154.807 77.1399 155.068 76.8959 155.27 76.6072C155.472 76.3185 155.611 75.9913 155.678 75.6465C155.746 75.3016 155.74 74.9466 155.661 74.604C155.583 74.2615 155.433 73.9388 155.222 73.6566L147.727 63.6084C147.37 63.1426 146.845 62.8315 146.262 62.7399C145.678 62.6483 145.082 62.7834 144.597 63.1169Z" fill="#8053FF" stroke="#17161B" stroke-linecap="round" stroke-linejoin="round"/>
<path d="M94.73 32.7761C94.73 32.7761 95.3864 41.849 97.3558 45.7579C99.3251 49.6668 102.6 53.553 101.615 55.171C100.63 56.789 98.9892 60.6904 101.287 62.3159C102.493 63.2602 104.012 63.724 105.546 63.6164C105.546 63.6164 111.217 77.2257 115.126 77.9818C121.911 79.3503 132.422 67.1775 133.445 66.8524C134.468 66.5273 142.948 60.6828 143.605 53.243C144.261 45.8033 140.322 35.0972 137.048 33.7666C133.773 32.4359 126.888 34.0841 121.018 31.8159C115.149 29.5477 96.0429 24.0056 94.73 32.7761Z" fill="#FFE1D9" stroke="#17161B" stroke-linecap="round" stroke-linejoin="round"/>
<path d="M102.681 43.905C102.681 43.905 104.843 41.3308 110.061 43.7774" stroke="#17161B" stroke-linecap="round" stroke-linejoin="round"/>
<path d="M108.035 65.6501C109.128 65.5616 110.18 65.1943 111.088 64.584" stroke="#17161B" stroke-linecap="round" stroke-linejoin="round"/>
<path d="M92.44 13.9425C92.44 13.9425 85.8832 20.7472 86.8678 26.2817C87.8525 31.8161 95.0582 36.9952 98.9892 36.9952C102.92 36.9952 105.218 36.0199 110.134 36.0199C115.049 36.0199 120.293 39.5886 122.263 41.5392C124.232 43.4899 126.842 46.0757 128.491 43.4899C130.14 40.9041 129.148 38.6208 135.697 39.2635C142.246 39.9061 140.941 49.9771 138.651 54.8462C136.361 59.7153 134.72 62.3162 132.094 62.3162C129.468 62.3162 125.865 60.6906 127.835 63.6166C129.804 66.5426 135.697 73.3549 149.139 70.754C162.581 68.1531 166.832 57.1446 166.832 50.6273C166.832 44.1099 162.252 34.3943 158.97 27.5821C155.688 20.7699 149.139 6.48005 133.079 1.93604C117.019 -2.60797 98.9892 3.22893 92.44 13.9425Z" fill="#17161B" stroke="#17161B" stroke-linecap="round" stroke-linejoin="round"/>
<path d="M128.537 45.901C128.537 45.901 128.232 39.4895 132.086 38.2647C135.941 37.0398 139.796 39.3383 139.956 43.9201C140.116 48.5019 139.49 53.2349 137.796 54.921C136.101 56.607 131.468 55.2234 131.468 55.2234" fill="#FFE1D9"/>
<path d="M128.537 45.901C128.537 45.901 128.232 39.4895 132.086 38.2647C135.941 37.0398 139.796 39.3383 139.956 43.9201C140.116 48.5019 139.49 53.2349 137.796 54.921C136.101 56.607 131.468 55.2234 131.468 55.2234" stroke="#17161B" stroke-linecap="round" stroke-linejoin="round"/>
<path d="M142.765 92.8691C142.765 92.8691 133.415 99.6738 131.506 107.991C129.598 116.307 125.018 139.935 125.018 139.935C125.018 139.935 121.965 139.557 121.965 140.313C121.81 141.281 121.554 142.232 121.202 143.148C121.202 143.148 118.721 143.148 118.53 144.093C118.339 145.038 97.9208 134.642 92.7685 131.24C87.6162 127.838 81.128 123.112 79.9831 121.6C77.7422 118.741 75.3201 116.027 72.7316 113.472C70.6325 111.582 66.4343 108.936 65.671 108.369C64.9077 107.802 63.7627 102.887 62.0453 103.643C60.3278 104.399 60.7095 107.802 61.4728 109.125C62.2361 110.448 65.2893 115.929 65.2893 115.929C65.2893 115.929 58.8012 116.496 57.4654 117.442C56.1296 118.387 55.3663 121.6 56.8929 122.734C58.4196 123.868 61.8544 124.246 61.8544 124.246C61.8544 124.246 62.8086 128.972 64.7169 130.295C66.6251 131.618 69.8692 132.941 71.5866 133.697C73.3041 134.453 79.2197 134.642 79.2197 134.642C79.2197 134.642 87.2345 143.526 92.7685 149.008C98.3025 154.489 120.057 169.989 123.301 171.123C126.545 172.257 130.362 169.8 131.697 167.91C133.033 166.019 155.36 134.831 160.703 124.435" fill="#FFE1D9"/>
<path d="M142.765 92.8691C142.765 92.8691 133.415 99.6738 131.506 107.991C129.598 116.307 125.018 139.935 125.018 139.935C125.018 139.935 121.965 139.557 121.965 140.313C121.81 141.281 121.554 142.232 121.202 143.148C121.202 143.148 118.721 143.148 118.53 144.093C118.339 145.038 97.9208 134.642 92.7685 131.24C87.6162 127.838 81.128 123.112 79.9831 121.6C77.7422 118.741 75.3201 116.027 72.7316 113.472C70.6325 111.582 66.4343 108.936 65.671 108.369C64.9077 107.802 63.7627 102.887 62.0453 103.643C60.3278 104.399 60.7095 107.802 61.4728 109.125C62.2361 110.448 65.2893 115.929 65.2893 115.929C65.2893 115.929 58.8012 116.496 57.4654 117.442C56.1296 118.387 55.3663 121.6 56.8929 122.734C58.4196 123.868 61.8544 124.246 61.8544 124.246C61.8544 124.246 62.8086 128.972 64.7169 130.295C66.6251 131.618 69.8692 132.941 71.5866 133.697C73.3041 134.453 79.2197 134.642 79.2197 134.642C79.2197 134.642 87.2345 143.526 92.7685 149.008C98.3025 154.489 120.057 169.989 123.301 171.123C126.545 172.257 130.362 169.8 131.697 167.91C133.033 166.019 155.36 134.831 160.703 124.435" stroke="#17161B" stroke-linecap="round" stroke-linejoin="round"/>
<path d="M142.765 92.8691C142.765 92.8691 133.415 99.6738 131.506 107.991C129.598 116.307 125.018 139.935 125.018 139.935C125.018 139.935 121.965 139.557 121.965 140.313C121.81 141.281 121.554 142.232 121.202 143.148C121.202 143.148 118.721 143.148 118.53 144.093C118.439 144.539 113.889 142.475 108.546 139.814L100.096 155.139C108.683 161.8 120.927 170.261 123.301 171.123C126.545 172.257 130.361 169.8 131.697 167.91C133.033 166.019 156.413 134.158 162.23 123.301" fill="#8053FF"/>
<path d="M142.765 92.8691C142.765 92.8691 133.415 99.6738 131.506 107.991C129.598 116.307 125.018 139.935 125.018 139.935C125.018 139.935 121.965 139.557 121.965 140.313C121.81 141.281 121.554 142.232 121.202 143.148C121.202 143.148 118.721 143.148 118.53 144.093C118.439 144.539 113.889 142.475 108.546 139.814L100.096 155.139C108.683 161.8 120.927 170.261 123.301 171.123C126.545 172.257 130.361 169.8 131.697 167.91C133.033 166.019 156.413 134.158 162.23 123.301" stroke="#17161B" stroke-linecap="round" stroke-linejoin="round"/>
<path d="M81.1281 107.234C81.1281 107.234 78.6473 113.85 77.5023 114.417C76.3574 114.984 75.2124 114.795 74.4491 113.094C73.6858 111.392 76.1665 106.1 76.1665 106.1C76.1665 106.1 76.9299 103.643 79.2198 103.643C81.5097 103.643 81.7005 105.344 81.7005 105.344L81.1281 107.234Z" fill="#FFE1D9" stroke="#17161B" stroke-linecap="round" stroke-linejoin="round"/>
<circle cx="105.5" cy="46.5" r="1.5" fill="#17161B"/>
<path d="M58.9358 74.8006C58.9358 82.7116 46.9995 89.1248 32.2754 89.1248C17.5513 89.1248 5.61497 82.7116 5.61497 74.8006C5.61497 66.8895 17.5513 60.4763 32.2754 60.4763C46.9995 60.4763 58.9358 66.8895 58.9358 74.8006Z" fill="#17161B"/>
<path d="M26.4011 66.7432C26.4011 70.2043 22.1526 73.01 16.9118 73.01C11.671 73.01 7.42246 70.2043 7.42246 66.7432C7.42246 63.2821 11.671 60.4763 16.9118 60.4763C22.1526 60.4763 26.4011 63.2821 26.4011 66.7432Z" fill="#17161B"/>
<path d="M22.7861 81.0674C22.7861 84.5285 18.5376 87.3343 13.2968 87.3343C8.05599 87.3343 3.80749 84.5285 3.80749 81.0674C3.80749 77.6063 8.05599 74.8006 13.2968 74.8006C18.5376 74.8006 22.7861 77.6063 22.7861 81.0674Z" fill="#17161B"/>
<path d="M46.2834 62.2669C46.2834 65.7279 40.6187 68.5337 33.631 68.5337C26.6433 68.5337 20.9786 65.7279 20.9786 62.2669C20.9786 58.8058 26.6433 56 33.631 56C40.6187 56 46.2834 58.8058 46.2834 62.2669Z" fill="#17161B"/>
<path d="M36.3422 86.439C36.3422 89.9001 31.6891 92.7059 25.9492 92.7059C20.2093 92.7059 15.5561 89.9001 15.5561 86.439C15.5561 82.9779 20.2093 80.1722 25.9492 80.1722C31.6891 80.1722 36.3422 82.9779 36.3422 86.439Z" fill="#17161B"/>
<path d="M58.0321 67.6385C58.0321 71.0995 52.3674 73.9053 45.3797 73.9053C38.3919 73.9053 32.7273 71.0995 32.7273 67.6385C32.7273 64.1774 38.3919 61.3716 45.3797 61.3716C52.3674 61.3716 58.0321 64.1774 58.0321 67.6385Z" fill="#17161B"/>
<path d="M47.1872 85.5438C47.1872 89.0049 43.5456 91.8106 39.0535 91.8106C34.5614 91.8106 30.9198 89.0049 30.9198 85.5438C30.9198 82.0827 34.5614 79.2769 39.0535 79.2769C43.5456 79.2769 47.1872 82.0827 47.1872 85.5438Z" fill="#17161B"/>
<path d="M59.8396 80.1722C59.8396 84.6221 55.5911 88.2296 50.3503 88.2296C45.1095 88.2296 40.861 84.6221 40.861 80.1722C40.861 75.7222 45.1095 72.1148 50.3503 72.1148C55.5911 72.1148 59.8396 75.7222 59.8396 80.1722Z" fill="#17161B"/>
<path d="M61.6471 73.4577C61.6471 76.1771 55.9824 78.3816 48.9946 78.3816C42.0069 78.3816 36.3422 76.1771 36.3422 73.4577C36.3422 70.7382 42.0069 68.5337 48.9946 68.5337C55.9824 68.5337 61.6471 70.7382 61.6471 73.4577Z" fill="#17161B"/>
<path d="M27.3048 73.4577C27.3048 76.1771 21.6401 78.3816 14.6524 78.3816C7.66467 78.3816 2 76.1771 2 73.4577C2 70.7382 7.66467 68.5337 14.6524 68.5337C21.6401 68.5337 27.3048 70.7382 27.3048 73.4577Z" fill="#17161B"/>
<path d="M57.2881 74.8122C57.2881 82.2453 46.1781 88.271 32.4734 88.271C18.7686 88.271 7.65865 82.2453 7.65865 74.8122C7.65865 67.3791 18.7686 61.3533 32.4734 61.3533C46.1781 61.3533 57.2881 67.3791 57.2881 74.8122Z" fill="#FFE178"/>
<path d="M27.0057 67.2416C27.0057 70.4936 23.0513 73.1298 18.1734 73.1298C13.2954 73.1298 9.341 70.4936 9.341 67.2416C9.341 63.9896 13.2954 61.3533 18.1734 61.3533C23.0513 61.3533 27.0057 63.9896 27.0057 67.2416Z" fill="#FFE178"/>
<path d="M23.641 80.7004C23.641 83.9524 19.6866 86.5886 14.8087 86.5886C9.93068 86.5886 5.9763 83.9524 5.9763 80.7004C5.9763 77.4484 9.93068 74.8122 14.8087 74.8122C19.6866 74.8122 23.641 77.4484 23.641 80.7004Z" fill="#FFE178"/>
<path d="M45.5116 63.0357C45.5116 66.2877 40.2391 68.9239 33.7351 68.9239C27.2312 68.9239 21.9586 66.2877 21.9586 63.0357C21.9586 59.7837 27.2312 57.1475 33.7351 57.1475C40.2391 57.1475 45.5116 59.7837 45.5116 63.0357Z" fill="#FFE178"/>
<path d="M36.2586 85.7475C36.2586 88.9994 31.9277 91.6357 26.5851 91.6357C21.2426 91.6357 16.9116 88.9994 16.9116 85.7475C16.9116 82.4955 21.2426 79.8592 26.5851 79.8592C31.9277 79.8592 36.2586 82.4955 36.2586 85.7475Z" fill="#FFE178"/>
<path d="M56.4469 68.0828C56.4469 71.3347 51.1744 73.971 44.6704 73.971C38.1664 73.971 32.8939 71.3347 32.8939 68.0828C32.8939 64.8308 38.1664 62.1945 44.6704 62.1945C51.1744 62.1945 56.4469 64.8308 56.4469 68.0828Z" fill="#FFE178"/>
<path d="M46.3528 84.9063C46.3528 88.1583 42.9633 90.7945 38.7822 90.7945C34.6011 90.7945 31.2116 88.1583 31.2116 84.9063C31.2116 81.6543 34.6011 79.018 38.7822 79.018C42.9633 79.018 46.3528 81.6543 46.3528 84.9063Z" fill="#FFE178"/>
<path d="M58.1292 79.8592C58.1292 84.0403 54.1749 87.4298 49.2969 87.4298C44.4189 87.4298 40.4645 84.0403 40.4645 79.8592C40.4645 75.6781 44.4189 72.2886 49.2969 72.2886C54.1749 72.2886 58.1292 75.6781 58.1292 79.8592Z" fill="#FFE178"/>
<path d="M59.8116 73.5504C59.8116 76.1055 54.5391 78.1769 48.0351 78.1769C41.5312 78.1769 36.2586 76.1055 36.2586 73.5504C36.2586 70.9953 41.5312 68.9239 48.0351 68.9239C54.5391 68.9239 59.8116 70.9953 59.8116 73.5504Z" fill="#FFE178"/>
<path d="M27.8469 73.5504C27.8469 76.1055 22.5744 78.1769 16.0704 78.1769C9.56645 78.1769 4.29395 76.1055 4.29395 73.5504C4.29395 70.9953 9.56645 68.9239 16.0704 68.9239C22.5744 68.9239 27.8469 70.9953 27.8469 73.5504Z" fill="#FFE178"/>
<path d="M57.297 76.3902C57.297 83.2871 46.6909 88.878 33.6076 88.878C20.5243 88.878 9.91818 83.2871 9.91818 76.3902C9.91818 69.4934 20.5243 63.9024 33.6076 63.9024C46.6909 63.9024 57.297 69.4934 57.297 76.3902Z" fill="#FFC700"/>
<path d="M28.3879 69.3659C28.3879 72.3832 24.6128 74.8293 19.9561 74.8293C15.2993 74.8293 11.5242 72.3832 11.5242 69.3659C11.5242 66.3485 15.2993 63.9024 19.9561 63.9024C24.6128 63.9024 28.3879 66.3485 28.3879 69.3659Z" fill="#FFC700"/>
<path d="M25.1758 81.8537C25.1758 84.871 21.4007 87.3171 16.7439 87.3171C12.0872 87.3171 8.31212 84.871 8.31212 81.8537C8.31212 78.8363 12.0872 76.3902 16.7439 76.3902C21.4007 76.3902 25.1758 78.8363 25.1758 81.8537Z" fill="#FFC700"/>
<path d="M46.0545 65.4634C46.0545 68.4808 41.0211 70.9268 34.8121 70.9268C28.6031 70.9268 23.5697 68.4808 23.5697 65.4634C23.5697 62.4461 28.6031 60 34.8121 60C41.0211 60 46.0545 62.4461 46.0545 65.4634Z" fill="#FFC700"/>
<path d="M37.2212 86.5366C37.2212 89.5539 33.0866 92 27.9864 92C22.8861 92 18.7515 89.5539 18.7515 86.5366C18.7515 83.5192 22.8861 81.0732 27.9864 81.0732C33.0866 81.0732 37.2212 83.5192 37.2212 86.5366Z" fill="#FFC700"/>
<path d="M56.4939 70.1463C56.4939 73.1637 51.4605 75.6098 45.2515 75.6098C39.0425 75.6098 34.0091 73.1637 34.0091 70.1463C34.0091 67.129 39.0425 64.6829 45.2515 64.6829C51.4605 64.6829 56.4939 67.129 56.4939 70.1463Z" fill="#FFC700"/>
<path d="M46.8576 85.7561C46.8576 88.7735 43.6218 91.2195 39.6303 91.2195C35.6388 91.2195 32.403 88.7735 32.403 85.7561C32.403 82.7387 35.6388 80.2927 39.6303 80.2927C43.6218 80.2927 46.8576 82.7387 46.8576 85.7561Z" fill="#FFC700"/>
<path d="M58.1 81.0732C58.1 84.9526 54.3249 88.0976 49.6682 88.0976C45.0114 88.0976 41.2364 84.9526 41.2364 81.0732C41.2364 77.1937 45.0114 74.0488 49.6682 74.0488C54.3249 74.0488 58.1 77.1937 58.1 81.0732Z" fill="#FFC700"/>
<path d="M59.7061 75.2195C59.7061 77.5903 54.6726 79.5122 48.4636 79.5122C42.2546 79.5122 37.2212 77.5903 37.2212 75.2195C37.2212 72.8487 42.2546 70.9268 48.4636 70.9268C54.6726 70.9268 59.7061 72.8487 59.7061 75.2195Z" fill="#FFC700"/>
<path d="M29.1909 75.2195C29.1909 77.5903 24.1575 79.5122 17.9485 79.5122C11.7395 79.5122 6.70605 77.5903 6.70605 75.2195C6.70605 72.8487 11.7395 70.9268 17.9485 70.9268C24.1575 70.9268 29.1909 72.8487 29.1909 75.2195Z" fill="#FFC700"/>
<path d="M26.4287 78.7952C26.4287 79.2672 25.9687 79.5032 25.0487 79.5032C24.8487 79.5032 24.7287 79.4032 24.6887 79.2032C24.6567 78.9952 24.6407 78.7072 24.6407 78.3392C24.6407 77.5632 24.7967 76.6032 25.1087 75.4592C25.6287 73.5712 26.1847 72.4592 26.7767 72.1232C26.8567 72.0752 26.9447 72.0512 27.0407 72.0512C27.1367 72.0512 27.1847 72.2072 27.1847 72.5192C27.1847 72.8312 27.1687 73.1072 27.1367 73.3472C27.0727 73.8272 26.9567 74.4472 26.7887 75.2072C26.6287 75.9672 26.5487 76.4152 26.5487 76.5512L26.4287 78.7952ZM27.2447 75.5672C27.2447 75.4632 27.3007 75.3952 27.4127 75.3632C27.5327 75.3312 27.6807 75.3032 27.8567 75.2792C28.0327 75.2472 28.2247 75.2032 28.4327 75.1472C28.6407 75.0912 28.8327 74.9872 29.0087 74.8352C29.4167 74.4832 29.6207 73.8952 29.6207 73.0712C29.6207 72.5432 29.4407 72.1392 29.0807 71.8592C28.7287 71.5792 28.2167 71.4392 27.5447 71.4392C26.8807 71.4392 26.2567 71.5792 25.6727 71.8592C25.4567 71.9632 25.2607 72.0592 25.0847 72.1472C24.9167 72.2352 24.7607 72.2792 24.6167 72.2792C24.4727 72.2792 24.4007 72.2352 24.4007 72.1472C24.4007 72.0112 24.5327 71.7872 24.7967 71.4752C25.0607 71.1872 25.4767 70.9192 26.0447 70.6712C26.6207 70.4232 27.2247 70.2992 27.8567 70.2992C29.0487 70.2912 29.9767 70.5712 30.6407 71.1392C31.2167 71.6352 31.5047 72.2792 31.5047 73.0712C31.5047 73.8552 31.2207 74.5592 30.6527 75.1832C30.0847 75.7992 29.3727 76.1072 28.5167 76.1072C27.6687 76.1072 27.2447 75.9272 27.2447 75.5672ZM32.8283 79.3592C32.0283 79.3592 31.6283 78.6112 31.6283 77.1152C31.6283 76.2992 31.7283 75.5592 31.9283 74.8952C32.2403 73.8712 32.5923 73.3592 32.9843 73.3592C33.2163 73.3592 33.4003 73.5152 33.5363 73.8272C33.6483 74.0672 33.7003 74.3032 33.6923 74.5352C33.6923 74.8552 33.5963 75.4192 33.4043 76.2272C33.2203 76.9312 33.1283 77.3672 33.1283 77.5352C33.1283 77.7032 33.1683 77.8192 33.2483 77.8832C33.3363 77.9472 33.4363 77.9792 33.5483 77.9792C33.6683 77.9792 33.8163 77.9032 33.9923 77.7512C34.1683 77.5992 34.3443 77.4352 34.5203 77.2592C34.6963 77.0752 34.8563 76.9072 35.0003 76.7552C35.1523 76.6032 35.2563 76.5272 35.3123 76.5272C35.4243 76.5272 35.4803 76.6632 35.4803 76.9352C35.4803 77.4952 35.1963 78.0432 34.6283 78.5792C34.0683 79.1072 33.4683 79.3672 32.8283 79.3592ZM33.3203 72.3872C33.1043 72.0672 32.9963 71.7232 32.9963 71.3552C32.9963 70.9872 33.0523 70.6832 33.1643 70.4432C33.2843 70.1952 33.3963 70.0152 33.5003 69.9032C33.6043 69.7832 33.7243 69.7232 33.8603 69.7232C34.0843 69.7232 34.2883 69.8912 34.4723 70.2272C34.6563 70.5552 34.7483 70.8312 34.7483 71.0552C34.7483 71.4712 34.6003 71.7992 34.3043 72.0392C34.0163 72.2712 33.6883 72.3872 33.3203 72.3872ZM36.4765 73.3352C36.7645 73.3352 37.0365 73.6112 37.2925 74.1632C37.6685 73.7712 38.1325 73.5752 38.6845 73.5752C39.2445 73.5752 39.6645 73.6992 39.9445 73.9472C40.2245 74.1872 40.3645 74.5312 40.3645 74.9792C40.3645 75.4192 40.3045 75.8672 40.1845 76.3232C40.0725 76.7792 39.9885 77.1072 39.9325 77.3072C39.8845 77.4992 39.8605 77.6592 39.8605 77.7872C39.8605 77.9152 39.9045 77.9792 39.9925 77.9792C40.1125 77.9792 40.2605 77.9032 40.4365 77.7512C40.6125 77.5992 40.7885 77.4352 40.9645 77.2592C41.1405 77.0752 41.3005 76.9072 41.4445 76.7552C41.5965 76.6032 41.7005 76.5272 41.7565 76.5272C41.8685 76.5272 41.9245 76.6632 41.9245 76.9352C41.9245 77.4952 41.6485 78.0352 41.0965 78.5552C40.1685 79.0992 39.5765 79.3712 39.3205 79.3712C39.2965 79.3712 39.2805 79.3672 39.2725 79.3592C38.6325 79.3592 38.3125 78.8472 38.3125 77.8232C38.3125 77.3832 38.3525 76.9792 38.4325 76.6112C38.5205 76.2432 38.5845 75.9752 38.6245 75.8072C38.6645 75.6392 38.6845 75.4672 38.6845 75.2912C38.6845 75.0032 38.5165 74.8592 38.1805 74.8592C37.8525 74.8592 37.5365 75.1072 37.2325 75.6032C36.9365 76.0912 36.7365 76.5992 36.6325 77.1272V77.2112C36.6325 77.4832 36.6725 77.7632 36.7525 78.0512C36.8405 78.3392 36.8845 78.5392 36.8845 78.6512C36.8845 78.9232 36.5445 79.1912 35.8645 79.4552C35.7605 79.4952 35.6685 79.5152 35.5885 79.5152C35.3885 79.5152 35.2485 79.4112 35.1685 79.2032C35.0965 78.9952 35.0605 78.6712 35.0605 78.2312C35.0605 77.0952 35.1045 76.2752 35.1925 75.7712C35.3125 75.0192 35.5845 74.3192 36.0085 73.6712C36.1525 73.4472 36.3085 73.3352 36.4765 73.3352Z" fill="#17161B"/>
<path d="M69.3057 91.215C69.3057 91.9667 68.7948 92.7498 67.7492 93.3771C66.7156 93.9973 65.249 94.4003 63.5969 94.4003C61.9448 94.4003 60.4782 93.9973 59.4446 93.3771C58.3991 92.7498 57.8881 91.9667 57.8881 91.215C57.8881 90.4633 58.3991 89.6802 59.4446 89.0529C60.4782 88.4327 61.9448 88.0297 63.5969 88.0297C65.249 88.0297 66.7156 88.4327 67.7492 89.0529C68.7948 89.6802 69.3057 90.4633 69.3057 91.215Z" fill="#FFC700" stroke="#17161B" stroke-width="1.2"/>
</g>
<defs>
<clipPath id="clip0_7_1271">
<rect width="172" height="218" fill="white"/>
</clipPath>
</defs>
</svg>
