<svg width="180" height="218" viewBox="0 0 180 218" fill="none" xmlns="http://www.w3.org/2000/svg">
<line x1="60" y1="217.5" x2="179" y2="217.5" stroke="#232227"/>
<g clip-path="url(#clip0_4_1271)">
<path d="M90.3678 127.371L74.8353 266.471C74.8353 266.471 63.4472 276.386 64.4447 280.393C65.4422 284.399 78.5878 278.015 80.4047 274.71C81.6941 271.959 82.6125 269.048 83.136 266.055L115.84 161.433L140.991 273.628C140.991 273.628 151.678 282.414 157.616 282.117C163.553 281.819 161.44 279.477 158.055 275.185C154.671 270.893 147.012 268.444 147.012 268.444L143.235 123.84L90.3678 127.371Z" fill="#17161B" stroke="#17161B" stroke-linecap="round" stroke-linejoin="round"/>
<path d="M142.383 121.407L90.2002 124.062L90.5619 131.187L142.745 128.531L142.383 121.407Z" fill="#865BFF" stroke="#17161B" stroke-linecap="round" stroke-linejoin="round"/>
<path d="M122.572 125.932C122.656 127.704 120.411 129.249 117.537 129.404C114.664 129.559 112.241 128.251 112.241 126.467C112.241 124.684 114.414 123.15 117.276 123.008C120.138 122.865 122.477 124.173 122.572 125.932Z" fill="white"/>
<path d="M113.63 52.8516L94.0127 58.6058L96.4471 124.256L142.463 123.103L136.644 55.2412L113.63 52.8516Z" fill="white" stroke="#17161B" stroke-linecap="round" stroke-linejoin="round"/>
<path d="M105.045 53.5771L102.409 165.618L77.4238 153.491L88.4082 118.11L80.9151 58.3803L105.045 53.5771Z" fill="#865BFF" stroke="#17161B" stroke-linecap="round" stroke-linejoin="round"/>
<path d="M124.912 52.5664L138.877 163.763L162.52 149.164L148.009 115.078L149.41 54.8966L124.912 52.5664Z" fill="#865BFF" stroke="#17161B" stroke-linecap="round" stroke-linejoin="round"/>
<path d="M110.044 66.1195L113.939 72.4681L110.828 116.683L118.214 125.433L122.038 114.911L116.124 72.5633L119.77 66.4286L114.461 59.5449L110.044 66.1195Z" fill="#17161B" stroke="#17161B" stroke-linecap="round" stroke-linejoin="round"/>
<path d="M114.854 65.2874L107.503 70.8157L101.625 56.4302L104.938 51.3061L122.917 50.3906L127.18 56.1211L123.677 69.1988L114.854 65.2874Z" fill="white" stroke="#17161B" stroke-linecap="round" stroke-linejoin="round"/>
<path d="M106.435 45.7657L108.085 54.9202L114.854 65.2873L121.076 53.0655L120.685 45.3496L106.435 45.7657Z" fill="#FFE1D9" stroke="#17161B" stroke-linecap="round" stroke-linejoin="round"/>
<path d="M80.915 58.3799L47.5938 98.7664L69.7287 125.017L78.6587 119.203L67.71 96.8523L84.05 84.9991L80.915 58.3799Z" fill="#865BFF" stroke="#17161B" stroke-linecap="round" stroke-linejoin="round"/>
<path d="M78.659 119.203L79.989 122.116L72.4721 126.36L71.4746 124.03L78.659 119.203Z" fill="white" stroke="#17161B" stroke-linecap="round" stroke-linejoin="round"/>
<path d="M79.9889 122.104L87.6364 132.139L85.1189 135.242L83.2901 134.445L79.5851 137.608C79.5851 137.608 76.8776 136.847 76.5332 135.979C76.1889 135.111 72.5195 132.9 72.4364 131.425C72.3532 129.951 72.4364 126.361 72.4364 126.361L79.9889 122.104Z" fill="#FFE1D9" stroke="#17161B" stroke-linecap="round" stroke-linejoin="round"/>
<path d="M167.971 62.7664C168.422 61.5877 168.521 60.303 168.256 59.069C167.709 57.6542 166.498 52.756 166.736 51.1391C166.973 49.5222 169.419 47.1682 169.633 45.0757C169.847 42.9833 169.633 41.0692 169.633 39.9397C169.653 39.6306 169.772 39.3361 169.972 39.1C170.172 38.8639 170.443 38.6989 170.745 38.6294C171.046 38.5599 171.362 38.5898 171.645 38.7145C171.929 38.8392 172.164 39.0521 172.317 39.3215C173.504 40.7006 174.217 42.1154 173.647 43.5777C173.259 45.2131 173.075 46.8904 173.101 48.5711C173.101 48.5711 175.001 51.1985 176.046 52.9105C177.091 54.6225 176.996 59.1046 176.295 60.8999C175.642 62.2594 174.721 63.4726 173.587 64.4665L173.706 67.5576L167.971 62.7664Z" fill="#FFE1D9" stroke="#17161B" stroke-linecap="round" stroke-linejoin="round"/>
<path d="M171.438 46.0986C171.438 46.0986 170.606 48.5477 172.067 49.1065C173.528 49.6653 179.501 50.4975 179.56 48.5715C179.62 46.6455 179.738 45.6825 178.776 45.73C177.815 45.7776 173.338 45.73 173.338 45.73C173.338 45.73 171.26 45.623 171.438 46.0986Z" fill="#FFE1D9" stroke="#17161B" stroke-linecap="round" stroke-linejoin="round"/>
<path d="M172.115 58.1066C172.115 58.1066 171.522 59.9256 172.579 60.3418C173.635 60.7579 177.934 61.388 177.97 59.9494C178.005 58.5109 178.089 57.7975 177.4 57.8332C176.711 57.8689 173.481 57.8332 173.481 57.8332C173.481 57.8332 171.985 57.7262 172.115 58.1066Z" fill="#FFE1D9" stroke="#17161B" stroke-linecap="round" stroke-linejoin="round"/>
<path d="M171.319 54.2183C171.319 54.2183 170.63 56.3345 171.854 56.8219C173.077 57.3094 178.052 58.0108 178.1 56.3701C178.147 54.7295 178.242 53.8735 177.435 53.9092C176.627 53.9448 172.899 53.9092 172.899 53.9092C172.899 53.9092 171.165 53.814 171.319 54.2183Z" fill="#FFE1D9" stroke="#17161B" stroke-linecap="round" stroke-linejoin="round"/>
<path d="M170.856 50.4498C170.856 50.4498 170.025 52.899 171.497 53.4577C172.97 54.0165 178.919 54.8487 178.978 52.9227C179.038 50.9967 179.156 50.0337 178.195 50.0813C177.233 50.1288 172.756 50.0813 172.756 50.0813C172.756 50.0813 170.678 49.9862 170.856 50.4498Z" fill="#FFE1D9" stroke="#17161B" stroke-linecap="round" stroke-linejoin="round"/>
<path d="M167.294 65.2155L168.22 61.4824L174.656 65.3225L173.576 69.3766L167.294 65.2155Z" fill="white" stroke="#17161B" stroke-linecap="round" stroke-linejoin="round"/>
<path d="M149.41 54.8848L161.736 81.1473L167.792 64.2532L173.73 69.9123L167.65 101.228C167.46 102.192 166.993 103.079 166.306 103.781C165.62 104.483 164.743 104.969 163.784 105.179C162.825 105.389 161.826 105.313 160.909 104.962C159.993 104.61 159.198 103.998 158.625 103.201L148.78 89.4458L149.41 54.8848Z" fill="#865BFF" stroke="#17161B" stroke-linecap="round" stroke-linejoin="round"/>
<path d="M100.699 35.0892C100.699 35.0892 98.2052 32.4261 97.8846 34.3758C97.564 36.3256 98.5733 39.6902 100.141 40.891C101.708 42.0917 103.086 40.1063 103.086 40.1063L100.699 35.0892Z" fill="#FFE1D9" stroke="#17161B" stroke-linecap="round" stroke-linejoin="round"/>
<path d="M124.271 33.8884C124.271 33.8884 126.468 30.9875 127.002 32.8897C127.536 34.7919 126.848 38.2516 125.411 39.6069C123.974 40.9623 122.395 39.1195 122.395 39.1195L124.271 33.8884Z" fill="#FFE1D9" stroke="#17161B" stroke-linecap="round" stroke-linejoin="round"/>
<path d="M101.696 37.8243L99.3212 32.7953C97.4097 30.1017 96.0866 27.0351 95.4381 23.7954C94.2506 18.2789 96.21 13.6898 98.7037 12.275C100.105 11.4352 101.76 11.1233 103.371 11.3953C103.371 11.3953 103.846 8.1615 111.683 5.45083C119.521 2.74017 128.047 7.62649 127.916 9.33849C127.786 11.0505 125.696 11.8114 125.696 11.8114C125.696 11.8114 131.799 14.0703 129.591 16.9593C128.229 18.7241 126.466 20.1383 124.449 21.0847C124.891 22.5415 125.252 24.022 125.529 25.5193C125.838 27.4334 124.116 35.6605 124.116 35.6605L119.901 24.0926L106.672 24.7703C106.672 24.7703 105.888 30.3818 104.487 32.3792C103.592 33.8952 103.094 35.6126 103.038 37.3725C103.038 37.3725 102.421 39.4887 101.696 37.8243Z" fill="#17161B" stroke="#17161B" stroke-linecap="round" stroke-linejoin="round"/>
<path d="M104.047 16.9229C104.024 20.3754 103.775 23.8227 103.299 27.2424C103.013 29.1452 102.031 30.8739 100.544 32.0931C100.544 32.0931 102.23 39.9279 104.368 44.1009C106.505 48.2739 110.946 51.6979 115.423 51.2342C119.9 50.7705 123.475 45.6821 123.902 41.3783C124.33 37.0745 122.228 21.1672 122.228 21.1672C122.228 21.1672 108.239 23.6282 104.047 16.9229Z" fill="#FFE1D9" stroke="#17161B" stroke-linecap="round" stroke-linejoin="round"/>
<path d="M105.235 33.0086C105.948 32.5861 106.753 32.3437 107.581 32.3023C108.409 32.2609 109.234 32.4217 109.985 32.7708" stroke="#17161B" stroke-linecap="round" stroke-linejoin="round"/>
<path d="M105.045 29.4424C105.045 29.4424 105.318 27.0646 109.284 26.8506" stroke="#17161B" stroke-linecap="round" stroke-linejoin="round"/>
<path d="M115.602 26.3273C116.499 25.9592 117.491 25.8887 118.431 26.1262C119.371 26.3638 120.211 26.8967 120.827 27.647" stroke="#17161B" stroke-linecap="round" stroke-linejoin="round"/>
<path d="M114.213 30.167C114.213 30.167 114.842 34.9226 114.878 35.5051C114.913 36.0877 116.896 36.1947 116.362 37.4073C115.828 38.62 114.106 39.904 112.669 38.9885" stroke="#17161B" stroke-linecap="round" stroke-linejoin="round"/>
<path d="M116.445 42.9717C116.445 42.9717 114.936 44.434 111.896 43.1976" stroke="#17161B" stroke-linecap="round" stroke-linejoin="round"/>
<path d="M119.45 31.6893C119.45 32.569 119.082 33.3062 118.535 33.3299C117.989 33.3537 117.514 32.6641 117.467 31.7963C117.419 30.9284 117.835 30.1913 118.381 30.1556C118.927 30.1199 119.367 30.8214 119.45 31.6893Z" fill="#17161B"/>
</g>
<path d="M57.0844 54.4543L54.613 45.5355L54.4964 45.1147L54.7257 44.7432C58.4867 38.6497 59.832 31.3696 58.4973 24.3344C57.1626 17.2992 53.2445 11.0177 47.5131 6.72497C41.7818 2.43224 34.6519 0.438792 27.5253 1.13655C20.3986 1.83431 13.7908 5.1728 9.00091 10.4957C4.21101 15.8185 1.58558 22.7406 1.64078 29.9011C1.69598 37.0616 4.42781 43.9425 9.29919 49.1909C14.1706 54.4392 20.8291 57.6755 27.9656 58.2633C35.1022 58.8511 42.2005 56.748 47.865 52.3674L48.2583 52.0632L48.7382 52.1932L57.0844 54.4543Z" fill="#FFC700" stroke="#17161B" stroke-width="2"/>
<path d="M58.9162 55.9766L58.2461 55.7766L56.3162 55.2366L48.8961 53.1566L48.9662 53.3466C48.9858 53.3246 48.9967 53.2962 48.9967 53.2666C48.9967 53.2371 48.9858 53.2086 48.9662 53.1866C48.9437 53.1724 48.9177 53.1649 48.8912 53.1649C48.8646 53.1649 48.8386 53.1724 48.8162 53.1866C44.8746 56.2118 40.2295 58.1869 35.3162 58.9266C32.1712 59.4099 28.9679 59.3693 25.8361 58.8066C20.0034 57.7939 14.6112 55.0473 10.3622 50.9251C6.11333 46.8028 3.20493 41.4961 2.01617 35.6966C1.1496 31.2674 1.30005 26.6993 2.45617 22.3366C3.6412 17.7804 5.91473 13.5799 9.08142 10.0962C12.2481 6.61248 16.2133 3.9497 20.6362 2.33664C25.1788 0.668899 30.0628 0.147838 34.855 0.819667C39.6473 1.4915 44.1997 3.33546 48.1087 6.18803C52.0176 9.04061 55.1623 12.8137 57.2638 17.1726C59.3654 21.5316 60.3588 26.3418 60.1562 31.1766C59.947 36.1602 58.4742 41.0087 55.8762 45.2666C55.8661 45.2992 55.8661 45.3341 55.8762 45.3666C56.8762 48.7766 57.6062 51.3666 58.1262 53.1966C58.3762 54.0866 58.5762 54.7566 58.7162 55.1966C58.8562 55.6366 58.9261 55.9066 58.9261 55.9066C58.9261 55.9066 58.8762 55.6866 58.7662 55.2366C58.6562 54.7866 58.4662 54.0966 58.2262 53.2366C57.7462 51.4066 57.0262 48.7366 56.1062 45.2366V45.3366C59.2525 40.278 60.7993 34.3876 60.5441 28.4358C60.289 22.4839 58.2439 16.7475 54.6761 11.9766C50.101 5.86761 43.3628 1.73946 35.8423 0.438003C28.3217 -0.863452 20.5882 0.760327 14.2262 4.97664C12.2438 6.32082 10.4249 7.89141 8.80615 9.65664C7.17502 11.4441 5.75565 13.4138 4.57617 15.5266C1.27841 21.7131 0.218661 28.8488 1.57617 35.7266C2.78266 41.6145 5.74128 47 10.0637 51.176C14.3861 55.3521 19.8702 58.1236 25.7962 59.1266C28.9728 59.6876 32.2207 59.7146 35.4062 59.2066C40.3684 58.4132 45.0479 56.3728 49.0062 53.2766L48.8361 53.1166C48.8253 53.1269 48.8166 53.1393 48.8106 53.1531C48.8047 53.1668 48.8017 53.1817 48.8017 53.1966C48.8017 53.2116 48.8047 53.2264 48.8106 53.2402C48.8166 53.254 48.8253 53.2664 48.8361 53.2766L56.3862 55.2766L58.3162 55.7966L58.9162 55.9766Z" fill="#263238"/>
<path d="M41.1782 35.8967L27.3138 46.2481L21.8893 38.4036L24.1637 36.6011L28.0458 41.846L28.3477 42.2538L28.751 41.946L39.7631 33.5427L41.1782 35.8967Z" fill="white" stroke="#17161B"/>
<path d="M24.152 19.6C24.152 19.7173 23.992 19.776 23.672 19.776C23.5547 19.776 23.4 19.76 23.208 19.728C23.016 19.696 22.6587 19.648 22.136 19.584C21.6133 19.52 21.0533 19.488 20.456 19.488C19.8693 19.488 19.336 19.648 18.856 19.968C18.376 20.2773 17.9707 20.6773 17.64 21.168C17.32 21.6587 17.0693 22.208 16.888 22.816C16.7173 23.424 16.632 24.0213 16.632 24.608C16.632 25.6747 16.8773 26.5067 17.368 27.104C17.8587 27.7013 18.5413 28 19.416 28C20.9947 28 22.2053 27.44 23.048 26.32C23.304 25.9787 23.512 25.6 23.672 25.184C22.8933 25.088 22.296 24.8 21.88 24.32C21.464 23.8293 21.256 23.232 21.256 22.528C21.256 21.8133 21.4533 21.248 21.848 20.832C22.2427 20.416 22.7707 20.208 23.432 20.208C24.104 20.208 24.616 20.464 24.968 20.976C25.3307 21.4773 25.512 22.112 25.512 22.88C25.512 23.1467 25.5013 23.3973 25.48 23.632C25.672 23.5467 25.832 23.456 25.96 23.36C26.088 23.264 26.216 23.216 26.344 23.216C26.5573 23.216 26.664 23.3067 26.664 23.488C26.664 23.8613 26.536 24.1867 26.28 24.464C26.0347 24.7307 25.704 24.9333 25.288 25.072C24.968 26.6293 24.2853 27.8613 23.24 28.768C22.2053 29.6747 20.8613 30.128 19.208 30.128C17.5547 30.128 16.264 29.6267 15.336 28.624C14.5253 27.7387 14.12 26.6027 14.12 25.216C14.12 24.2773 14.2693 23.3707 14.568 22.496C14.8773 21.6213 15.3093 20.848 15.864 20.176C16.4293 19.504 17.112 18.9653 17.912 18.56C18.712 18.1547 19.608 17.952 20.6 17.952C21.6027 17.952 22.4453 18.128 23.128 18.48C23.8107 18.832 24.152 19.2053 24.152 19.6ZM23.64 21.616C23.416 21.616 23.304 21.7973 23.304 22.16C23.304 22.8 23.56 23.264 24.072 23.552C24.104 23.264 24.12 22.9653 24.12 22.656C24.12 21.9627 23.96 21.616 23.64 21.616ZM31.0735 29.296C31.0735 29.9253 30.4602 30.24 29.2335 30.24C28.9668 30.24 28.8068 30.1067 28.7535 29.84C28.7108 29.5627 28.6895 29.2213 28.6895 28.816C28.6895 28.4107 28.7162 27.9787 28.7695 27.52C28.8335 27.0507 28.9135 26.544 29.0095 26C29.1908 24.9547 29.4468 23.8293 29.7775 22.624C30.1188 21.408 30.4548 20.4693 30.7855 19.808C30.1135 19.8507 29.4468 19.9733 28.7855 20.176C28.1242 20.368 27.6548 20.5067 27.3775 20.592C27.1002 20.6667 26.8708 20.704 26.6895 20.704C26.5082 20.704 26.4175 20.6453 26.4175 20.528C26.4175 20.3893 26.5242 20.1867 26.7375 19.92C26.9508 19.6427 27.2548 19.3653 27.6495 19.088C28.6522 18.4053 29.7668 18.0587 30.9935 18.048L36.2575 18.096C36.5455 18.096 36.6895 18.208 36.6895 18.432C36.6895 18.496 36.6468 18.6133 36.5615 18.784C36.4762 18.944 36.4015 19.12 36.3375 19.312C36.1988 19.696 35.9055 19.888 35.4575 19.888C35.0202 19.888 33.9695 19.856 32.3055 19.792C32.2628 20.2613 32.1775 20.864 32.0495 21.6C31.9215 22.3253 31.7828 23.12 31.6335 23.984C31.2708 26.192 31.0842 27.9627 31.0735 29.296ZM38.4296 29.296C38.4296 29.9253 37.8163 30.24 36.5896 30.24C36.323 30.24 36.163 30.1067 36.1096 29.84C36.067 29.5627 36.0456 29.1787 36.0456 28.688C36.0456 27.6533 36.2536 26.3733 36.6696 24.848C37.363 22.3307 38.1043 20.848 38.8936 20.4C39.0003 20.336 39.1176 20.304 39.2456 20.304C39.3736 20.304 39.4376 20.512 39.4376 20.928C39.4376 21.344 39.4163 21.712 39.3736 22.032C39.2883 22.672 39.1336 23.4987 38.9096 24.512C38.6963 25.5253 38.5896 26.1227 38.5896 26.304L38.4296 29.296ZM39.5176 24.992C39.5176 24.8533 39.5923 24.7627 39.7416 24.72C39.9016 24.6773 40.099 24.64 40.3336 24.608C40.5683 24.5653 40.8243 24.5067 41.1016 24.432C41.379 24.3573 41.635 24.2187 41.8696 24.016C42.4136 23.5467 42.6856 22.7627 42.6856 21.664C42.6856 20.96 42.4456 20.4213 41.9656 20.048C41.4963 19.6747 40.8136 19.488 39.9176 19.488C39.0323 19.488 38.2003 19.6747 37.4216 20.048C37.1336 20.1867 36.8723 20.3147 36.6376 20.432C36.4136 20.5493 36.2056 20.608 36.0136 20.608C35.8216 20.608 35.7256 20.5493 35.7256 20.432C35.7256 20.2507 35.9016 19.952 36.2536 19.536C36.6056 19.152 37.1603 18.7947 37.9176 18.464C38.6856 18.1333 39.491 17.968 40.3336 17.968C41.923 17.9573 43.1603 18.3307 44.0456 19.088C44.8136 19.7493 45.1976 20.608 45.1976 21.664C45.1976 22.7093 44.819 23.648 44.0616 24.48C43.3043 25.3013 42.355 25.712 41.2136 25.712C40.083 25.712 39.5176 25.472 39.5176 24.992Z" fill="black"/>
<defs>
<clipPath id="clip0_4_1271">
<rect width="133" height="214" fill="white" transform="translate(47 4)"/>
</clipPath>
</defs>
</svg>
