<svg width="170" height="213" viewBox="0 0 170 213" fill="none" xmlns="http://www.w3.org/2000/svg">
<g clip-path="url(#clip0_4_1272)">
<path d="M143.089 26.858C145.475 22.9647 145.154 19.6625 139.728 17.9198C140.025 16.4892 140.471 15.082 140.578 13.6536C140.787 10.8392 139.444 9.74156 136.6 10.1356C136.425 10.1464 136.25 10.1464 136.076 10.1356C136.129 9.27718 136.192 8.43754 136.23 7.5979C136.354 4.91246 133.724 2.22936 130.998 1.76498C129.124 1.44366 127.652 2.23405 126.318 3.59671C126.198 3.2584 126.047 2.93112 125.867 2.61869C125.459 2.04173 125.1 1.378 124.55 0.962867C122.154 -0.845409 119.626 -0.0737809 118.642 2.71017C118.427 3.31996 118.251 3.94148 118.138 4.30266L116.208 2.81102C115.257 2.06519 114.22 1.51402 112.973 1.4249C110.517 1.24665 109.239 2.36305 109.169 4.74829C109.149 5.39326 109.169 6.03823 109.169 6.82393C108.672 6.43226 108.247 6.0828 107.803 5.75679C107 5.16107 106.115 4.75532 105.077 4.76704C103.147 4.7905 102.062 5.84122 102.12 7.71517C102.137 8.21238 102.238 8.7096 102.32 9.3452C101.958 9.2678 101.633 9.20213 101.312 9.12708C100.991 9.05203 100.706 8.97463 100.402 8.90896C98.4724 8.50556 96.6438 8.50087 95.2326 10.1121C93.8551 11.6882 94.2242 13.3956 94.8876 15.1289C95.0106 15.4502 95.1288 15.7785 95.2446 16.1163C89.3006 16.9442 88.5841 20.4059 91.3994 24.4259C90.7239 24.7871 89.9977 25.0779 89.385 25.5188C88.8285 25.9185 88.3607 26.4231 88.0094 27.0026C87.6581 27.5821 87.4306 28.2245 87.3405 28.8914C87.2504 29.5583 87.2996 30.236 87.4851 30.884C87.6706 31.532 87.9886 32.137 88.4201 32.6628C90.1473 34.7572 92.1013 36.5514 95.1457 36.7977C95.1915 37.5787 95.235 38.2682 95.2832 39.068C94.9624 38.932 94.7815 38.8475 94.5933 38.7748C93.2062 38.2448 92.5187 38.6458 92.6634 40.0437C92.7653 41.4058 93.0168 42.7535 93.4137 44.0636C94.1084 46.1276 95.0227 48.1211 95.8477 50.1452C96.0166 50.5603 96.1975 50.9707 96.4219 51.4984C95.5968 51.5829 94.8876 51.6251 94.188 51.733C92.7792 51.944 92.2075 52.5116 91.8529 53.8274C91.6454 54.5967 91.298 55.3284 91.0616 56.093C90.8741 56.611 90.7604 57.1516 90.7239 57.6996C90.707 59.4563 90.3234 60.0051 88.589 60.4741C85.1055 61.4123 81.7909 62.6905 78.843 64.7966C77.2364 65.9435 76.1412 67.3766 75.268 69.1121C72.1319 75.3133 70.588 81.9811 68.9958 88.642C68.3759 91.257 67.8162 93.8839 67.23 96.506C67.1649 96.8038 67.1046 97.1017 67.0611 97.4019C66.7934 99.3181 66.9188 99.4682 68.8776 99.6769C69.0182 99.7168 69.1541 99.771 69.2829 99.8387C69.0417 101.234 68.7643 102.653 68.511 104.089C67.8114 108.031 67.1311 111.976 66.4122 115.914C66.1671 117.167 66.2628 118.46 66.6896 119.666C68.137 123.729 69.5844 127.803 71.1573 131.818C71.8472 133.57 72.3345 135.251 71.8183 137.118C71.676 137.632 71.7314 138.197 71.6904 138.87H74.373C75.5212 140.725 76.7081 142.562 77.7913 144.455C78.0615 144.992 78.1678 145.593 78.0976 146.188C77.0217 157.485 75.859 168.774 74.8313 180.076C74.2065 186.943 73.0727 193.742 72.2018 200.574C71.5288 205.854 71.015 211.152 70.5301 216.448C69.7823 224.624 69.0835 232.804 68.4338 240.987C67.5943 251.748 66.3784 262.487 66.4315 273.297C66.4548 273.644 66.3917 273.99 66.2476 274.308C66.1036 274.626 65.8828 274.905 65.6041 275.122C64.0843 276.414 62.8057 277.894 62.9867 280.047C63.0397 280.69 63.2062 281.323 63.3461 282.118C62.263 283.837 62.1086 285.946 61.988 288.064C61.7684 291.994 65.4545 294.133 69.1333 293.223C71.4926 292.649 73.5238 291.387 75.5526 290.139C76.038 289.843 76.5059 289.52 76.9542 289.173C78.5077 287.958 80.2977 287.165 82.0587 286.279C85.3805 284.604 88.5721 282.697 91.8022 280.833C92.4173 280.476 92.977 280.263 93.6887 280.336C96.2795 280.594 98.8776 280.805 101.468 281.072C103.249 281.253 105.012 281.239 106.739 280.755C108.134 280.368 108.561 279.799 108.566 278.476C108.598 270.52 108.626 262.564 108.65 254.607C108.65 250.451 108.59 246.295 108.65 242.139C108.715 238.368 108.074 234.669 107.589 230.954C106.72 224.272 105.796 217.585 104.899 210.92C104.001 204.254 103.104 197.551 102.216 190.883C101.44 185.058 100.67 179.231 99.9077 173.403C99.6665 171.497 99.3818 169.59 99.114 167.683C99.0947 167.533 99.0344 167.385 99.0296 167.235C99.0151 166.766 98.7884 166.077 99.5121 166.011C100.236 165.945 100.163 166.649 100.236 167.13C101.715 178.486 103.193 189.841 104.667 201.196C105.907 210.692 107.08 220.193 108.433 229.676C109.248 235.445 110.363 241.168 111.251 246.931C112.119 252.592 112.869 258.268 113.663 263.939C114.411 269.31 115.154 274.681 115.892 280.052C116.119 281.663 116.575 281.961 118.193 281.48C122.724 280.132 127.242 278.746 131.772 277.397C132.853 277.076 133.96 276.846 135.222 276.531C135.62 278.659 136.098 280.547 135.063 282.55C134.585 283.505 134.43 284.583 134.619 285.629C135.385 289.091 135.875 292.606 136.086 296.141C136.202 298.278 137.019 300.29 137.977 302.216C139.95 306.203 145.021 308.616 149.486 307.737C151.602 307.321 153.568 306.658 155.315 305.326C157.423 303.721 158.463 301.742 158.258 299.148C158.217 298.644 158.197 298.139 158.164 297.544C159.638 297.154 160.007 296.052 159.939 294.743C159.879 293.636 159.867 292.506 159.616 291.436C158.675 287.449 155.922 285.233 151.959 284.281C151.202 284.098 150.427 283.987 149.675 283.847C148.678 282.242 146.037 275.049 145.962 273.602C147.981 273.103 150.034 272.575 152.094 272.089C155.587 271.268 159.09 270.49 162.578 269.655C163.384 269.452 164.168 269.171 164.916 268.815C166.674 268.001 167.162 267.173 166.928 265.297C166.587 262.584 166.17 259.877 165.796 257.166C162.921 236.217 158.523 215.531 154.301 194.817C151.786 182.34 148.539 170.013 144.577 157.896C142.647 152.016 140.795 146.11 138.821 139.954C140.223 138.394 141.774 136.628 143.378 134.909C143.822 134.44 144.141 134.025 144.018 133.319C143.394 129.777 142.794 126.232 142.218 122.683C141.502 118.281 140.804 113.877 140.124 109.469C139.789 107.316 139.509 105.153 139.229 103.179C139.711 102.489 140.247 101.975 140.467 101.352C142.72 94.958 144.524 88.452 144.727 81.6504C145.007 72.3229 141.007 65.0851 132.906 60.0731C130.54 58.6072 128.014 57.3806 125.534 56.086C123.558 55.0587 121.542 54.1088 119.549 53.1167C119.34 53.0023 119.14 52.8746 118.948 52.7344C120.041 51.4093 122.304 50.3117 123.674 50.4712C123.788 51.0223 123.877 51.6133 124.038 52.1856C124.579 54.083 125.568 55.6099 127.63 56.2595C129.256 56.7708 129.951 56.5738 130.981 55.2252C131.104 55.0657 131.234 54.9133 131.42 54.6858C132.192 55.0001 132.945 55.319 133.71 55.6239C134.421 55.9358 135.155 56.1976 135.905 56.4073C136.59 56.5776 137.31 56.5664 137.989 56.375C138.668 56.1835 139.282 55.8187 139.768 55.3184C140.253 54.8181 140.592 54.2007 140.748 53.5302C140.905 52.8597 140.875 52.1606 140.66 51.5055C140.418 50.7338 140.032 50.0068 139.719 49.2586C139.547 48.8505 139.391 48.4377 139.154 47.8373C139.791 47.7505 140.288 47.6825 140.783 47.6192C142.425 47.4081 143.943 46.8312 145.154 45.7429C145.874 45.0968 146.449 44.3126 146.842 43.4398C147.508 41.9293 146.994 40.82 145.511 40.0226C145.284 39.903 145.048 39.788 144.787 39.6708C145.67 38.6904 146.543 37.7734 147.354 36.8047C148.351 35.6102 148.844 34.092 148.734 32.5573C148.611 29.914 147.272 28.1761 144.686 27.3975C144.203 27.2474 143.697 27.102 143.205 26.9495C143.159 26.9354 143.125 26.8909 143.089 26.858ZM81.2482 72.0344C80.6354 72.3933 80.6282 73.0195 80.5462 73.6035C79.5957 80.4254 78.646 87.2473 77.6972 94.0691C77.6248 94.5992 77.4897 95.1222 77.3788 95.6687L68.8318 95.1011C69.6182 91.2266 70.4239 87.549 71.4492 83.8762L73.1837 84.9222C73.683 83.909 73.1234 83.3086 72.6795 82.8442C71.9703 82.1031 71.9992 81.3737 72.2236 80.4989C73.285 76.3476 74.9954 72.4355 76.8939 68.6032C77.348 67.7489 77.971 66.9902 78.7273 66.3704C81.8874 63.6756 85.6748 62.2121 89.5587 61.2716C90.5406 62.9133 91.4693 64.4753 92.398 66.035C91.7081 66.8535 90.4151 67.1913 90.2679 68.5047C91.4235 69.0957 92.0169 67.6697 93.0904 67.8902C93.0904 68.2748 93.0904 68.6735 93.0904 69.0629C92.9441 80.8647 92.7945 92.6697 92.6417 104.478C92.5548 110.86 92.4174 117.241 92.3353 123.625C92.3209 124.601 92.0651 125.328 91.2064 125.95C90.1879 126.739 89.2278 127.597 88.3332 128.518C88.1595 128.684 88.1933 129.053 88.133 129.327C88.4635 129.369 88.8712 129.562 89.098 129.423C89.5418 129.189 89.8844 128.776 90.2776 128.447C90.8373 127.978 91.2425 127.31 92.1448 127.115C92.123 130.296 92.1641 133.361 92.0627 136.387H82.1576C81.6245 135.296 81.1083 134.189 80.5389 133.103C80.2993 132.657 79.9981 132.245 79.6439 131.879C79.5233 131.752 79.1615 131.75 78.9637 131.82C78.8865 131.88 78.8259 131.958 78.7875 132.046C78.7492 132.135 78.7343 132.231 78.7441 132.327C78.8331 132.668 78.9525 133.002 79.1012 133.324C79.5185 134.409 79.9407 135.493 80.4304 136.762L73.2367 137.594C73.3139 136.741 73.3501 136.093 73.4345 135.453C74.0328 130.997 74.5877 126.51 75.2583 122.052C76.1581 116.085 75.1232 117.863 78.6597 112.314C78.9009 111.95 79.0529 111.544 79.2942 111.064C77.509 110.536 77.6586 112.485 76.6116 112.705C76.7347 109.265 79.0385 93.063 79.5788 91.9443C79.9904 92.4693 80.4359 92.9684 80.9128 93.4383C81.1203 93.6212 81.5377 93.5813 81.8585 93.6446C81.8585 93.3351 81.9767 92.9621 81.8392 92.7299C81.4026 91.9841 80.9707 91.1937 80.3508 90.6027C79.6271 89.8991 79.6078 89.1697 79.7284 88.2831C80.4087 83.3579 81.0528 78.4326 81.6896 73.5073C81.7668 73.0148 81.9936 72.405 81.2482 72.0344ZM102.409 84.0498L102.74 83.9583C103.464 85.7173 104.173 87.4763 104.93 89.2307C106.124 91.9771 107.314 94.7282 108.583 97.4394C109.441 99.2805 110.479 101.044 111.359 102.878C113.569 107.473 116.618 111.488 120.203 115.138C120.868 115.778 121.583 116.367 122.343 116.899C122.624 117.133 122.976 117.274 123.345 117.301C123.715 117.327 124.084 117.238 124.398 117.047C125.211 116.604 125.976 116.083 126.682 115.492C130.808 111.739 134.457 107.59 137.133 102.702C137.32 102.403 137.527 102.115 137.753 101.842C137.931 102.029 138.102 102.123 138.119 102.238C139.567 112.508 141 122.779 142.445 133.122C142.116 133.239 141.782 133.34 141.444 133.424C130.647 135.642 119.851 137.849 109.053 140.048C108.418 140.177 107.743 140.127 106.923 140.17C106.795 138.873 106.655 137.726 106.571 136.577C106.288 132.789 106.066 128.996 105.729 125.216C105.647 124.277 105.791 123.539 106.438 122.854C106.816 122.435 107.166 121.993 107.487 121.531C107.774 121.142 107.999 120.642 107.487 120.358C107.246 120.218 106.747 120.401 106.409 120.541C106.115 120.661 105.883 120.926 105.475 121.245C104.443 108.707 103.427 96.3793 102.409 84.0498ZM113.217 49.1812C112.758 49.6198 112.363 49.9997 111.962 50.3774C109.309 52.8799 107.596 55.835 107.007 59.4586C106.636 61.743 105.864 63.9687 105.227 66.2086C105.097 66.6776 104.986 67.0435 105.307 67.4797C106.698 69.3725 108.03 71.305 109.451 73.1766C110.254 74.232 111.224 75.1679 112.059 76.2045C115.74 80.7292 119.709 85.0257 123.942 89.0688C127.158 92.1764 130.424 95.2325 133.681 98.2978C134.72 99.2735 135.803 100.207 136.87 101.159C133.994 106.441 130.226 110.93 125.773 114.889C123.812 116.636 123.252 116.625 121.38 114.746C118.213 111.568 115.373 108.144 113.325 104.157C111.603 100.803 109.876 97.4535 108.194 94.0715C107.606 92.8988 107.13 91.6534 106.629 90.4315C105.49 87.6569 104.436 84.8495 103.215 82.1125C101.929 79.2324 100.53 76.4062 99.5965 73.3854C99.3657 72.6583 98.9939 71.9808 98.5013 71.3895C96.8898 69.471 95.1626 67.6369 93.5584 65.7184C92.7792 64.7802 92.1616 63.7107 91.4934 62.6858C90.9193 61.8016 90.9096 60.9174 91.4018 59.9558C91.6937 59.3882 91.754 58.7081 91.9252 58.0795C92.1062 57.4111 92.2774 56.7403 92.4825 56.0789C92.6321 55.5981 92.8854 55.1408 92.9939 54.6576C93.3341 53.1332 93.4137 53.0393 95.0179 52.915C95.5872 52.8705 96.1662 52.8892 96.7331 52.8165C97.0854 52.735 97.4288 52.6203 97.7583 52.4741C96.5763 48.1633 94.0264 44.3615 93.7828 39.5746C94.2652 40.0132 94.5933 40.1985 94.7646 40.4729C95.4956 41.574 96.164 42.7132 96.7668 43.8854C97.6618 45.7617 98.2649 47.7928 99.2974 49.5916C100.561 51.7963 102.134 53.8344 103.596 55.9241C103.796 56.2079 104.132 56.3932 104.523 56.7427C104.585 55.8585 104.573 55.2229 104.682 54.6084C105.241 51.4234 107.712 49.9036 110.375 48.623C111.296 48.2008 112.281 48.3228 113.217 49.1812ZM115.463 78.6273L115.574 78.2731C116.179 78.2215 116.78 78.2028 117.385 78.0972C117.503 78.0698 117.612 78.0152 117.703 77.938C117.794 77.8608 117.865 77.7634 117.909 77.6539C117.906 77.5336 117.874 77.4156 117.815 77.3096C117.756 77.2036 117.673 77.1126 117.571 77.0442C117.304 76.8875 116.99 76.8246 116.681 76.8659C114.584 77.335 113.265 76.3663 112.218 74.7269C111.784 74.0444 111.128 73.5003 110.614 72.8647C109.012 70.8782 107.427 68.8776 105.946 67.0247C106.428 65.6926 106.853 64.5621 107.207 63.4105C107.415 62.7351 107.731 62.2754 108.447 62.0033C110.664 61.1707 112.57 59.8362 114.259 58.2507C115.706 56.8834 117.052 55.4175 118.42 54.0291C121.098 55.3683 123.824 56.7192 126.538 58.0913C127.693 58.6729 128.817 59.3108 129.968 59.9042C130.25 60.0229 130.495 60.211 130.68 60.45C130.864 60.6889 130.981 60.9705 131.02 61.2669C131.207 62.156 131.498 63.0215 131.886 63.8468C131.99 64.0813 132.412 64.208 132.689 64.3839C132.815 64.0837 133.056 63.7788 133.041 63.4879C133.008 62.9227 132.831 62.3645 132.663 61.553C135.044 63.0189 136.94 64.5504 138.481 66.4994C142.08 71.0494 143.854 76.1693 143.586 81.9155C143.361 86.7938 142.259 91.5315 140.973 96.2339C140.855 96.5832 140.718 96.9261 140.563 97.2612L123.754 83.8152C123.809 83.44 123.826 83.2406 123.87 83.0459C124.707 79.1831 125.558 75.325 126.378 71.4598C126.504 70.8618 126.477 70.2332 126.545 69.2904C124.984 70.3622 125.546 71.9594 124.842 72.792C123.829 73.4417 122.359 72.7592 121.761 74.3798H124.557C123.71 78.1465 122.907 81.7278 122.036 85.6094L115.463 78.6273ZM128.569 26.9941C127.896 27.4444 127.392 27.7235 126.957 28.0823C125.701 29.1237 125.392 30.4418 125.968 31.9217C126.248 32.5763 126.578 33.2091 126.957 33.8144C127.64 34.9871 127.527 35.8572 126.494 36.7602C126.154 37.0743 125.766 37.3354 125.344 37.5341C123.206 38.4371 123.274 40.2336 124.075 41.8707C124.697 43.1442 125.204 43.353 126.622 42.9801C127.101 42.8488 127.607 42.8422 128.09 42.9607C128.572 43.0792 129.015 43.3188 129.372 43.6555C130.166 44.3591 130.299 45.2973 129.992 46.3128C129.473 48.0179 127.727 49.4885 125.891 49.5776C124.253 49.655 122.622 49.594 121.79 47.8068C121.759 47.7412 121.52 47.767 121.387 47.7482C121.327 47.8772 121.243 47.9827 121.25 48.0554C121.291 48.5011 121.356 48.942 121.421 49.4627C118.191 51.6861 114.736 53.3841 110.524 53.7078C110.624 53.4734 110.748 53.2495 110.894 53.0393C111.76 52.1012 112.642 51.163 113.509 50.2249C114.375 49.2868 114.232 48.4612 113.125 47.8795C112.018 47.2979 110.906 47.2041 109.825 47.7552C107.311 49.0358 104.875 50.4219 103.934 53.2997C103.848 53.4622 103.735 53.6097 103.599 53.7359C102.581 52.3662 101.582 51.0739 100.646 49.7488C100.217 49.1145 99.8472 48.4442 99.541 47.7458C98.9886 46.545 98.5399 45.2973 97.9658 44.1082C95.6427 39.2885 95.6837 34.3046 96.8368 29.2456C97.3054 27.0411 98.4892 25.041 100.214 23.5393C101.83 22.1321 103.591 20.9078 105.089 19.7539C106.37 19.8266 107.502 20.1128 108.51 19.8876C109.519 19.6625 110.372 18.9237 111.359 18.3749C114.268 20.5513 117.506 19.7469 120.746 18.7618C120.934 19.3341 121.071 19.768 121.228 20.1972C121.385 20.6264 121.53 21.0228 121.691 21.4613C121.107 21.7897 120.598 22.0454 120.126 22.3526C119.055 23.0562 118.746 23.9287 119.122 25.1154C119.735 27.0433 122.133 28.3567 124.111 27.8102C124.239 27.7535 124.355 27.6725 124.451 27.5718C124.547 27.4711 124.622 27.3529 124.67 27.2239C124.707 27.1371 124.398 26.8088 124.188 26.7548C123.706 26.6047 123.156 26.593 122.663 26.4382C122.133 26.2693 121.554 26.0935 121.139 25.7534C119.889 24.7308 120.022 23.8489 121.448 23.0843C122.205 22.6763 122.95 22.2517 123.771 21.7991C123.534 21.4558 123.322 21.0977 123.134 20.7273C122.803 19.9345 122.41 19.1465 122.234 18.3186C122.058 17.4907 122.847 16.6393 123.421 16.9723C124.28 17.4719 124.984 18.2435 125.696 18.9565C126.239 19.4983 125.696 19.9978 125.454 20.4716C124.364 22.763 125.549 24.909 126.902 25.9129C127.3 26.145 127.688 26.3913 128.569 26.9941ZM76.8721 99.9654C75.4561 110.395 74.0642 120.656 72.6723 130.924L72.3997 131.07C72.3418 130.927 72.279 130.786 72.2284 130.64C70.8606 126.764 69.4783 122.901 68.1274 119.01C67.7619 117.897 67.6922 116.713 67.9248 115.567C68.5375 112.075 69.0417 108.566 69.5989 105.064C69.8908 103.223 70.2044 101.384 70.5229 99.4611C72.6554 99.304 74.648 99.562 76.8721 99.9654ZM137.663 287.496C137.33 285.725 136.911 284.302 136.824 282.857C136.691 280.666 137.152 278.443 136.23 276.241L144.558 273.963C145.624 277.373 146.63 280.587 147.665 283.898C143.923 283.917 140.853 285.467 137.666 287.505L137.663 287.496ZM149.04 299.415L148.714 299.551C149.026 300.163 149.358 300.764 149.643 301.385C149.974 302.013 150.237 302.672 150.427 303.353C150.632 304.305 149.966 304.744 149.016 304.423C147.899 304.045 147.626 303.175 147.487 302.176C147.411 301.424 147.263 300.682 147.045 299.957C146.944 299.666 146.413 299.3 146.14 299.345C145.868 299.389 145.549 299.854 145.417 300.194C145.284 300.534 145.417 300.897 145.477 301.235C145.622 301.979 145.795 302.717 145.959 303.456C146.099 304.038 146.073 304.58 145.518 304.943C144.9 305.349 144.29 305.133 143.781 304.758C142.856 304.077 142.229 303.084 142.023 301.974C141.673 300.243 141.374 298.503 141.077 296.763C141.049 296.397 141.049 296.03 141.077 295.665C141.639 295.503 142.175 295.334 142.72 295.196C145.11 294.588 147.544 294.52 150.003 294.579C152.979 294.649 152.987 294.642 154.477 297.178C154.878 297.86 155.331 298.543 155.225 299.399C154.186 299.415 154.166 299.427 153.826 298.808C153.445 298.104 153.03 297.464 152.186 297.166C152.815 298.479 153.942 299.626 153.433 301.596C152.417 300.454 151.986 299.127 150.504 298.376C151.322 300.138 152.784 301.39 152.299 303.452C150.372 302.654 150.446 300.44 149.042 299.415H149.04ZM123.556 84.9855C124.058 85.3374 124.482 85.6071 124.873 85.9237C129.489 89.5418 134.1 93.1638 138.708 96.7898C139.13 97.0839 139.53 97.4085 139.902 97.7607C140.117 97.9953 140.351 98.387 140.29 98.645C140.049 99.6605 139.707 100.65 139.326 101.856C133.374 97.0923 128.402 91.7191 123.105 86.6883C123.266 86.0996 123.392 85.6211 123.558 84.9855H123.556ZM93.7514 120.401V115.944C97.1287 115.52 100.441 115.032 103.883 115.06C103.975 116.761 104.139 118.292 103.883 119.985L93.7514 120.401ZM102.04 92.9856C102.195 94.9416 102.337 96.7687 102.482 98.6145L94.0698 99.1351V93.5602L102.04 92.9856ZM93.8141 106.509L103.049 105.707C103.181 107.332 103.29 108.756 103.43 110.372C100.067 110.116 96.9671 110.82 93.8141 110.724V106.509ZM101.517 86.1793L94.2121 86.8548V82.2532L101.157 82.0187C101.292 83.5338 101.403 84.8354 101.519 86.1864L101.517 86.1793ZM116.924 53.6726C114.432 56.7028 111.786 59.3765 107.972 61.0136C108.046 59.2235 108.455 57.4615 109.178 55.8139C109.259 55.5771 109.408 55.3677 109.607 55.2105C109.806 55.0534 110.048 54.9551 110.303 54.9274C112.435 54.5755 114.563 54.1417 116.924 53.6726ZM63.3702 286.155C63.7369 284.016 65.3387 283.274 67.0201 282.228C65.2398 282.031 64.463 283.038 63.5126 283.713C63.7128 283.176 63.9863 282.668 64.3255 282.203C65.1071 281.164 66.7668 280.439 67.5436 280.889C68.6436 281.527 69.7147 282.233 70.4384 283.516C69.6182 284.255 68.8825 285.045 68.0261 285.664C66.721 286.602 65.0613 287.032 64.135 288.509C63.4112 287.857 63.5029 287.308 63.9637 286.792C64.9527 285.69 65.8936 284.527 67.3627 283.962C67.587 283.875 67.7366 283.603 68.0164 283.324C66.5618 283.357 66.5618 283.356 63.3606 286.164L63.3702 286.155ZM154.316 295.142C155.339 295.484 156.144 295.63 156.61 296.413C157.884 298.566 157.155 302.3 155.163 303.918C153.17 305.537 150.748 306.35 148.147 306.55C147.513 306.599 146.864 306.47 146.099 306.414C146.381 306.036 146.643 305.645 146.883 305.241C147.049 304.874 147.192 304.498 147.313 304.115C148.099 305.344 148.944 305.788 150.065 305.483C151.134 305.194 151.797 304.12 152.987 304.029C153.06 304.002 153.126 303.958 153.177 303.9C153.228 303.842 153.263 303.773 153.279 303.698C153.225 302.553 154.485 302.105 154.726 301.118C154.784 300.883 155.066 300.649 155.298 300.499C156.33 299.795 156.545 299.345 156.043 298.214C155.592 297.253 154.994 296.359 154.313 295.151L154.316 295.142ZM99.1454 76.1881C98.5471 76.3124 98.0092 76.5446 97.4881 76.5094C96.2554 76.4273 95.3918 75.7308 94.8345 74.6706C94.2122 73.498 94.0505 70.0784 94.545 68.3897C97.1769 70.7937 98.7401 73.3994 99.1454 76.1881ZM72.8966 286.621C71.7676 287.559 70.9064 288.366 69.9584 289.053C69.3025 289.536 68.5786 289.925 67.809 290.207C67.3876 290.346 66.9281 290.327 66.5205 290.154C66.113 289.98 65.787 289.665 65.6065 289.269C65.2832 288.566 65.4834 288.155 66.6269 287.571C68.2094 286.764 69.6351 285.796 70.6435 284.325C70.7183 284.217 70.8847 284.168 71.1067 284.034L72.8966 286.621ZM76.9976 98.6426C74.0642 98.1993 71.2079 97.8663 68.248 98.5511C68.3276 97.9085 68.3566 97.5074 68.4338 97.1158C68.5136 96.8351 68.6152 96.5607 68.7377 96.2949L77.2943 96.764C77.1809 97.4488 77.0965 97.9789 76.9952 98.6309L76.9976 98.6426ZM142.059 304.655C139.953 303.442 138.829 301.573 138.279 299.366C138.023 298.341 139.077 296.859 140.066 296.516C140.365 297.834 140.804 299.148 140.93 300.489C141.065 301.955 141.277 303.358 142.059 304.655ZM73.215 287.585C73.6734 288.289 73.9677 288.812 73.2488 289.304C71.5385 290.477 69.7461 291.502 67.7004 291.99C65.5824 292.492 63.4426 290.998 63.1025 288.802C63.8262 289.037 64.463 289.142 64.8635 289.961C65.469 291.19 66.7258 291.657 68.0285 291.134C69.1044 290.695 70.0693 289.977 71.0367 289.318C71.7821 288.802 72.4527 288.195 73.215 287.585ZM81.1372 282.953C83.5954 280.842 86.7869 279.759 88.8953 280.324L81.7596 284.435C81.499 283.814 81.3157 283.368 81.1372 282.953ZM142.257 134.292L138.223 138.927L136.735 135.329L142.257 134.292ZM78.5463 142.266L78.2207 142.353L75.8493 138.751L78.9999 138.34C78.8382 139.747 78.6911 140.998 78.5463 142.257V142.266ZM83.95 279.939C83.9645 280.045 83.9789 280.15 83.991 280.256L80.6547 282.036C80.153 281.248 79.7284 280.587 79.1325 279.656L83.95 279.939ZM135.483 284.782L135.893 284.698C136.047 285.96 136.679 287.151 136.522 288.451L136.148 288.512L135.483 284.782Z" fill="#17161B"/>
<path d="M81.2482 72.0351C81.9937 72.4057 81.7669 73.0155 81.7018 73.5268C81.0649 78.4521 80.4208 83.3773 79.7405 88.3026C79.6199 89.1891 79.6272 89.9162 80.3629 90.6221C80.9829 91.2132 81.4147 92.0036 81.8513 92.7494C81.9888 92.9839 81.8731 93.3545 81.8706 93.6641C81.5498 93.6008 81.1325 93.6406 80.925 93.4577C80.4481 92.9878 80.0025 92.4888 79.591 91.9637C79.0506 93.0824 76.7468 109.284 76.6238 112.725C77.6707 112.49 77.5212 110.548 79.3063 111.083C79.0651 111.552 78.9035 111.97 78.6719 112.333C75.1354 117.882 76.1702 116.105 75.2704 122.071C74.5998 126.527 74.045 131.005 73.4467 135.473C73.3623 136.113 73.3261 136.76 73.2489 137.614L80.4425 136.781C79.9601 135.512 79.5307 134.436 79.1133 133.343C78.9647 133.021 78.8452 132.688 78.7563 132.346C78.7464 132.251 78.7614 132.154 78.7997 132.066C78.838 131.977 78.8986 131.899 78.9758 131.84C79.1761 131.769 79.5355 131.772 79.6561 131.898C80.0103 132.265 80.3114 132.677 80.5511 133.122C81.1204 134.204 81.6366 135.311 82.1698 136.406H92.0749C92.1762 133.38 92.1352 130.308 92.1569 127.135C92.1569 127.135 92.333 124.621 92.3475 123.645C92.4295 117.261 92.567 110.879 92.6538 104.497C92.8147 92.6954 92.9642 80.8905 93.1025 69.0823C93.1025 68.6813 93.1025 68.2826 93.1025 67.9096C92.029 67.6892 91.4356 69.1152 90.2801 68.5241C90.4273 67.2107 91.7275 66.8824 92.4126 66.0545L89.5709 61.291C85.687 62.2292 81.8996 63.695 78.7394 66.3898C77.9832 67.0096 77.3601 67.7684 76.906 68.6226C75.0075 72.455 73.2875 76.3623 72.2357 80.5183C72.0114 81.4002 71.9945 82.1296 72.6916 82.8637C73.1355 83.3328 73.6952 83.9285 73.1958 84.9417L71.4613 83.8956C70.4361 87.5685 69.6304 91.246 68.844 95.1205L77.3909 95.6881C77.5019 95.1417 77.6321 94.6186 77.7093 94.0886C78.6646 87.2683 79.6143 80.4464 80.5583 73.6229C80.6283 73.0202 80.6355 72.394 81.2482 72.0351ZM72.4721 93.5163C72.5192 93.2489 72.6002 92.9881 72.7133 92.74C73.3816 91.7338 74.0522 90.73 74.7832 89.7684C74.8924 89.6791 75.0235 89.6186 75.1637 89.5927C75.304 89.5668 75.4487 89.5765 75.584 89.6207C75.777 89.7262 75.97 90.2 75.8783 90.3618C75.1916 91.5798 74.4559 92.7721 73.6711 93.9385C73.5649 94.0956 73.1042 94.1331 72.8557 94.0628C72.682 94.0135 72.5831 93.6946 72.4649 93.5163H72.4721Z" fill="#865BFF"/>
<path d="M102.409 84.051C103.427 96.3806 104.443 108.708 105.475 121.237C105.883 120.92 106.114 120.655 106.409 120.533C106.746 120.392 107.246 120.21 107.487 120.35C107.998 120.646 107.774 121.145 107.487 121.523C107.166 121.985 106.816 122.427 106.438 122.846C105.791 123.531 105.646 124.267 105.728 125.207C106.066 128.988 106.288 132.781 106.57 136.568C106.655 137.718 106.795 138.865 106.922 140.162C107.743 140.119 108.418 140.162 109.053 140.04C119.852 137.851 130.649 135.643 141.443 133.416C141.782 133.332 142.116 133.231 142.444 133.114C140.997 122.771 139.564 112.5 138.119 102.23C138.102 102.115 137.931 102.021 137.752 101.834C137.527 102.107 137.32 102.395 137.132 102.694C134.457 107.582 130.807 111.722 126.682 115.484C125.976 116.075 125.211 116.596 124.398 117.039C124.083 117.23 123.715 117.319 123.345 117.293C122.975 117.266 122.624 117.125 122.342 116.891C121.583 116.359 120.867 115.77 120.202 115.129C116.618 111.48 113.568 107.465 111.359 102.87C110.478 101.036 109.429 99.2724 108.582 97.4313C107.313 94.7154 106.124 91.9643 104.93 89.2226C104.172 87.4753 103.468 85.7045 102.739 83.9502L102.409 84.051Z" fill="#865BFF"/>
<path d="M113.217 49.1826C112.281 48.3242 111.287 48.2022 110.382 48.6431C107.729 49.9237 105.249 51.4435 104.689 54.6285C104.58 55.243 104.592 55.8786 104.53 56.7628C104.139 56.4227 103.806 56.2281 103.603 55.9443C102.142 53.8499 100.569 51.8117 99.3046 49.6118C98.2721 47.8129 97.669 45.7865 96.774 43.9055C96.1712 42.7333 95.5028 41.5941 94.7718 40.493C94.6005 40.2186 94.2893 40.0239 93.7899 39.5947C94.0312 44.3816 96.5834 48.1835 97.7655 52.4942C97.436 52.6405 97.0926 52.7552 96.7402 52.8367C96.1733 52.9094 95.5944 52.8906 95.0251 52.9352C93.4209 53.0595 93.3364 53.1533 93.0011 54.6778C92.8925 55.1633 92.6393 55.6159 92.4897 56.0991C92.2846 56.7605 92.1134 57.4312 91.9324 58.0997C91.7612 58.7259 91.6912 59.406 91.409 59.9759C90.9265 60.9375 90.9265 61.8218 91.5006 62.706C92.1688 63.7309 92.7864 64.8004 93.5656 65.7385C95.1698 67.6641 96.8971 69.4911 98.5085 71.4096C99.0012 72.0009 99.3729 72.6784 99.6037 73.4055C100.532 76.4263 101.932 79.2525 103.222 82.1326C104.443 84.8697 105.497 87.677 106.636 90.4516C107.137 91.6735 107.601 92.9095 108.201 94.0916C109.89 97.4619 111.61 100.811 113.332 104.177C115.38 108.164 118.22 111.588 121.387 114.766C123.259 116.642 123.819 116.656 125.78 114.909C130.231 110.95 133.999 106.466 136.877 101.179C135.811 100.227 134.728 99.303 133.688 98.318C130.431 95.2526 127.174 92.1966 123.949 89.089C119.716 85.0458 115.747 80.7493 112.066 76.2246C111.231 75.188 110.262 74.2522 109.458 73.1968C108.037 71.3205 106.706 69.3926 105.314 67.4999C104.993 67.0636 105.104 66.6931 105.234 66.2287C105.871 63.9889 106.643 61.7725 107.014 59.4787C107.603 55.8551 109.304 52.9117 111.969 50.3975C112.363 50.0011 112.758 49.6212 113.217 49.1826Z" fill="#FADCD4"/>
<path d="M115.463 78.6287L122.036 85.6038C122.907 81.7222 123.711 78.1408 124.557 74.3742H121.761C122.36 72.7535 123.829 73.436 124.842 72.7864C125.546 71.9538 124.984 70.3566 126.545 69.2847C126.477 70.2229 126.504 70.8561 126.379 71.4542C125.561 75.3193 124.707 79.1775 123.87 83.0403C123.826 83.235 123.809 83.4343 123.754 83.8096L140.563 97.2555C140.719 96.9204 140.855 96.5775 140.973 96.2283C142.259 91.5258 143.362 86.7882 143.586 81.9098C143.854 76.1637 142.081 71.0437 138.481 66.4937C136.94 64.5447 135.044 63.0132 132.663 61.5474C132.832 62.3589 133.008 62.9171 133.042 63.4823C133.056 63.7731 132.815 64.078 132.689 64.3782C132.412 64.2023 131.99 64.085 131.886 63.8411C131.498 63.0159 131.207 62.1503 131.02 61.2612C130.982 60.9648 130.864 60.6833 130.68 60.4443C130.495 60.2054 130.25 60.0173 129.968 59.8986C128.817 59.3052 127.693 58.6673 126.538 58.0856C123.824 56.7136 121.098 55.3626 118.42 54.0234C117.052 55.4307 115.704 56.8871 114.259 58.2451C112.57 59.8423 110.665 61.1768 108.448 61.9977C107.724 62.265 107.415 62.7247 107.208 63.4049C106.853 64.5565 106.416 65.6869 105.946 67.0191C107.427 68.8719 109.012 70.8725 110.614 72.8591C111.128 73.4947 111.784 74.0317 112.218 74.7213C113.265 76.363 114.585 77.3176 116.681 76.8603C116.99 76.8189 117.304 76.8818 117.571 77.0385C117.673 77.107 117.757 77.198 117.815 77.304C117.874 77.4099 117.906 77.5279 117.909 77.6483C117.865 77.7577 117.794 77.8552 117.703 77.9323C117.612 78.0095 117.503 78.0641 117.385 78.0916C116.789 78.1971 116.179 78.2159 115.574 78.2675L115.463 78.6287Z" fill="#865BFF"/>
<path d="M128.569 26.9947C127.689 26.392 127.3 26.1457 126.934 25.8736C125.578 24.8698 124.393 22.7238 125.486 20.4324C125.711 19.9633 126.258 19.4591 125.727 18.9173C125.004 18.2137 124.311 17.4327 123.453 16.9331C122.878 16.6001 122.087 17.4561 122.266 18.2794C122.444 19.1026 122.835 19.8953 123.165 20.688C123.353 21.0585 123.566 21.4166 123.802 21.7599C122.982 22.2125 122.237 22.637 121.479 23.0451C120.054 23.8097 119.921 24.6869 121.17 25.7142C121.585 26.0542 122.164 26.2302 122.695 26.399C123.178 26.5538 123.725 26.5655 124.22 26.7156C124.422 26.7766 124.731 27.105 124.702 27.1847C124.654 27.3137 124.579 27.4319 124.483 27.5326C124.387 27.6333 124.271 27.7143 124.142 27.771C122.164 28.3175 119.766 27.0041 119.154 25.0762C118.777 23.8895 119.086 23.0076 120.157 22.3134C120.64 22.0061 121.139 21.7505 121.723 21.4221C121.561 20.9836 121.404 20.5731 121.26 20.158C121.115 19.7429 120.975 19.2949 120.777 18.7226C117.537 19.7077 114.3 20.5122 111.391 18.3357C110.404 18.8845 109.533 19.6256 108.542 19.8484C107.55 20.0712 106.402 19.7874 105.121 19.7147C103.621 20.8686 101.862 22.1046 100.246 23.5001C98.5208 25.0018 97.337 27.0019 96.8684 29.2064C95.7153 34.2654 95.6623 39.2493 97.9974 44.069C98.5716 45.2581 99.0203 46.5058 99.5727 47.7067C99.8788 48.405 100.249 49.0753 100.678 49.7096C101.614 51.0441 102.607 52.3364 103.63 53.6967C103.766 53.5705 103.88 53.423 103.966 53.2605C104.906 50.3827 107.343 48.9966 109.857 47.716C110.937 47.1649 112.086 47.2634 113.157 47.8403C114.228 48.4173 114.387 49.2757 113.54 50.1857C112.693 51.0957 111.791 52.062 110.925 53.0001C110.779 53.2103 110.656 53.4342 110.556 53.6686C114.768 53.3449 118.223 51.6469 121.453 49.4235C121.388 48.9122 121.322 48.4712 121.281 48.0162C121.281 47.9318 121.359 47.838 121.419 47.709C121.552 47.7278 121.79 47.709 121.822 47.7676C122.642 49.5548 124.273 49.6158 125.923 49.5384C127.751 49.4493 129.498 47.9787 130.024 46.2736C130.33 45.2604 130.197 44.3153 129.404 43.6163C129.046 43.2796 128.604 43.04 128.122 42.9215C127.639 42.803 127.133 42.8097 126.654 42.9409C125.235 43.3138 124.724 43.105 124.106 41.8315C123.305 40.1898 123.238 38.3979 125.375 37.4949C125.798 37.2962 126.186 37.0351 126.526 36.721C127.558 35.818 127.672 34.9408 126.989 33.7752C126.61 33.1699 126.279 32.5371 126 31.8825C125.423 30.4026 125.732 29.0844 126.989 28.0431C127.392 27.7241 127.896 27.445 128.569 26.9947ZM122.591 34.8587C122.439 34.3686 122.304 33.9511 122.181 33.5336C121.503 31.275 120.138 29.7271 117.632 29.3471C117.372 29.3337 117.119 29.2631 116.891 29.1407C116.651 28.9297 116.435 28.6938 116.247 28.4371C116.515 28.2417 116.799 28.0684 117.096 27.9188C117.298 27.8719 117.507 27.8663 117.711 27.9024C120.464 28.0197 123.397 30.8998 123.462 33.5665C123.474 34.0426 123.551 34.6008 122.591 34.8587ZM108.986 31.8262L109.323 31.9974C109.323 32.2319 109.43 32.565 109.307 32.701C107.97 34.1504 106.595 35.5694 105.123 37.1079C104.926 37.8116 106.108 38.7497 105.095 39.709C104.219 39.1578 104.282 38.2736 104.048 37.5395C103.814 36.8054 104.079 36.2167 104.709 35.6867C105.801 34.7649 106.81 33.7494 107.864 32.7831C108.223 32.4454 108.612 32.1428 108.986 31.8262ZM109.089 26.8681L108.687 27.0463C108.448 26.9077 108.232 26.7363 108.045 26.5374C107.102 25.1771 105.874 24.2765 104.147 24.0982C103.785 24.0786 103.429 23.9992 103.095 23.8637C102.853 23.7511 102.697 23.472 102.504 23.2679C102.767 23.0897 103.022 22.7684 103.295 22.7543C105.669 22.637 107.502 23.6385 108.817 25.5101C109.058 25.8549 109.005 26.4084 109.089 26.8681ZM103.992 30.7966C103.992 30.1258 104.557 29.4316 105.148 29.3894C106.009 29.3307 106.928 30.1633 106.889 30.9701C106.884 31.1341 106.845 31.2954 106.775 31.4447C106.705 31.594 106.605 31.7282 106.481 31.8395C106.357 31.9509 106.212 32.0371 106.053 32.0932C105.895 32.1493 105.726 32.1741 105.558 32.1663C104.704 32.1663 103.992 31.5471 103.992 30.7966ZM117.832 35.431C118.676 35.4005 119.294 35.8884 119.342 36.6271C119.39 37.3659 118.761 38.018 117.87 38.0649C117.689 38.0814 117.505 38.06 117.333 38.0019C117.16 37.9439 117.003 37.8507 116.87 37.7285C116.738 37.6063 116.634 37.458 116.566 37.2935C116.497 37.129 116.466 36.9522 116.474 36.7749C116.454 35.9869 116.985 35.4638 117.827 35.431H117.832ZM106.494 44.7515L106.195 44.986C106.031 44.8875 105.809 44.8265 105.712 44.6858C105.368 44.1763 104.923 43.7384 104.403 43.3974C103.884 43.0563 103.299 42.8191 102.685 42.6993C102.529 42.6783 102.382 42.6139 102.262 42.514C102.086 42.2988 101.925 42.0723 101.78 41.8362C102.021 41.7166 102.349 41.4375 102.533 41.5032C103.415 41.786 104.265 42.1578 105.068 42.6125C105.46 42.8391 105.792 43.1512 106.038 43.5241C106.284 43.8969 106.438 44.3204 106.486 44.7609L106.494 44.7515Z" fill="#FADCD4"/>
<path d="M76.8721 99.9669C74.6479 99.5635 72.6553 99.3055 70.5276 99.4532C70.2092 101.376 69.8955 103.206 69.6037 105.056C69.0464 108.558 68.5422 112.067 67.9295 115.559C67.6969 116.705 67.7667 117.889 68.1321 119.002C69.4782 122.883 70.8605 126.756 72.2331 130.633C72.2838 130.778 72.3465 130.919 72.4044 131.062L72.677 130.916C74.0641 120.658 75.456 110.397 76.8721 99.9669Z" fill="#FADCD4"/>
<path d="M123.559 84.9863C123.392 85.6219 123.267 86.1004 123.117 86.6797C128.424 91.7105 133.387 97.0837 139.338 101.847C139.709 100.642 140.062 99.6519 140.303 98.6363C140.363 98.3784 140.129 97.982 139.914 97.7521C139.542 97.3999 139.143 97.0754 138.72 96.7812C134.11 93.1568 129.498 89.5348 124.886 85.9151C124.485 85.6078 124.06 85.3358 123.559 84.9863Z" fill="#E0D5FF"/>
<path d="M93.7535 120.409L103.885 119.994C104.127 118.312 103.972 116.781 103.885 115.069C100.445 115.04 97.1453 115.538 93.7535 115.953V120.409Z" fill="#E0D5FF"/>
<path d="M102.043 92.9941L94.0823 93.564V99.139L102.494 98.6183C102.34 96.7772 102.197 94.9525 102.043 92.9941Z" fill="#E0D5FF"/>
<path d="M93.817 106.517V110.738C96.9699 110.835 100.07 110.131 103.433 110.387C103.3 108.771 103.191 107.338 103.051 105.722L93.817 106.517Z" fill="#E0D5FF"/>
<path d="M101.52 86.1876C101.404 84.8367 101.293 83.535 101.16 82.0176L94.2149 82.2521V86.8608L101.52 86.1876Z" fill="#E0D5FF"/>
<path d="M116.925 53.6738C114.563 54.1288 112.443 54.5674 110.308 54.9286C110.053 54.9564 109.811 55.0546 109.612 55.2118C109.413 55.3689 109.264 55.5783 109.184 55.8151C108.46 57.4627 108.051 59.2247 107.977 61.0148C111.787 59.3871 114.433 56.7228 116.925 53.6738Z" fill="#FADCD4"/>
<path d="M99.1455 76.189C98.7402 73.4121 97.177 70.811 94.5379 68.3906C94.0555 70.0793 94.205 73.5106 94.8274 74.6715C95.3919 75.7316 96.2555 76.4282 97.481 76.5103C98.0093 76.5337 98.5472 76.3015 99.1455 76.189Z" fill="#E0D5FF"/>
<path d="M76.9953 98.6315C77.0966 97.9795 77.181 97.4588 77.292 96.7552L68.7354 96.2861C68.6129 96.5519 68.5113 96.8263 68.4314 97.107C68.3542 97.4987 68.3253 97.8998 68.2457 98.5424C71.2008 97.8552 74.0619 98.1882 76.9953 98.6315Z" fill="#E0D5FF"/>
<path d="M142.257 134.293L136.735 135.33L138.223 138.927L142.257 134.293Z" fill="#E0D5FF"/>
<path d="M78.5465 142.258C78.6912 140.999 78.8384 139.737 79 138.332L75.8495 138.742L78.2208 142.345L78.5465 142.258Z" fill="#FADCD4"/>
<path d="M72.4645 93.5169C72.5827 93.6952 72.6816 94.0141 72.8601 94.0634C73.1013 94.1337 73.5693 94.0962 73.6754 93.9391C74.457 92.7727 75.1928 91.5804 75.8827 90.3624C75.9744 90.2006 75.7814 89.7268 75.5884 89.6213C75.4531 89.577 75.3084 89.5674 75.1681 89.5933C75.0279 89.6192 74.8968 89.6797 74.7875 89.769C74.0638 90.7306 73.386 91.7344 72.7177 92.7406C72.6005 92.9881 72.5154 93.2489 72.4645 93.5169Z" fill="#17161B"/>
<path d="M122.591 34.8591C123.556 34.6011 123.474 34.0429 123.462 33.5645C123.397 30.8978 120.463 28.0177 117.711 27.9004C117.507 27.8643 117.297 27.8699 117.096 27.9169C116.798 28.0664 116.514 28.2398 116.247 28.4352C116.434 28.6919 116.65 28.9278 116.891 29.1388C117.118 29.2611 117.372 29.3317 117.631 29.3452C120.138 29.7251 121.491 31.2731 122.181 33.5317C122.304 33.9515 122.439 34.369 122.591 34.8591Z" fill="#17161B"/>
<path d="M108.985 31.8262C108.611 32.1428 108.223 32.4453 107.863 32.7784C106.809 33.7447 105.801 34.7602 104.708 35.682C104.078 36.212 103.806 36.7796 104.047 37.5348C104.288 38.29 104.218 39.1531 105.094 39.7043C106.107 38.7473 104.925 37.8092 105.123 37.1032C106.594 35.5647 107.969 34.1457 109.306 32.6963C109.429 32.565 109.323 32.2272 109.323 31.9927L108.985 31.8262Z" fill="#17161B"/>
<path d="M109.089 26.8684C109.004 26.3993 109.062 25.8552 108.816 25.5034C107.502 23.6271 105.68 22.6303 103.294 22.7476C103.022 22.7616 102.766 23.083 102.503 23.2612C102.696 23.4653 102.853 23.7443 103.094 23.8569C103.429 23.9925 103.784 24.0718 104.146 24.0915C105.871 24.2697 107.101 25.1703 108.044 26.5306C108.232 26.7296 108.448 26.901 108.686 27.0396L109.089 26.8684Z" fill="#17161B"/>
<path d="M103.992 30.7971C103.992 31.5476 104.716 32.1668 105.558 32.1668C105.726 32.1746 105.895 32.1498 106.053 32.0937C106.212 32.0376 106.358 31.9514 106.481 31.84C106.605 31.7287 106.705 31.5945 106.775 31.4452C106.845 31.2959 106.884 31.1346 106.889 30.9706C106.928 30.1638 106.009 29.3289 105.148 29.3899C104.552 29.4321 103.98 30.1263 103.992 30.7971Z" fill="#17161B"/>
<path d="M117.827 35.4311C116.985 35.464 116.454 35.987 116.468 36.775C116.461 36.9523 116.492 37.1291 116.561 37.2936C116.629 37.4581 116.733 37.6064 116.865 37.7286C116.998 37.8508 117.155 37.9441 117.328 38.0021C117.5 38.0601 117.684 38.0816 117.865 38.065C118.755 38.0181 119.39 37.4013 119.337 36.6273C119.284 35.8533 118.671 35.4006 117.827 35.4311Z" fill="#17161B"/>
<path d="M106.486 44.7617C106.437 44.321 106.283 43.8974 106.037 43.5246C105.79 43.1517 105.458 42.8397 105.065 42.6134C104.262 42.1587 103.413 41.7869 102.53 41.504C102.347 41.4383 102.031 41.7174 101.777 41.8371C101.923 42.0732 102.084 42.2996 102.26 42.5149C102.379 42.6148 102.526 42.6791 102.682 42.7002C103.297 42.8199 103.881 43.0572 104.401 43.3982C104.92 43.7392 105.365 44.1772 105.71 44.6867C105.806 44.8274 106.028 44.8884 106.192 44.9869L106.486 44.7617Z" fill="#17161B"/>
<path d="M104.5 121.5L94 122L93.4999 138L80.5 138.5L79.5 146H139.732L135.749 135.5C128.082 137 113.2 140.2 110 141C106.8 141.8 106 141 106 140.5L104.5 121.5Z" fill="#C6B4F9"/>
</g>
<g clip-path="url(#clip1_4_1272)">
<path d="M142.017 26.8777C144.312 22.9836 144.004 19.6806 138.785 17.9376C139.071 16.5066 139.5 15.099 139.602 13.6704C139.804 10.8553 138.511 9.75743 135.776 10.1515C135.608 10.1624 135.44 10.1624 135.272 10.1515C135.323 9.29294 135.383 8.45311 135.421 7.61328C135.539 4.92724 133.01 2.24354 130.388 1.77905C128.585 1.45766 127.169 2.24823 125.886 3.61119C125.77 3.2728 125.625 2.94545 125.452 2.63296C125.06 2.05587 124.714 1.39198 124.185 0.976759C121.881 -0.831924 119.45 -0.0601225 118.503 2.72445C118.296 3.33438 118.127 3.95604 118.018 4.31731L116.162 2.82532C115.247 2.07933 114.25 1.52804 113.05 1.43889C110.688 1.26061 109.458 2.37726 109.391 4.76303C109.372 5.40815 109.391 6.05327 109.391 6.83914C108.913 6.44738 108.504 6.09784 108.077 5.77176C107.305 5.17591 106.453 4.77006 105.455 4.78179C103.599 4.80525 102.555 5.85621 102.611 7.73058C102.627 8.22791 102.724 8.72524 102.803 9.36098C102.455 9.28356 102.142 9.21788 101.833 9.14281C101.525 9.06774 101.251 8.99033 100.959 8.92464C99.1022 8.52115 97.3434 8.51646 95.986 10.1281C94.661 11.7045 95.0161 13.4123 95.6542 15.1459C95.7725 15.4673 95.8862 15.7958 95.9976 16.1336C90.2802 16.9617 89.591 20.4242 92.2989 24.4451C91.6492 24.8063 90.9508 25.0972 90.3614 25.5383C89.8261 25.938 89.3761 26.4427 89.0382 27.0223C88.7003 27.602 88.4815 28.2445 88.3948 28.9116C88.3082 29.5786 88.3555 30.2565 88.5339 30.9047C88.7123 31.5528 89.0182 32.1579 89.4332 32.6838C91.0946 34.7787 92.9741 36.5733 95.9024 36.8196C95.9465 37.6008 95.9883 38.2905 96.0347 39.0905C95.7261 38.9544 95.5521 38.8699 95.3711 38.7972C94.0369 38.2671 93.3756 38.6682 93.5148 40.0664C93.6128 41.4288 93.8547 42.7768 94.2364 44.0872C94.9047 46.1516 95.7841 48.1456 96.5777 50.1701C96.7401 50.5853 96.9141 50.9959 97.1299 51.5237C96.3363 51.6081 95.6542 51.6504 94.9812 51.7583C93.6262 51.9694 93.0762 52.5371 92.7352 53.8532C92.5356 54.6226 92.2015 55.3545 91.9741 56.1193C91.7937 56.6374 91.6843 57.1781 91.6492 57.7262C91.633 59.4833 91.264 60.0322 89.5957 60.5014C86.2451 61.4398 83.0569 62.7183 80.2214 64.8249C78.676 65.972 77.6226 67.4054 76.7826 69.1413C73.7661 75.3439 72.2811 82.0133 70.7497 88.6756C70.1533 91.2913 69.615 93.9187 69.0511 96.5414C68.9885 96.8393 68.9305 97.1372 68.8887 97.4375C68.6312 99.3541 68.7518 99.5042 70.6359 99.713C70.7712 99.7529 70.9019 99.8071 71.0258 99.8749C70.7937 101.271 70.5269 102.69 70.2833 104.126C69.6104 108.069 68.956 112.015 68.2645 115.954C68.0288 117.207 68.1208 118.501 68.5314 119.707C69.9236 123.77 71.3158 127.845 72.8287 131.861C73.4923 133.613 73.961 135.296 73.4645 137.163C73.3276 137.677 73.3809 138.242 73.3415 138.915H75.9217C77.0262 140.771 78.1679 142.608 79.2097 144.501C79.4696 145.038 79.5719 145.64 79.5044 146.234C78.4695 157.535 77.3511 168.825 76.3626 180.13C75.7616 186.999 74.6711 193.8 73.8334 200.633C73.186 205.914 72.6918 211.213 72.2254 216.51C71.5061 224.688 70.834 232.87 70.209 241.055C69.4015 251.818 68.2321 262.56 68.2831 273.372C68.3055 273.719 68.2448 274.066 68.1062 274.383C67.9677 274.701 67.7553 274.98 67.4872 275.197C66.0254 276.49 64.7956 277.97 64.9696 280.124C65.0207 280.767 65.1808 281.4 65.3154 282.195C64.2735 283.915 64.125 286.024 64.009 288.142C63.7978 292.074 67.3434 294.213 70.8819 293.303C73.1512 292.728 75.105 291.466 77.0564 290.218C77.5233 289.922 77.9734 289.599 78.4046 289.252C79.8989 288.037 81.6206 287.244 83.3144 286.357C86.5096 284.682 89.5794 282.775 92.6864 280.91C93.2781 280.553 93.8164 280.34 94.5009 280.412C96.993 280.67 99.4921 280.882 101.984 281.149C103.697 281.33 105.393 281.316 107.054 280.832C108.395 280.445 108.806 279.875 108.811 278.552C108.842 270.595 108.869 262.637 108.892 254.678C108.892 250.521 108.834 246.364 108.892 242.207C108.955 238.435 108.337 234.736 107.871 231.02C107.036 224.336 104.863 217.667 104 211C103.137 204.333 102.274 197.628 101.42 190.959C100.673 185.132 99.9324 179.304 99.1991 173.475C98.9671 171.568 98.6933 169.661 98.4358 167.753C98.4172 167.603 98 166.5 98.5 166C99 165.5 99.5 165.5 100 165.5C100.696 165.434 100.93 166.519 101 167C102.423 178.359 104.344 189.717 105.763 201.074C106.955 210.573 107.381 220.257 108.683 229.741C109.467 235.512 110.539 241.236 111.393 247C112.229 252.663 112.95 258.34 113.714 264.012C114.433 269.384 115.148 274.756 115.858 280.129C116.076 281.74 116.514 282.038 118.071 281.557C122.429 280.208 126.775 278.822 131.133 277.473C132.172 277.152 133.237 276.922 134.451 276.607C134.834 278.735 135.293 280.624 134.298 282.627C133.838 283.583 133.689 284.66 133.871 285.707C134.607 289.17 135.079 292.685 135.281 296.221C135.393 298.358 136.179 300.371 137.101 302.297C138.999 306.285 143.876 308.699 148.171 307.819C150.206 307.404 152.097 306.74 153.777 305.408C155.805 303.803 156.805 301.823 156.608 299.229C156.568 298.724 156.55 298.22 156.517 297.624C157.935 297.235 158.29 296.132 158.225 294.823C158.167 293.716 158.156 292.585 157.914 291.516C157.009 287.527 154.362 285.311 150.549 284.358C149.821 284.175 149.076 284.065 148.352 283.924C147.394 282.32 144.853 275.125 144.781 273.677C146.723 273.178 148.698 272.65 150.679 272.164C154.039 271.343 157.408 270.564 160.764 269.729C161.539 269.526 162.293 269.245 163.012 268.889C164.704 268.075 165.172 267.247 164.947 265.371C164.62 262.656 164.219 259.949 163.859 257.237C161.093 236.284 156.863 215.593 152.803 194.874C150.383 182.394 147.26 170.065 143.449 157.945C141.593 152.064 139.811 146.157 137.913 139.999C139.261 138.439 140.753 136.673 142.296 134.953C142.723 134.484 143.029 134.069 142.911 133.362C142.311 129.82 141.734 126.274 141.18 122.724C140.491 118.321 139.82 113.916 139.166 109.507C138.843 107.354 138.574 105.191 138.305 103.215C138.769 102.526 139.284 102.012 139.495 101.388C141.662 94.9931 143.398 88.4856 143.593 81.6825C143.862 72.3529 140.015 65.1134 132.223 60.1003C129.947 58.6341 127.517 57.4072 125.132 56.1123C123.232 55.0848 121.292 54.1347 119.375 53.1424C119.175 53.0279 118.982 52.9002 118.798 52.76C119.849 51.4346 122.025 50.3367 123.343 50.4962C123.452 51.0475 123.538 51.6386 123.693 52.211C124.213 54.1089 125.165 55.6361 127.149 56.2859C128.712 56.7973 129.381 56.6002 130.372 55.2513C130.49 55.0918 130.615 54.9393 130.794 54.7118C131.536 55.0261 132.26 55.3452 132.996 55.6501C133.68 55.962 134.386 56.2239 135.107 56.4336C135.766 56.604 136.459 56.5928 137.112 56.4013C137.765 56.2098 138.356 55.8449 138.823 55.3445C139.29 54.8441 139.615 54.2265 139.766 53.5559C139.917 52.8852 139.888 52.186 139.681 51.5307C139.449 50.7589 139.078 50.0317 138.776 49.2834C138.611 48.8752 138.46 48.4623 138.233 47.8618C138.845 47.775 139.323 47.7069 139.799 47.6436C141.379 47.4325 142.839 46.8554 144.004 45.7669C144.697 45.1206 145.25 44.3363 145.628 43.4632C146.268 41.9525 145.774 40.8428 144.347 40.0452C144.129 39.9256 143.902 39.8107 143.651 39.6934C144.5 38.7128 145.34 37.7955 146.12 36.8267C147.079 35.6319 147.553 34.1133 147.447 32.5783C147.329 29.9344 146.041 28.1961 143.553 27.4173C143.089 27.2672 142.602 27.1217 142.129 26.9692C142.085 26.9552 142.052 26.9106 142.017 26.8777ZM82.5348 72.0643C81.9454 72.4232 81.9385 73.0496 81.8596 73.6337C80.9454 80.4571 80.0319 87.2806 79.1192 94.104C79.0496 94.6342 78.9197 95.1573 78.8129 95.7039L70.5919 95.1362C71.3483 91.2608 72.1233 87.5824 73.1095 83.9087L74.7778 84.955C75.2581 83.9416 74.7198 83.341 74.2928 82.8765C73.6106 82.1352 73.6385 81.4057 73.8543 80.5307C74.8753 76.3784 76.5204 72.4655 78.3465 68.6323C78.7834 67.7778 79.3826 67.0189 80.11 66.399C83.1497 63.7036 86.7927 62.2397 90.5285 61.299C91.4729 62.9412 92.3662 64.5035 93.2595 66.0635C92.5959 66.8823 91.3522 67.2201 91.2107 68.5338C92.3221 69.1249 92.8929 67.6986 93.9255 67.9191C93.9255 68.3039 93.9255 68.7027 93.9255 69.0921C93.7847 80.8966 93.6408 92.7043 93.4939 104.515C93.4104 110.898 93.2781 117.281 93.1992 123.667C93.1853 124.643 92.9393 125.37 92.1133 125.992C91.1336 126.781 90.2102 127.64 89.3497 128.56C89.1826 128.727 89.2151 129.095 89.1571 129.37C89.475 129.412 89.8672 129.604 90.0853 129.466C90.5122 129.231 90.8417 128.818 91.2199 128.49C91.7583 128.021 92.1481 127.352 93.0159 127.158C92.995 130.339 93.0345 133.405 92.937 136.431H83.4096C82.8968 135.34 82.4002 134.233 81.8526 133.147C81.6221 132.701 81.3324 132.289 80.9917 131.922C80.8757 131.795 80.5277 131.793 80.3374 131.863C80.2631 131.923 80.2049 132.001 80.168 132.09C80.1311 132.178 80.1168 132.275 80.1263 132.37C80.2118 132.712 80.3267 133.046 80.4697 133.367C80.8711 134.453 81.2772 135.537 81.7482 136.806L74.8289 137.639C74.9031 136.785 74.9379 136.138 75.0191 135.497C75.5946 131.04 76.1283 126.552 76.7733 122.093C77.6388 116.125 76.6434 117.903 80.045 112.353C80.2771 111.989 80.4233 111.583 80.6553 111.102C78.9382 110.574 79.0821 112.524 78.0751 112.744C78.1934 109.303 80.4094 93.0976 80.9291 91.9786C81.325 92.5038 81.7535 93.0029 82.2123 93.473C82.4118 93.6559 82.8132 93.6161 83.1219 93.6794C83.1219 93.3697 83.2356 92.9967 83.1033 92.7645C82.6833 92.0185 82.268 91.2279 81.6716 90.6368C80.9755 89.933 80.957 89.2034 81.073 88.3167C81.7273 83.3903 82.3469 78.4639 82.9594 73.5376C83.0337 73.0449 83.2518 72.435 82.5348 72.0643ZM102.889 84.0823L103.207 83.9908C103.903 85.7503 104.585 87.5097 105.314 89.2644C106.462 92.0114 107.606 94.7632 108.827 97.475C109.653 99.3166 110.651 101.081 111.498 102.915C113.623 107.511 116.556 111.527 120.004 115.177C120.643 115.818 121.332 116.407 122.062 116.939C122.333 117.173 122.671 117.314 123.027 117.341C123.382 117.367 123.737 117.278 124.039 117.087C124.821 116.644 125.557 116.123 126.237 115.531C130.204 111.778 133.715 107.628 136.288 102.739C136.469 102.44 136.668 102.152 136.885 101.878C137.056 102.066 137.221 102.16 137.237 102.275C138.63 112.547 140.008 122.82 141.398 133.165C141.082 133.283 140.761 133.384 140.435 133.468C130.051 135.686 119.665 137.894 109.279 140.093C108.669 140.222 108.019 140.173 107.23 140.215C107.108 138.918 106.973 137.77 106.892 136.621C106.62 132.832 106.407 129.039 106.082 125.257C106.003 124.319 106.142 123.58 106.764 122.895C107.128 122.476 107.465 122.034 107.773 121.572C108.05 121.183 108.265 120.683 107.773 120.399C107.541 120.258 107.061 120.441 106.736 120.582C106.453 120.702 106.23 120.967 105.838 121.286C104.845 108.745 103.868 96.4147 102.889 84.0823ZM113.284 49.2059C112.843 49.6446 112.463 50.0247 112.078 50.4024C109.525 52.9054 107.878 55.8612 107.312 59.4856C106.954 61.7705 106.212 63.9968 105.599 66.2371C105.474 66.7063 105.367 67.0723 105.676 67.5086C107.015 69.4017 108.296 71.3347 109.662 73.2068C110.435 74.2624 111.368 75.1984 112.171 76.2353C115.712 80.761 119.529 85.0585 123.601 89.1025C126.694 92.2108 129.835 95.2676 132.968 98.3336C133.968 99.3095 135.01 100.243 136.036 101.196C133.27 106.479 129.645 110.969 125.362 114.928C123.475 116.676 122.937 116.664 121.136 114.785C118.09 111.607 115.359 108.182 113.389 104.194C111.732 100.839 110.071 97.4891 108.453 94.1063C107.887 92.9334 107.43 91.6877 106.947 90.4655C105.852 87.6903 104.838 84.8823 103.664 82.1446C102.427 79.2639 101.082 76.4371 100.184 73.4156C99.9615 72.6883 99.6039 72.0107 99.1301 71.4192C97.5801 69.5003 95.9187 67.6658 94.3756 65.7468C93.6262 64.8085 93.0321 63.7388 92.3894 62.7136C91.8371 61.8292 91.8279 60.9448 92.3012 59.983C92.582 59.4153 92.64 58.735 92.8047 58.1063C92.9788 57.4377 93.1435 56.7668 93.3408 56.1052C93.4846 55.6243 93.7283 55.1669 93.8327 54.6836C94.1599 53.1588 94.2364 53.065 95.7795 52.9406C96.3271 52.896 96.884 52.9148 97.4293 52.8421C97.7682 52.7606 98.0985 52.6459 98.4154 52.4996C97.2784 48.1878 94.8258 44.3851 94.5914 39.5972C95.0555 40.0359 95.3711 40.2212 95.5358 40.4956C96.2389 41.597 96.8819 42.7365 97.4617 43.9089C98.3226 45.7856 98.9027 47.8172 99.8958 49.6165C101.112 51.8216 102.625 53.8602 104.031 55.9504C104.223 56.2342 104.546 56.4196 104.922 56.7691C104.982 55.8847 104.97 55.249 105.075 54.6343C105.613 51.4486 107.989 49.9285 110.551 48.6476C111.437 48.2254 112.384 48.3474 113.284 49.2059ZM115.445 78.6586L115.551 78.3044C116.134 78.2528 116.712 78.234 117.294 78.1285C117.407 78.101 117.512 78.0464 117.599 77.9692C117.687 77.892 117.755 77.7945 117.797 77.6851C117.795 77.5647 117.764 77.4467 117.707 77.3407C117.651 77.2346 117.571 77.1437 117.473 77.0752C117.216 76.9184 116.914 76.8555 116.616 76.8969C114.6 77.366 113.331 76.3972 112.324 74.7574C111.906 74.0748 111.275 73.5305 110.781 72.8948C109.24 70.9078 107.715 68.9068 106.291 67.0535C106.755 65.721 107.163 64.5903 107.504 63.4385C107.704 62.7629 108.008 62.3031 108.697 62.031C110.829 61.1982 112.662 59.8633 114.287 58.2775C115.679 56.9099 116.974 55.4437 118.289 54.0549C120.865 55.3944 123.487 56.7457 126.097 58.118C127.209 58.6998 128.29 59.3379 129.397 59.9314C129.668 60.0501 129.904 60.2382 130.082 60.4772C130.259 60.7162 130.372 60.9979 130.409 61.2943C130.589 62.1836 130.868 63.0494 131.242 63.8748C131.341 64.1094 131.747 64.2361 132.014 64.412C132.135 64.1117 132.367 63.8068 132.353 63.5159C132.321 62.9505 132.151 62.3922 131.989 61.5805C134.279 63.0467 136.103 64.5786 137.586 66.528C141.048 71.0791 142.753 76.2001 142.495 81.9476C142.28 86.827 141.219 91.5657 139.982 96.2692C139.869 96.6186 139.737 96.9616 139.588 97.2967L123.42 83.8477C123.473 83.4724 123.489 83.273 123.531 83.0783C124.336 79.2146 125.155 75.3556 125.944 71.4896C126.065 70.8914 126.039 70.2627 126.104 69.3196C124.603 70.3917 125.144 71.9893 124.466 72.8221C123.492 73.4719 122.079 72.7892 121.503 74.4102H124.192C123.378 78.1777 122.605 81.7599 121.768 85.6423L115.445 78.6586ZM128.051 27.0138C127.404 27.4642 126.919 27.7434 126.501 28.1023C125.292 29.1439 124.995 30.4623 125.55 31.9425C125.818 32.5973 126.136 33.2303 126.501 33.8357C127.158 35.0086 127.049 35.8789 126.056 36.7821C125.728 37.0963 125.355 37.3575 124.949 37.5563C122.893 38.4594 122.958 40.2564 123.728 41.8938C124.327 43.1676 124.814 43.3764 126.179 43.0034C126.639 42.8722 127.126 42.8655 127.59 42.9841C128.055 43.1026 128.48 43.3422 128.824 43.679C129.587 44.3828 129.715 45.3212 129.42 46.3369C128.921 48.0424 127.241 49.5133 125.476 49.6024C123.9 49.6798 122.331 49.6188 121.531 47.8313C121.501 47.7656 121.271 47.7914 121.143 47.7726C121.085 47.9016 121.004 48.0072 121.011 48.0799C121.051 48.5256 121.113 48.9667 121.176 49.4875C118.069 51.7114 114.746 53.4098 110.695 53.7335C110.79 53.4991 110.909 53.2751 111.05 53.0649C111.883 52.1266 112.732 51.1882 113.565 50.2499C114.398 49.3115 114.261 48.4858 113.196 47.904C112.131 47.3222 111.061 47.2284 110.022 47.7797C107.604 49.0605 105.26 50.4469 104.356 53.3253C104.273 53.4879 104.164 53.6354 104.033 53.7617C103.054 52.3917 102.093 51.0991 101.193 49.7737C100.78 49.1392 100.425 48.4688 100.13 47.7703C99.5988 46.5692 99.1672 45.3212 98.615 44.1318C96.3804 39.311 96.4199 34.326 97.529 29.2659C97.9797 27.0609 99.1184 25.0603 100.778 23.5583C102.332 22.1508 104.026 20.9262 105.467 19.772C106.699 19.8448 107.787 20.131 108.757 19.9058C109.727 19.6806 110.549 18.9416 111.498 18.3927C114.296 20.5696 117.41 19.765 120.526 18.7797C120.707 19.3521 120.839 19.7861 120.99 20.2154C121.141 20.6447 121.28 21.0412 121.436 21.4798C120.874 21.8083 120.385 22.064 119.93 22.3713C118.9 23.0751 118.603 23.9477 118.965 25.1348C119.554 27.0631 121.86 28.3768 123.763 27.8302C123.887 27.7735 123.998 27.6924 124.091 27.5917C124.183 27.491 124.255 27.3727 124.301 27.2437C124.336 27.1569 124.039 26.8285 123.837 26.7745C123.373 26.6244 122.844 26.6127 122.371 26.4578C121.86 26.2889 121.303 26.113 120.904 25.7728C119.702 24.75 119.83 23.868 121.201 23.1032C121.93 22.695 122.647 22.2704 123.436 21.8177C123.209 21.4743 123.004 21.1161 122.823 20.7456C122.505 19.9527 122.127 19.1645 121.958 18.3364C121.788 17.5083 122.547 16.6567 123.099 16.9898C123.926 17.4895 124.603 18.2613 125.288 18.9744C125.81 19.5163 125.288 20.016 125.056 20.4899C124.007 22.7818 125.146 24.9283 126.448 25.9324C126.831 26.1646 127.204 26.4109 128.051 27.0138ZM78.3256 100.002C76.9636 110.434 75.6248 120.697 74.2859 130.967L74.0237 131.113C73.968 130.97 73.9077 130.829 73.8589 130.683C72.5433 126.806 71.2137 122.942 69.9143 119.05C69.5628 117.937 69.4957 116.753 69.7194 115.606C70.3088 112.113 70.7938 108.604 71.3298 105.102C71.6105 103.26 71.9122 101.421 72.2184 99.4972C74.2697 99.34 76.1863 99.5981 78.3256 100.002ZM136.799 287.574C136.479 285.803 136.075 284.379 135.991 282.934C135.864 280.743 136.307 278.519 135.421 276.316L143.431 274.039C144.456 277.45 145.424 280.663 146.419 283.976C142.82 283.995 139.866 285.545 136.801 287.584L136.799 287.574ZM147.742 299.496L147.429 299.632C147.728 300.245 148.048 300.845 148.322 301.467C148.64 302.095 148.893 302.754 149.076 303.435C149.273 304.387 148.633 304.826 147.719 304.505C146.644 304.127 146.382 303.257 146.247 302.257C146.175 301.506 146.032 300.763 145.823 300.038C145.725 299.747 145.215 299.381 144.953 299.426C144.69 299.47 144.384 299.935 144.257 300.275C144.129 300.615 144.257 300.979 144.315 301.317C144.454 302.06 144.621 302.799 144.779 303.538C144.913 304.12 144.888 304.662 144.354 305.025C143.76 305.431 143.173 305.216 142.683 304.84C141.794 304.159 141.19 303.165 140.992 302.056C140.655 300.324 140.368 298.584 140.082 296.843C140.055 296.478 140.055 296.111 140.082 295.745C140.623 295.583 141.138 295.414 141.662 295.276C143.962 294.668 146.303 294.6 148.668 294.659C151.531 294.729 151.538 294.722 152.972 297.258C153.357 297.941 153.793 298.624 153.691 299.48C152.691 299.496 152.673 299.508 152.345 298.889C151.979 298.185 151.58 297.544 150.768 297.246C151.373 298.56 152.457 299.707 151.967 301.678C150.99 300.535 150.575 299.208 149.15 298.457C149.937 300.219 151.343 301.471 150.877 303.534C149.023 302.736 149.095 300.521 147.744 299.496H147.742ZM123.229 85.0183C123.712 85.3702 124.12 85.64 124.496 85.9567C128.936 89.5756 133.372 93.1985 137.804 96.8252C138.21 97.1195 138.594 97.4441 138.952 97.7964C139.159 98.031 139.384 98.4228 139.326 98.6808C139.094 99.6966 138.764 100.687 138.398 101.892C132.673 97.1278 127.891 91.7534 122.795 86.7215C122.951 86.1326 123.072 85.6541 123.232 85.0183H123.229ZM94.5613 120.441V115.984C97.8098 115.56 100.996 115.072 104.307 115.1C104.395 116.8 104.553 118.332 104.307 120.026L94.5613 120.441ZM102.534 93.0202C102.683 94.9767 102.819 96.8041 102.959 98.6503L94.8676 99.1711V93.5949L102.534 93.0202ZM94.6216 106.547L103.504 105.744C103.632 107.37 103.736 108.794 103.871 110.41C100.636 110.155 97.6543 110.858 94.6216 110.762V106.547ZM102.031 86.2124L95.0044 86.888V82.2854L101.685 82.0508C101.815 83.5662 101.921 84.8682 102.033 86.2194L102.031 86.2124ZM116.851 53.6983C114.454 56.7292 111.908 59.4035 108.24 61.041C108.311 59.2505 108.704 57.4881 109.4 55.8401C109.477 55.6033 109.621 55.3938 109.812 55.2366C110.004 55.0795 110.236 54.9812 110.481 54.9534C112.533 54.6015 114.579 54.1675 116.851 53.6983ZM65.3386 286.233C65.6913 284.093 67.232 283.352 68.8493 282.306C67.1368 282.108 66.3897 283.115 65.4754 283.79C65.6681 283.254 65.9311 282.746 66.2574 282.28C67.0092 281.241 68.6056 280.516 69.3528 280.966C70.4109 281.604 71.4411 282.31 72.1372 283.593C71.3483 284.332 70.6406 285.123 69.8169 285.742C68.5616 286.681 66.9651 287.11 66.0741 288.588C65.378 287.936 65.4662 287.387 65.9094 286.871C66.8607 285.768 67.7657 284.605 69.1788 284.039C69.3946 283.952 69.5384 283.68 69.8076 283.401C68.4084 283.434 68.4084 283.434 65.3293 286.242L65.3386 286.233ZM152.816 295.222C153.8 295.565 154.575 295.71 155.023 296.493C156.248 298.647 155.547 302.382 153.631 304C151.714 305.619 149.385 306.433 146.883 306.632C146.273 306.682 145.649 306.553 144.913 306.496C145.184 306.118 145.436 305.727 145.667 305.323C145.827 304.957 145.965 304.581 146.08 304.197C146.837 305.427 147.649 305.87 148.728 305.565C149.756 305.277 150.394 304.202 151.538 304.111C151.609 304.084 151.672 304.04 151.721 303.982C151.77 303.924 151.804 303.855 151.819 303.78C151.768 302.635 152.979 302.187 153.211 301.199C153.267 300.965 153.538 300.73 153.761 300.58C154.754 299.876 154.96 299.426 154.478 298.295C154.044 297.333 153.468 296.44 152.814 295.231L152.816 295.222ZM99.7496 76.2189C99.1742 76.3432 98.6567 76.5755 98.1555 76.5403C96.9698 76.4582 96.1391 75.7615 95.6031 74.7011C95.0045 73.5282 94.849 70.1078 95.3247 68.4188C97.8562 70.8233 99.3598 73.4296 99.7496 76.2189ZM74.5017 286.699C73.4157 287.638 72.5874 288.445 71.6755 289.132C71.0446 289.615 70.3483 290.004 69.608 290.286C69.2028 290.425 68.7607 290.406 68.3687 290.233C67.9767 290.059 67.6631 289.743 67.4895 289.348C67.1786 288.644 67.3712 288.234 68.471 287.649C69.9932 286.842 71.3645 285.874 72.3345 284.403C72.4064 284.295 72.5665 284.246 72.78 284.112L74.5017 286.699ZM78.4463 98.6785C75.6247 98.2351 72.8774 97.902 70.0303 98.587C70.1069 97.9442 70.1348 97.5431 70.209 97.1513C70.2858 96.8705 70.3835 96.5961 70.5014 96.3302L78.7317 96.7994C78.6227 97.4844 78.5414 98.0146 78.444 98.6667L78.4463 98.6785ZM141.027 304.737C139.001 303.524 137.92 301.654 137.391 299.447C137.145 298.422 138.159 296.939 139.11 296.597C139.398 297.915 139.82 299.229 139.941 300.571C140.071 302.037 140.275 303.44 141.027 304.737ZM74.808 287.664C75.2489 288.367 75.5319 288.89 74.8405 289.383C73.1953 290.556 71.4713 291.581 69.5036 292.069C67.4663 292.571 65.4082 291.077 65.081 288.881C65.7771 289.116 66.3897 289.221 66.7749 290.04C67.3573 291.269 68.5662 291.736 69.8192 291.213C70.8541 290.774 71.7822 290.056 72.7127 289.397C73.4297 288.881 74.0747 288.273 74.808 287.664ZM82.4281 283.03C84.7925 280.919 87.8624 279.835 89.8904 280.401L83.0267 284.513C82.7761 283.891 82.5998 283.446 82.4281 283.03ZM141.217 134.336L137.337 138.972L135.906 135.373L141.217 134.336ZM79.936 142.312L79.6227 142.399L77.3418 138.796L80.3722 138.385C80.2168 139.793 80.0752 141.043 79.936 142.303V142.312ZM85.1336 280.016C85.1475 280.121 85.1614 280.227 85.173 280.333L81.964 282.113C81.4814 281.325 81.073 280.663 80.4998 279.732L85.1336 280.016ZM134.701 284.86L135.096 284.776C135.244 286.038 135.852 287.23 135.701 288.529L135.342 288.59L134.701 284.86Z" fill="#C6B4F9"/>
</g>
<line x1="51" y1="212.5" x2="170" y2="212.5" stroke="#232227"/>
<path d="M66.8182 25.0305C66.8182 34.4026 52.8101 42.0002 35.5303 42.0002C18.2505 42.0002 4.24242 34.4026 4.24242 25.0305C4.24242 15.6584 18.2505 8.06084 35.5303 8.06084C52.8101 8.06084 66.8182 15.6584 66.8182 25.0305Z" fill="#17161B"/>
<path d="M28.6364 15.4851C28.6364 19.5854 23.6504 22.9093 17.5 22.9093C11.3496 22.9093 6.36364 19.5854 6.36364 15.4851C6.36364 11.3848 11.3496 8.06084 17.5 8.06084C23.6504 8.06084 28.6364 11.3848 28.6364 15.4851Z" fill="#17161B"/>
<path d="M24.3939 32.4548C24.3939 36.5551 19.408 39.879 13.2576 39.879C7.10713 39.879 2.12121 36.5551 2.12121 32.4548C2.12121 28.3545 7.10713 25.0305 13.2576 25.0305C19.408 25.0305 24.3939 28.3545 24.3939 32.4548Z" fill="#17161B"/>
<path d="M51.9697 10.1821C51.9697 14.2824 45.3218 17.6063 37.1212 17.6063C28.9206 17.6063 22.2727 14.2824 22.2727 10.1821C22.2727 6.08176 28.9206 2.75781 37.1212 2.75781C45.3218 2.75781 51.9697 6.08176 51.9697 10.1821Z" fill="#17161B"/>
<path d="M40.303 38.8184C40.303 42.9187 34.8423 46.2427 28.1061 46.2427C21.3699 46.2427 15.9091 42.9187 15.9091 38.8184C15.9091 34.7181 21.3699 31.3942 28.1061 31.3942C34.8423 31.3942 40.303 34.7181 40.303 38.8184Z" fill="#17161B"/>
<path d="M65.7576 16.5457C65.7576 20.646 59.1097 23.9699 50.9091 23.9699C42.7085 23.9699 36.0606 20.646 36.0606 16.5457C36.0606 12.4454 42.7085 9.12145 50.9091 9.12145C59.1097 9.12145 65.7576 12.4454 65.7576 16.5457Z" fill="#17161B"/>
<path d="M53.0303 37.7578C53.0303 41.8581 48.7567 45.1821 43.4848 45.1821C38.213 45.1821 33.9394 41.8581 33.9394 37.7578C33.9394 33.6575 38.213 30.3336 43.4848 30.3336C48.7567 30.3336 53.0303 33.6575 53.0303 37.7578Z" fill="#17161B"/>
<path d="M67.8788 31.3942C67.8788 36.666 62.8929 40.9396 56.7424 40.9396C50.592 40.9396 45.6061 36.666 45.6061 31.3942C45.6061 26.1224 50.592 21.8487 56.7424 21.8487C62.8929 21.8487 67.8788 26.1224 67.8788 31.3942Z" fill="#17161B"/>
<path d="M70 23.4396C70 26.6613 63.3521 29.273 55.1515 29.273C46.9509 29.273 40.303 26.6613 40.303 23.4396C40.303 20.218 46.9509 17.6063 55.1515 17.6063C63.3521 17.6063 70 20.218 70 23.4396Z" fill="#17161B"/>
<path d="M29.697 23.4396C29.697 26.6613 23.0491 29.273 14.8485 29.273C6.64789 29.273 0 26.6613 0 23.4396C0 20.218 6.64789 17.6063 14.8485 17.6063C23.0491 17.6063 29.697 20.218 29.697 23.4396Z" fill="#17161B"/>
<path d="M65 25C65 33.8366 51.7924 41 35.5 41C19.2076 41 6 33.8366 6 25C6 16.1634 19.2076 9 35.5 9C51.7924 9 65 16.1634 65 25Z" fill="#FFE178"/>
<path d="M29 16C29 19.866 24.299 23 18.5 23C12.701 23 8 19.866 8 16C8 12.134 12.701 9 18.5 9C24.299 9 29 12.134 29 16Z" fill="#FFE178"/>
<path d="M25 32C25 35.866 20.299 39 14.5 39C8.70101 39 4 35.866 4 32C4 28.134 8.70101 25 14.5 25C20.299 25 25 28.134 25 32Z" fill="#FFE178"/>
<path d="M51 11C51 14.866 44.732 18 37 18C29.268 18 23 14.866 23 11C23 7.13401 29.268 4 37 4C44.732 4 51 7.13401 51 11Z" fill="#FFE178"/>
<path d="M40 38C40 41.866 34.8513 45 28.5 45C22.1487 45 17 41.866 17 38C17 34.134 22.1487 31 28.5 31C34.8513 31 40 34.134 40 38Z" fill="#FFE178"/>
<path d="M64 17C64 20.866 57.732 24 50 24C42.268 24 36 20.866 36 17C36 13.134 42.268 10 50 10C57.732 10 64 13.134 64 17Z" fill="#FFE178"/>
<path d="M52 37C52 40.866 47.9706 44 43 44C38.0294 44 34 40.866 34 37C34 33.134 38.0294 30 43 30C47.9706 30 52 33.134 52 37Z" fill="#FFE178"/>
<path d="M66 31C66 35.9706 61.299 40 55.5 40C49.701 40 45 35.9706 45 31C45 26.0294 49.701 22 55.5 22C61.299 22 66 26.0294 66 31Z" fill="#FFE178"/>
<path d="M68 23.5C68 26.5376 61.732 29 54 29C46.268 29 40 26.5376 40 23.5C40 20.4624 46.268 18 54 18C61.732 18 68 20.4624 68 23.5Z" fill="#FFE178"/>
<path d="M30 23.5C30 26.5376 23.732 29 16 29C8.26801 29 2 26.5376 2 23.5C2 20.4624 8.26801 18 16 18C23.732 18 30 20.4624 30 23.5Z" fill="#FFE178"/>
<path d="M65.0909 26.4634C65.0909 34.6534 52.2835 41.2927 36.4848 41.2927C20.6862 41.2927 7.87879 34.6534 7.87879 26.4634C7.87879 18.2734 20.6862 11.6341 36.4848 11.6341C52.2835 11.6341 65.0909 18.2734 65.0909 26.4634Z" fill="#FFC700"/>
<path d="M30.1818 18.122C30.1818 21.7051 25.6233 24.6098 20 24.6098C14.3767 24.6098 9.81818 21.7051 9.81818 18.122C9.81818 14.5388 14.3767 11.6341 20 11.6341C25.6233 11.6341 30.1818 14.5388 30.1818 18.122Z" fill="#FFC700"/>
<path d="M26.303 32.9512C26.303 36.5343 21.7445 39.439 16.1212 39.439C10.4979 39.439 5.93939 36.5343 5.93939 32.9512C5.93939 29.3681 10.4979 26.4634 16.1212 26.4634C21.7445 26.4634 26.303 29.3681 26.303 32.9512Z" fill="#FFC700"/>
<path d="M51.5152 13.4878C51.5152 17.0709 45.4371 19.9756 37.9394 19.9756C30.4417 19.9756 24.3636 17.0709 24.3636 13.4878C24.3636 9.90469 30.4417 7 37.9394 7C45.4371 7 51.5152 9.90469 51.5152 13.4878Z" fill="#FFC700"/>
<path d="M40.8485 38.5122C40.8485 42.0953 35.8558 45 29.697 45C23.5382 45 18.5455 42.0953 18.5455 38.5122C18.5455 34.9291 23.5382 32.0244 29.697 32.0244C35.8558 32.0244 40.8485 34.9291 40.8485 38.5122Z" fill="#FFC700"/>
<path d="M64.1212 19.0488C64.1212 22.6319 58.0431 25.5366 50.5455 25.5366C43.0478 25.5366 36.9697 22.6319 36.9697 19.0488C36.9697 15.4657 43.0478 12.561 50.5455 12.561C58.0431 12.561 64.1212 15.4657 64.1212 19.0488Z" fill="#FFC700"/>
<path d="M52.4848 37.5854C52.4848 41.1685 48.5775 44.0732 43.7576 44.0732C38.9376 44.0732 35.0303 41.1685 35.0303 37.5854C35.0303 34.0023 38.9376 31.0976 43.7576 31.0976C48.5775 31.0976 52.4848 34.0023 52.4848 37.5854Z" fill="#FFC700"/>
<path d="M66.0606 32.0244C66.0606 36.6313 61.5021 40.3659 55.8788 40.3659C50.2555 40.3659 45.697 36.6313 45.697 32.0244C45.697 27.4175 50.2555 23.6829 55.8788 23.6829C61.5021 23.6829 66.0606 27.4175 66.0606 32.0244Z" fill="#FFC700"/>
<path d="M68 25.0732C68 27.8885 61.9219 30.1707 54.4242 30.1707C46.9266 30.1707 40.8485 27.8885 40.8485 25.0732C40.8485 22.2579 46.9266 19.9756 54.4242 19.9756C61.9219 19.9756 68 22.2579 68 25.0732Z" fill="#FFC700"/>
<path d="M31.1515 25.0732C31.1515 27.8885 25.0734 30.1707 17.5758 30.1707C10.0781 30.1707 4 27.8885 4 25.0732C4 22.2579 10.0781 19.9756 17.5758 19.9756C25.0734 19.9756 31.1515 22.2579 31.1515 25.0732Z" fill="#FFC700"/>
<path d="M13.8829 25.052C13.4189 25.116 13.0349 25.148 12.7309 25.148C12.6269 25.148 12.5749 25.108 12.5749 25.028C12.5749 24.844 12.6989 24.652 12.9469 24.452C13.2029 24.244 13.6149 24.064 14.1829 23.912C14.4389 23 14.7309 22.164 15.0589 21.404C14.2589 21.444 13.6029 21.708 13.0909 22.196C12.9629 22.324 12.8589 22.424 12.7789 22.496C12.6989 22.568 12.6269 22.604 12.5629 22.604C12.5069 22.604 12.4509 22.556 12.3949 22.46C12.3389 22.364 12.3109 22.236 12.3109 22.076C12.3189 21.46 12.7349 20.96 13.5589 20.576C14.3829 20.192 15.3989 20.004 16.6069 20.012L20.2069 20.072C20.4229 20.072 20.5309 20.156 20.5309 20.324C20.5309 20.372 20.4989 20.46 20.4349 20.588C20.3709 20.708 20.3149 20.84 20.2669 20.984C20.1629 21.272 19.9389 21.416 19.5949 21.416H19.2109L17.6149 21.404H16.6909C16.6269 21.86 16.4349 22.604 16.1149 23.636L18.3109 23.672C18.4389 23.672 18.5029 23.748 18.5029 23.9C18.5029 23.948 18.4829 24.032 18.4429 24.152C18.4029 24.272 18.3669 24.396 18.3349 24.524C18.2709 24.788 18.1349 24.92 17.9269 24.92L16.1029 24.836H15.9469C15.8989 24.836 15.8429 24.84 15.7789 24.848C15.3629 26.376 15.1549 27.584 15.1549 28.472C15.1549 28.944 14.6949 29.18 13.7749 29.18C13.5749 29.18 13.4549 29.08 13.4149 28.88C13.3829 28.672 13.3669 28.4 13.3669 28.064C13.3669 27.344 13.5389 26.34 13.8829 25.052ZM23.7021 27.98C23.0701 28.724 22.3101 29.096 21.4221 29.096C20.5421 29.096 19.8821 28.872 19.4421 28.424C19.0021 27.968 18.7861 27.404 18.7941 26.732C18.7861 25.78 19.0861 24.96 19.6941 24.272C20.3021 23.584 21.0981 23.24 22.0821 23.24C22.5301 23.24 22.8901 23.296 23.1621 23.408C23.6341 23.6 23.8701 23.78 23.8701 23.948C23.8701 24.076 23.5381 24.144 22.8741 24.152C22.2181 24.152 21.6661 24.38 21.2181 24.836C20.7781 25.284 20.5581 25.852 20.5581 26.54C20.5581 26.9 20.6621 27.204 20.8701 27.452C21.0861 27.692 21.3861 27.812 21.7701 27.812C22.1621 27.812 22.4861 27.732 22.7421 27.572C22.1741 27.188 21.8901 26.632 21.8901 25.904C21.8821 25.52 22.0181 25.172 22.2981 24.86C22.5861 24.54 22.9501 24.38 23.3901 24.38C23.8381 24.372 24.1581 24.492 24.3501 24.74C24.5421 24.988 24.6381 25.308 24.6381 25.7C24.6381 26.084 24.5461 26.492 24.3621 26.924H24.4341C24.7861 26.916 25.0901 26.792 25.3461 26.552C25.4421 26.456 25.5221 26.372 25.5861 26.3C25.6581 26.228 25.7301 26.192 25.8021 26.192C25.9141 26.192 25.9701 26.324 25.9701 26.588C25.9701 27.076 25.8261 27.444 25.5381 27.692C25.2501 27.932 24.9301 28.052 24.5781 28.052C24.2341 28.052 23.9421 28.028 23.7021 27.98ZM23.5941 26.588C23.7301 26.3 23.7981 26.02 23.7981 25.748C23.7981 25.476 23.7101 25.34 23.5341 25.34C23.4621 25.34 23.4021 25.392 23.3541 25.496C23.3061 25.6 23.2821 25.7 23.2821 25.796C23.2821 26.116 23.3861 26.38 23.5941 26.588ZM27.1218 26.984L27.1938 28.448C27.1938 28.64 27.0938 28.812 26.8938 28.964C26.6938 29.116 26.4218 29.192 26.0778 29.192C25.8778 29.192 25.7378 29.088 25.6578 28.88C25.5858 28.672 25.5498 28.368 25.5498 27.968C25.5498 27.128 25.5898 26.472 25.6698 26C25.7578 25.52 25.9258 25.036 26.1738 24.548C25.8058 24.196 25.6218 23.892 25.6218 23.636C25.6218 23.1 25.9098 22.832 26.4858 22.832C26.7818 22.832 27.0418 22.988 27.2658 23.3C27.4258 23.516 27.5418 23.768 27.6138 24.056C27.7258 24.096 27.8658 24.116 28.0338 24.116C28.2658 24.116 28.5338 24.04 28.8378 23.888L29.1498 23.732C29.2458 23.684 29.3298 23.66 29.4018 23.66C29.6338 23.66 29.8658 24 30.0978 24.68C30.0258 24.992 29.9458 25.292 29.8578 25.58C29.7778 25.868 29.6818 26.216 29.5698 26.624C29.4578 27.032 29.3978 27.308 29.3898 27.452C29.3898 27.588 29.4338 27.656 29.5218 27.656C29.6418 27.656 29.7898 27.58 29.9658 27.428C30.1418 27.276 30.3178 27.112 30.4938 26.936C30.6698 26.752 30.8298 26.584 30.9738 26.432C31.1258 26.28 31.2298 26.204 31.2858 26.204C31.3978 26.204 31.4538 26.34 31.4538 26.612C31.4538 27.164 31.2098 27.708 30.7218 28.244C30.2418 28.78 29.6898 29.044 29.0658 29.036C28.6978 29.036 28.4218 28.888 28.2378 28.592C28.0538 28.296 27.9578 27.936 27.9498 27.512C27.9498 26.672 28.1378 25.876 28.5138 25.124C28.3378 25.196 28.1378 25.232 27.9138 25.232C27.6978 25.232 27.5418 25.224 27.4458 25.208C27.3738 25.512 27.3018 25.82 27.2298 26.132C27.1578 26.436 27.1218 26.72 27.1218 26.984ZM35.4501 23.54C35.5621 23.188 35.7421 23.012 35.9901 23.012C36.2141 23.02 36.4261 23.18 36.6261 23.492C36.8261 23.796 36.9261 24.032 36.9261 24.2C36.9101 24.528 36.8101 25.052 36.6261 25.772C36.4421 26.484 36.1821 27.412 35.8461 28.556C36.3741 28.148 36.8941 27.616 37.4061 26.96C37.5821 26.736 37.7301 26.556 37.8501 26.42C37.9781 26.276 38.0821 26.204 38.1621 26.204C38.2741 26.204 38.3301 26.332 38.3301 26.588C38.3301 27.092 38.0461 27.68 37.4781 28.352C36.9181 29.024 36.2301 29.548 35.4141 29.924C35.3181 30.244 35.2141 30.548 35.1021 30.836C34.9901 31.124 34.8461 31.376 34.6701 31.592C34.2861 32.056 33.7021 32.288 32.9181 32.288C32.3901 32.288 31.9381 32.136 31.5621 31.832C31.1941 31.528 31.0101 31.148 31.0101 30.692C31.0101 30.444 31.0901 30.248 31.2501 30.104C31.4181 29.96 31.6461 29.844 31.9341 29.756C32.2221 29.668 32.5581 29.592 32.9421 29.528C33.3341 29.464 33.7501 29.384 34.1901 29.288C34.2301 29.152 34.2621 29.02 34.2861 28.892C34.3181 28.756 34.3501 28.62 34.3821 28.484C33.9421 28.892 33.4021 29.096 32.7621 29.096C32.1301 29.096 31.6421 28.92 31.2981 28.568C30.9541 28.216 30.7861 27.788 30.7941 27.284C30.7941 25.924 31.2461 24.852 32.1501 24.068C32.7741 23.532 33.4221 23.264 34.0941 23.264C34.3261 23.264 34.5741 23.292 34.8381 23.348C35.1101 23.404 35.3141 23.468 35.4501 23.54ZM32.5581 26.888C32.5581 27.504 32.7861 27.812 33.2421 27.812C33.4981 27.812 33.7581 27.716 34.0221 27.524C34.2861 27.332 34.4981 27.02 34.6581 26.588C34.7781 26.028 34.9021 25.512 35.0301 25.04C35.1661 24.568 35.2581 24.24 35.3061 24.056C34.6341 24.144 34.0061 24.444 33.4221 24.956C32.8461 25.468 32.5581 26.112 32.5581 26.888ZM33.8181 30.392C33.5301 30.448 33.2781 30.492 33.0621 30.524C32.8461 30.556 32.6661 30.584 32.5221 30.608C32.3861 30.632 32.2821 30.66 32.2101 30.692C32.1461 30.724 32.1141 30.776 32.1141 30.848C32.1141 30.992 32.2021 31.116 32.3781 31.22C32.5621 31.324 32.7421 31.372 32.9181 31.364C33.2221 31.364 33.5221 31.04 33.8181 30.392ZM40.529 27.692C41.153 27.692 41.757 27.444 42.341 26.948C42.557 26.764 42.733 26.596 42.869 26.444C43.005 26.284 43.109 26.204 43.181 26.204C43.293 26.204 43.349 26.316 43.349 26.54C43.349 26.764 43.289 27.016 43.169 27.296C43.049 27.568 42.849 27.836 42.569 28.1C41.881 28.748 40.937 29.072 39.737 29.072C38.785 29.072 38.137 28.728 37.793 28.04C37.673 27.8 37.613 27.456 37.613 27.008C37.613 26.56 37.701 26.096 37.877 25.616C38.053 25.128 38.285 24.708 38.573 24.356C38.869 24.004 39.209 23.732 39.593 23.54C39.977 23.34 40.385 23.24 40.817 23.24C41.257 23.24 41.593 23.348 41.825 23.564C42.065 23.78 42.185 24.06 42.185 24.404C42.185 24.748 42.097 25.032 41.921 25.256C41.753 25.472 41.533 25.656 41.261 25.808C40.989 25.952 40.685 26.084 40.349 26.204C40.021 26.316 39.697 26.444 39.377 26.588V26.888C39.385 27.176 39.505 27.38 39.737 27.5C39.969 27.62 40.233 27.684 40.529 27.692ZM40.325 24.308C39.909 24.308 39.621 24.792 39.461 25.76C39.629 25.648 39.785 25.548 39.929 25.46C40.081 25.372 40.213 25.288 40.325 25.208C40.565 25.032 40.689 24.832 40.697 24.608C40.697 24.408 40.573 24.308 40.325 24.308ZM43.2767 28.352C43.1887 28.136 43.1247 27.888 43.0847 27.608C43.0447 27.32 43.0247 26.92 43.0247 26.408C43.0247 25.896 43.1207 25.204 43.3127 24.332H42.7727C42.6767 24.332 42.6287 24.292 42.6287 24.212C42.6287 24.02 42.6447 23.864 42.6767 23.744C42.7167 23.616 42.8047 23.472 42.9407 23.312H43.2287C43.3407 23.312 43.4607 23.308 43.5887 23.3C43.9727 22.068 44.3647 21.452 44.7647 21.452C45.0847 21.46 45.3087 21.664 45.4367 22.064C45.4687 22.176 45.5047 22.296 45.5447 22.424L45.0527 23.288C45.6127 23.304 45.9647 23.312 46.1087 23.312C46.2607 23.312 46.3407 23.328 46.3487 23.36C46.3647 23.384 46.3727 23.424 46.3727 23.48C46.3727 23.624 46.3367 23.804 46.2647 24.02C46.2007 24.236 46.1247 24.34 46.0367 24.332L44.8367 24.272C44.6687 25.248 44.5847 26.056 44.5847 26.696C44.5847 27.336 44.6767 27.656 44.8607 27.656C45.0127 27.656 45.2887 27.532 45.6887 27.284C46.0887 27.028 46.3767 26.784 46.5527 26.552C46.7287 26.32 46.8727 26.204 46.9847 26.204C47.0967 26.204 47.1527 26.34 47.1527 26.612C47.1527 26.884 47.0567 27.164 46.8647 27.452C46.6727 27.732 46.4287 27.992 46.1327 28.232C45.8447 28.464 45.5207 28.656 45.1607 28.808C44.8087 28.96 44.5007 29.036 44.2367 29.036C43.9727 29.036 43.7687 28.976 43.6247 28.856C43.4887 28.728 43.3727 28.56 43.2767 28.352ZM52.874 22.736C52.794 22.792 52.702 22.82 52.598 22.82C52.494 22.82 52.442 22.736 52.442 22.568C52.442 22.4 52.502 22.196 52.622 21.956C52.742 21.708 52.914 21.48 53.138 21.272C53.666 20.776 54.346 20.528 55.178 20.528C56.018 20.528 56.674 20.712 57.146 21.08C57.626 21.448 57.866 21.956 57.866 22.604C57.866 23.252 57.79 23.756 57.638 24.116C57.486 24.476 57.294 24.764 57.062 24.98C56.83 25.188 56.582 25.352 56.318 25.472C56.054 25.592 55.806 25.712 55.574 25.832C55.342 25.944 55.15 26.084 54.998 26.252C54.846 26.42 54.77 26.656 54.77 26.96C54.77 27.008 54.73 27.032 54.65 27.032C54.498 27.032 54.334 26.98 54.158 26.876C53.99 26.772 53.906 26.636 53.906 26.468C53.906 25.764 54.086 25.24 54.446 24.896C54.598 24.752 54.762 24.632 54.938 24.536C55.122 24.44 55.29 24.328 55.442 24.2C55.802 23.896 55.982 23.44 55.982 22.832C55.982 22.464 55.878 22.18 55.67 21.98C55.462 21.78 55.202 21.68 54.89 21.68C54.586 21.68 54.338 21.708 54.146 21.764C53.962 21.82 53.806 21.892 53.678 21.98C53.55 22.06 53.442 22.152 53.354 22.256C53.266 22.352 53.182 22.444 53.102 22.532C53.03 22.612 52.954 22.68 52.874 22.736ZM53.402 27.74C53.682 27.604 53.986 27.536 54.314 27.536C54.65 27.536 54.818 27.704 54.818 28.04C54.818 28.376 54.71 28.68 54.494 28.952C54.286 29.224 54.062 29.356 53.822 29.348C53.59 29.348 53.39 29.248 53.222 29.048C53.054 28.856 52.97 28.66 52.97 28.46C52.978 28.116 53.122 27.876 53.402 27.74Z" fill="#17161B"/>
<path d="M79.4 44.5C79.4 45.4491 78.7557 46.4108 77.4946 47.1675C76.2454 47.917 74.481 48.4 72.5 48.4C70.519 48.4 68.7546 47.917 67.5054 47.1675C66.2443 46.4108 65.6 45.4491 65.6 44.5C65.6 43.5509 66.2443 42.5892 67.5054 41.8325C68.7546 41.083 70.519 40.6 72.5 40.6C74.481 40.6 76.2454 41.083 77.4946 41.8325C78.7557 42.5892 79.4 43.5509 79.4 44.5Z" fill="#FFC700" stroke="#17161B" stroke-width="1.2"/>
<defs>
<clipPath id="clip0_4_1272">
<rect width="105" height="213" fill="white" transform="matrix(-1 0 0 1 167 0)"/>
</clipPath>
<clipPath id="clip1_4_1272">
<rect width="89" height="67" fill="white" transform="matrix(-1 0 0 1 159 146)"/>
</clipPath>
</defs>
</svg>
