<svg width="228" height="263" viewBox="0 0 228 263" fill="none" xmlns="http://www.w3.org/2000/svg">
<g style="mix-blend-mode:luminosity" opacity="0.4" clip-path="url(#clip0_4_1273)" filter="url(#filter0_f_4_1273)">
<path d="M111.007 221.677C110.315 222.566 117.178 250.743 115.032 268.776C113.599 280.297 111.474 291.72 108.669 302.983H86.4131L96.8051 298.36C96.8051 298.36 96.8417 241.732 91.2066 221.041C85.5715 200.35 111.007 221.677 111.007 221.677Z" fill="#FADCD4"/>
<path d="M86.4133 303.88H108.669C108.868 303.881 109.061 303.815 109.217 303.693C109.374 303.571 109.486 303.4 109.535 303.208C112.348 291.904 114.481 280.442 115.922 268.882C117.471 255.88 114.414 237.822 112.767 228.111C112.288 225.257 111.832 222.578 111.852 221.954C111.913 221.782 111.92 221.594 111.871 221.418C111.823 221.241 111.721 221.084 111.58 220.968C110.039 219.675 96.3865 208.451 91.3207 211.704C89.2675 213.025 88.9463 216.152 90.3408 221.261C95.5774 240.477 95.8905 291.694 95.9068 297.76L86.0475 302.147C85.8575 302.23 85.7018 302.375 85.6069 302.56C85.512 302.744 85.4837 302.955 85.5268 303.158C85.57 303.361 85.6819 303.543 85.8435 303.672C86.0052 303.801 86.2065 303.871 86.4133 303.868V303.88ZM107.962 302.082H90.6417L97.1468 299.179C97.3042 299.109 97.4382 298.995 97.5326 298.85C97.627 298.706 97.678 298.537 97.6794 298.364C97.6794 296.048 97.651 241.378 92.0484 220.805C90.9385 216.727 91.0157 214.045 92.268 213.241C95.1912 211.358 104.546 217.531 110.031 222.06C110.031 222.9 110.32 224.572 110.974 228.433C112.601 238.043 115.634 255.933 114.117 268.674C112.717 279.922 110.665 291.078 107.97 302.086L107.962 302.082Z" fill="#17161B"/>
<path d="M156.258 299.203C155.807 298.2 144.594 259.81 135.853 233.969C128.823 213.176 133.181 211.219 133.181 211.219L149.66 209.686C149.66 209.686 158.852 233.207 161.808 249.042C164.764 264.878 165.235 299.191 165.235 299.191L156.258 299.203Z" fill="#FADCD4"/>
<path d="M156.258 300.105H165.235C165.354 300.104 165.472 300.08 165.581 300.034C165.691 299.988 165.79 299.92 165.874 299.836C165.957 299.751 166.023 299.65 166.068 299.54C166.112 299.429 166.135 299.311 166.134 299.192C166.134 298.845 165.626 264.601 162.69 248.872C159.755 233.142 150.587 209.593 150.493 209.356C150.423 209.173 150.295 209.019 150.129 208.916C149.963 208.813 149.768 208.767 149.574 208.785L133.092 210.318C132.994 210.33 132.898 210.356 132.807 210.396C131.957 210.779 128.058 213.731 134.999 234.255C141.239 252.7 148.684 277.367 152.684 290.617C154.616 297.019 155.291 299.253 155.437 299.587C155.51 299.743 155.627 299.874 155.772 299.966C155.918 300.058 156.086 300.106 156.258 300.105ZM164.325 298.303H156.905C156.498 297.055 155.555 293.9 154.404 290.096C150.404 276.833 142.951 252.15 136.702 233.676C130.884 216.467 133.043 212.671 133.535 212.067L149.066 210.624C150.542 214.469 158.287 235.05 160.926 249.181C163.564 263.313 164.223 292.75 164.325 298.303Z" fill="#17161B"/>
<path d="M114.556 200.907L114.555 200.869L114.556 200.832C114.587 200.187 114.853 199.577 115.304 199.115C115.755 198.654 116.361 198.375 117.004 198.332C117.648 198.289 118.285 198.485 118.794 198.882C119.302 199.278 119.646 199.847 119.762 200.48C119.763 200.481 119.763 200.482 119.763 200.483L129.557 252.279C139.473 251.245 147.339 249.817 153.304 248.027C159.135 246.276 163.039 244.212 165.29 241.929L139.664 157.256L91.4826 152.117L85.0439 252.718C95.3779 256.885 106.573 255.944 116.048 254.634L114.556 200.907Z" fill="#C6B4F9" stroke="#17161B" stroke-width="2"/>
<line x1="62" y1="242.5" x2="181" y2="242.5" stroke="#17161B"/>
</g>
<g clip-path="url(#clip1_4_1273)">
<path d="M111.007 211.677C110.315 212.566 117.178 240.743 115.032 258.776C113.599 270.297 111.474 281.72 108.669 292.983H86.4131L96.8051 288.36C96.8051 288.36 96.8417 231.732 91.2066 211.041C85.5715 190.35 111.007 211.677 111.007 211.677Z" fill="#FADCD4"/>
<path d="M86.4133 293.88H108.669C108.868 293.881 109.061 293.815 109.217 293.693C109.374 293.571 109.486 293.4 109.535 293.208C112.348 281.904 114.481 270.442 115.922 258.882C117.471 245.88 114.414 227.822 112.767 218.111C112.288 215.257 111.832 212.578 111.852 211.954C111.913 211.782 111.92 211.594 111.871 211.418C111.823 211.241 111.721 211.084 111.58 210.968C110.039 209.675 96.3865 198.451 91.3207 201.704C89.2675 203.025 88.9463 206.152 90.3408 211.261C95.5774 230.477 95.8905 281.694 95.9068 287.76L86.0475 292.147C85.8575 292.23 85.7018 292.375 85.6069 292.56C85.512 292.744 85.4837 292.955 85.5268 293.158C85.57 293.361 85.6819 293.543 85.8435 293.672C86.0052 293.801 86.2065 293.871 86.4133 293.868V293.88ZM107.962 292.082H90.6417L97.1468 289.179C97.3042 289.109 97.4382 288.995 97.5326 288.85C97.627 288.706 97.678 288.537 97.6794 288.364C97.6794 286.048 97.651 231.378 92.0484 210.805C90.9385 206.727 91.0157 204.045 92.268 203.241C95.1912 201.358 104.546 207.531 110.031 212.06C110.031 212.9 110.32 214.572 110.974 218.433C112.601 228.043 115.634 245.933 114.117 258.674C112.717 269.922 110.665 281.078 107.97 292.086L107.962 292.082Z" fill="#17161B"/>
<path d="M156.258 289.203C155.807 288.2 144.594 249.81 135.853 223.969C128.823 203.176 133.181 201.219 133.181 201.219L149.66 199.686C149.66 199.686 158.852 223.207 161.808 239.042C164.764 254.878 165.235 289.191 165.235 289.191L156.258 289.203Z" fill="#FADCD4"/>
<path d="M156.258 290.105H165.235C165.354 290.104 165.472 290.08 165.581 290.034C165.691 289.988 165.79 289.92 165.874 289.836C165.957 289.751 166.023 289.65 166.068 289.54C166.112 289.429 166.135 289.311 166.134 289.192C166.134 288.845 165.626 254.601 162.69 238.872C159.755 223.142 150.587 199.593 150.493 199.356C150.423 199.173 150.295 199.019 150.129 198.916C149.963 198.813 149.768 198.767 149.574 198.785L133.092 200.318C132.994 200.33 132.898 200.356 132.807 200.396C131.957 200.779 128.058 203.731 134.999 224.255C141.239 242.7 148.684 267.367 152.684 280.617C154.616 287.019 155.291 289.253 155.437 289.587C155.51 289.743 155.627 289.874 155.772 289.966C155.918 290.058 156.086 290.106 156.258 290.105ZM164.325 288.303H156.905C156.498 287.055 155.555 283.9 154.404 280.096C150.404 266.833 142.951 242.15 136.702 223.676C130.884 206.467 133.043 202.671 133.535 202.067L149.066 200.624C150.542 204.469 158.287 225.05 160.926 239.181C163.564 253.313 164.223 282.75 164.325 288.303Z" fill="#17161B"/>
<path d="M114.806 190.9L114.805 190.872L114.806 190.844C114.834 190.26 115.075 189.708 115.483 189.29C115.891 188.873 116.439 188.62 117.021 188.581C117.604 188.542 118.18 188.72 118.64 189.079C119.1 189.437 119.411 189.952 119.517 190.525C119.517 190.526 119.517 190.527 119.517 190.528L129.354 242.551C139.387 241.515 147.345 240.076 153.376 238.266C159.31 236.485 163.292 234.369 165.572 231.998L139.855 147.025L91.2498 141.84L84.7829 242.881C95.3106 247.187 106.729 246.184 116.304 244.85L114.806 190.9Z" fill="#C6B4F9" stroke="#17161B" stroke-width="1.5"/>
<path d="M119.967 106.809C121.244 108.407 132.36 121.988 143.813 120.031C154.437 118.212 157.27 104.403 166.142 105.015C172.24 105.423 172.712 112.072 180.583 114.506C188.78 117.038 199.741 113.393 204.843 106.352C214.007 93.713 201.761 73.47 193.801 64.6674C190.142 60.6352 181.197 50.7562 170.468 51.6451C163.149 52.2485 160.226 57.402 154.766 55.7222C149.241 54.022 150.013 48.0613 143.126 41.2524C135.429 33.6445 125.533 32.2827 122.671 31.9076C118.699 31.4102 107.876 30.0525 99.1998 37.1427C94.4836 40.9997 88.7306 48.7217 90.6171 55.5143C92.1336 60.9776 86.5514 76.2791 92.4223 81.4816C105.189 92.8079 107.722 91.4787 119.967 106.809Z" fill="#17161B"/>
<path d="M135.035 78.8605C135.035 78.8605 163.853 54.3976 173.927 44.2904C184.002 34.1832 191.349 29.364 192.435 24.292C193.126 20.9444 193.629 17.5605 193.943 14.1563C193.943 14.1563 195.874 14.1196 196.382 18.1437L196.907 22.1719C196.907 22.1719 211.104 17.7931 215.975 20.9895C220.846 24.186 208.527 27.305 201.745 30.0408C194.963 32.7766 188.914 37.6161 179.896 52.408C170.878 67.1998 148.622 93.1345 144.427 94.8102C140.231 96.4859 135.035 78.8605 135.035 78.8605Z" fill="#FADCD4"/>
<path d="M143.866 95.837C144.179 95.8368 144.49 95.7758 144.781 95.6576C149.253 93.8555 171.468 67.978 180.677 52.8762C189.666 38.1292 195.541 33.5261 202.099 30.8597C203.465 30.3093 205.043 29.7466 206.714 29.1514C213.54 26.7051 217.691 25.0742 217.984 22.7217C218.097 21.788 217.577 20.9441 216.483 20.2183C212.06 17.3154 201.099 20.043 197.68 20.9971L197.273 18.0126C196.663 13.3239 194.195 13.2464 193.911 13.2383C193.69 13.2423 193.478 13.3277 193.316 13.478C193.154 13.6284 193.053 13.8333 193.032 14.0537C192.721 17.4194 192.223 20.7652 191.54 24.0753C190.878 27.2718 187.353 30.4968 182.031 35.3894C179.453 37.746 176.534 40.4206 173.302 43.6619C163.369 53.6346 134.755 77.9384 134.466 78.183C134.334 78.2962 134.237 78.4453 134.187 78.6124C134.137 78.7795 134.137 78.9574 134.185 79.1248C134.62 80.5967 138.552 93.5579 142.658 95.5476C143.034 95.7329 143.447 95.8318 143.866 95.837ZM210.576 20.7117C212.609 20.7117 214.377 20.993 215.5 21.7269C215.955 22.0286 216.223 22.3262 216.203 22.5097C216.032 23.9285 209.824 26.1383 206.112 27.4593C204.425 28.0628 202.827 28.6295 201.428 29.1962C194.516 31.9809 188.393 36.7552 179.144 51.9263C169.895 67.0973 147.818 92.4815 144.11 93.9738C143.998 94.0158 143.879 94.0317 143.761 94.0204C143.642 94.0091 143.528 93.9709 143.427 93.9086C140.963 92.7099 137.69 84.4577 136.064 79.1534C139.772 76.0017 165.264 54.2502 174.562 44.9054C177.762 41.6926 180.66 39.0343 183.23 36.69C188.82 31.5732 192.512 28.1932 193.313 24.4586C194.049 21.0175 194.488 17.5274 194.695 15.656C195.161 16.4436 195.439 17.3281 195.508 18.2409L196.033 22.2651C196.05 22.395 196.096 22.5196 196.166 22.6302C196.236 22.7407 196.329 22.8346 196.439 22.9052C196.549 22.977 196.672 23.0238 196.802 23.0421C196.931 23.0605 197.063 23.0499 197.188 23.0112C199.863 22.208 205.904 20.7117 210.576 20.7117Z" fill="#17161B"/>
<path d="M103.502 82.7374C103.502 82.7374 84.507 50.0224 78.384 37.1101C72.2611 24.1978 66.9472 17.1974 67.614 12.052C68.0804 8.66673 68.7347 5.3101 69.5737 1.9978C69.5737 1.9978 67.7644 1.31692 65.9145 4.93335L64.0768 8.54977C64.0768 8.54977 52.1602 -0.338389 46.5049 1.03968C40.8495 2.41776 51.4203 9.49159 56.8927 14.3434C62.3651 19.1952 66.4634 25.7879 70.0249 42.7529C73.5865 59.7179 85.9097 91.6255 89.3005 94.6222C92.6913 97.6189 103.502 82.7374 103.502 82.7374Z" fill="#FADCD4"/>
<path d="M90.418 95.9191C90.5344 95.9251 90.6511 95.9251 90.7676 95.9191C95.3009 95.4176 103.327 84.5031 104.229 83.28C104.331 83.1383 104.39 82.9702 104.398 82.7959C104.407 82.6216 104.365 82.4485 104.278 82.2974C104.091 81.9712 85.2301 49.4683 79.1966 36.7354C77.2328 32.5971 75.3708 29.0989 73.7282 26.0084C70.3334 19.6195 68.085 15.4079 68.5038 12.1828C68.9661 8.83497 69.6122 5.51521 70.4391 2.2387C70.4956 2.02303 70.4703 1.79403 70.3682 1.59597C70.266 1.39791 70.0943 1.24485 69.8862 1.16641C69.6259 1.06855 67.2678 0.326524 65.1292 4.53821L63.7632 7.22095C60.8603 5.18238 51.4441 -1.08009 46.3051 0.175665C45.0162 0.489604 44.2722 1.1134 44.0526 2.03076C43.5322 4.34657 46.8986 7.29435 52.5337 11.873C53.9079 12.9942 55.2049 14.0542 56.3108 15.0328C61.5962 19.7296 65.6049 26.041 69.1584 42.953C72.7972 60.2727 85.1 92.107 88.7185 95.3075C89.1896 95.7158 89.7954 95.9338 90.418 95.9191ZM102.432 82.6847C99.1307 87.1369 93.2965 93.8153 90.5725 94.1007C90.456 94.1263 90.3352 94.1246 90.2195 94.0956C90.1038 94.0666 89.9964 94.0111 89.9057 93.9335C86.9093 91.2834 74.5576 59.9017 70.9147 42.5616C67.2719 25.2215 63.072 18.6043 57.4979 13.6628C56.3676 12.6599 55.0585 11.5916 53.664 10.4582C50.6066 7.96706 45.4919 3.80023 45.8049 2.40993C45.8456 2.22646 46.2115 2.03484 46.7279 1.90437C51.0253 0.86062 60.3317 6.86216 63.5558 9.2636C63.6604 9.34194 63.7808 9.39637 63.9086 9.42308C64.0364 9.44979 64.1685 9.44815 64.2956 9.41823C64.4226 9.38831 64.5416 9.33086 64.6442 9.24991C64.7468 9.16896 64.8305 9.0665 64.8894 8.94967L66.7271 5.33325C67.0966 4.49851 67.6532 3.76044 68.3534 3.17643C67.9183 5.02745 67.1743 8.44003 66.7271 11.9301C66.2351 15.7177 68.5892 20.1414 72.1507 26.8361C73.777 29.9062 75.635 33.388 77.5784 37.4896C83.2338 49.4153 99.9927 78.4649 102.432 82.6847Z" fill="#17161B"/>
<path d="M135.853 74.188C135.853 74.188 147.363 89.4038 150.172 96.5021C150.172 96.5021 142.7 99.7638 142.634 100.514C142.574 101.203 147.786 141.775 148.762 149.37C148.851 150.064 150.51 158.568 150.51 158.568C141.488 160.607 83.1248 172.312 86.3163 159.103C89.7803 144.763 85.9423 95.6826 85.9423 95.6826L81.035 89.5302L98.1557 71.5908C98.1557 71.5908 101.091 82.224 110.064 82.1914C119.037 82.1588 135.853 74.188 135.853 74.188Z" fill="#865BFF"/>
<path d="M115.785 95L112 95.1855V97L116 96.8305C115.927 96.2313 115.859 95.6374 115.785 95Z" fill="#17161B"/>
<path d="M112 103.316V104.996C113.312 105.035 114.601 104.755 116 104.856C115.945 104.213 115.9 103.643 115.841 103L112 103.316Z" fill="#17161B"/>
<path d="M112 111.316V112.996C113.312 113.035 114.601 112.755 116 112.856C115.945 112.213 115.9 111.643 115.841 111L112 111.316Z" fill="#17161B"/>
<path d="M112 119.316V120.996C113.312 121.035 114.601 120.755 116 120.856C115.945 120.213 115.9 119.643 115.841 119L112 119.316Z" fill="#17161B"/>
<path d="M112 127.316V128.996C113.312 129.035 114.601 128.755 116 128.856C115.945 128.213 115.9 127.643 115.841 127L112 127.316Z" fill="#17161B"/>
<path d="M112 135.316V136.996C113.312 137.035 114.601 136.755 116 136.856C115.945 136.213 115.9 135.643 115.841 135L112 135.316Z" fill="#17161B"/>
<path d="M112 143.316V144.996C113.312 145.035 114.601 144.755 116 144.856C115.945 144.213 115.9 143.643 115.841 143L112 143.316Z" fill="#17161B"/>
<path d="M112 151.316V152.996C113.312 153.035 114.601 152.755 116 152.856C115.945 152.213 115.9 151.643 115.841 151L112 151.316Z" fill="#17161B"/>
<path d="M112 159.316V160.996C113.312 161.035 114.601 160.755 116 160.856C115.945 160.213 115.9 159.643 115.841 159L112 159.316Z" fill="#17161B"/>
<path d="M116 88.722C115.952 88.1642 115.907 87.6266 115.852 87L113 87.0969V89L116 88.722Z" fill="#17161B"/>
<path d="M101.079 166.192C120.265 166.192 150.298 159.538 150.709 159.449C150.936 159.395 151.133 159.256 151.26 159.06C151.388 158.864 151.435 158.627 151.392 158.397C150.725 154.988 149.713 149.741 149.652 149.256C146.769 126.832 143.846 103.792 143.553 100.807C144.403 100.159 147.692 98.5607 150.53 97.3294C150.743 97.2359 150.912 97.0629 151.001 96.8468C151.09 96.6308 151.091 96.3887 151.006 96.1715C148.188 89.0406 137.04 74.2691 136.568 73.6412C136.444 73.4771 136.267 73.3609 136.067 73.312C135.867 73.263 135.657 73.2842 135.47 73.3721C135.304 73.4496 118.728 81.2206 110.06 81.2696H109.999C101.867 81.2696 99.0458 71.4477 99.0214 71.3498C98.9804 71.1966 98.8991 71.0572 98.7862 70.9461C98.6732 70.8349 98.5326 70.7562 98.3791 70.7179C98.2251 70.6781 98.0633 70.6801 97.9104 70.7238C97.7574 70.7675 97.6189 70.8513 97.509 70.9666L80.3883 88.906C80.2382 89.0643 80.1504 89.2718 80.1415 89.49C80.1325 89.7083 80.2029 89.9224 80.3395 90.0925L85.072 96.0288C85.3729 100.004 88.7027 145.403 85.446 158.89C85.238 159.618 85.2287 160.389 85.4189 161.122C85.6091 161.855 85.992 162.523 86.5275 163.057C88.7759 165.348 94.2361 166.192 101.079 166.192ZM149.461 157.883C136.788 160.676 94.3743 168.484 87.8042 161.793C87.4833 161.477 87.2558 161.078 87.1468 160.641C87.0377 160.203 87.0513 159.744 87.1862 159.314C90.6461 144.999 86.9951 97.6229 86.8406 95.6129C86.825 95.4329 86.7571 95.2614 86.6454 95.1196L82.226 89.5828L97.7976 73.2743C99.0174 76.3036 102.587 83.0839 109.995 83.0839H110.068C118.199 83.0349 132.311 76.8132 135.572 75.3373C137.605 78.0568 146.143 89.7011 148.989 96.0614C141.837 99.2212 141.772 99.9347 141.728 100.465C141.667 101.146 145.029 127.512 147.859 149.513C147.948 150.079 149.021 155.628 149.461 157.883Z" fill="#17161B"/>
<path d="M122.969 70.8604C122.969 70.8604 120.245 80.7026 123.883 81.5139C127.522 82.3253 119.098 91.1033 102.307 83.3731C102.307 83.3731 107.295 79.9279 107.165 77.2044C107.035 74.4809 122.969 70.8604 122.969 70.8604Z" fill="#FADCD4"/>
<path d="M115.069 87.4142C119.505 87.4142 122.595 86.1014 124.131 84.8334C125.262 83.9079 125.786 82.86 125.571 81.9794C125.477 81.637 125.286 81.3292 125.021 81.0934C124.756 80.8575 124.429 80.7036 124.079 80.6502C123.931 80.616 123.792 80.5497 123.673 80.456C123.553 80.3623 123.456 80.2436 123.387 80.108C122.371 78.4078 123.123 73.6905 123.835 71.1138C123.877 70.964 123.879 70.8058 123.841 70.6549C123.803 70.504 123.727 70.3657 123.619 70.2535C123.512 70.1409 123.377 70.0581 123.228 70.0131C123.079 69.9681 122.921 69.9624 122.769 69.9967C116.545 71.4073 106.124 74.2328 106.271 77.258C106.348 78.8889 103.567 81.4208 101.799 82.648C101.667 82.7377 101.563 82.8607 101.495 83.0045C101.427 83.1482 101.398 83.3076 101.412 83.4661C101.425 83.6246 101.481 83.7766 101.572 83.9066C101.664 84.0365 101.788 84.1396 101.933 84.2055C107.104 86.5743 111.52 87.4142 115.069 87.4142ZM123.814 82.4319C123.761 82.6236 123.477 83.1495 122.534 83.7855C119.472 85.8241 112.873 86.8271 104.067 83.1658C105.693 81.8489 108.169 79.4271 108.064 77.1602C108.409 76.0879 114.532 73.8128 121.749 72.0719C121.237 74.4 120.529 78.8114 121.846 81.0416C122.042 81.3856 122.307 81.685 122.624 81.9208C122.941 82.1567 123.303 82.3238 123.688 82.4115C123.731 82.4145 123.773 82.4213 123.814 82.4319Z" fill="#17161B"/>
<path d="M104.157 49.1135C104.157 49.1135 102.034 55.5106 99.7616 57.3168C97.4889 59.1229 92.0368 70.7998 103.665 76.6546C115.293 82.5094 124.245 73.9229 124.245 73.9229C124.245 73.9229 130.051 75.8718 133.068 70.8162C136.085 65.7605 128.217 66.5188 128.217 66.5188C128.217 66.5188 123.879 62.5355 122.278 54.3975C120.676 46.2596 112.012 42.1824 104.157 49.1135Z" fill="#FADCD4"/>
<path d="M119.024 59.1422C119.176 59.7415 119.995 59.8772 121.449 60.441C122.903 61.0048 122.793 61.4244 123.502 61.4225C124.079 61.4246 124.552 60.1128 122.149 58.8917C120.761 58.1913 118.691 57.8089 119.024 59.1422Z" fill="#17161B"/>
<path d="M111.2 56.0689C110.682 56.4228 109.983 55.9858 108.543 55.4092C107.102 54.8326 106.873 55.2296 106.356 54.7633C105.928 54.3771 106.454 53.0887 109.057 53.7893C110.568 54.2112 112.35 55.3014 111.2 56.0689Z" fill="#17161B"/>
<path d="M112.871 59.0935C112.586 59.4923 112.284 59.8811 112.017 60.2922C111.233 61.488 110.505 62.7203 109.673 63.8824C109.193 64.551 109.068 65.1682 109.488 65.8409C109.907 66.5136 110.051 67.3674 111.036 67.6864C111.783 66.5098 110.406 65.891 110.424 65.1581C111.472 63.305 112.456 61.5915 113.396 59.858C113.483 59.7005 113.297 59.3992 113.239 59.1719L112.871 59.0935Z" fill="#17161B"/>
<path d="M107.193 68.637C107.432 68.6072 107.758 70.2081 109.372 71.0909C110.987 71.9738 112.686 71.4484 112.74 71.6469C112.794 71.8453 112.226 72.331 111.5 72.5C110.552 72.7041 109.562 72.5649 108.705 72.1069C107.883 71.6657 107.264 70.9191 106.98 70.0262C106.783 69.3862 107.079 68.6514 107.193 68.637Z" fill="#17161B"/>
<path d="M111.857 79.5819C118.334 79.5819 123.09 76.0633 124.461 74.9217C126.876 75.5415 131.34 75.4559 133.812 71.2768C134.739 69.7234 134.881 68.4228 134.218 67.375C133.064 65.5443 129.746 65.5321 128.526 65.5932C127.595 64.6025 124.416 60.8108 123.115 54.2221C122.257 49.8677 119.5 46.5082 115.736 45.228C111.804 43.8907 107.352 45.0567 103.538 48.4367C103.418 48.5467 103.329 48.6877 103.282 48.8444C102.713 50.5527 100.871 55.2863 99.18 56.6277C97.631 57.8508 95.1143 62.511 95.6185 67.4158C95.9275 70.4125 97.4968 74.5874 103.238 77.474C105.904 78.8497 108.858 79.5721 111.857 79.5819ZM124.245 73.0218C124.015 73.0206 123.793 73.1099 123.627 73.2705C123.277 73.6008 114.979 81.3392 104.067 75.8513C100.042 73.8128 97.8099 70.9221 97.4318 67.2119C96.9805 62.7923 99.3427 58.7967 100.318 58.022C102.555 56.2485 104.478 50.9482 104.929 49.6313C108.263 46.7773 111.902 45.811 115.199 46.9322C118.346 48.0004 120.663 50.8585 121.395 54.5728C123.021 62.9023 127.425 67.0121 127.612 67.1833C127.704 67.2686 127.813 67.3333 127.932 67.3734C128.052 67.4134 128.178 67.4279 128.303 67.4158C129.811 67.2771 132.185 67.4647 132.734 68.3372C133.06 68.8509 132.673 69.7193 132.295 70.3513C129.681 74.7383 124.741 73.1401 124.53 73.0667C124.438 73.0376 124.342 73.0225 124.245 73.0218Z" fill="#17161B"/>
<line x1="62" y1="232.5" x2="181" y2="232.5" stroke="#17161B"/>
</g>
<path d="M57.2298 60.8006C57.2298 68.7116 45.2935 75.1248 30.5693 75.1248C15.8452 75.1248 3.90892 68.7116 3.90892 60.8006C3.90892 52.8895 15.8452 46.4763 30.5693 46.4763C45.2935 46.4763 57.2298 52.8895 57.2298 60.8006Z" fill="#17161B"/>
<path d="M24.695 52.7432C24.695 56.2043 20.4465 59.01 15.2057 59.01C9.96491 59.01 5.7164 56.2043 5.7164 52.7432C5.7164 49.2821 9.96491 46.4763 15.2057 46.4763C20.4465 46.4763 24.695 49.2821 24.695 52.7432Z" fill="#17161B"/>
<path d="M21.08 67.0674C21.08 70.5285 16.8315 73.3343 11.5907 73.3343C6.34994 73.3343 2.10143 70.5285 2.10143 67.0674C2.10143 63.6063 6.34994 60.8006 11.5907 60.8006C16.8315 60.8006 21.08 63.6063 21.08 67.0674Z" fill="#17161B"/>
<path d="M44.5774 48.2669C44.5774 51.7279 38.9127 54.5337 31.925 54.5337C24.9372 54.5337 19.2726 51.7279 19.2726 48.2669C19.2726 44.8058 24.9372 42 31.925 42C38.9127 42 44.5774 44.8058 44.5774 48.2669Z" fill="#17161B"/>
<path d="M34.6362 72.439C34.6362 75.9001 29.9831 78.7059 24.2431 78.7059C18.5032 78.7059 13.8501 75.9001 13.8501 72.439C13.8501 68.9779 18.5032 66.1722 24.2431 66.1722C29.9831 66.1722 34.6362 68.9779 34.6362 72.439Z" fill="#17161B"/>
<path d="M56.326 53.6385C56.326 57.0995 50.6614 59.9053 43.6736 59.9053C36.6859 59.9053 31.0212 57.0995 31.0212 53.6385C31.0212 50.1774 36.6859 47.3716 43.6736 47.3716C50.6614 47.3716 56.326 50.1774 56.326 53.6385Z" fill="#17161B"/>
<path d="M45.4811 71.5438C45.4811 75.0049 41.8395 77.8106 37.3474 77.8106C32.8553 77.8106 29.2137 75.0049 29.2137 71.5438C29.2137 68.0827 32.8553 65.2769 37.3474 65.2769C41.8395 65.2769 45.4811 68.0827 45.4811 71.5438Z" fill="#17161B"/>
<path d="M58.1335 66.1722C58.1335 70.6221 53.885 74.2296 48.6442 74.2296C43.4034 74.2296 39.1549 70.6221 39.1549 66.1722C39.1549 61.7222 43.4034 58.1148 48.6442 58.1148C53.885 58.1148 58.1335 61.7222 58.1335 66.1722Z" fill="#17161B"/>
<path d="M59.941 59.4577C59.941 62.1771 54.2763 64.3816 47.2886 64.3816C40.3009 64.3816 34.6362 62.1771 34.6362 59.4577C34.6362 56.7382 40.3009 54.5337 47.2886 54.5337C54.2763 54.5337 59.941 56.7382 59.941 59.4577Z" fill="#17161B"/>
<path d="M25.5988 59.4577C25.5988 62.1771 19.9341 64.3816 12.9464 64.3816C5.95862 64.3816 0.293945 62.1771 0.293945 59.4577C0.293945 56.7382 5.95862 54.5337 12.9464 54.5337C19.9341 54.5337 25.5988 56.7382 25.5988 59.4577Z" fill="#17161B"/>
<path d="M55.582 60.8122C55.582 68.2453 44.4721 74.271 30.7673 74.271C17.0625 74.271 5.9526 68.2453 5.9526 60.8122C5.9526 53.3791 17.0625 47.3533 30.7673 47.3533C44.4721 47.3533 55.582 53.3791 55.582 60.8122Z" fill="#FFE178"/>
<path d="M25.2997 53.2416C25.2997 56.4936 21.3453 59.1298 16.4673 59.1298C11.5893 59.1298 7.63495 56.4936 7.63495 53.2416C7.63495 49.9896 11.5893 47.3533 16.4673 47.3533C21.3453 47.3533 25.2997 49.9896 25.2997 53.2416Z" fill="#FFE178"/>
<path d="M21.9349 66.7004C21.9349 69.9524 17.9806 72.5886 13.1026 72.5886C8.22462 72.5886 4.27024 69.9524 4.27024 66.7004C4.27024 63.4484 8.22462 60.8122 13.1026 60.8122C17.9806 60.8122 21.9349 63.4484 21.9349 66.7004Z" fill="#FFE178"/>
<path d="M43.8055 49.0357C43.8055 52.2877 38.533 54.9239 32.0291 54.9239C25.5251 54.9239 20.2526 52.2877 20.2526 49.0357C20.2526 45.7837 25.5251 43.1475 32.0291 43.1475C38.533 43.1475 43.8055 45.7837 43.8055 49.0357Z" fill="#FFE178"/>
<path d="M34.5526 71.7475C34.5526 74.9994 30.2216 77.6357 24.8791 77.6357C19.5365 77.6357 15.2055 74.9994 15.2055 71.7475C15.2055 68.4955 19.5365 65.8592 24.8791 65.8592C30.2216 65.8592 34.5526 68.4955 34.5526 71.7475Z" fill="#FFE178"/>
<path d="M54.7408 54.0828C54.7408 57.3347 49.4683 59.971 42.9644 59.971C36.4604 59.971 31.1879 57.3347 31.1879 54.0828C31.1879 50.8308 36.4604 48.1945 42.9644 48.1945C49.4683 48.1945 54.7408 50.8308 54.7408 54.0828Z" fill="#FFE178"/>
<path d="M44.6467 70.9063C44.6467 74.1583 41.2572 76.7945 37.0761 76.7945C32.895 76.7945 29.5055 74.1583 29.5055 70.9063C29.5055 67.6543 32.895 65.018 37.0761 65.018C41.2572 65.018 44.6467 67.6543 44.6467 70.9063Z" fill="#FFE178"/>
<path d="M56.4232 65.8592C56.4232 70.0403 52.4688 73.4298 47.5908 73.4298C42.7129 73.4298 38.7585 70.0403 38.7585 65.8592C38.7585 61.6781 42.7129 58.2886 47.5908 58.2886C52.4688 58.2886 56.4232 61.6781 56.4232 65.8592Z" fill="#FFE178"/>
<path d="M58.1055 59.5504C58.1055 62.1055 52.833 64.1769 46.3291 64.1769C39.8251 64.1769 34.5526 62.1055 34.5526 59.5504C34.5526 56.9953 39.8251 54.9239 46.3291 54.9239C52.833 54.9239 58.1055 56.9953 58.1055 59.5504Z" fill="#FFE178"/>
<path d="M26.1408 59.5504C26.1408 62.1055 20.8683 64.1769 14.3644 64.1769C7.8604 64.1769 2.58789 62.1055 2.58789 59.5504C2.58789 56.9953 7.8604 54.9239 14.3644 54.9239C20.8683 54.9239 26.1408 56.9953 26.1408 59.5504Z" fill="#FFE178"/>
<path d="M55.5909 62.3902C55.5909 69.2871 44.9848 74.878 31.9015 74.878C18.8182 74.878 8.21212 69.2871 8.21212 62.3902C8.21212 55.4934 18.8182 49.9024 31.9015 49.9024C44.9848 49.9024 55.5909 55.4934 55.5909 62.3902Z" fill="#FFC700"/>
<path d="M26.6818 55.3659C26.6818 58.3832 22.9068 60.8293 18.25 60.8293C13.5932 60.8293 9.81818 58.3832 9.81818 55.3659C9.81818 52.3485 13.5932 49.9024 18.25 49.9024C22.9068 49.9024 26.6818 52.3485 26.6818 55.3659Z" fill="#FFC700"/>
<path d="M23.4697 67.8537C23.4697 70.871 19.6946 73.3171 15.0379 73.3171C10.3811 73.3171 6.60606 70.871 6.60606 67.8537C6.60606 64.8363 10.3811 62.3902 15.0379 62.3902C19.6946 62.3902 23.4697 64.8363 23.4697 67.8537Z" fill="#FFC700"/>
<path d="M44.3485 51.4634C44.3485 54.4808 39.3151 56.9268 33.1061 56.9268C26.897 56.9268 21.8636 54.4808 21.8636 51.4634C21.8636 48.4461 26.897 46 33.1061 46C39.3151 46 44.3485 48.4461 44.3485 51.4634Z" fill="#FFC700"/>
<path d="M35.5152 72.5366C35.5152 75.5539 31.3806 78 26.2803 78C21.18 78 17.0455 75.5539 17.0455 72.5366C17.0455 69.5192 21.18 67.0732 26.2803 67.0732C31.3806 67.0732 35.5152 69.5192 35.5152 72.5366Z" fill="#FFC700"/>
<path d="M54.7879 56.1463C54.7879 59.1637 49.7545 61.6098 43.5455 61.6098C37.3364 61.6098 32.303 59.1637 32.303 56.1463C32.303 53.129 37.3364 50.6829 43.5455 50.6829C49.7545 50.6829 54.7879 53.129 54.7879 56.1463Z" fill="#FFC700"/>
<path d="M45.1515 71.7561C45.1515 74.7735 41.9158 77.2195 37.9242 77.2195C33.9327 77.2195 30.697 74.7735 30.697 71.7561C30.697 68.7387 33.9327 66.2927 37.9242 66.2927C41.9158 66.2927 45.1515 68.7387 45.1515 71.7561Z" fill="#FFC700"/>
<path d="M56.3939 67.0732C56.3939 70.9526 52.6189 74.0976 47.9621 74.0976C43.3054 74.0976 39.5303 70.9526 39.5303 67.0732C39.5303 63.1937 43.3054 60.0488 47.9621 60.0488C52.6189 60.0488 56.3939 63.1937 56.3939 67.0732Z" fill="#FFC700"/>
<path d="M58 61.2195C58 63.5903 52.9666 65.5122 46.7576 65.5122C40.5486 65.5122 35.5152 63.5903 35.5152 61.2195C35.5152 58.8487 40.5486 56.9268 46.7576 56.9268C52.9666 56.9268 58 58.8487 58 61.2195Z" fill="#FFC700"/>
<path d="M27.4848 61.2195C27.4848 63.5903 22.4514 65.5122 16.2424 65.5122C10.0334 65.5122 5 63.5903 5 61.2195C5 58.8487 10.0334 56.9268 16.2424 56.9268C22.4514 56.9268 27.4848 58.8487 27.4848 61.2195Z" fill="#FFC700"/>
<path d="M16.5388 62.2472C16.5388 62.1512 16.6028 62.1032 16.7308 62.1032C16.8588 62.1032 17.2548 62.1912 17.9188 62.3672C18.0708 61.0552 18.4988 59.6312 19.2028 58.0952C19.4508 57.5352 19.7468 57.2552 20.0908 57.2552C20.1548 57.2552 20.2148 57.3232 20.2708 57.4592C20.3348 57.5952 20.3668 57.7632 20.3668 57.9632C20.3668 58.2032 20.2388 58.8632 19.9828 59.9432C19.7348 61.0232 19.5708 61.9632 19.4908 62.7632C20.0188 62.8832 20.4828 62.9432 20.8828 62.9432C21.2908 62.9432 21.6628 62.8392 21.9988 62.6312C22.3348 62.4152 22.6228 62.1392 22.8628 61.8032C23.3588 61.0912 23.6068 60.2352 23.6068 59.2352C23.5988 57.3872 22.8628 56.4632 21.3988 56.4632C20.8788 56.4712 19.9588 56.7032 18.6388 57.1592C18.3828 57.2472 18.1588 57.2912 17.9668 57.2912C17.7748 57.2912 17.6788 57.2352 17.6788 57.1232C17.6788 56.9712 17.7908 56.7912 18.0148 56.5832C18.2388 56.3752 18.5268 56.1752 18.8788 55.9832C19.7428 55.5192 20.5828 55.2872 21.3988 55.2872C22.5188 55.2872 23.4388 55.5872 24.1588 56.1872C25.0068 56.8992 25.4268 57.9792 25.4188 59.4272C25.4188 60.0432 25.3228 60.6512 25.1308 61.2512C24.9388 61.8512 24.6468 62.3872 24.2548 62.8592C23.8628 63.3232 23.3668 63.6992 22.7668 63.9872C22.1668 64.2752 21.4588 64.4192 20.6428 64.4192C20.3148 64.4192 19.8988 64.3472 19.3948 64.2032C19.3388 64.3552 19.1988 64.4312 18.9748 64.4312C18.5588 64.4312 18.2748 64.3632 18.1228 64.2272C17.9788 64.0832 17.8948 63.8512 17.8708 63.5312C17.4868 63.3152 17.1668 63.0912 16.9108 62.8592C16.6628 62.6272 16.5388 62.4232 16.5388 62.2472ZM30.8012 63.3032C30.1692 64.0472 29.4092 64.4192 28.5212 64.4192C27.6412 64.4192 26.9812 64.1952 26.5412 63.7472C26.1012 63.2912 25.8852 62.7272 25.8932 62.0552C25.8852 61.1032 26.1852 60.2832 26.7932 59.5952C27.4012 58.9072 28.1972 58.5632 29.1812 58.5632C29.6292 58.5632 29.9892 58.6192 30.2612 58.7312C30.7332 58.9232 30.9692 59.1032 30.9692 59.2712C30.9692 59.3992 30.6372 59.4672 29.9732 59.4752C29.3172 59.4752 28.7652 59.7032 28.3172 60.1592C27.8772 60.6072 27.6572 61.1752 27.6572 61.8632C27.6572 62.2232 27.7612 62.5272 27.9692 62.7752C28.1852 63.0152 28.4852 63.1352 28.8692 63.1352C29.2612 63.1352 29.5852 63.0552 29.8412 62.8952C29.2732 62.5112 28.9892 61.9552 28.9892 61.2272C28.9812 60.8432 29.1172 60.4952 29.3972 60.1832C29.6852 59.8632 30.0492 59.7032 30.4892 59.7032C30.9372 59.6952 31.2572 59.8152 31.4492 60.0632C31.6412 60.3112 31.7372 60.6312 31.7372 61.0232C31.7372 61.4072 31.6452 61.8152 31.4612 62.2472H31.5332C31.8852 62.2392 32.1892 62.1152 32.4452 61.8752C32.5412 61.7792 32.6212 61.6952 32.6852 61.6232C32.7572 61.5512 32.8292 61.5152 32.9012 61.5152C33.0132 61.5152 33.0692 61.6472 33.0692 61.9112C33.0692 62.3992 32.9252 62.7672 32.6372 63.0152C32.3492 63.2552 32.0292 63.3752 31.6772 63.3752C31.3332 63.3752 31.0412 63.3512 30.8012 63.3032ZM30.6932 61.9112C30.8292 61.6232 30.8972 61.3432 30.8972 61.0712C30.8972 60.7992 30.8092 60.6632 30.6332 60.6632C30.5612 60.6632 30.5012 60.7152 30.4532 60.8192C30.4052 60.9232 30.3812 61.0232 30.3812 61.1192C30.3812 61.4392 30.4852 61.7032 30.6932 61.9112ZM34.0648 58.3352C34.3528 58.3352 34.6248 58.6112 34.8808 59.1632C35.2568 58.7712 35.7208 58.5752 36.2728 58.5752C36.8328 58.5752 37.2528 58.6992 37.5328 58.9472C37.8128 59.1872 37.9528 59.5312 37.9528 59.9792C37.9528 60.4192 37.8928 60.8672 37.7728 61.3232C37.6608 61.7792 37.5768 62.1072 37.5208 62.3072C37.4728 62.4992 37.4488 62.6592 37.4488 62.7872C37.4488 62.9152 37.4928 62.9792 37.5808 62.9792C37.7008 62.9792 37.8488 62.9032 38.0248 62.7512C38.2008 62.5992 38.3768 62.4352 38.5528 62.2592C38.7288 62.0752 38.8888 61.9072 39.0328 61.7552C39.1848 61.6032 39.2888 61.5272 39.3448 61.5272C39.4568 61.5272 39.5128 61.6632 39.5128 61.9352C39.5128 62.4952 39.2368 63.0352 38.6848 63.5552C37.7568 64.0992 37.1648 64.3712 36.9088 64.3712C36.8848 64.3712 36.8688 64.3672 36.8608 64.3592C36.2208 64.3592 35.9008 63.8472 35.9008 62.8232C35.9008 62.3832 35.9408 61.9792 36.0208 61.6112C36.1088 61.2432 36.1728 60.9752 36.2128 60.8072C36.2528 60.6392 36.2728 60.4672 36.2728 60.2912C36.2728 60.0032 36.1048 59.8592 35.7688 59.8592C35.4408 59.8592 35.1248 60.1072 34.8208 60.6032C34.5248 61.0912 34.3248 61.5992 34.2208 62.1272V62.2112C34.2208 62.4832 34.2608 62.7632 34.3408 63.0512C34.4288 63.3392 34.4728 63.5392 34.4728 63.6512C34.4728 63.9232 34.1328 64.1912 33.4528 64.4552C33.3488 64.4952 33.2568 64.5152 33.1768 64.5152C32.9768 64.5152 32.8368 64.4112 32.7568 64.2032C32.6848 63.9952 32.6488 63.6712 32.6488 63.2312C32.6488 62.0952 32.6928 61.2752 32.7808 60.7712C32.9008 60.0192 33.1728 59.3192 33.5968 58.6712C33.7408 58.4472 33.8968 58.3352 34.0648 58.3352ZM41.7101 63.0152C42.3341 63.0152 42.9381 62.7672 43.5221 62.2712C43.7381 62.0872 43.9141 61.9192 44.0501 61.7672C44.1861 61.6072 44.2901 61.5272 44.3621 61.5272C44.4741 61.5272 44.5301 61.6392 44.5301 61.8632C44.5301 62.0872 44.4701 62.3392 44.3501 62.6192C44.2301 62.8912 44.0301 63.1592 43.7501 63.4232C43.0621 64.0712 42.1181 64.3952 40.9181 64.3952C39.9661 64.3952 39.3181 64.0512 38.9741 63.3632C38.8541 63.1232 38.7941 62.7792 38.7941 62.3312C38.7941 61.8832 38.8821 61.4192 39.0581 60.9392C39.2341 60.4512 39.4661 60.0312 39.7541 59.6792C40.0501 59.3272 40.3901 59.0552 40.7741 58.8632C41.1581 58.6632 41.5661 58.5632 41.9981 58.5632C42.4381 58.5632 42.7741 58.6712 43.0061 58.8872C43.2461 59.1032 43.3661 59.3832 43.3661 59.7272C43.3661 60.0712 43.2781 60.3552 43.1021 60.5792C42.9341 60.7952 42.7141 60.9792 42.4421 61.1312C42.1701 61.2752 41.8661 61.4072 41.5301 61.5272C41.2021 61.6392 40.8781 61.7672 40.5581 61.9112V62.2112C40.5661 62.4992 40.6861 62.7032 40.9181 62.8232C41.1501 62.9432 41.4141 63.0072 41.7101 63.0152ZM41.5061 59.6312C41.0901 59.6312 40.8021 60.1152 40.6421 61.0832C40.8101 60.9712 40.9661 60.8712 41.1101 60.7832C41.2621 60.6952 41.3941 60.6112 41.5061 60.5312C41.7461 60.3552 41.8701 60.1552 41.8781 59.9312C41.8781 59.7312 41.7541 59.6312 41.5061 59.6312Z" fill="#17161B"/>
<path d="M67.5997 77.215C67.5997 77.9667 67.0887 78.7498 66.0432 79.3771C65.0096 79.9973 63.5429 80.4003 61.8909 80.4003C60.2388 80.4003 58.7721 79.9973 57.7385 79.3771C56.693 78.7498 56.182 77.9667 56.182 77.215C56.182 76.4633 56.693 75.6802 57.7385 75.0529C58.7721 74.4327 60.2388 74.0297 61.8909 74.0297C63.5429 74.0297 65.0096 74.4327 66.0432 75.0529C67.0887 75.6802 67.5997 76.4633 67.5997 77.215Z" fill="#FFC700" stroke="#17161B" stroke-width="1.2"/>
<defs>
<filter id="filter0_f_4_1273" x="24" y="198" width="214" height="65" filterUnits="userSpaceOnUse" color-interpolation-filters="sRGB">
<feFlood flood-opacity="0" result="BackgroundImageFix"/>
<feBlend mode="normal" in="SourceGraphic" in2="BackgroundImageFix" result="shape"/>
<feGaussianBlur stdDeviation="10" result="effect1_foregroundBlur_4_1273"/>
</filter>
<clipPath id="clip0_4_1273">
<rect width="174" height="25" fill="white" transform="matrix(-1 0 0 1 218 218)"/>
</clipPath>
<clipPath id="clip1_4_1273">
<rect width="174" height="233" fill="white" transform="matrix(-1 0 0 1 218 0)"/>
</clipPath>
</defs>
</svg>
