<svg width="246" height="320" viewBox="0 0 246 320" fill="none" xmlns="http://www.w3.org/2000/svg">
<path d="M36.7914 82.3547L25.9428 72.2494C25.6674 71.993 25.3058 71.8493 24.9296 71.8467C24.5534 71.8441 24.1898 71.9828 23.9109 72.2353C23.6319 72.4879 23.4578 72.8359 23.423 73.2107C23.3881 73.5854 23.4951 73.9596 23.7227 74.2593L30.7515 83.5112L36.7914 82.3547Z" fill="#FFE1D9"/>
<path d="M30.2837 83.8549L23.255 74.6006C22.9377 74.185 22.7881 73.6652 22.8359 73.1444C22.8837 72.6236 23.1254 72.1398 23.5131 71.7889C23.9007 71.4381 24.4061 71.2457 24.9289 71.2501C25.4516 71.2544 25.9537 71.4551 26.3355 71.8124L37.184 81.9178C37.2629 81.9913 37.32 82.0853 37.3487 82.1893C37.3775 82.2933 37.3769 82.4033 37.3471 82.507C37.3172 82.6107 37.2592 82.7041 37.1795 82.7768C37.0998 82.8495 37.0015 82.8988 36.8956 82.9191C36.8956 82.9191 30.8533 84.0756 30.7442 84.0853C30.655 84.0843 30.5673 84.063 30.4875 84.0231C30.4077 83.9832 30.3381 83.9257 30.2837 83.8549ZM25.5454 72.6683C25.3768 72.5133 25.1566 72.4269 24.9277 72.4259C24.6988 72.425 24.4778 72.5095 24.3079 72.663C24.1381 72.8165 24.0317 73.0279 24.0095 73.2558C23.9873 73.4837 24.051 73.7117 24.1881 73.8951L30.9939 82.8657L35.5529 81.9929L25.5454 72.6683Z" fill="#17161B"/>
<path d="M193.247 220.847L191.519 277.642L171.942 276.255L164.245 219.693L193.247 220.847Z" fill="#FFE1D9"/>
<path d="M191.478 278.223L171.901 276.836C171.767 276.826 171.641 276.771 171.543 276.679C171.445 276.587 171.382 276.465 171.363 276.332L163.668 219.773C163.654 219.686 163.66 219.598 163.685 219.514C163.71 219.43 163.754 219.353 163.813 219.288C163.872 219.226 163.942 219.177 164.021 219.145C164.099 219.112 164.184 219.096 164.269 219.099L193.271 220.251C193.425 220.257 193.57 220.324 193.675 220.436C193.779 220.549 193.836 220.698 193.831 220.852L192.103 277.646C192.099 277.798 192.035 277.942 191.926 278.047C191.817 278.153 191.671 278.211 191.519 278.211L191.478 278.223ZM164.919 220.309L172.456 275.711L190.954 277.02L192.651 221.412L164.919 220.309Z" fill="#17161B"/>
<path d="M149.572 221.342L132.044 278.534L114.36 277.821L118.941 220.406L149.572 221.342Z" fill="#FFE1D9"/>
<path d="M132.019 279.116L114.326 278.403C114.248 278.4 114.171 278.381 114.1 278.347C114.029 278.313 113.966 278.265 113.914 278.206C113.862 278.148 113.823 278.079 113.798 278.005C113.773 277.931 113.763 277.853 113.769 277.775L118.349 220.358C118.36 220.208 118.428 220.068 118.54 219.968C118.652 219.868 118.798 219.816 118.948 219.822L149.579 220.758C149.669 220.76 149.756 220.783 149.835 220.825C149.914 220.867 149.983 220.927 150.035 221C150.087 221.073 150.122 221.157 150.137 221.246C150.152 221.335 150.146 221.426 150.119 221.512L132.591 278.703C132.555 278.823 132.481 278.928 132.381 279.003C132.28 279.077 132.159 279.118 132.034 279.118L132.019 279.116ZM119.476 221.005L114.99 277.253L131.617 277.925L148.789 221.892L119.476 221.005Z" fill="#17161B"/>
<path d="M189.681 264.702C186.046 263.659 178.893 261.928 171.235 261.872C170.392 261.864 169.577 262.178 168.958 262.751C168.339 263.323 167.962 264.11 167.904 264.951C167.58 269.837 169.334 275.462 169.334 275.462C169.334 275.462 168.532 280.391 170.391 282.056C168.493 286.631 171.433 294.751 175.558 296.705L187.985 297.791C187.985 297.791 192.018 294.935 190.258 291.245C193.285 288.336 193.237 285.572 192.139 284.49C194.502 282.767 192.716 279.227 192.716 279.227C192.716 279.227 194.444 273.556 193.525 268.857C193.328 267.878 192.865 266.972 192.187 266.239C191.509 265.506 190.642 264.974 189.681 264.702Z" fill="white"/>
<path d="M187.934 298.378C187.934 298.378 175.508 297.294 175.309 297.241C170.978 295.187 168.009 287.058 169.715 282.209C168.137 280.335 168.607 276.417 168.745 275.52C168.476 274.618 167.025 269.507 167.33 264.927C167.397 263.936 167.84 263.008 168.568 262.332C169.296 261.656 170.254 261.284 171.247 261.29C178.988 261.348 186.225 263.101 189.849 264.141C190.915 264.44 191.877 265.029 192.628 265.842C193.38 266.656 193.891 267.661 194.105 268.748C194.948 273.068 193.656 278.073 193.344 279.173C193.695 279.976 194.728 282.771 192.946 284.565C193.271 285.124 193.434 285.762 193.416 286.408C193.404 288.013 192.534 289.766 190.959 291.376C192.156 294.479 189.803 297.209 188.329 298.252C188.23 298.321 188.113 298.358 187.992 298.358L187.934 298.378ZM189.519 265.269C185.951 264.246 178.833 262.517 171.21 262.461C170.52 262.46 169.854 262.721 169.349 263.192C168.843 263.663 168.535 264.308 168.486 264.997C168.173 269.713 169.875 275.241 169.892 275.294C169.919 275.381 169.925 275.473 169.911 275.563C169.703 276.846 169.451 280.439 170.779 281.624C170.869 281.705 170.931 281.811 170.958 281.929C170.985 282.047 170.975 282.17 170.929 282.281C169.179 286.503 171.86 294.208 175.716 296.138L187.808 297.192C188.496 296.639 191.073 294.309 189.732 291.509C189.679 291.399 189.662 291.274 189.684 291.154C189.705 291.033 189.765 290.922 189.854 290.838C191.919 288.857 192.236 287.218 192.241 286.418C192.275 285.87 192.091 285.33 191.73 284.917C191.669 284.857 191.623 284.786 191.593 284.706C191.563 284.627 191.551 284.543 191.557 284.458C191.564 284.374 191.588 284.292 191.629 284.218C191.67 284.144 191.727 284.08 191.795 284.03C193.734 282.621 192.209 279.532 192.195 279.501C192.127 279.367 192.114 279.212 192.159 279.069C192.176 279.013 193.833 273.493 192.954 268.981C192.781 268.104 192.369 267.292 191.762 266.636C191.156 265.98 190.379 265.505 189.519 265.264V265.269Z" fill="#17161B"/>
<path d="M192.716 279.821C192.848 279.82 192.976 279.773 193.079 279.69C193.181 279.606 193.252 279.491 193.28 279.361C193.308 279.232 193.292 279.097 193.233 278.979C193.175 278.86 193.078 278.765 192.959 278.708C189.204 276.963 181.841 275.532 181.531 275.472C181.381 275.449 181.229 275.484 181.105 275.571C180.982 275.659 180.897 275.79 180.868 275.939C180.839 276.087 180.869 276.241 180.952 276.368C181.034 276.495 181.163 276.584 181.31 276.618C181.383 276.633 188.843 278.073 192.459 279.77C192.54 279.806 192.628 279.823 192.716 279.821Z" fill="#17161B"/>
<path d="M191.436 285.106C191.678 285.106 191.921 285.106 192.178 285.082C192.257 285.082 192.336 285.065 192.409 285.033C192.482 285.001 192.548 284.954 192.603 284.896C192.657 284.838 192.699 284.769 192.726 284.694C192.752 284.618 192.763 284.538 192.758 284.459C192.753 284.379 192.731 284.302 192.695 284.231C192.658 284.16 192.608 284.097 192.546 284.046C192.484 283.996 192.413 283.958 192.336 283.936C192.26 283.914 192.179 283.908 192.1 283.918C190.465 284.009 188.83 283.742 187.308 283.138C187.239 283.106 187.163 283.088 187.086 283.085C187.01 283.083 186.933 283.095 186.861 283.122C186.789 283.149 186.723 283.19 186.667 283.242C186.611 283.294 186.566 283.357 186.534 283.427C186.502 283.497 186.484 283.573 186.482 283.649C186.479 283.726 186.492 283.803 186.518 283.875C186.545 283.947 186.586 284.012 186.639 284.069C186.691 284.125 186.754 284.17 186.824 284.202C188.289 284.798 189.855 285.105 191.436 285.106Z" fill="#17161B"/>
<path d="M188.39 292.042C189.108 292.054 189.825 291.99 190.53 291.851C190.673 291.809 190.796 291.714 190.871 291.586C190.947 291.457 190.97 291.304 190.937 291.158C190.903 291.013 190.815 290.886 190.691 290.803C190.567 290.72 190.415 290.688 190.268 290.714C190.229 290.714 187.614 291.291 184.134 290.212C184.059 290.185 183.98 290.173 183.901 290.178C183.822 290.182 183.745 290.203 183.674 290.238C183.603 290.273 183.54 290.322 183.489 290.383C183.438 290.443 183.399 290.513 183.376 290.589C183.353 290.664 183.345 290.744 183.353 290.823C183.362 290.901 183.386 290.978 183.425 291.047C183.463 291.116 183.516 291.176 183.578 291.224C183.641 291.273 183.713 291.308 183.79 291.327C185.278 291.795 186.829 292.036 188.39 292.042Z" fill="#17161B"/>
<path d="M178.293 284.597C178.44 284.593 178.581 284.534 178.686 284.432C178.792 284.329 178.855 284.19 178.863 284.043C178.87 283.896 178.822 283.751 178.728 283.638C178.633 283.525 178.499 283.452 178.353 283.433C178.297 283.433 172.585 282.8 170.651 281.651C170.518 281.579 170.363 281.562 170.218 281.602C170.072 281.643 169.948 281.737 169.872 281.867C169.795 281.996 169.771 282.151 169.805 282.298C169.839 282.444 169.928 282.572 170.054 282.655C172.207 283.932 177.985 284.568 178.23 284.594L178.293 284.597Z" fill="#17161B"/>
<path d="M200.751 317.476C200.751 317.476 202.462 307.919 190.198 302.929C190.482 297.937 189.056 293.515 183.637 293.515C178.218 293.515 175.367 294.94 173.37 301.787C171.089 306.495 169.805 311.631 171.373 316.909C201.039 318.332 200.751 317.476 200.751 317.476Z" fill="#17161B"/>
<path d="M177.653 305.507C177.757 305.506 177.859 305.478 177.949 305.426C185.004 301.305 188.531 304.236 188.676 304.362C188.793 304.453 188.941 304.496 189.089 304.483C189.236 304.469 189.373 304.399 189.472 304.288C189.57 304.177 189.623 304.033 189.618 303.884C189.614 303.736 189.554 303.595 189.449 303.489C189.28 303.337 185.191 299.836 177.36 304.42C177.249 304.484 177.162 304.583 177.113 304.702C177.063 304.821 177.055 304.952 177.088 305.076C177.122 305.2 177.195 305.31 177.298 305.388C177.4 305.465 177.525 305.507 177.653 305.507Z" fill="white"/>
<path d="M179.223 302.083C179.307 302.083 179.389 302.064 179.465 302.029C184.361 299.779 187.483 301.629 187.614 301.709C187.745 301.791 187.903 301.817 188.054 301.782C188.204 301.747 188.335 301.654 188.416 301.523C188.498 301.391 188.524 301.233 188.489 301.083C188.454 300.932 188.361 300.802 188.23 300.72C188.079 300.626 184.478 298.441 178.978 300.963C178.859 301.019 178.762 301.114 178.703 301.233C178.645 301.351 178.628 301.486 178.656 301.616C178.685 301.745 178.756 301.861 178.858 301.944C178.961 302.028 179.088 302.074 179.221 302.075L179.223 302.083Z" fill="white"/>
<path d="M134.475 267.999C129.962 267.198 120.967 265.88 114.096 266.638C113.586 266.69 113.097 266.863 112.668 267.143C112.239 267.424 111.883 267.802 111.631 268.248C109.014 272.993 111.224 280.671 111.224 280.671C111.224 280.671 109.084 289.945 111.508 297.791C120.778 303.782 120.921 304.065 120.921 304.065L126.055 303.353C126.055 303.353 128.049 300.928 127.48 297.791C133.755 295.223 132.756 287.947 132.756 287.947C132.756 287.947 135.037 285.809 134.181 282.812C138.081 281.544 138.115 275.345 137.747 271.548C137.663 270.68 137.298 269.863 136.708 269.223C136.117 268.582 135.333 268.152 134.475 267.999Z" fill="#FFE1D9"/>
<path d="M120.499 304.474C120.376 304.367 119.307 303.528 111.192 298.281C111.077 298.207 110.991 298.095 110.95 297.964C108.645 290.504 110.349 281.962 110.623 280.689C110.317 279.559 108.587 272.557 111.122 267.965C111.419 267.438 111.838 266.989 112.344 266.658C112.85 266.326 113.429 266.121 114.031 266.06C120.921 265.296 129.86 266.588 134.574 267.425C135.555 267.604 136.452 268.098 137.129 268.832C137.805 269.566 138.226 270.5 138.326 271.493C138.682 275.171 138.677 281.433 134.862 283.172C135.347 285.681 133.912 287.536 133.36 288.159C133.461 289.558 133.573 295.617 128.12 298.148C128.476 301.283 126.585 303.623 126.5 303.724C126.408 303.837 126.277 303.912 126.132 303.933C126.132 303.933 120.999 304.646 120.916 304.66C120.838 304.658 120.761 304.641 120.689 304.609C120.618 304.577 120.553 304.531 120.499 304.474ZM126.905 297.896C126.882 297.764 126.904 297.628 126.969 297.511C127.033 297.394 127.135 297.302 127.259 297.251C133.03 294.889 132.216 288.307 132.179 288.038C132.166 287.945 132.175 287.851 132.206 287.763C132.237 287.675 132.288 287.595 132.356 287.531C132.378 287.514 134.37 285.606 133.621 282.983C133.576 282.836 133.59 282.677 133.662 282.54C133.733 282.404 133.855 282.302 134.002 282.255C137.543 281.104 137.504 275.088 137.167 271.604C137.094 270.864 136.782 270.167 136.278 269.62C135.774 269.072 135.105 268.704 134.373 268.571C129.719 267.745 120.907 266.472 114.161 267.216C113.745 267.258 113.344 267.398 112.993 267.627C112.641 267.855 112.35 268.164 112.142 268.528C109.673 273.003 111.762 280.435 111.784 280.51C111.808 280.606 111.808 280.707 111.784 280.803C111.764 280.893 109.745 289.849 111.997 297.413C118.342 301.518 120.385 302.924 121.069 303.455L125.725 302.808C126.139 302.233 127.339 300.279 126.905 297.893V297.896Z" fill="#17161B"/>
<path d="M134.181 283.397C134.327 283.396 134.468 283.34 134.575 283.24C134.682 283.14 134.748 283.003 134.759 282.857C134.77 282.711 134.725 282.566 134.634 282.451C134.543 282.336 134.413 282.259 134.268 282.236C128.71 281.402 123.485 279.162 123.432 279.14C123.361 279.109 123.286 279.093 123.209 279.092C123.133 279.091 123.057 279.104 122.986 279.133C122.842 279.189 122.727 279.301 122.666 279.443C122.604 279.585 122.602 279.745 122.658 279.889C122.715 280.032 122.827 280.148 122.969 280.209C123.187 280.304 128.381 282.532 134.093 283.39L134.181 283.397Z" fill="#17161B"/>
<path d="M132.138 288.554C132.358 288.554 132.579 288.554 132.799 288.53C132.879 288.528 132.956 288.51 133.028 288.476C133.1 288.443 133.164 288.396 133.217 288.337C133.27 288.278 133.311 288.209 133.336 288.134C133.362 288.059 133.372 287.98 133.365 287.901C133.359 287.822 133.337 287.745 133.301 287.675C133.264 287.605 133.214 287.543 133.152 287.493C133.091 287.443 133.02 287.406 132.944 287.384C132.868 287.362 132.788 287.356 132.71 287.366C131.532 287.42 130.354 287.285 129.22 286.964C129.145 286.937 129.066 286.925 128.987 286.93C128.908 286.934 128.831 286.955 128.76 286.99C128.689 287.025 128.626 287.074 128.575 287.135C128.524 287.195 128.485 287.265 128.462 287.341C128.439 287.416 128.431 287.496 128.439 287.575C128.448 287.653 128.472 287.729 128.511 287.799C128.549 287.868 128.601 287.928 128.664 287.976C128.727 288.025 128.799 288.06 128.875 288.079C129.937 288.382 131.034 288.542 132.138 288.554Z" fill="#17161B"/>
<path d="M120.065 283.397C120.214 283.392 120.355 283.329 120.459 283.223C120.564 283.117 120.624 282.975 120.627 282.827C120.631 282.678 120.577 282.533 120.478 282.422C120.378 282.312 120.24 282.243 120.092 282.231C120.036 282.231 114.423 281.93 111.473 280.291C111.338 280.224 111.182 280.212 111.039 280.257C110.895 280.302 110.774 280.401 110.702 280.533C110.629 280.665 110.61 280.82 110.649 280.966C110.688 281.111 110.782 281.236 110.911 281.314C114.098 283.07 119.794 283.37 120.036 283.383L120.065 283.397Z" fill="#17161B"/>
<path d="M127.479 298.378C127.628 298.382 127.773 298.328 127.884 298.228C127.994 298.127 128.062 297.989 128.073 297.84C128.084 297.691 128.038 297.544 127.944 297.429C127.849 297.313 127.715 297.238 127.567 297.219C124.231 296.723 120.978 295.78 117.894 294.416C117.755 294.356 117.598 294.351 117.456 294.403C117.314 294.456 117.198 294.562 117.133 294.698C117.067 294.834 117.057 294.991 117.104 295.135C117.152 295.279 117.253 295.398 117.387 295.469C120.574 296.891 123.94 297.87 127.392 298.378C127.421 298.381 127.45 298.381 127.479 298.378Z" fill="#17161B"/>
<path d="M128.124 303.15C129.802 305.332 134.033 311.635 132.186 317.762L116.214 318.332L115.645 314.053L110.797 318.618H83.8455C83.8455 318.618 83.0384 304.515 99.8832 306.297C100.337 306.345 100.795 306.262 101.204 306.059C101.613 305.856 101.955 305.541 102.191 305.15C104.857 300.728 106.902 297.496 108.201 295.495C108.381 295.219 108.62 294.986 108.9 294.813C109.18 294.64 109.496 294.531 109.823 294.494C110.151 294.458 110.482 294.494 110.794 294.601C111.106 294.708 111.39 294.883 111.626 295.112C115.686 299.059 120.925 301.569 126.544 302.26C126.853 302.295 127.153 302.392 127.424 302.545C127.695 302.698 127.933 302.903 128.124 303.15Z" fill="#17161B"/>
<path d="M110.654 304.648C110.77 304.648 110.883 304.614 110.979 304.548C111.106 304.462 111.194 304.329 111.224 304.179C111.254 304.028 111.223 303.872 111.139 303.744C111.088 303.668 109.866 301.879 106.199 300.107C106.061 300.05 105.907 300.048 105.767 300.101C105.628 300.155 105.514 300.26 105.449 300.394C105.385 300.529 105.374 300.683 105.42 300.826C105.466 300.968 105.564 301.087 105.695 301.159C109.037 302.764 110.157 304.367 110.169 304.384C110.222 304.464 110.294 304.53 110.379 304.576C110.463 304.622 110.558 304.647 110.654 304.648Z" fill="white"/>
<path d="M107.945 306.791C108.058 306.793 108.169 306.762 108.265 306.701C108.36 306.641 108.436 306.554 108.484 306.451C108.531 306.348 108.547 306.234 108.53 306.122C108.513 306.01 108.463 305.905 108.388 305.821C107.317 304.592 106.062 303.537 104.668 302.693C104.534 302.625 104.379 302.61 104.235 302.653C104.091 302.696 103.969 302.793 103.894 302.923C103.819 303.054 103.798 303.208 103.834 303.354C103.87 303.5 103.961 303.626 104.088 303.707C105.362 304.485 106.512 305.451 107.499 306.573C107.552 306.64 107.62 306.695 107.697 306.732C107.774 306.77 107.859 306.79 107.945 306.791Z" fill="white"/>
<path d="M149.298 85.341C150.575 86.9392 161.691 100.52 173.144 98.5631C183.768 96.7447 186.601 82.9355 195.473 83.547C201.571 83.9547 202.043 90.6046 209.914 93.0386C218.111 95.5705 229.072 91.9256 234.174 84.8843C243.338 72.2452 231.092 52.0022 223.132 43.1997C219.473 39.1674 210.528 29.2885 199.799 30.1773C192.48 30.7807 189.557 35.9342 184.097 34.2544C178.572 32.5543 179.344 26.5935 172.457 19.7847C164.76 12.1767 154.864 10.815 152.002 10.4399C148.03 9.94246 137.207 8.58476 128.531 15.6749C123.815 19.5319 118.062 27.254 119.948 34.0465C121.465 39.5099 115.882 54.8114 121.753 60.0138C134.52 71.3401 137.053 70.0109 149.298 85.341Z" fill="#17161B"/>
<path d="M185.561 67.8994L203.131 73.4758L230.18 98.6906C231.42 99.847 232.416 101.241 233.108 102.789C233.8 104.338 234.174 106.009 234.208 107.705C234.242 109.401 233.936 111.086 233.306 112.661C232.677 114.236 231.738 115.669 230.546 116.874L200.067 147.666C199.624 148.114 199.281 148.65 199.06 149.24C198.839 149.83 198.746 150.46 198.785 151.089L199.929 168.999C199.98 169.795 199.867 170.592 199.598 171.343C199.328 172.094 198.908 172.781 198.363 173.363C197.818 173.945 197.16 174.409 196.429 174.727C195.698 175.044 194.909 175.209 194.112 175.21L187.767 145.428L210.707 109.06L177.265 91.7032L185.561 67.8994Z" fill="#FFE1D9"/>
<path d="M193.533 175.312L187.178 145.53C187.146 145.381 187.174 145.226 187.256 145.098L209.864 109.266L176.998 92.222C176.874 92.1571 176.777 92.0497 176.725 91.9194C176.673 91.7891 176.669 91.6444 176.715 91.5116L185.014 67.7078C185.063 67.5642 185.167 67.4458 185.303 67.3778C185.439 67.3099 185.596 67.2978 185.741 67.3442L203.308 72.8987C203.39 72.924 203.466 72.968 203.528 73.0272L230.577 98.2421C231.875 99.4516 232.917 100.91 233.642 102.53C234.366 104.15 234.758 105.899 234.794 107.673C234.83 109.447 234.509 111.211 233.851 112.859C233.193 114.507 232.21 116.006 230.962 117.267L200.482 148.058C200.096 148.447 199.798 148.914 199.606 149.426C199.414 149.939 199.332 150.487 199.367 151.033L200.511 168.941C200.567 169.817 200.443 170.696 200.146 171.522C199.849 172.348 199.386 173.105 198.786 173.746C198.185 174.386 197.46 174.897 196.654 175.246C195.849 175.595 194.98 175.775 194.102 175.775C193.969 175.775 193.839 175.729 193.735 175.645C193.632 175.561 193.56 175.443 193.533 175.312ZM185.925 68.634L177.982 91.4243L210.964 108.522C211.036 108.559 211.1 108.61 211.15 108.673C211.201 108.736 211.238 108.809 211.26 108.887C211.281 108.965 211.286 109.046 211.274 109.126C211.261 109.206 211.233 109.283 211.19 109.351L188.39 145.52L194.582 174.587C195.948 174.465 197.213 173.813 198.105 172.772C198.998 171.73 199.448 170.38 199.36 169.011L198.216 151.104C198.17 150.391 198.276 149.677 198.526 149.008C198.777 148.339 199.167 147.731 199.67 147.224L230.15 116.433C231.289 115.283 232.185 113.916 232.785 112.413C233.386 110.909 233.678 109.301 233.645 107.683C233.612 106.064 233.255 104.469 232.594 102.991C231.934 101.514 230.983 100.184 229.799 99.0809L202.847 73.9631L185.925 68.634Z" fill="#17161B"/>
<path d="M158.293 189.214L149.683 298.383C135.166 299.763 120.522 298.707 106.353 295.258C106.864 290.515 107.551 283.804 108.369 275.815C109.978 260.111 112.091 239.47 114.364 219.135C117.792 188.469 121.573 158.588 124.513 147.429L192.186 148.396C192.189 148.409 192.192 148.422 192.195 148.436C192.254 148.69 192.321 149.078 192.397 149.602C192.547 150.644 192.723 152.177 192.919 154.137C193.311 158.054 193.784 163.651 194.303 170.385C195.342 183.851 196.568 201.849 197.709 220.011C198.849 238.174 199.905 256.5 200.605 270.621C200.955 277.682 201.216 283.689 201.355 288.099C201.424 290.304 201.462 292.106 201.466 293.44C201.468 294.107 201.461 294.652 201.445 295.071C201.438 295.267 201.429 295.429 201.418 295.558C185.497 298.269 169.983 299.264 154.952 298.225L159.291 189.273L158.293 189.214Z" fill="#C6B4F9" stroke="#17161B"/>
<path d="M196.543 159.485L184.696 110.663L180.108 93.1262L172.393 64.3279L148.58 62.6162L128.9 70.3189C128.9 70.3189 128.289 80.5406 127.133 95.6598C126.699 101.331 126.19 107.69 125.608 114.459C125.443 116.38 119.774 159.485 119.774 159.485C138.432 161.58 169.246 161.029 196.543 159.485Z" fill="#865BFF"/>
<path d="M146.536 161.029C149.275 161.029 194.055 160.352 195.589 160.185C195.665 160.177 195.739 160.154 195.806 160.117C195.873 160.08 195.932 160.031 195.98 159.971C196.028 159.912 196.064 159.843 196.086 159.77C196.107 159.696 196.114 159.619 196.106 159.543C196.098 159.467 196.075 159.394 196.038 159.326C196.002 159.259 195.952 159.2 195.893 159.152C195.833 159.104 195.765 159.068 195.691 159.046C195.618 159.025 195.541 159.018 195.465 159.026C189.263 159.685 125.301 160.692 120.417 159.099C121.062 154.204 126.037 116.334 126.195 114.506C126.719 108.422 127.232 102.094 127.72 95.701C128.74 82.342 129.343 72.6973 129.465 70.7286L148.675 63.2126L171.943 64.8856L179.546 93.2838L184.131 110.818L195.818 158.969C195.739 158.972 195.66 158.991 195.588 159.026C195.516 159.06 195.452 159.109 195.399 159.169C195.346 159.229 195.306 159.299 195.281 159.375C195.256 159.451 195.247 159.531 195.254 159.611C195.27 159.765 195.346 159.905 195.465 160.003C195.585 160.101 195.738 160.147 195.891 160.132L196.601 160.062C196.685 160.053 196.766 160.027 196.839 159.984C196.911 159.942 196.974 159.884 197.022 159.815C197.07 159.746 197.103 159.667 197.119 159.584C197.134 159.501 197.131 159.416 197.11 159.335L185.263 110.524L180.673 92.9783L172.963 64.1703C172.931 64.0531 172.864 63.9487 172.77 63.8717C172.676 63.7948 172.561 63.7491 172.439 63.7412L148.626 62.0295C148.54 62.022 148.453 62.0344 148.372 62.0658L128.694 69.7709C128.59 69.8111 128.5 69.8801 128.434 69.97C128.369 70.0598 128.33 70.1666 128.323 70.2777C128.323 70.3795 127.698 80.6691 126.556 95.6089C126.071 102 125.555 108.323 125.034 114.404C124.872 116.29 119.258 158.973 119.2 159.405C119.184 159.532 119.209 159.66 119.273 159.771C119.336 159.882 119.434 159.969 119.552 160.018C122.792 161.393 137.375 161.029 146.536 161.029Z" fill="#17161B"/>
<path d="M153.004 46.6387L158.137 63.6102C153.372 68.4592 147.817 69.3733 141.375 65.4335L139.455 52.0574L153.004 46.6387Z" fill="#FFE1D9"/>
<path d="M141.071 65.9336C140.998 65.8889 140.936 65.8285 140.889 65.7568C140.842 65.6851 140.812 65.6039 140.8 65.519L138.88 52.143C138.862 52.0134 138.887 51.8812 138.953 51.7678C139.018 51.6543 139.12 51.5662 139.242 51.5175L152.788 46.0963C152.863 46.0663 152.943 46.0522 153.024 46.055C153.105 46.0578 153.185 46.0774 153.258 46.1125C153.33 46.1476 153.395 46.1975 153.448 46.259C153.501 46.3205 153.54 46.3922 153.563 46.4697L158.697 63.4412C158.727 63.5414 158.729 63.6478 158.704 63.7493C158.679 63.8508 158.627 63.9437 158.554 64.0183C155.633 66.9931 152.468 68.4842 149.087 68.4842C146.535 68.4891 143.856 67.6381 141.071 65.9336ZM152.63 47.4177L140.1 52.4316L141.915 65.0802C147.744 68.5497 152.841 68.0163 157.48 63.4485L152.63 47.4177Z" fill="#17161B"/>
<path d="M135.228 27.3018L135.228 27.3017L135.271 27.218L135.341 27.1556C139.379 23.5926 143.694 22.8096 147.243 24.0496C150.778 25.2854 153.453 28.4972 154.284 32.7179C155.071 36.7171 156.529 39.6896 157.785 41.6579C158.414 42.6423 158.991 43.3754 159.409 43.8597C159.618 44.1019 159.787 44.2818 159.902 44.3996C159.909 44.4068 159.915 44.4138 159.922 44.4205C159.958 44.4183 159.997 44.416 160.039 44.4138C160.257 44.4025 160.563 44.3923 160.921 44.3964C161.63 44.4045 162.568 44.4689 163.424 44.7069C164.26 44.9397 165.138 45.3726 165.547 46.209C165.97 47.0712 165.804 48.1639 165.013 49.4894C163.401 52.1908 161.026 53.0269 159.08 53.1809C158.113 53.2574 157.25 53.1668 156.629 53.0579C156.318 53.0034 156.066 52.9439 155.889 52.8974C155.83 52.9497 155.758 53.0114 155.674 53.0813C155.397 53.3127 154.99 53.6341 154.467 53.9999C153.421 54.731 151.902 55.643 150.01 56.3682C146.217 57.8216 140.922 58.5222 134.955 55.5182C128.933 52.4859 127.249 47.4651 127.378 43.0032C127.442 40.7832 127.953 38.6982 128.593 37.0499C128.914 36.2253 129.27 35.5032 129.624 34.9234C129.972 34.3526 130.338 33.8878 130.689 33.6086C131.754 32.7622 132.884 31.2089 133.766 29.8199C134.202 29.1338 134.568 28.5027 134.826 28.0432C134.954 27.8136 135.055 27.6272 135.124 27.4987C135.158 27.4345 135.184 27.3847 135.202 27.3513L135.222 27.3136L135.226 27.3044L135.227 27.3022L135.228 27.3018L135.228 27.3018Z" fill="#FADCD4" stroke="black"/>
<path d="M143 38.9417C143 39.5405 143.414 40.0254 143.928 40.0254C144.442 40.0254 144.854 39.5405 144.854 38.9417C144.854 38.3428 144.44 37.8604 143.928 37.8604C143.417 37.8604 143 38.3452 143 38.9417Z" fill="#17161B"/>
<path d="M132.818 38.3679C132.818 38.9644 133.233 39.4493 133.744 39.4493C134.256 39.4493 134.673 38.9644 134.673 38.3679C134.673 37.7715 134.258 37.2842 133.744 37.2842C133.23 37.2842 132.818 37.7691 132.818 38.3679Z" fill="#17161B"/>
<path d="M138.461 47.5316C139.855 47.5316 140.366 47.2625 140.536 47.1267L139.809 46.2175C139.848 46.1884 139.324 46.46 137.417 46.3169C137.293 46.3074 137.173 46.2708 137.066 46.2096C136.958 46.1484 136.865 46.0642 136.794 45.963C136.721 45.861 136.672 45.7443 136.649 45.6211C136.627 45.4979 136.631 45.3713 136.663 45.2502C137.211 43.153 137.632 40.0787 137.659 39.9478C137.673 39.7979 137.629 39.6483 137.535 39.5302C137.442 39.4122 137.307 39.3347 137.158 39.3141C137.008 39.2935 136.857 39.3312 136.735 39.4195C136.613 39.5077 136.53 39.6396 136.503 39.7877C136.503 39.8193 136.064 42.925 135.533 44.9544C135.458 45.2398 135.445 45.5385 135.498 45.8292C135.55 46.1199 135.666 46.3955 135.836 46.6366C136.007 46.8776 136.229 47.0782 136.485 47.2241C136.742 47.37 137.028 47.4576 137.322 47.4807C137.763 47.5171 138.139 47.5316 138.461 47.5316Z" fill="#17161B"/>
<path d="M139.559 53.0176C141.069 52.9846 142.52 52.4236 143.66 51.4319C143.775 51.3287 143.844 51.184 143.853 51.0297C143.861 50.8753 143.808 50.7239 143.705 50.6088C143.602 50.4937 143.457 50.4243 143.303 50.4159C143.148 50.4075 142.997 50.4608 142.882 50.564C142.768 50.6658 140.075 53.0151 137.254 51.1313C137.126 51.0574 136.974 51.0351 136.83 51.069C136.685 51.1028 136.559 51.1902 136.477 51.3134C136.395 51.4367 136.363 51.5867 136.387 51.7329C136.411 51.8792 136.49 52.0108 136.607 52.1011C137.477 52.6967 138.505 53.0161 139.559 53.0176Z" fill="#17161B"/>
<path d="M147.019 38.5971C147.123 38.5963 147.225 38.5676 147.314 38.514C147.403 38.4603 147.477 38.3836 147.526 38.2919C147.576 38.2003 147.6 38.097 147.596 37.9929C147.592 37.8888 147.56 37.7876 147.503 37.7C147.452 37.6176 146.192 35.678 143.979 36.0465C143.901 36.056 143.825 36.0812 143.757 36.1207C143.689 36.1602 143.629 36.2132 143.582 36.2763C143.535 36.3395 143.501 36.4116 143.482 36.4883C143.463 36.565 143.46 36.6446 143.473 36.7225C143.486 36.8003 143.515 36.8747 143.557 36.9412C143.6 37.0077 143.655 37.0649 143.72 37.1094C143.786 37.1538 143.859 37.1846 143.936 37.1999C144.014 37.2151 144.094 37.2145 144.171 37.1982C145.625 36.9557 146.512 38.3134 146.519 38.328C146.573 38.4116 146.647 38.4801 146.734 38.5272C146.822 38.5743 146.919 38.5984 147.019 38.5971Z" fill="#17161B"/>
<path d="M131.58 37.5579C131.684 37.5585 131.787 37.5311 131.876 37.4787C131.966 37.4262 132.041 37.3506 132.091 37.2596C132.683 36.1904 134.198 36.1662 134.212 36.1662C134.36 36.1566 134.499 36.091 134.601 35.9827C134.702 35.8744 134.759 35.7315 134.759 35.5831C134.759 35.4346 134.702 35.2918 134.601 35.1835C134.499 35.0752 134.36 35.0096 134.212 35C134.122 35 132.002 35.0194 131.073 36.6972C131.036 36.7641 131.013 36.8378 131.004 36.914C130.995 36.9901 131.001 37.0672 131.023 37.1409C131.044 37.2146 131.079 37.2834 131.127 37.3433C131.175 37.4032 131.234 37.453 131.301 37.49C131.387 37.5361 131.483 37.5595 131.58 37.5579Z" fill="#17161B"/>
<path d="M202.893 313.626H169.81V318.904H202.893V313.626Z" fill="white"/>
<path d="M82.2749 318.761H112.079L113.361 316.336L82.2749 313.482V318.761Z" fill="white"/>
<path d="M133.895 315.48H115.928V318.618H133.895V315.48Z" fill="white"/>
<path d="M169.228 318.901V313.623C169.228 313.469 169.289 313.321 169.398 313.211C169.507 313.102 169.655 313.041 169.81 313.041H202.893C203.048 313.041 203.196 313.102 203.306 313.211C203.415 313.32 203.477 313.468 203.477 313.623V318.901C203.477 319.056 203.416 319.205 203.306 319.314C203.197 319.424 203.048 319.485 202.893 319.485H169.81C169.733 319.485 169.657 319.47 169.587 319.441C169.516 319.411 169.452 319.368 169.398 319.314C169.344 319.26 169.301 319.195 169.272 319.124C169.243 319.054 169.228 318.978 169.228 318.901ZM202.309 314.207H170.394V318.329H202.309V314.207Z" fill="#17161B"/>
<path d="M81.6909 318.761V313.483C81.6913 313.401 81.7085 313.321 81.7414 313.247C81.7743 313.173 81.8222 313.106 81.8821 313.052C81.942 312.997 82.0126 312.955 82.0894 312.929C82.1662 312.903 82.2476 312.894 82.3284 312.901L113.415 315.754C113.511 315.763 113.603 315.795 113.683 315.847C113.764 315.9 113.83 315.972 113.876 316.056C113.922 316.141 113.946 316.236 113.946 316.332C113.946 316.428 113.923 316.523 113.878 316.608L112.593 319.032C112.544 319.126 112.47 319.205 112.38 319.26C112.289 319.314 112.185 319.343 112.079 319.343H82.2678C82.1145 319.341 81.9682 319.279 81.8603 319.17C81.7524 319.061 81.6915 318.914 81.6909 318.761ZM112.436 316.836L82.8664 314.12V318.176H111.728L112.436 316.836Z" fill="#17161B"/>
<path d="M115.347 318.618V315.466C115.346 315.389 115.361 315.313 115.39 315.243C115.419 315.172 115.462 315.108 115.516 315.054C115.57 314.999 115.635 314.957 115.705 314.927C115.776 314.898 115.852 314.883 115.928 314.884H133.898C133.974 314.883 134.05 314.898 134.121 314.927C134.192 314.957 134.256 314.999 134.31 315.054C134.364 315.108 134.407 315.172 134.436 315.243C134.465 315.313 134.48 315.389 134.479 315.466V318.618C134.48 318.694 134.465 318.77 134.436 318.841C134.407 318.911 134.364 318.976 134.31 319.03C134.256 319.084 134.192 319.127 134.121 319.156C134.05 319.185 133.974 319.2 133.898 319.199H115.921C115.768 319.198 115.621 319.136 115.514 319.027C115.406 318.918 115.346 318.771 115.347 318.618ZM133.314 316.062H116.513V318.033H133.314V316.062Z" fill="#17161B"/>
<path d="M34.6974 82.0469L21.6093 72.1743C21.2782 71.9204 20.8636 71.8007 20.4482 71.8391C20.0328 71.8775 19.6471 72.0711 19.3681 72.3814C19.0891 72.6917 18.9373 73.0958 18.943 73.5131C18.9487 73.9304 19.1115 74.3302 19.3989 74.6328L28.1824 84.0059L34.6974 82.0469Z" fill="#FFE1D9"/>
<path d="M27.7605 84.4055L18.9842 75.0323C18.6003 74.6226 18.384 74.0837 18.3781 73.5222C18.3721 72.9606 18.5771 72.4173 18.9523 71.9995C19.3275 71.5818 19.8458 71.3201 20.4046 71.2662C20.9634 71.2123 21.5221 71.3701 21.9702 71.7083L35.0583 81.5809C35.1443 81.646 35.2106 81.7337 35.2499 81.8342C35.2892 81.9346 35.2999 82.044 35.2808 82.1502C35.2617 82.2564 35.2136 82.3553 35.1418 82.4358C35.07 82.5163 34.9774 82.5754 34.8741 82.6065C34.8741 82.6065 28.364 84.5655 28.1943 84.5897C28.1132 84.5908 28.0327 84.575 27.958 84.5433C27.8833 84.5116 27.816 84.4646 27.7605 84.4055ZM21.2698 72.6393C21.0549 72.4752 20.7861 72.398 20.5168 72.4232C20.2476 72.4483 19.9977 72.5739 19.8168 72.775C19.636 72.9761 19.5374 73.2379 19.5408 73.5084C19.5441 73.7788 19.6492 74.0381 19.835 74.2347L28.364 83.3435L33.4271 81.8209L21.2698 72.6393Z" fill="#17161B"/>
<path d="M30.623 82.0001L18.4269 71.0559C18.1181 70.7772 17.7159 70.6249 17.3001 70.629C16.8843 70.6331 16.4851 70.7934 16.1819 71.0781C15.8787 71.3628 15.6935 71.7511 15.6631 72.166C15.6327 72.5808 15.7593 72.992 16.0178 73.3179L23.9699 83.4014L30.623 82.0001Z" fill="#FFE1D9"/>
<path d="M23.5124 83.7635L15.5602 73.68C15.2105 73.2393 15.0392 72.6833 15.0802 72.1222C15.1212 71.5611 15.3715 71.0358 15.7815 70.6507C16.1915 70.2656 16.7313 70.0487 17.2937 70.0431C17.8561 70.0374 18.4 70.2434 18.8177 70.6202L31.0114 81.5669C31.0915 81.6389 31.1502 81.7318 31.1809 81.8351C31.2116 81.9385 31.2131 82.0483 31.1852 82.1525C31.1574 82.2566 31.1013 82.351 31.0231 82.4253C30.9449 82.4995 30.8478 82.5507 30.7423 82.5731C30.7423 82.5731 24.0892 83.9744 23.9705 83.9865C23.8822 83.9867 23.795 83.9668 23.7156 83.9281C23.6362 83.8894 23.5667 83.8331 23.5124 83.7635ZM18.0397 71.4906C17.8388 71.3205 17.5826 71.2299 17.3195 71.2359C17.0564 71.2419 16.8047 71.3442 16.6118 71.5234C16.419 71.7025 16.2985 71.9461 16.2731 72.2082C16.2477 72.4702 16.3191 72.7325 16.4739 72.9453L24.2032 82.7452L29.3778 81.6542L18.0397 71.4906Z" fill="#17161B"/>
<path d="M45.7206 83.528L37.3539 72.6178C37.1085 72.2977 36.7555 72.0774 36.3602 71.9977C35.9649 71.918 35.5542 71.9843 35.204 72.1843C34.8538 72.3843 34.588 72.7045 34.4556 73.0855C34.3233 73.4665 34.3335 73.8826 34.4843 74.2567L38.3622 83.8796L45.7206 83.528Z" fill="#FFE1D9"/>
<path d="M37.8191 84.0973L33.9412 74.4744C33.7345 73.9685 33.7188 73.4046 33.897 72.888C34.0752 72.3713 34.4351 71.9371 34.9096 71.6662C35.3841 71.3953 35.941 71.3063 36.4763 71.4157C37.0116 71.5251 37.4888 71.8255 37.8191 72.2608L46.1834 83.1711C46.2488 83.2554 46.2898 83.3561 46.3019 83.4621C46.314 83.5682 46.2967 83.6755 46.2519 83.7724C46.2071 83.8692 46.1366 83.9519 46.048 84.0113C45.9594 84.0708 45.8561 84.1047 45.7495 84.1094L38.362 84.4634C38.2453 84.4639 38.131 84.4293 38.0342 84.364C37.9374 84.2987 37.8624 84.2058 37.8191 84.0973ZM36.8909 72.9712C36.7548 72.7957 36.5684 72.6659 36.3566 72.5992C36.1448 72.5325 35.9177 72.532 35.7057 72.5978C35.5629 72.6425 35.4309 72.7163 35.318 72.8146C35.2051 72.9128 35.1138 73.0334 35.0498 73.1687C34.9858 73.304 34.9506 73.4511 34.9462 73.6007C34.9419 73.7503 34.9686 73.8992 35.0246 74.038L38.745 83.2778L44.5789 82.9966L36.8909 72.9712Z" fill="#17161B"/>
<path d="M12.4063 73.9121C12.4058 74.2169 12.4686 74.5185 12.5909 74.7977C12.7132 75.077 12.8921 75.3277 13.1164 75.5341L23.708 85.2709C24.4509 85.9533 25.351 86.4414 26.328 86.6917L42.1791 90.7503L85.5417 124.783C86.912 125.859 88.582 126.483 90.3218 126.57C92.0615 126.657 93.7854 126.202 95.2559 125.268L110.104 115.812L126.721 105.249L127.714 97.665L126.701 71.3154C124.41 72.3663 122.191 73.5691 120.06 74.9158C114.469 80.3395 106.298 88.0082 99.701 94.181C93.4842 99.9852 88.6513 104.454 88.6513 104.454L52.6617 84.7642C52.1348 84.4736 51.5936 84.2098 51.0402 83.9738L42.8796 80.4631C41.6094 79.9172 40.2286 79.678 38.8489 79.7648L27.1521 80.4922L15.9352 72.1422C15.6078 71.8978 15.2188 71.7494 14.8119 71.7136C14.405 71.6778 13.9961 71.756 13.6311 71.9395C13.2661 72.1229 12.9593 72.4044 12.7451 72.7523C12.5309 73.1003 12.4178 73.501 12.4184 73.9097L12.4063 73.9121Z" fill="#FFE1D9"/>
<path d="M90.7431 127.162C92.4504 127.16 94.1217 126.671 95.5615 125.753L116.192 112.661C116.259 112.621 116.317 112.568 116.362 112.505C116.408 112.442 116.441 112.37 116.459 112.295C116.477 112.219 116.479 112.14 116.466 112.064C116.453 111.987 116.425 111.914 116.384 111.848C116.342 111.782 116.288 111.725 116.224 111.681C116.16 111.637 116.088 111.605 116.012 111.589C115.936 111.573 115.857 111.572 115.781 111.587C115.704 111.601 115.632 111.631 115.567 111.674L94.9434 124.783C93.5743 125.652 91.97 126.075 90.3508 125.995C88.7317 125.914 87.1771 125.335 85.9005 124.335L42.5404 90.2997C42.3247 90.1954 26.4736 86.1368 26.4736 86.1368C25.5894 85.9098 24.7751 85.4675 24.1032 84.8494L13.5116 75.1126C13.3506 74.9649 13.2213 74.7861 13.1313 74.587C13.0413 74.388 12.9926 74.1727 12.988 73.9543C12.9835 73.7359 13.0233 73.5188 13.1049 73.3162C13.1866 73.1135 13.3084 72.9295 13.4631 72.7753C13.7386 72.5016 14.1031 72.3357 14.4904 72.3076C14.8777 72.2796 15.2622 72.3914 15.5742 72.6226L26.7911 80.9726C26.9018 81.0556 27.0383 81.0969 27.1765 81.089L38.8733 80.3616C40.1616 80.2826 41.4506 80.506 42.6373 81.0138L51.605 84.8688L88.3703 104.992C88.4778 105.05 88.6008 105.073 88.722 105.058C88.8432 105.043 88.9567 104.99 89.0465 104.907C89.095 104.864 93.9521 100.373 100.099 94.6371C107.283 87.9309 113.187 82.3618 117.649 78.085C117.707 78.0328 117.755 77.9694 117.789 77.8984C117.822 77.8274 117.842 77.7503 117.845 77.6718C117.848 77.5933 117.835 77.5149 117.808 77.4414C117.78 77.3679 117.737 77.3007 117.683 77.2439C117.629 77.1871 117.564 77.1419 117.491 77.1109C117.419 77.0799 117.342 77.0638 117.263 77.0636C117.184 77.0633 117.107 77.0789 117.034 77.1095C116.962 77.14 116.896 77.1848 116.842 77.2413C112.384 81.5157 106.483 87.0823 99.3036 93.7837C94.0393 98.6957 89.7227 102.691 88.5618 103.765L52.1383 83.8093L43.0978 79.93C41.7432 79.3496 40.2715 79.0946 38.8006 79.1857L27.3171 79.9131L16.2722 71.6867C15.7347 71.2887 15.0724 71.0966 14.4055 71.1451C13.7385 71.1935 13.111 71.4795 12.6366 71.951C12.3708 72.2167 12.1616 72.5334 12.0214 72.8822C11.8812 73.2309 11.813 73.6044 11.8209 73.9802C11.8289 74.356 11.9127 74.7263 12.0675 75.0688C12.2223 75.4114 12.4447 75.719 12.7215 75.9732L23.3107 85.7101C24.125 86.4567 25.1105 86.9913 26.1803 87.2666L41.9151 91.2937L85.1783 125.254C86.7675 126.495 88.727 127.167 90.7431 127.162Z" fill="#17161B"/>
<path d="M98.9282 92.07C99.1754 92.7747 99.4324 93.4819 99.699 94.1914C102.346 101.269 105.887 108.496 110.121 115.823C110.929 117.219 111.757 118.619 112.605 120.022L125.795 112.455L126.738 105.259L127.732 97.6755L131.433 69.3281L128.781 70.4216C128.083 70.7077 127.391 71.0091 126.706 71.3259C122.009 73.4842 117.626 76.2694 113.677 79.6056L98.9282 92.07Z" fill="#865BFF"/>
<path d="M112.595 120.606C112.697 120.605 112.797 120.579 112.886 120.528L126.076 112.962C126.154 112.917 126.22 112.855 126.27 112.781C126.32 112.706 126.352 112.621 126.364 112.532L127.983 100.167C127.993 100.091 127.988 100.014 127.968 99.94C127.948 99.8659 127.914 99.7965 127.867 99.7357C127.82 99.6749 127.762 99.6239 127.695 99.5857C127.629 99.5475 127.555 99.5227 127.479 99.5128C127.403 99.503 127.326 99.5082 127.252 99.5282C127.178 99.5482 127.108 99.5826 127.048 99.6294C126.987 99.6762 126.936 99.7346 126.898 99.8011C126.859 99.8676 126.835 99.941 126.825 100.017L125.245 112.091L112.799 119.229C112.045 117.98 111.313 116.737 110.618 115.529C106.177 107.822 102.784 100.774 100.244 93.985C100.031 93.4152 99.8198 92.8333 99.6138 92.2539L114.054 80.0489C117.962 76.7445 122.302 73.9875 126.953 71.8541C127.625 71.5437 128.313 71.2431 129.006 70.9594L131.658 69.866C131.794 69.8024 131.901 69.6887 131.955 69.5484C132.01 69.4081 132.008 69.2521 131.951 69.113C131.893 68.9739 131.784 68.8623 131.647 68.8016C131.509 68.7409 131.353 68.7357 131.212 68.7871L128.56 69.8805C127.855 70.169 127.15 70.4769 126.466 70.7921C121.72 72.9706 117.291 75.7846 113.303 79.1567L98.5523 91.6211C98.462 91.6977 98.397 91.7998 98.3659 91.9141C98.3347 92.0283 98.3389 92.1493 98.3778 92.2611C98.6201 92.9739 98.8892 93.694 99.1533 94.3947C101.713 101.244 105.133 108.348 109.607 116.111C110.397 117.483 111.233 118.902 112.096 120.322C112.148 120.408 112.221 120.48 112.309 120.529C112.396 120.579 112.495 120.605 112.595 120.606Z" fill="#17161B"/>
<path d="M225.121 89.0191C225.541 89.504 205.164 109.688 205.164 109.688L183.278 105.239L168.225 64.0225L179.342 64.8225C183.074 65.0909 186.753 65.8582 190.28 67.104C199.018 70.2001 215.138 77.1487 225.121 89.0191Z" fill="#865BFF"/>
<path d="M205.164 110.27C205.318 110.271 205.466 110.211 205.576 110.103C205.627 110.052 210.729 104.999 215.714 99.9493C218.645 96.9841 220.964 94.5984 222.605 92.86C223.575 91.8223 224.331 91.0052 224.825 90.4355C225.535 89.6136 225.962 89.119 225.567 88.6486C215.494 76.6716 199.258 69.672 190.474 66.5638C186.898 65.3007 183.168 64.5227 179.386 64.2508L168.273 63.4435C168.123 63.4408 167.979 63.4954 167.868 63.5962C167.758 63.697 167.691 63.8362 167.68 63.9852C167.669 64.1342 167.716 64.2817 167.81 64.3974C167.905 64.5131 168.04 64.5882 168.188 64.6072L179.308 65.4073C182.987 65.6718 186.615 66.4285 190.093 67.6572C198.69 70.7 214.517 77.5104 224.43 89.0947C222.91 91.1046 212.006 102.095 204.982 109.051L183.712 104.733L180.2 95.1124C180.177 95.0361 180.139 94.9653 180.088 94.9044C180.036 94.8434 179.973 94.7936 179.902 94.7579C179.831 94.7222 179.753 94.7015 179.674 94.6969C179.594 94.6924 179.515 94.7041 179.44 94.7314C179.365 94.7587 179.297 94.801 179.239 94.8557C179.181 94.9104 179.135 94.9763 179.104 95.0495C179.072 95.1226 179.056 95.2014 179.056 95.281C179.056 95.3606 179.073 95.4393 179.104 95.5124L182.74 105.438C182.774 105.532 182.831 105.616 182.907 105.682C182.982 105.747 183.073 105.792 183.171 105.812L205.057 110.258C205.092 110.266 205.128 110.27 205.164 110.27Z" fill="#17161B"/>
<path d="M213.678 110.27C213.822 110.269 213.96 110.215 214.066 110.119C214.173 110.023 214.24 109.892 214.256 109.749C214.271 109.606 214.234 109.463 214.151 109.346C214.067 109.23 213.944 109.148 213.805 109.116C215.501 108.488 217.198 107.661 217.299 107.605C217.438 107.537 217.544 107.416 217.593 107.27C217.643 107.123 217.632 106.963 217.564 106.825C217.495 106.686 217.375 106.58 217.228 106.531C217.082 106.481 216.922 106.492 216.783 106.56C216.747 106.577 213.121 108.352 210.671 108.454C210.528 108.458 210.392 108.515 210.288 108.613C210.185 108.711 210.121 108.843 210.109 108.985C210.096 109.128 210.137 109.269 210.222 109.384C210.307 109.498 210.432 109.577 210.571 109.606L213.555 110.258C213.596 110.265 213.637 110.269 213.678 110.27Z" fill="#17161B"/>
<path d="M89.1413 109.311C88.4142 108.794 87.6871 105.293 88.104 104.251C88.1624 104.109 88.2738 103.997 88.4144 103.937C88.5549 103.877 88.7134 103.874 88.8558 103.93C88.9982 103.985 89.1132 104.094 89.1761 104.234C89.239 104.373 89.2448 104.531 89.1922 104.675C88.9498 105.31 89.5267 107.924 89.8636 108.399C89.9531 108.477 90.0167 108.581 90.0457 108.696C90.0747 108.811 90.0677 108.932 90.0258 109.043C89.9838 109.155 89.9089 109.25 89.811 109.317C89.7131 109.385 89.597 109.42 89.4782 109.42C89.3571 109.42 89.239 109.382 89.1413 109.311Z" fill="#17161B"/>
<line x1="38.2134" y1="319.228" x2="245.718" y2="319.228" stroke="#232227"/>
<path d="M41 80C23.8792 80 10 66.1208 10 49C10 31.8792 23.8792 18 41 18C58.1208 18 72 31.8792 72 49C72 66.1208 58.1208 80 41 80Z" fill="#17161B" stroke="black"/>
<path d="M40.634 79.2064C23.859 79.2064 10.2602 65.5932 10.2602 48.8005C10.2602 32.0077 23.859 18.3945 40.634 18.3945C57.409 18.3945 71.0078 32.0077 71.0078 48.8005C71.0078 65.5932 57.409 79.2064 40.634 79.2064Z" fill="#FFE178"/>
<path d="M42.4995 79C26.7594 79 13.9995 66.2401 13.9995 50.5C13.9995 34.7599 26.7594 22 42.4995 22C58.2396 22 70.9995 34.7599 70.9995 50.5C70.9995 66.2401 58.2396 79 42.4995 79Z" fill="#FFC700"/>
<path d="M39.416 61.944L39.416 61.9441C40.107 62.6357 41.0438 63.0242 42.0205 63.0246C42.218 63.0244 42.4151 63.0087 42.6101 62.9776C43.1848 62.8842 43.7292 62.6556 44.1987 62.3107C44.6686 61.9654 45.0501 61.5134 45.3116 60.9917L45.3119 60.9911L64.0641 23.6683C64.0641 23.6683 64.0641 23.6683 64.0641 23.6683C64.5032 22.7942 64.5775 21.7813 64.2707 20.8523C63.9638 19.9234 63.3009 19.1548 62.4282 18.7154C61.5555 18.276 60.5442 18.2017 59.6169 18.5087C58.6894 18.8158 57.9216 19.4791 57.4825 20.3531L56.8327 20.0267L57.4825 20.3531L41.4867 52.1903L41.0204 53.1184L40.2861 52.3838L27.2933 39.3868C26.5966 38.736 25.6751 38.3807 24.7224 38.3958C23.7658 38.4108 22.8526 38.7979 22.1759 39.4753C21.4992 40.1527 21.1122 41.0673 21.0971 42.0256C21.0821 42.98 21.4373 43.9029 22.0874 44.6003L39.416 61.944Z" fill="white" stroke="#17161B" stroke-width="1.5"/>
<path d="M11 0L12.5126 8.67402C12.5851 9.08953 12.9105 9.4149 13.326 9.48736L22 11L13.326 12.5126C12.9105 12.5851 12.5851 12.9105 12.5126 13.326L11 22L9.48736 13.326C9.4149 12.9105 9.08953 12.5851 8.67402 12.5126L0 11L8.67402 9.48736C9.08953 9.4149 9.4149 9.08953 9.48736 8.67402L11 0Z" fill="#17161B"/>
<path d="M80.5 24L81.1959 27.9907C81.2684 28.4062 81.5938 28.7316 82.0093 28.8041L86 29.5L82.0093 30.1959C81.5938 30.2684 81.2684 30.5938 81.1959 31.0093L80.5 35L79.8041 31.0093C79.7316 30.5938 79.4062 30.2684 78.9907 30.1959L75 29.5L78.9907 28.8041C79.4062 28.7316 79.7316 28.4062 79.8041 27.9907L80.5 24Z" fill="#17161B"/>
</svg>
