<svg width="171" height="221" viewBox="0 0 171 221" fill="none" xmlns="http://www.w3.org/2000/svg">
<g clip-path="url(#clip0_1_2396)">
<path d="M92.625 207.013V215.221C92.625 217.951 106.188 220.165 122.926 220.165C139.663 220.165 153.215 217.951 153.215 215.221V207.013H92.625Z" fill="#FEDA5B"/>
<path d="M146.907 207.013V213.584C146.907 216.315 133.344 218.528 116.617 218.528C109.231 218.603 101.854 218.084 94.5947 216.978C98.9416 218.838 109.979 220.165 122.924 220.165C139.651 220.165 153.214 217.951 153.214 215.221V207.013H146.907Z" fill="#E7BA1A"/>
<path d="M122.915 211.947C139.644 211.947 153.205 209.734 153.205 207.003C153.205 204.273 139.644 202.06 122.915 202.06C106.186 202.06 92.625 204.273 92.625 207.003C92.625 209.734 106.186 211.947 122.915 211.947Z" fill="#FFC700"/>
<path d="M122.926 202.068H120.519C136.127 202.266 148.411 204.394 148.411 206.995C148.411 209.596 136.127 211.715 120.519 211.913C121.318 211.913 122.117 211.913 122.926 211.913C139.654 211.913 153.216 209.708 153.216 206.978C153.216 204.247 139.654 202.068 122.926 202.068Z" fill="#DEAD00"/>
<path d="M122.915 209.769C132.276 209.769 139.866 208.531 139.866 207.004C139.866 205.477 132.276 204.239 122.915 204.239C113.553 204.239 105.964 205.477 105.964 207.004C105.964 208.531 113.553 209.769 122.915 209.769Z" fill="#F1F0FF" fill-opacity="0.7"/>
<path d="M121.615 209.209V208.701C120.211 208.695 118.809 208.618 117.417 208.468L118.152 207.839C119.511 207.993 120.882 208.071 122.254 208.072C123.66 208.072 124.619 207.951 124.619 207.736C124.619 207.521 123.831 207.4 122.009 207.271C119.367 207.073 117.566 206.806 117.566 206.28C117.566 205.755 119.09 205.419 121.732 205.324V204.799H124.15V205.273C125.347 205.275 126.543 205.336 127.73 205.453L127.016 206.065C125.84 205.943 124.655 205.882 123.469 205.884C121.86 205.884 121.338 206.031 121.338 206.186C121.338 206.341 122.201 206.47 124.3 206.642C127.24 206.875 128.423 207.167 128.423 207.658C128.423 208.149 126.867 208.52 124.033 208.649V209.2L121.615 209.209Z" fill="#DEAD00"/>
<path d="M140.591 195.438V203.647C140.591 206.377 127.028 208.591 110.29 208.591C93.5525 208.591 80.0003 206.377 80.0003 203.647V195.438H140.591Z" fill="#FEDA5B"/>
<path d="M86.3079 195.438V202.01C86.3079 204.741 99.8707 206.954 116.598 206.954C123.984 207.029 131.361 206.51 138.62 205.404C134.273 207.264 123.235 208.591 110.291 208.591C93.5634 208.591 80.0006 206.377 80.0006 203.647V195.438H86.3079Z" fill="#E7BA1A"/>
<path d="M110.301 200.374C93.5722 200.374 80.011 198.161 80.011 195.43C80.011 192.7 93.5722 190.486 110.301 190.486C127.03 190.486 140.591 192.7 140.591 195.43C140.591 198.161 127.03 200.374 110.301 200.374Z" fill="#FFC700"/>
<path d="M110.29 190.495H112.698C97.0898 190.693 84.8055 192.821 84.8055 195.422C84.8055 198.023 97.0898 200.142 112.698 200.34C111.899 200.34 111.1 200.34 110.29 200.34C93.5633 200.34 80.0005 198.135 80.0005 195.405C80.0005 192.674 93.5633 190.495 110.29 190.495Z" fill="#DEAD00"/>
<path d="M110.301 198.195C100.939 198.195 93.3502 196.957 93.3502 195.43C93.3502 193.903 100.939 192.665 110.301 192.665C119.663 192.665 127.252 193.903 127.252 195.43C127.252 196.957 119.663 198.195 110.301 198.195Z" fill="#F1F0FF" fill-opacity="0.7"/>
<path d="M111.601 197.635V197.127C113.005 197.122 114.407 197.044 115.799 196.895L115.064 196.266C113.705 196.42 112.334 196.498 110.962 196.499C109.555 196.499 108.597 196.378 108.597 196.163C108.597 195.947 109.385 195.827 111.207 195.698C113.849 195.499 115.65 195.232 115.65 194.707C115.65 194.182 114.126 193.846 111.484 193.751V193.226H109.065V193.699C107.869 193.702 106.673 193.762 105.486 193.88L106.199 194.492C107.376 194.369 108.561 194.309 109.747 194.311C111.356 194.311 111.878 194.457 111.878 194.612C111.878 194.767 111.015 194.897 108.916 195.069C105.976 195.301 104.793 195.594 104.793 196.085C104.793 196.576 106.349 196.946 109.183 197.076V197.627L111.601 197.635Z" fill="#DEAD00"/>
<path d="M150.06 184.169V192.377C150.06 195.108 136.497 197.321 119.759 197.321C103.021 197.321 89.4691 195.108 89.4691 192.377V184.169H150.06Z" fill="#FEDA5B"/>
<path d="M95.7767 184.169V190.741C95.7767 193.471 109.339 195.685 126.067 195.685C133.453 195.76 140.83 195.24 148.089 194.134C143.742 195.995 132.704 197.321 119.759 197.321C103.032 197.321 89.4694 195.108 89.4694 192.377V184.169H95.7767Z" fill="#E7BA1A"/>
<path d="M119.77 189.104C103.041 189.104 89.4797 186.89 89.4797 184.16C89.4797 181.429 103.041 179.216 119.77 179.216C136.498 179.216 150.06 181.429 150.06 184.16C150.06 186.89 136.498 189.104 119.77 189.104Z" fill="#FFC700"/>
<path d="M119.759 179.225H122.167C106.559 179.423 94.2743 181.55 94.2743 184.151C94.2743 186.752 106.559 188.871 122.167 189.069C121.368 189.069 120.569 189.069 119.759 189.069C103.032 189.069 89.4692 186.864 89.4692 184.134C89.4692 181.404 103.032 179.225 119.759 179.225Z" fill="#DEAD00"/>
<path d="M119.77 186.924C110.408 186.924 102.819 185.686 102.819 184.159C102.819 182.632 110.408 181.395 119.77 181.395C129.132 181.395 136.721 182.632 136.721 184.159C136.721 185.686 129.132 186.924 119.77 186.924Z" fill="#F1F0FF" fill-opacity="0.7"/>
<path d="M121.07 186.365V185.857C122.474 185.851 123.876 185.774 125.268 185.624L124.532 184.996C123.173 185.15 121.803 185.227 120.431 185.228C119.024 185.228 118.065 185.107 118.065 184.892C118.065 184.677 118.854 184.556 120.676 184.427C123.318 184.229 125.118 183.962 125.118 183.437C125.118 182.911 123.595 182.575 120.953 182.48V181.955H118.534V182.429C117.337 182.431 116.142 182.492 114.954 182.61L115.668 183.221C116.845 183.099 118.03 183.038 119.216 183.04C120.825 183.04 121.347 183.187 121.347 183.342C121.347 183.497 120.484 183.626 118.385 183.798C115.444 184.031 114.262 184.324 114.262 184.815C114.262 185.306 115.817 185.676 118.651 185.805V186.356L121.07 186.365Z" fill="#DEAD00"/>
<path d="M143.636 171.104V179.313C143.636 182.043 130.073 184.257 113.335 184.257C96.5974 184.257 83.0452 182.043 83.0452 179.313V171.104H143.636Z" fill="#FEDA5B"/>
<path d="M89.3519 171.104V177.676C89.3519 180.407 102.915 182.62 119.642 182.62C127.028 182.695 134.405 182.176 141.664 181.07C137.317 182.93 126.279 184.257 113.335 184.257C96.6074 184.257 83.0446 182.043 83.0446 179.313V171.104H89.3519Z" fill="#E7BA1A"/>
<path d="M113.346 176.04C96.6172 176.04 83.0559 173.827 83.0559 171.096C83.0559 168.366 96.6172 166.152 113.346 166.152C130.074 166.152 143.636 168.366 143.636 171.096C143.636 173.827 130.074 176.04 113.346 176.04Z" fill="#FFC700"/>
<path d="M113.334 166.161H115.742C100.134 166.359 87.8495 168.487 87.8495 171.088C87.8495 173.689 100.134 175.808 115.742 176.006C114.943 176.006 114.144 176.006 113.334 176.006C96.6072 176.006 83.0444 173.801 83.0444 171.071C83.0444 168.34 96.6072 166.161 113.334 166.161Z" fill="#DEAD00"/>
<path d="M113.346 173.861C103.984 173.861 96.3952 172.623 96.3952 171.096C96.3952 169.569 103.984 168.331 113.346 168.331C122.708 168.331 130.297 169.569 130.297 171.096C130.297 172.623 122.708 173.861 113.346 173.861Z" fill="#F1F0FF" fill-opacity="0.7"/>
<path d="M114.645 173.302V172.793C116.049 172.788 117.451 172.71 118.843 172.561L118.108 171.932C116.749 172.086 115.378 172.164 114.006 172.165C112.599 172.165 111.641 172.044 111.641 171.829C111.641 171.613 112.429 171.493 114.251 171.364C116.893 171.165 118.694 170.898 118.694 170.373C118.694 169.848 117.17 169.512 114.528 169.417V168.892H112.109V169.365C110.913 169.368 109.717 169.428 108.53 169.546L109.243 170.158C110.42 170.035 111.605 169.975 112.791 169.977C114.4 169.977 114.922 170.123 114.922 170.278C114.922 170.433 114.059 170.563 111.96 170.735C109.02 170.967 107.837 171.26 107.837 171.751C107.837 172.242 109.392 172.612 112.227 172.742V173.293L114.645 173.302Z" fill="#DEAD00"/>
<path d="M147.902 160.105V168.314C147.902 171.044 134.34 173.258 117.602 173.258C100.864 173.258 87.3119 171.044 87.3119 168.314V160.105H147.902Z" fill="#FEDA5B"/>
<path d="M93.6195 160.105V166.677C93.6195 169.408 107.182 171.621 123.909 171.621C131.296 171.696 138.673 171.177 145.932 170.071C141.585 171.931 130.547 173.258 117.602 173.258C100.875 173.258 87.3122 171.044 87.3122 168.314V160.105H93.6195Z" fill="#E7BA1A"/>
<path d="M117.612 165.04C100.884 165.04 87.3225 162.827 87.3225 160.096C87.3225 157.366 100.884 155.152 117.612 155.152C134.341 155.152 147.902 157.366 147.902 160.096C147.902 162.827 134.341 165.04 117.612 165.04Z" fill="#FFC700"/>
<path d="M117.601 155.161H120.009C104.4 155.359 92.1161 157.487 92.1161 160.088C92.1161 162.689 104.4 164.808 120.009 165.006C119.21 165.006 118.411 165.006 117.601 165.006C100.874 165.006 87.311 162.801 87.311 160.071C87.311 157.34 100.874 155.161 117.601 155.161Z" fill="#DEAD00"/>
<path d="M117.613 162.862C108.251 162.862 100.662 161.624 100.662 160.097C100.662 158.57 108.251 157.332 117.613 157.332C126.974 157.332 134.563 158.57 134.563 160.097C134.563 161.624 126.974 162.862 117.613 162.862Z" fill="#F1F0FF" fill-opacity="0.7"/>
<path d="M118.913 162.302V161.793C120.317 161.788 121.719 161.71 123.11 161.561L122.375 160.932C121.016 161.086 119.646 161.164 118.273 161.165C116.867 161.165 115.908 161.044 115.908 160.829C115.908 160.613 116.697 160.493 118.518 160.364C121.161 160.165 122.961 159.898 122.961 159.373C122.961 158.848 121.438 158.512 118.795 158.417V157.892H116.377V158.365C115.18 158.368 113.985 158.428 112.797 158.546L113.511 159.158C114.687 159.035 115.873 158.975 117.059 158.977C118.668 158.977 119.19 159.123 119.19 159.278C119.19 159.433 118.327 159.563 116.228 159.735C113.287 159.967 112.105 160.26 112.105 160.751C112.105 161.242 113.66 161.612 116.494 161.742V162.293L118.913 162.302Z" fill="#DEAD00"/>
<path d="M143.802 147.041V155.249C143.802 157.98 130.239 160.193 113.501 160.193C96.7634 160.193 83.2113 157.98 83.2113 155.249V147.041H143.802Z" fill="#FEDA5B"/>
<path d="M89.5189 147.041V153.613C89.5189 156.343 103.082 158.557 119.809 158.557C127.195 158.632 134.572 158.112 141.831 157.006C137.484 158.867 126.446 160.193 113.501 160.193C96.7744 160.193 83.2116 157.98 83.2116 155.249V147.041H89.5189Z" fill="#E7BA1A"/>
<path d="M113.512 151.977C96.7832 151.977 83.2219 149.763 83.2219 147.033C83.2219 144.302 96.7832 142.089 113.512 142.089C130.24 142.089 143.802 144.302 143.802 147.033C143.802 149.763 130.24 151.977 113.512 151.977Z" fill="#FFC700"/>
<path d="M113.501 142.098H115.909C100.301 142.296 88.0165 144.423 88.0165 147.024C88.0165 149.626 100.301 151.744 115.909 151.942C115.11 151.942 114.311 151.942 113.501 151.942C96.7742 151.942 83.2114 149.737 83.2114 147.007C83.2114 144.277 96.7742 142.098 113.501 142.098Z" fill="#DEAD00"/>
<path d="M113.512 149.797C104.15 149.797 96.5612 148.559 96.5612 147.032C96.5612 145.505 104.15 144.268 113.512 144.268C122.874 144.268 130.463 145.505 130.463 147.032C130.463 148.559 122.874 149.797 113.512 149.797Z" fill="#F1F0FF" fill-opacity="0.7"/>
<path d="M114.812 149.238V148.73C116.216 148.725 117.618 148.647 119.01 148.497L118.275 147.869C116.916 148.023 115.545 148.1 114.173 148.101C112.766 148.101 111.808 147.981 111.808 147.765C111.808 147.55 112.596 147.429 114.418 147.3C117.06 147.102 118.861 146.835 118.861 146.31C118.861 145.784 117.337 145.448 114.695 145.354V144.828H112.276V145.302C111.08 145.305 109.884 145.365 108.696 145.483L109.41 146.094C110.587 145.972 111.772 145.911 112.958 145.913C114.567 145.913 115.089 146.06 115.089 146.215C115.089 146.37 114.226 146.499 112.127 146.671C109.187 146.904 108.004 147.197 108.004 147.688C108.004 148.179 109.559 148.549 112.394 148.678V149.229L114.812 149.238Z" fill="#DEAD00"/>
<path d="M168.89 210.89L164.82 216.686C163.467 218.614 155.795 213.14 147.682 204.456C139.569 195.772 134.097 187.178 135.451 185.25L139.52 179.454L168.89 210.89Z" fill="#FEDA5B"/>
<path d="M142.578 182.726L139.32 187.367C137.966 189.295 143.443 197.895 151.551 206.573C155.094 210.458 158.927 213.919 162.994 216.904C159.965 215.963 153.957 211.173 147.682 204.457C139.574 195.778 134.097 187.178 135.451 185.25L139.521 179.454L142.578 182.726Z" fill="#E7BA1A"/>
<path d="M151.761 198.66C143.653 189.98 138.177 181.381 139.53 179.453C140.884 177.525 148.555 182.998 156.664 191.677C164.772 200.357 170.248 208.956 168.895 210.884C167.541 212.812 159.87 207.339 151.761 198.66Z" fill="#FFC700"/>
<path d="M156.654 191.677L157.821 192.927C150.157 184.969 143.148 180.097 141.859 181.934C140.569 183.771 145.473 191.641 152.94 199.879C152.553 199.464 152.166 199.05 151.773 198.63C143.665 189.951 138.184 181.357 139.538 179.429C140.892 177.501 148.546 182.999 156.654 191.677Z" fill="#DEAD00"/>
<path d="M152.842 197.121C148.304 192.264 145.239 187.452 145.996 186.374C146.753 185.296 151.046 188.359 155.583 193.216C160.121 198.073 163.186 202.885 162.429 203.963C161.672 205.041 157.38 201.978 152.842 197.121Z" fill="#F1F0FF" fill-opacity="0.7"/>
<path d="M153.75 197.4L154.002 197.041C154.685 197.766 155.403 198.438 156.152 199.055L156.107 198.229C155.372 197.633 154.669 196.977 154.003 196.266C153.322 195.536 152.917 194.953 153.024 194.801C153.13 194.649 153.572 194.973 154.519 195.827C155.898 197.058 156.903 197.804 157.164 197.433C157.424 197.062 156.852 196.034 155.619 194.596L155.879 194.225L154.707 192.97L154.472 193.305C153.891 192.686 153.281 192.108 152.647 191.575L152.69 192.377C153.321 192.901 153.925 193.474 154.499 194.09C155.279 194.925 155.46 195.299 155.383 195.409C155.306 195.518 154.824 195.162 153.721 194.195C152.18 192.833 151.462 192.426 151.218 192.773C150.975 193.12 151.545 194.188 152.855 195.75L152.582 196.139L153.75 197.4Z" fill="#DEAD00"/>
<path d="M120.314 127.866C120.25 127.841 120.178 127.841 120.114 127.866C119.117 124.201 114.344 120.773 111.129 118.459C110.68 118.141 110.263 117.837 109.883 117.557C104.555 113.618 99.1775 111.472 93.4385 110.986C85.7866 110.364 78.1097 112.268 70.6883 114.141L67.1241 115.024C58.0888 117.214 51.5834 121.501 44.0686 126.46L44.0312 126.491C36.859 131.213 33.9927 137.777 31.226 144.123C30.472 145.859 29.6931 147.651 28.8394 149.35C27.1508 152.728 25.6428 156.306 24.1785 159.759C23.7174 160.866 23.2438 161.98 22.7702 163.075L22.5272 163.653C21.7109 165.52 20.4709 168.376 20.2715 170.678C20.2686 170.698 20.2686 170.719 20.2715 170.74C20.2746 170.763 20.2746 170.786 20.2715 170.808C20.2155 171.384 20.2619 171.966 20.4086 172.526C20.42 172.571 20.4437 172.612 20.4772 172.644C20.5851 172.979 20.7541 173.291 20.9756 173.565C20.4827 174.865 19.6952 176.033 18.6747 176.979C17.6543 177.924 16.4285 178.621 15.0934 179.015C15.0307 178.991 14.962 178.989 14.8979 179.008C14.8337 179.027 14.7776 179.067 14.7382 179.121C14.4204 179.214 14.0839 179.301 13.7412 179.382C13.6875 179.36 13.6284 179.355 13.5716 179.367C13.5149 179.379 13.4632 179.408 13.4234 179.45C13.0121 179.531 12.5822 179.606 12.1086 179.668C11.6351 179.73 11.2487 179.78 10.8063 179.817C10.3639 179.855 9.83422 179.892 9.34818 179.929C8.35742 179.998 7.32927 180.066 6.3759 180.209C3.80863 180.589 1.06689 181.491 0.194516 185.386C0.100913 185.795 0.0466755 186.211 0.0325177 186.63C0.0111441 186.673 0 186.72 0 186.767C0 186.815 0.0111441 186.862 0.0325177 186.904C0.0183692 187.38 0.102947 187.855 0.280945 188.297C0.458943 188.739 0.726523 189.14 1.0669 189.474C2.93627 191.228 6.88062 190.948 10.0523 190.718C11.0182 190.65 11.9217 190.587 12.6383 190.594H15.3177C17.2992 190.594 19.3493 190.625 21.3869 190.693C21.8418 190.693 22.3652 190.762 22.926 190.811C23.7174 190.886 24.5835 190.973 25.4185 190.973C26.9015 190.973 28.3347 190.712 29.2258 189.698C29.7683 189.071 30.1529 188.325 30.3474 187.52C30.6388 186.113 30.7352 184.673 30.634 183.239C30.5967 181.435 30.5717 179.73 31.1948 178.343H31.469C34.0114 178.237 35.0271 176.576 36.211 174.666L36.4789 174.224C37.0148 173.366 38.0305 171.505 39.3141 169.16C42.1244 164.021 46.3679 156.25 48.3993 153.972C53.8329 147.875 59.5033 145.032 66.2393 145.019H66.3016C70.6073 145.019 74.9567 145.785 79.1628 146.519C83.9422 147.359 88.8835 148.23 93.856 147.993C107.565 147.371 116.55 140.733 120.526 128.258C120.549 128.178 120.54 128.092 120.5 128.019C120.461 127.945 120.394 127.89 120.314 127.866ZM17.7728 178.474C18.2775 179.052 19.1561 180.825 18.963 181.385C18.963 181.429 18.9318 181.472 18.8196 181.472C18.4645 181.472 17.7666 180.396 17.3865 179.817C17.1808 179.506 17.0001 179.226 16.8256 179.009C17.1501 178.846 17.4662 178.668 17.7728 178.474ZM14.9937 179.718C15.3513 180.058 15.6324 180.47 15.8182 180.927C16.0041 181.384 16.0905 181.876 16.0717 182.368C15.5363 181.969 15.1082 181.443 14.8254 180.838C14.6323 180.521 14.4453 180.216 14.2335 179.917L14.9937 179.718ZM11.9404 180.34C12.5635 181.833 12.5635 182.344 12.4763 182.511C12.4693 182.526 12.4589 182.539 12.4459 182.549C12.4328 182.559 12.4176 182.565 12.4015 182.567C12.0712 182.661 11.3733 181.367 11.1178 180.881L10.8873 180.452C11.2238 180.421 11.5977 180.377 11.9404 180.334V180.34ZM0.805183 185.529C1.57162 182.082 3.9208 181.236 6.34475 180.869C7.59099 181.634 8.89955 185.224 8.99302 186.394C9.01126 186.973 8.9716 187.552 8.87462 188.123C6.78934 188.166 4.70737 187.938 2.68079 187.445L2.41907 187.377C1.78803 187.256 1.18814 187.008 0.65564 186.649C0.669991 186.27 0.720056 185.893 0.805183 185.523V185.529ZM28.7397 189.318C27.5433 190.668 25.001 190.419 22.9696 190.22C22.4026 190.164 21.8605 190.108 21.3869 190.096C19.3431 190.027 17.2868 190.009 15.299 189.996H12.6258C11.8905 189.996 10.9683 190.052 9.99 190.121C6.94293 190.332 3.13566 190.6 1.48438 189.038C1.04542 188.615 0.76406 188.056 0.686788 187.452C1.18418 187.704 1.71187 187.892 2.25705 188.012L2.51253 188.08C4.63009 188.598 6.80729 188.832 8.98678 188.777H9.17995C10.5072 188.777 11.8282 188.733 13.0994 188.683H13.816C15.2679 188.627 16.9316 188.721 18.6514 188.814C20.1033 188.895 21.6237 188.982 23.1192 188.982C25.2868 189.058 27.4508 188.753 29.5124 188.08C29.3241 188.53 29.063 188.946 28.7397 189.312V189.318ZM29.7554 187.252C26.7582 188.578 22.4774 188.341 18.6888 188.136C16.9316 188.043 15.2741 187.949 13.791 187.999L13.0807 188.03C11.9155 188.068 10.7191 188.111 9.5102 188.117C9.61151 187.53 9.65119 186.933 9.6286 186.338C9.54136 185.293 8.52567 182.132 7.19218 180.738C7.90878 180.657 8.65653 180.601 9.37935 180.552L10.1707 180.489C10.3073 180.689 10.4322 180.897 10.5446 181.112C11.0306 182.032 11.6226 183.146 12.3579 183.146C12.4255 183.145 12.4927 183.135 12.5573 183.115C12.6621 183.089 12.7598 183.04 12.8428 182.971C12.9259 182.902 12.9923 182.815 13.0371 182.717C13.305 182.144 12.9685 181.112 12.5822 180.185C12.9187 180.129 13.2365 180.079 13.5418 180.01C13.8217 180.349 14.068 180.713 14.2771 181.099C14.788 181.964 15.3115 182.86 16.2648 183.047H16.3272C16.3992 183.045 16.4686 183.019 16.5248 182.974C16.5811 182.929 16.6211 182.867 16.6387 182.798C16.7263 182.199 16.6861 181.588 16.5207 181.006C16.3553 180.424 16.0685 179.883 15.6791 179.419L16.2088 179.208C16.4328 179.493 16.6408 179.79 16.8319 180.097C17.455 181.056 18.0781 182.045 18.801 182.045C18.9604 182.049 19.1168 182.001 19.247 181.909C19.3772 181.817 19.4742 181.686 19.5238 181.535C19.8291 180.67 18.8446 178.81 18.2775 178.063C18.6991 177.758 19.0913 177.414 19.449 177.036C21.5552 181.043 25.917 182.406 29.9237 183.202H29.986C30.081 184.554 30.0035 185.913 29.7554 187.246V187.252ZM29.986 182.63C25.917 181.815 21.8854 180.521 19.96 176.694C19.9417 176.665 19.9208 176.638 19.8977 176.613C20.5197 175.857 21.0354 175.02 21.4305 174.125L21.4804 174.187C23.2127 175.916 27.5745 178.013 30.5219 178.33C30.0684 179.714 29.8865 181.171 29.986 182.623V182.63ZM35.9306 173.919L35.6626 174.361C34.4849 176.265 33.6375 177.646 31.4379 177.739C31.3008 177.739 31.1637 177.739 31.0204 177.739H30.983C28.2412 177.609 23.6364 175.45 21.929 173.745L21.6611 173.453C21.6522 173.398 21.6299 173.347 21.5962 173.304C21.5624 173.26 21.5183 173.226 21.4679 173.204C20.9819 172.582 20.9383 172.003 20.9133 170.815C21.1989 168.848 21.7721 166.934 22.6145 165.134C25.6553 169.67 32.8087 171.567 36.9026 172.295C36.4852 172.967 36.1487 173.527 35.9306 173.894V173.919ZM93.8249 147.396C88.9209 147.62 84.0107 146.774 79.2687 145.928C75.0315 145.187 70.6572 144.422 66.2953 144.422H66.233C59.3787 144.422 53.4092 147.433 47.9195 153.587C45.8382 155.914 41.7443 163.411 38.7533 168.886C38.1614 169.968 37.6255 170.945 37.1706 171.767C37.1264 171.713 37.0644 171.678 36.9961 171.667C32.9022 170.933 25.6553 169.017 22.8886 164.412C22.9634 164.251 23.0319 164.089 23.0943 163.933L23.3497 163.355C23.8233 162.254 24.2907 161.146 24.7642 160.032C26.2161 156.586 27.7178 153.027 29.4003 149.667C30.2602 147.95 31.0453 146.152 31.8055 144.41C34.5348 138.144 37.3575 131.674 44.3677 127.045H44.4113C51.8887 122.117 58.3505 117.861 67.2799 115.696C68.4596 115.41 69.6498 115.114 70.8503 114.807C78.2219 112.94 85.8427 111.036 93.3949 111.696C99.003 112.175 104.281 114.284 109.509 118.148L110.755 119.056C114.058 121.433 119.055 125.029 119.61 128.656C119.62 128.714 119.646 128.767 119.684 128.812C115.659 140.652 107.185 146.761 93.8249 147.371V147.396Z" fill="#17161B"/>
<path d="M18.9635 181.385C18.9635 181.429 18.9323 181.472 18.8202 181.472C18.465 181.472 17.7671 180.396 17.387 179.818C17.1814 179.506 17.0006 179.226 16.8262 179.009C17.1548 178.847 17.4751 178.668 17.7858 178.474C18.2781 179.052 19.1567 180.825 18.9635 181.385Z" fill="#F5F6F8"/>
<path d="M16.0716 182.338C15.5362 181.938 15.1081 181.412 14.8254 180.807C14.6322 180.49 14.4453 180.185 14.2334 179.887L14.9812 179.688C15.341 180.027 15.6244 180.438 15.8125 180.895C16.0005 181.352 16.0888 181.844 16.0716 182.338Z" fill="#F5F6F8"/>
<path d="M12.4698 182.505C12.4629 182.52 12.4524 182.533 12.4394 182.543C12.4264 182.552 12.4111 182.559 12.395 182.561C12.0648 182.655 11.3669 181.361 11.1114 180.875L10.8809 180.446C11.236 180.446 11.5912 180.378 11.9339 180.334C12.582 181.827 12.5571 182.337 12.4698 182.505Z" fill="#F5F6F8"/>
<path d="M8.87523 188.118C6.78995 188.16 4.70798 187.932 2.6814 187.44L2.41968 187.371C1.78864 187.25 1.18875 187.002 0.65625 186.643C0.67099 186.266 0.721052 185.891 0.805793 185.523C1.57223 182.077 3.92141 181.23 6.34536 180.863C7.5916 181.629 8.90016 185.218 8.99363 186.388C9.01187 186.967 8.97221 187.547 8.87523 188.118Z" fill="#F5F6F8"/>
<path d="M29.5131 188.024C29.3303 188.494 29.069 188.929 28.7405 189.312C27.5441 190.662 25.0017 190.413 22.9704 190.214C22.4033 190.158 21.8612 190.102 21.3876 190.09C19.3438 190.021 17.2875 190.002 15.2997 189.99H12.6265C11.8912 189.99 10.969 190.046 9.99071 190.114C6.94364 190.326 3.13637 190.594 1.4851 189.032C1.04613 188.609 0.764772 188.049 0.6875 187.445C1.18489 187.698 1.71258 187.886 2.25776 188.005L2.51324 188.074C4.6308 188.592 6.80801 188.826 8.98749 188.771H9.18066C10.5079 188.771 11.8289 188.727 13.1001 188.677H13.8167C15.2686 188.621 16.9323 188.715 18.6521 188.808C20.104 188.889 21.6244 188.976 23.1199 188.976C25.2904 189.036 27.4546 188.714 29.5131 188.024Z" fill="#17161B"/>
<path d="M29.7556 187.246C26.7584 188.572 22.4776 188.335 18.689 188.13C16.9318 188.037 15.2743 187.943 13.7912 187.993L13.0809 188.024C11.9157 188.061 10.7193 188.105 9.5104 188.111C9.6117 187.524 9.65139 186.927 9.62879 186.332C9.54156 185.287 8.52586 182.126 7.19238 180.732C7.90897 180.651 8.65673 180.595 9.37955 180.546L10.1709 180.483C10.3075 180.683 10.4324 180.891 10.5448 181.106C11.0308 182.026 11.6228 183.14 12.3581 183.14C12.4257 183.139 12.4928 183.129 12.5575 183.109C12.6623 183.083 12.76 183.034 12.843 182.965C12.9261 182.896 12.9925 182.809 13.0373 182.711C13.3052 182.138 12.9687 181.106 12.5824 180.178C12.9189 180.122 13.2367 180.073 13.542 180.004C13.8219 180.342 14.0682 180.707 14.2773 181.093C14.7882 181.958 15.3117 182.854 16.265 183.04H16.3274C16.3994 183.039 16.4688 183.013 16.525 182.968C16.5813 182.923 16.6213 182.861 16.6389 182.792C16.7265 182.193 16.6863 181.582 16.5209 181C16.3555 180.418 16.0687 179.877 15.6793 179.413L16.209 179.202C16.433 179.486 16.641 179.784 16.8321 180.091C17.4552 181.05 18.0783 182.039 18.8012 182.039C18.9606 182.043 19.117 181.995 19.2472 181.903C19.3774 181.811 19.4744 181.68 19.524 181.529C19.8293 180.664 18.8448 178.803 18.2777 178.057C18.6993 177.752 19.0915 177.408 19.4492 177.03C21.5554 181.037 25.9172 182.4 29.9239 183.196H29.9862C30.0817 184.55 30.0043 185.911 29.7556 187.246Z" fill="#8053FF"/>
<path d="M29.9858 182.623C25.9168 181.808 21.8852 180.514 19.9598 176.688C19.9415 176.659 19.9206 176.632 19.8975 176.607C20.5195 175.851 21.0352 175.014 21.4303 174.118L21.4802 174.18C23.2125 175.91 27.5743 178.007 30.5217 178.324C30.0674 179.709 29.8855 181.169 29.9858 182.623Z" fill="#FFC700"/>
<path d="M36.8775 172.258C36.4849 172.967 36.1609 173.502 35.9303 173.894L35.6624 174.336C34.4847 176.24 33.6372 177.621 31.4376 177.715C31.3005 177.715 31.1634 177.715 31.0201 177.715H30.9827C28.241 177.584 23.6361 175.425 21.9288 173.72L21.6608 173.428C21.652 173.374 21.6297 173.322 21.5959 173.279C21.5622 173.235 21.5181 173.201 21.4677 173.179C20.9816 172.557 20.938 171.978 20.9131 170.79C21.1987 168.823 21.7718 166.91 22.6142 165.109C25.6301 169.633 32.7836 171.53 36.8775 172.258Z" fill="#17161B"/>
<path d="M119.691 128.737C115.659 140.664 107.191 146.78 93.8249 147.371C88.9209 147.595 84.0107 146.749 79.2688 145.903C75.0315 145.162 70.6572 144.397 66.2954 144.397H66.233C59.3787 144.397 53.4092 147.408 47.9195 153.561C45.8383 155.888 41.7443 163.386 38.7534 168.861C38.1614 169.943 37.6255 170.92 37.1706 171.741C37.1264 171.688 37.0644 171.653 36.9961 171.642C32.9022 170.908 25.6553 168.991 22.8887 164.387C22.9634 164.226 23.032 164.064 23.0943 163.908L23.3498 163.33C23.8233 162.228 24.2907 161.121 24.7643 160.007C26.2162 156.56 27.7179 153.002 29.4003 149.642C30.2602 147.925 31.0453 146.126 31.8055 144.384C34.5348 138.119 37.3576 131.649 44.3677 127.02H44.4113C51.8888 122.092 58.3505 117.836 67.2799 115.671C68.4597 115.385 69.6498 115.088 70.8504 114.781C78.2219 112.915 85.8427 111.011 93.3949 111.671C99.003 112.15 104.281 114.259 109.509 118.122L110.755 119.031C114.058 121.408 119.055 125.004 119.61 128.631C119.629 128.671 119.657 128.707 119.691 128.737Z" fill="#E0D5FF"/>
<path d="M96.8033 129.608C96.734 129.609 96.6663 129.587 96.611 129.546C96.5557 129.504 96.5159 129.445 96.4979 129.378C95.719 126.628 96.3546 123.026 97.3329 120.668C97.3486 120.63 97.3717 120.595 97.401 120.566C97.4302 120.537 97.465 120.513 97.5033 120.498C97.5416 120.482 97.5826 120.474 97.624 120.475C97.6653 120.475 97.7062 120.484 97.7442 120.5C97.822 120.533 97.8838 120.595 97.9164 120.673C97.949 120.751 97.9498 120.838 97.9187 120.917C96.984 123.163 96.3671 126.591 97.1086 129.198C97.1317 129.279 97.1217 129.365 97.0808 129.439C97.0399 129.512 96.9715 129.567 96.8905 129.59C96.863 129.602 96.8333 129.608 96.8033 129.608Z" fill="#EEEEEE"/>
<path d="M31.0577 170.125C31.0248 170.131 30.991 170.131 30.958 170.125C30.9182 170.111 30.8815 170.09 30.8499 170.063C30.8183 170.035 30.7924 170.001 30.7739 169.964C30.7554 169.926 30.7445 169.885 30.7418 169.843C30.7392 169.802 30.7449 169.76 30.7586 169.72C30.9269 169.222 31.1013 168.669 31.2758 168.115C31.5687 167.182 31.8989 166.217 32.142 165.564C32.8074 164.022 33.5734 162.526 34.435 161.084C34.8775 160.313 35.3261 159.516 35.7374 158.726C38.7346 152.94 41.5636 147.782 45.8257 143.284C51.0412 137.784 56.6057 135.818 64.4508 134.2C68.779 133.405 73.1473 132.846 77.5364 132.527C84.316 131.904 90.7154 131.332 96.6912 129.011C100.546 127.543 104.052 125.289 106.985 122.391C107.045 122.332 107.125 122.299 107.209 122.299C107.294 122.299 107.374 122.332 107.434 122.391C107.463 122.42 107.486 122.455 107.502 122.493C107.518 122.531 107.526 122.571 107.526 122.612C107.526 122.653 107.518 122.694 107.502 122.732C107.486 122.77 107.463 122.804 107.434 122.833C104.438 125.791 100.858 128.095 96.9218 129.596C90.865 131.948 84.4219 132.533 77.605 133.155C73.2408 133.47 68.8973 134.025 64.5942 134.816C56.8737 136.378 51.4027 138.338 46.3055 143.713C42.0994 148.149 39.2954 153.264 36.3356 159.013C35.9243 159.809 35.4632 160.611 35.0208 161.389C34.1778 162.809 33.4245 164.28 32.7651 165.794C32.5096 166.416 32.2105 167.381 31.9176 168.283C31.7431 168.837 31.5687 169.397 31.3942 169.901C31.374 169.972 31.329 170.033 31.2673 170.074C31.2056 170.116 31.1313 170.133 31.0577 170.125Z" fill="#17161B"/>
<path d="M133.487 120.779C133.415 120.774 133.344 120.797 133.288 120.842C131.312 117.563 125.742 115.547 121.99 114.191C121.473 113.998 120.981 113.824 120.545 113.656C114.314 111.304 108.487 110.694 102.798 111.789C102.618 111.82 102.431 111.857 102.25 111.901C94.8597 113.456 88.13 117.339 81.6059 121.09C80.5279 121.713 79.4623 122.335 78.3906 122.957C70.2401 127.561 65.1181 133.497 59.186 140.378L59.1486 140.421C53.5031 146.973 52.5372 154.109 51.6026 161.034C51.3471 162.901 51.0854 164.873 50.724 166.752C50.0198 170.485 49.54 174.367 49.0789 178.113C48.9294 179.32 48.7798 180.527 48.624 181.721L48.543 182.343C48.543 182.443 48.543 182.555 48.4994 182.655L48.4122 182.711C48.3543 182.771 48.322 182.851 48.322 182.935C48.322 183.018 48.3543 183.098 48.4122 183.159C48.1567 185.149 47.895 187.75 48.2751 189.747C48.272 189.768 48.272 189.789 48.2751 189.81C48.2772 189.832 48.2772 189.855 48.2751 189.878C48.3876 190.453 48.5984 191.004 48.8982 191.508C48.923 191.542 48.9549 191.569 48.9917 191.589C49.1901 191.889 49.4414 192.15 49.7332 192.36C49.6147 193.756 49.1738 195.104 48.4451 196.3C47.7163 197.497 46.7196 198.508 45.5334 199.254C45.4661 199.249 45.399 199.266 45.3419 199.302C45.2848 199.338 45.2405 199.391 45.2156 199.453C44.9289 199.634 44.6361 199.814 44.3245 199.982C44.2665 199.976 44.2081 199.988 44.1562 200.014C44.1043 200.04 44.0611 200.081 44.0316 200.131C43.6578 200.331 43.2652 200.523 42.8166 200.71C42.3679 200.897 42.0252 201.052 41.6015 201.208C41.1777 201.363 40.6792 201.55 40.2181 201.718C39.2772 202.06 38.3051 202.409 37.4141 202.807C35.0275 203.883 32.6223 205.513 32.8466 209.52C32.8677 209.94 32.9282 210.356 33.0273 210.764C33.0208 210.811 33.0242 210.858 33.037 210.903C33.0499 210.948 33.0721 210.99 33.1021 211.026C33.2172 211.491 33.4287 211.926 33.7227 212.304C34.0168 212.683 34.387 212.995 34.8094 213.222C35.488 213.551 36.2363 213.711 36.9904 213.689C39.1152 213.689 41.6825 212.755 43.8447 211.971C44.7607 211.648 45.6268 211.349 46.3372 211.15L48.9294 210.435C50.8611 209.906 52.8488 209.358 54.849 208.861C55.2977 208.749 55.8211 208.655 56.3757 208.556C58.5566 208.164 61.2547 207.672 62.1769 205.75C62.5246 205.009 62.6932 204.197 62.6692 203.379V203.329C62.5673 201.876 62.2653 200.444 61.7719 199.074C61.2298 197.332 60.7313 195.683 60.9619 194.165L61.2298 194.096C63.66 193.294 64.1896 191.409 64.8065 189.225L64.9436 188.727C65.2302 187.744 65.7038 185.666 66.302 183.04C67.6106 177.285 69.5859 168.593 70.9256 165.825C74.5148 158.421 79.2256 154.109 85.7621 152.243C89.9495 151.048 94.3986 150.588 98.6982 150.146C103.565 149.648 108.593 149.132 113.348 147.545C123.854 144.042 130.347 137.647 132.739 128.476C133.356 126.058 133.699 123.579 133.761 121.084C133.76 121.009 133.732 120.936 133.682 120.88C133.631 120.824 133.562 120.788 133.487 120.779ZM48.0196 197.991C48.6427 198.414 50.0136 199.895 49.9762 200.48C49.9762 200.53 49.9762 200.573 49.8578 200.604C49.5151 200.716 48.5306 199.858 47.9885 199.397C47.7018 199.148 47.4463 198.924 47.2158 198.775C47.4977 198.528 47.7661 198.267 48.0196 197.991ZM45.6704 199.957C46.1115 200.189 46.498 200.512 46.8042 200.905C47.1104 201.297 47.3293 201.751 47.4463 202.234C46.8174 201.994 46.2585 201.6 45.82 201.09C45.5573 200.832 45.2806 200.589 44.9912 200.362C45.2218 200.231 45.4524 200.094 45.6704 199.957ZM42.8851 201.401C43.9195 202.676 44.0316 203.174 44.0005 203.354C44.0005 203.404 44.0005 203.423 43.9444 203.435C43.6391 203.622 42.6172 202.558 42.2308 202.153L41.8881 201.805C42.2308 201.674 42.5611 201.538 42.8851 201.401ZM33.5383 209.489C33.3326 205.93 35.364 204.468 37.6259 203.441C39.0716 203.833 41.3024 206.963 41.7199 208.07C41.8947 208.628 42.0158 209.201 42.0813 209.781C40.0714 210.399 37.989 210.751 35.8874 210.827H35.6133C34.9674 210.883 34.3168 210.809 33.7003 210.609C33.6025 210.244 33.5399 209.871 33.5133 209.495L33.5383 209.489ZM61.666 205.482C60.8809 207.125 58.351 207.579 56.3258 207.971C55.7526 208.07 55.2167 208.17 54.7493 208.288C52.7429 208.78 50.7489 209.333 48.8234 209.862L46.225 210.572C45.5084 210.764 44.6298 211.082 43.7014 211.418C40.8039 212.457 37.2022 213.757 35.1584 212.699C34.6074 212.414 34.1765 211.942 33.9433 211.368C34.3518 211.462 34.7703 211.506 35.1895 211.499H35.6444H35.9123C38.1477 211.404 40.3605 211.012 42.4925 210.335C43.7948 209.968 45.066 209.557 46.2936 209.159L46.979 208.935C48.3748 208.487 49.9887 208.126 51.7085 207.741C55.3101 206.932 59.3604 206.017 62.0399 204.051C61.9893 204.549 61.8545 205.035 61.6411 205.488L61.666 205.482ZM61.2173 199.26C61.6689 200.53 61.9599 201.851 62.0835 203.193C59.5411 205.302 55.3226 206.254 51.5901 207.087C49.8641 207.479 48.2315 207.846 46.8107 208.332L46.1253 208.549C45.0099 208.91 43.8572 209.277 42.6919 209.613C42.6231 209.017 42.4958 208.43 42.3118 207.859C41.9442 206.87 40.081 204.076 38.4111 203.112C39.0903 202.838 39.8006 202.577 40.4923 202.328L41.2401 202.054C41.4318 202.216 41.6109 202.393 41.7759 202.583C42.4364 203.261 43.2216 204.076 43.8945 204.076C44.0302 204.074 44.1631 204.037 44.2809 203.97C44.3741 203.914 44.4538 203.838 44.5142 203.748C44.5745 203.658 44.614 203.555 44.6298 203.448C44.7358 202.825 44.1251 201.917 43.4895 201.121C43.8011 200.978 44.1126 200.834 44.3744 200.685C44.7391 200.937 45.0791 201.222 45.39 201.538C46.0817 202.203 46.8045 202.881 47.7018 202.881H47.8576C47.9391 202.872 48.014 202.832 48.0672 202.77C48.1204 202.707 48.1479 202.627 48.1442 202.545C48.0614 201.941 47.8521 201.36 47.5301 200.841C47.2081 200.323 46.7804 199.877 46.2749 199.534L46.736 199.186C47.0322 199.396 47.3152 199.625 47.5834 199.87C48.3623 200.554 49.1599 201.245 49.808 201.245C49.8905 201.246 49.9725 201.233 50.051 201.208C50.2063 201.168 50.3446 201.079 50.4456 200.955C50.5466 200.831 50.6048 200.677 50.6118 200.517C50.6679 199.59 49.2036 198.06 48.4247 197.5C48.7464 197.085 49.032 196.644 49.2783 196.181C51.7334 198.763 55.0796 199.403 58.3884 199.403C59.3106 199.403 60.2577 199.354 61.1301 199.279L61.2173 199.26ZM61.0304 198.638C56.8617 198.962 52.612 198.819 49.6771 195.639C49.6533 195.615 49.626 195.594 49.5961 195.577C49.989 194.666 50.2533 193.705 50.3812 192.721L50.4498 192.765C52.1821 193.723 55.5906 194.451 58.3946 194.451C59.0542 194.456 59.7131 194.404 60.3637 194.295C60.2892 195.781 60.5073 197.267 61.0055 198.669L61.0304 198.638ZM64.3953 188.54L64.252 189.044C63.6288 191.216 63.1989 192.777 61.0865 193.48C60.9541 193.525 60.8188 193.56 60.6815 193.586H60.6441C57.9397 194.208 52.8924 193.387 50.7614 192.199L50.4186 191.993C50.3998 191.941 50.3664 191.895 50.3222 191.861C50.2781 191.826 50.225 191.806 50.1694 191.801C49.5151 191.303 49.3095 190.774 48.9668 189.629C48.7014 187.643 48.7287 185.628 49.0478 183.65C52.0948 186.238 56.8492 186.885 60.831 186.885C62.1838 186.884 63.5357 186.813 64.8813 186.674C64.6507 187.52 64.4887 188.155 64.3703 188.559L64.3953 188.54ZM132.316 127.841C130.122 137.118 123.822 143.395 113.204 146.936C108.512 148.497 103.521 149.007 98.6919 149.505C94.3301 149.953 89.8872 150.414 85.6063 151.627C78.9888 153.493 74.0038 158.06 70.3772 165.539C69.0064 168.369 67.0996 176.738 65.7038 182.885C65.4296 184.098 65.1804 185.193 64.9685 186.12C64.9229 186.088 64.8685 186.071 64.8128 186.07C62.8298 186.274 60.834 186.324 58.8433 186.22H58.4444C55.0422 185.971 51.4592 185.118 49.135 182.935C49.135 182.76 49.1786 182.592 49.2036 182.424L49.2845 181.802C49.4403 180.608 49.5899 179.401 49.7394 178.194C50.2005 174.461 50.6741 170.591 51.3845 166.87C51.7397 164.972 52.0076 163.013 52.2631 161.115C53.1853 154.271 54.1324 147.24 59.6658 140.832L59.6969 140.795C65.5854 133.951 70.6763 128.065 78.7395 123.517C79.8071 122.911 80.8789 122.289 81.9549 121.65C88.4353 117.917 95.1276 114.066 102.424 112.529C102.599 112.486 102.773 112.455 102.948 112.424C108.556 111.341 114.214 111.938 120.352 114.247L121.81 114.782C125.673 116.182 131.506 118.291 133.026 121.663C133.051 121.714 133.09 121.757 133.138 121.787C133.042 123.837 132.758 125.874 132.291 127.872L132.316 127.841Z" fill="#17161B"/>
<path d="M133.125 121.787C132.502 134.461 125.972 142.705 113.186 146.967C108.493 148.528 103.502 149.038 98.673 149.536C94.3111 149.984 89.8683 150.444 85.5874 151.658C78.9699 153.524 73.9849 158.091 70.3583 165.569C68.9875 168.4 67.0807 176.769 65.6849 182.916C65.4107 184.129 65.1615 185.224 64.9496 186.151C64.9129 186.111 64.8652 186.083 64.8125 186.07C60.6127 186.487 53.0729 186.605 49.1348 182.903C49.1348 182.729 49.1784 182.561 49.2033 182.393L49.2843 181.771C49.4401 180.576 49.5896 179.369 49.7392 178.162C50.2003 174.429 50.6739 170.559 51.3842 166.839C51.7394 164.941 52.0074 162.981 52.2628 161.084C53.1851 154.24 54.1322 147.209 59.6655 140.801L59.6967 140.763C65.5852 133.92 70.6761 128.034 78.7393 123.486C79.8069 122.88 80.8787 122.258 81.9546 121.619C88.5909 117.799 95.4514 113.848 102.948 112.392C108.556 111.31 114.214 111.907 120.351 114.215L121.809 114.75C125.673 116.15 131.505 118.259 133.026 121.632C133.042 121.692 133.077 121.747 133.125 121.787Z" fill="#E0D5FF"/>
<path d="M64.8127 186.724C64.6258 187.52 64.4638 188.155 64.3454 188.59L64.2021 189.094C63.5789 191.266 63.149 192.827 61.0366 193.531C60.9043 193.575 60.7689 193.611 60.6316 193.636H60.5942C57.8898 194.258 52.8425 193.437 50.7115 192.249L50.3688 192.044C50.35 191.991 50.3165 191.945 50.2723 191.911C50.2282 191.877 50.1752 191.856 50.1195 191.851C49.4652 191.353 49.2596 190.824 48.9169 189.679C48.6515 187.693 48.6788 185.679 48.9979 183.7C52.0449 186.288 56.7994 186.936 60.7811 186.936C62.1277 186.933 63.4733 186.862 64.8127 186.724Z" fill="#17161B"/>
<path d="M61.0046 198.67C56.8359 198.993 52.5862 198.85 49.6513 195.671C49.6275 195.646 49.6002 195.625 49.5703 195.609C49.9632 194.698 50.2275 193.737 50.3554 192.753L50.424 192.796C52.1563 193.755 55.5647 194.483 58.3688 194.483C59.0284 194.488 59.6873 194.436 60.3379 194.327C60.2755 195.804 60.5019 197.279 61.0046 198.67Z" fill="#FFC700"/>
<path d="M49.9753 200.493C49.9753 200.542 49.9753 200.586 49.8569 200.617C49.5142 200.729 48.5296 199.87 47.9875 199.41C47.7009 199.161 47.4454 198.937 47.2148 198.788C47.4904 198.541 47.7525 198.279 48 198.004C48.6667 198.415 50.0127 199.895 49.9753 200.493Z" fill="#F5F6F8"/>
<path d="M47.4453 202.247C46.8164 202.006 46.2575 201.613 45.819 201.102C45.5563 200.844 45.2796 200.601 44.9902 200.374C45.2208 200.243 45.4513 200.107 45.6694 199.97C46.1105 200.202 46.497 200.525 46.8032 200.917C47.1094 201.31 47.3283 201.763 47.4453 202.247Z" fill="#F5F6F8"/>
<path d="M42.0554 209.788C40.0456 210.405 37.9632 210.757 35.8616 210.833H35.5874C34.9416 210.89 34.2909 210.815 33.6744 210.615C33.5843 210.246 33.53 209.869 33.5124 209.489C33.3068 205.93 35.3382 204.468 37.6001 203.441C39.0457 203.833 41.2765 206.963 41.694 208.07C41.8693 208.63 41.9903 209.205 42.0554 209.788Z" fill="#F5F6F8"/>
<path d="M44.0001 203.354C44.0001 203.404 44.0001 203.422 43.944 203.435C43.6387 203.622 42.6168 202.558 42.2304 202.153L41.8877 201.805C42.2304 201.674 42.5607 201.537 42.8847 201.4C43.9191 202.676 44.0312 203.174 44.0001 203.354Z" fill="#F5F6F8"/>
<path d="M62.0581 203.211C59.5158 205.32 55.2973 206.272 51.5648 207.106C49.8387 207.498 48.2062 207.865 46.7854 208.35L46.1 208.568C44.9846 208.929 43.8318 209.296 42.6666 209.632C42.5978 209.036 42.4705 208.448 42.2865 207.877C41.9189 206.888 40.0557 204.095 38.3857 203.13C39.0649 202.856 39.7753 202.595 40.467 202.346L41.2147 202.073C41.4065 202.235 41.5856 202.412 41.7506 202.601C42.4111 203.28 43.1963 204.095 43.8692 204.095C44.0049 204.092 44.1378 204.056 44.2556 203.989C44.3488 203.933 44.4285 203.857 44.4888 203.767C44.5492 203.676 44.5887 203.574 44.6045 203.466C44.7104 202.844 44.0998 201.936 43.4642 201.139C43.7757 200.996 44.0873 200.853 44.349 200.704C44.7137 200.955 45.0538 201.241 45.3647 201.556C46.0564 202.222 46.7792 202.9 47.6765 202.9H47.8323C47.9138 202.891 47.9887 202.851 48.0419 202.788C48.0951 202.726 48.1226 202.646 48.1189 202.564C48.036 201.959 47.8268 201.379 47.5048 200.86C47.1827 200.341 46.7551 199.896 46.2495 199.553L46.7107 199.204C47.0069 199.415 47.2899 199.644 47.5581 199.889C48.337 200.573 49.1346 201.264 49.7827 201.264C49.8651 201.264 49.9472 201.252 50.0257 201.226C50.1809 201.187 50.3193 201.098 50.4202 200.974C50.5212 200.849 50.5795 200.696 50.5865 200.536C50.6426 199.609 49.1782 198.078 48.3993 197.518C48.7211 197.104 49.0067 196.662 49.253 196.199C51.7081 198.781 55.0543 199.422 58.363 199.422C59.2853 199.422 60.2324 199.372 61.1048 199.298H61.1671C61.6257 200.56 61.925 201.875 62.0581 203.211Z" fill="#8053FF"/>
<path d="M62.0395 204.039C61.9903 204.541 61.8555 205.032 61.6407 205.489C60.8555 207.131 58.3257 207.585 56.3005 207.977C55.7272 208.077 55.1914 208.177 54.724 208.295C52.7176 208.786 50.7236 209.34 48.7981 209.869L46.1997 210.578C45.4831 210.771 44.6045 211.088 43.676 211.424C40.7785 212.463 37.1769 213.764 35.133 212.706C34.5821 212.421 34.1512 211.949 33.918 211.374C34.3264 211.469 34.745 211.513 35.1642 211.505H35.6191H35.887C38.131 211.41 40.3524 211.017 42.4921 210.335C43.7944 209.968 45.0656 209.558 46.2932 209.16L46.9786 208.936C48.3744 208.488 49.9883 208.127 51.7081 207.741C55.3097 206.92 59.36 205.98 62.0395 204.039Z" fill="#17161B"/>
<path d="M111.203 128.968C111.149 128.972 111.094 128.962 111.044 128.938C110.995 128.914 110.953 128.877 110.923 128.831C109.409 126.342 109.054 122.709 109.334 120.17C109.331 120.124 109.339 120.078 109.356 120.035C109.373 119.992 109.399 119.954 109.433 119.922C109.466 119.89 109.506 119.866 109.55 119.852C109.594 119.837 109.64 119.832 109.686 119.837C109.732 119.842 109.776 119.857 109.816 119.881C109.855 119.905 109.889 119.937 109.915 119.975C109.941 120.013 109.958 120.057 109.965 120.102C109.972 120.148 109.97 120.194 109.957 120.239C109.67 122.677 110.019 126.174 111.453 128.501C111.475 128.536 111.491 128.575 111.498 128.616C111.505 128.657 111.504 128.699 111.495 128.74C111.486 128.78 111.468 128.819 111.444 128.853C111.419 128.886 111.389 128.915 111.353 128.936C111.306 128.958 111.255 128.969 111.203 128.968Z" fill="#17161B"/>
<path d="M58.6307 186.301C58.5892 186.299 58.5485 186.289 58.5109 186.272C58.4733 186.254 58.4396 186.23 58.4117 186.199C58.3838 186.168 58.3624 186.132 58.3486 186.093C58.3349 186.054 58.3291 186.013 58.3316 185.971C58.3316 185.436 58.3753 184.851 58.3939 184.26C58.3939 183.277 58.45 182.263 58.531 181.56C58.7507 179.881 59.0816 178.218 59.5218 176.583C59.7337 175.718 59.9518 174.816 60.1449 173.945C61.4535 167.511 62.7745 161.731 65.672 156.206C69.2113 149.443 74.053 145.978 81.2501 142.282C85.2234 140.324 89.3004 138.584 93.4632 137.068C99.8689 134.611 105.926 132.29 111.066 128.401C114.399 125.919 117.177 122.77 119.223 119.156C119.266 119.083 119.336 119.03 119.417 119.008C119.499 118.986 119.586 118.997 119.659 119.038C119.732 119.079 119.784 119.148 119.807 119.228C119.829 119.308 119.818 119.394 119.778 119.467C117.688 123.155 114.853 126.369 111.453 128.905C106.225 132.85 100.137 135.189 93.6938 137.659C89.5494 139.166 85.491 140.898 81.5367 142.848C74.483 146.482 69.6974 149.885 66.2577 156.499C63.3976 161.949 62.0891 167.698 60.7867 174.069C60.606 174.959 60.3879 175.861 60.1636 176.732C59.733 178.341 59.4062 179.977 59.1853 181.628C59.1168 182.307 59.0856 183.308 59.0607 184.279C59.0607 184.87 59.0233 185.467 58.9984 186.002C58.9963 186.047 58.9848 186.091 58.9647 186.13C58.9445 186.17 58.9162 186.206 58.8815 186.234C58.8468 186.262 58.8065 186.282 58.7633 186.294C58.7201 186.306 58.6749 186.308 58.6307 186.301Z" fill="#17161B"/>
<g style="mix-blend-mode:multiply" opacity="0.3">
<path d="M133.792 121.103C133.73 123.597 133.388 126.077 132.771 128.494C132.621 128.283 132.459 128.077 132.291 127.872C123.66 117.127 102.474 112.84 102.474 112.84L102.393 112.529L102.25 111.907C102.431 111.864 102.618 111.826 102.798 111.795C108.487 110.688 114.295 111.297 120.545 113.662C120.981 113.83 121.473 114.004 121.991 114.197C125.729 115.553 131.337 117.569 133.288 120.848C133.344 120.803 133.415 120.781 133.487 120.786C133.528 120.786 133.568 120.795 133.606 120.812C133.643 120.828 133.677 120.852 133.706 120.881C133.734 120.911 133.756 120.945 133.771 120.983C133.786 121.021 133.793 121.062 133.792 121.103Z" fill="#958F9F"/>
</g>
<path d="M108.088 56.534C107.109 55.5759 105.595 55.4452 103.508 56.1482C92.9146 61.3994 87.1383 78.391 83.275 92.6138C81.7732 98.1325 80.1594 100.858 74.0091 103.402C72.1455 104.137 70.2344 104.746 68.2889 105.225C65.5596 105.947 62.9799 106.638 60.288 108.274C59.6972 108.604 59.149 109.006 58.6554 109.469C58.5944 109.451 58.5295 109.451 58.4685 109.469C58.1375 109.607 57.7804 109.673 57.4216 109.661C56.8493 109.624 56.284 109.804 55.8389 110.165C54.4618 107.758 53.2405 106.463 52.1002 106.19C51.8686 106.129 51.6268 106.12 51.3912 106.162C51.1557 106.204 50.932 106.296 50.7355 106.432C49.751 107.092 49.9068 109.17 50.0065 109.948C49.3509 110.087 48.6869 110.182 48.0187 110.234C46.4048 110.396 44.5791 110.582 43.1147 111.839C41.8062 112.965 41.102 114.328 41.1706 115.522C41.2148 116.005 41.3713 116.471 41.6277 116.882C41.8841 117.294 42.2333 117.64 42.6474 117.893C44.4669 119.137 46.8098 119.554 49.3896 119.554C51.8479 119.499 54.2972 119.237 56.7113 118.77H56.8483C57.147 118.733 57.4387 118.654 57.7145 118.534C57.7573 118.513 57.7951 118.484 57.8253 118.447C57.8554 118.411 57.8772 118.368 57.889 118.322C58.2181 118.411 58.5576 118.455 58.8984 118.453C59.5546 118.483 60.2051 118.318 60.7678 117.98C62.803 119.373 65.231 120.079 67.6969 119.996C68.3512 119.996 69.0055 119.996 69.6535 119.996H72.146C76.3334 119.996 80.3837 119.797 84.6084 118.409C92.2479 115.92 97.4011 109.114 99.9248 98.2445C102.05 89.0675 103.558 82.8022 106.574 73.0589C106.648 72.8038 106.748 72.5052 106.848 72.1817C108.119 68.0318 110.923 59.2778 108.088 56.534ZM56.7113 118.173H56.5679C53.1158 118.795 46.679 119.909 42.9776 117.395C42.6421 117.202 42.3574 116.932 42.1472 116.608C41.937 116.283 41.8073 115.913 41.7688 115.528C41.7127 114.521 42.3608 113.332 43.4948 112.355C44.8096 111.229 46.4547 111.061 48.0499 110.906C48.8487 110.848 49.6409 110.721 50.4177 110.526H50.4551L50.5112 110.495L50.5548 110.452C50.5723 110.44 50.5872 110.426 50.5984 110.408V110.352C50.602 110.331 50.602 110.31 50.5984 110.29C50.6046 110.272 50.6046 110.252 50.5984 110.234C50.5984 110.234 50.5984 110.203 50.5984 110.19C50.4177 109.139 50.4239 107.409 51.0159 107.017C51.1401 106.93 51.2821 106.87 51.4317 106.843C51.5814 106.817 51.7351 106.823 51.8821 106.862C52.5426 107.017 53.6642 107.801 55.2843 110.657C55.312 110.707 55.353 110.747 55.4027 110.775C55.0351 111.702 55.4027 113.052 55.7143 114.147C55.789 114.433 55.8638 114.695 55.9074 114.913C55.951 115.13 56.0009 115.429 56.0383 115.678C56.1629 116.568 56.3 117.482 57.1848 118.067C57.0288 118.11 56.8707 118.145 56.7113 118.173ZM57.6833 117.607C56.9356 117.19 56.8359 116.48 56.7113 115.584C56.6739 115.323 56.6302 115.043 56.5679 114.769C56.5056 114.496 56.4495 114.272 56.3623 113.973C56.0881 112.99 55.7392 111.64 56.057 110.931C56.3062 110.42 56.7175 110.377 57.4216 110.308C57.6302 110.305 57.8383 110.288 58.0447 110.259C57.9191 110.524 57.827 110.804 57.7706 111.092C57.746 111.134 57.7331 111.181 57.7332 111.229C57.7301 111.267 57.7301 111.304 57.7332 111.341C57.6641 111.878 57.6641 112.422 57.7332 112.959C57.7406 113.043 57.7808 113.122 57.8453 113.177C58.0699 114.669 58.7512 116.055 59.7957 117.146C59.9328 117.291 60.0761 117.428 60.2257 117.557C59.4196 117.918 58.503 117.945 57.6771 117.631L57.6833 117.607ZM106.187 72.0448C106.087 72.3745 105.988 72.667 105.907 72.9283C102.891 82.6902 101.377 88.9679 99.2518 98.1574C96.7593 108.79 91.7743 115.423 84.3529 117.862C79.368 119.492 74.6447 119.448 69.6161 119.405C68.993 119.405 68.32 119.405 67.6595 119.405C64.5003 119.405 61.8645 118.453 60.2319 116.754C59.5722 116.039 59.066 115.196 58.7445 114.278C58.423 113.36 58.293 112.386 58.3625 111.416C58.5432 110.228 59.2411 109.68 60.6058 108.853C63.2167 107.266 65.7528 106.582 68.4384 105.872C70.4123 105.382 72.3505 104.759 74.2397 104.006C80.6329 101.355 82.3403 98.5307 83.8732 92.8067C87.7054 78.7269 93.4318 61.9034 103.757 56.7518C105.564 56.1296 106.873 56.2291 107.67 57.0006C110.175 59.4582 107.377 68.2806 106.181 72.0448H106.187Z" fill="#17161B"/>
<path d="M57.2228 118.061C57.0525 118.107 56.8798 118.145 56.7056 118.173H56.5623C53.1102 118.795 46.6733 119.909 42.972 117.395C42.6365 117.202 42.3518 116.932 42.1416 116.608C41.9313 116.283 41.8016 115.913 41.7631 115.529C41.707 114.521 42.3551 113.332 43.4892 112.355C44.804 111.229 46.449 111.061 48.0442 110.906C48.843 110.848 49.6353 110.721 50.4121 110.526H50.4495L50.5055 110.495L50.5491 110.452C50.5667 110.44 50.5816 110.426 50.5928 110.408V110.352C50.5964 110.332 50.5964 110.31 50.5928 110.29C50.5989 110.272 50.5989 110.252 50.5928 110.234C50.5928 110.234 50.5928 110.203 50.5928 110.19C50.4121 109.139 50.4183 107.409 51.0103 107.017C51.1345 106.93 51.2764 106.87 51.426 106.844C51.5757 106.817 51.7294 106.823 51.8764 106.862C52.5369 107.017 53.6585 107.801 55.2787 110.657C55.3063 110.707 55.3473 110.748 55.397 110.775C55.0294 111.702 55.397 113.052 55.7086 114.147C55.7834 114.434 55.8582 114.695 55.9018 114.913C55.9454 115.13 55.9952 115.429 56.0326 115.678C56.2009 116.561 56.338 117.476 57.2228 118.061Z" fill="#FFE1D9"/>
<path d="M60.2012 117.588C59.3925 117.918 58.4863 117.918 57.6776 117.588C56.9298 117.171 56.8301 116.462 56.7055 115.566C56.6681 115.305 56.6245 115.025 56.5622 114.751C56.4999 114.477 56.4438 114.253 56.3565 113.955C56.0824 112.972 55.7334 111.621 56.0512 110.912C56.3005 110.402 56.7117 110.358 57.4159 110.29C57.6244 110.287 57.8325 110.27 58.039 110.24C57.9134 110.506 57.8213 110.786 57.7648 111.074C57.7402 111.115 57.7273 111.163 57.7274 111.211C57.7243 111.248 57.7243 111.286 57.7274 111.323C57.6584 111.86 57.6584 112.403 57.7274 112.94C57.7348 113.025 57.7751 113.103 57.8396 113.158C58.0642 114.651 58.7454 116.037 59.79 117.128C59.9146 117.306 60.0517 117.46 60.2012 117.588Z" fill="#F8485E"/>
<path d="M106.181 72.0451C106.081 72.3748 105.981 72.6672 105.9 72.9286C102.884 82.6905 101.37 88.9682 99.2454 98.1577C96.7529 108.791 91.7679 115.423 84.3465 117.862C79.3615 119.492 74.6383 119.448 69.6097 119.405C68.9866 119.405 68.3136 119.405 67.6531 119.405C64.4938 119.405 61.858 118.453 60.2255 116.754C59.5657 116.039 59.0595 115.196 58.7381 114.278C58.4166 113.36 58.2866 112.386 58.3561 111.416C58.5368 110.228 59.2347 109.68 60.5993 108.853C63.2102 107.266 65.7463 106.582 68.432 105.873C70.4059 105.383 72.3441 104.759 74.2332 104.006C80.6265 101.356 82.3338 98.531 83.8667 92.807C87.6989 78.7272 93.4254 61.9036 103.751 56.752C105.558 56.1299 106.866 56.2294 107.664 57.0009C110.175 59.4585 107.377 68.2809 106.181 72.0451Z" fill="#8053FF"/>
<path d="M94.3415 121.943C94.3325 121.888 94.3086 121.837 94.2722 121.795C94.2359 121.754 94.1887 121.723 94.1359 121.706L66.6811 112.61C64.5625 102.861 62.4128 93.0986 62.1884 92.744C62.0576 92.5387 61.8769 92.2525 46.1119 89.5896C38.3976 88.2892 30.6211 87.0387 30.5338 87.0262C30.3075 86.9967 30.0774 87.0195 29.8614 87.0928C29.6453 87.1662 29.4489 87.2881 29.2876 87.4493C29.1391 87.6329 29.0322 87.8464 28.9741 88.0752C28.916 88.3039 28.9082 88.5425 28.9511 88.7745C29.0695 90.0189 35.2633 115.304 35.712 117.158C35.663 117.352 35.5875 117.538 35.4876 117.712C35.2322 118.16 35.6746 119.373 35.9612 120.057C35.9776 120.097 36.0022 120.132 36.0334 120.161C36.0646 120.19 36.1016 120.212 36.1419 120.225C43.6194 123.137 67.9586 132.613 68.3449 132.669C68.5668 132.687 68.7897 132.687 69.0116 132.669C69.535 132.669 70.1457 132.669 70.1457 132.669H70.1831H70.2454C77.3801 130.031 94.0051 123.871 94.2605 123.703C94.3166 123.616 94.6406 123.405 94.3415 121.943ZM69.7968 132.047H68.9867C68.6128 132.047 68.4633 132.047 68.4321 132.047C67.809 131.873 47.327 123.915 36.4722 119.69C36.2274 119.164 36.0716 118.6 36.0111 118.023C36.1593 117.77 36.2666 117.495 36.3289 117.208C36.3352 117.167 36.3352 117.125 36.3289 117.083C34.0295 107.689 29.6552 89.6767 29.5618 88.7123C29.5301 88.5679 29.5293 88.4185 29.5593 88.2738C29.5894 88.129 29.6497 87.9923 29.7362 87.8724C29.8339 87.7879 29.9479 87.7244 30.0712 87.6859C30.1945 87.6474 30.3244 87.6346 30.4528 87.6484C42.3233 89.5522 60.2069 92.5511 61.6775 93.136C62.2383 94.8905 67.6968 120.213 69.778 130.043L69.7968 132.047ZM68.0271 118.875L81.9102 123.971L69.9027 127.617C69.3917 125.271 68.7374 122.216 68.0271 118.875ZM70.0335 128.239L83.0007 124.301C83.0644 124.282 83.1205 124.244 83.1609 124.191C83.2012 124.139 83.2237 124.074 83.225 124.008C83.2253 123.942 83.2051 123.877 83.1672 123.822C83.1293 123.768 83.0756 123.726 83.0132 123.703L67.8651 118.141C67.5224 116.567 67.1734 114.943 66.8182 113.307L92.7526 121.893L70.3825 129.875C70.2828 129.409 70.1644 128.861 70.0335 128.258V128.239ZM93.8181 123.15C92.6217 123.641 78.346 128.942 70.4012 131.86V130.522L93.7247 122.235H93.7558C93.821 122.542 93.8419 122.856 93.8181 123.168V123.15Z" fill="#17161B"/>
<path d="M93.8193 123.169C92.6229 123.66 78.3472 128.961 70.4023 131.879V130.541L93.7258 122.235H93.757C93.8221 122.542 93.8431 122.856 93.8193 123.169Z" fill="#F5F6F8"/>
<path d="M66.8184 113.326C67.1735 114.962 67.5225 116.586 67.8652 118.16L83.0133 123.723C83.0757 123.746 83.1294 123.787 83.1673 123.842C83.2052 123.896 83.2254 123.961 83.2252 124.028C83.2238 124.094 83.2013 124.158 83.161 124.21C83.1206 124.263 83.0645 124.301 83.0008 124.32L70.0337 128.258C70.1645 128.881 70.2829 129.409 70.3826 129.895L92.7527 121.912L66.8184 113.326ZM76.7883 118.689L74.003 119.903C73.9645 119.919 73.9232 119.927 73.8814 119.927C73.8397 119.927 73.7984 119.919 73.7599 119.903L68.5755 117.775C68.5228 117.753 68.477 117.717 68.4429 117.671C68.4089 117.625 68.388 117.57 68.3824 117.513C68.3746 117.456 68.384 117.398 68.4095 117.345C68.4351 117.293 68.4755 117.25 68.5257 117.221L70.4325 115.977C70.4732 115.949 70.5196 115.932 70.5683 115.925C70.6169 115.919 70.6664 115.923 70.7129 115.939L76.7696 118.111C76.8293 118.131 76.8812 118.17 76.918 118.221C76.9549 118.272 76.9749 118.334 76.9753 118.397C76.9797 118.456 76.9667 118.515 76.938 118.567C76.9092 118.619 76.8658 118.662 76.8132 118.689H76.7883Z" fill="#F5F6F8"/>
<path d="M81.9101 123.99L69.9026 127.636C69.3916 125.272 68.7373 122.217 68.0332 118.895L81.9101 123.99Z" fill="#8053FF"/>
<path d="M61.647 93.1363C60.4631 92.6697 48.7421 90.6476 38.0182 88.8868L30.4223 87.6425C30.2938 87.6268 30.1634 87.6386 30.0398 87.6772C29.9162 87.7159 29.8023 87.7804 29.7057 87.8665C29.6188 87.9863 29.5578 88.1228 29.5267 88.2674C29.4956 88.412 29.495 88.5616 29.525 88.7064C29.5811 89.2104 30.8024 94.3993 32.2917 100.577C33.6376 106.177 35.2017 112.604 36.2984 117.071C36.3077 117.112 36.3077 117.155 36.2984 117.196C36.2445 117.484 36.139 117.76 35.9868 118.011C36.0474 118.588 36.2032 119.152 36.4479 119.678C47.3027 123.903 67.7785 131.86 68.4078 132.035C68.5925 132.046 68.7777 132.046 68.9624 132.035H69.7663V130.075C67.6663 120.213 62.2078 94.8908 61.647 93.1363ZM44.0126 106.04C44.0895 105.679 44.2551 105.343 44.4944 105.062C44.7336 104.78 45.0392 104.563 45.3835 104.429C45.5837 104.359 45.7947 104.326 46.0066 104.329C47.1968 104.329 48.3994 105.406 48.9291 106.955C49.5522 108.821 49.0101 110.688 47.6828 111.105C47.4825 111.174 47.2716 111.208 47.0597 111.204C45.8758 111.204 44.6669 110.128 44.1435 108.585C43.8468 107.769 43.8012 106.882 44.0126 106.04ZM68.5823 129.683C68.5587 129.743 68.5176 129.795 68.4643 129.831C68.411 129.868 68.3479 129.888 68.2832 129.888C68.2482 129.895 68.2123 129.895 68.1773 129.888L36.585 118.229C36.5458 118.215 36.5098 118.193 36.4791 118.165C36.4484 118.137 36.4236 118.103 36.4062 118.066C36.3887 118.028 36.379 117.987 36.3777 117.946C36.3763 117.904 36.3832 117.863 36.3981 117.824C36.4126 117.785 36.4348 117.749 36.4634 117.718C36.492 117.687 36.5265 117.663 36.5647 117.645C36.6029 117.628 36.6443 117.618 36.6863 117.617C36.7282 117.616 36.7701 117.623 36.8093 117.637L68.3954 129.291C68.4702 129.323 68.5306 129.381 68.5651 129.454C68.5995 129.528 68.6057 129.611 68.5823 129.689V129.683Z" fill="#F5F6F8"/>
<path d="M76.7942 118.104L70.7375 115.933C70.691 115.917 70.6415 115.912 70.5929 115.919C70.5442 115.925 70.4977 115.943 70.457 115.97L68.5503 117.215C68.5001 117.244 68.4596 117.287 68.4341 117.339C68.4086 117.391 68.3991 117.45 68.407 117.507C68.4126 117.564 68.4335 117.618 68.4675 117.664C68.5015 117.71 68.5474 117.746 68.6002 117.768L73.7845 119.896C73.823 119.913 73.8643 119.921 73.906 119.921C73.9478 119.921 73.9891 119.913 74.0275 119.896L76.8129 118.683C76.8712 118.659 76.9204 118.617 76.9539 118.563C76.9874 118.51 77.0034 118.447 76.9998 118.384C76.9982 118.322 76.9776 118.262 76.9408 118.212C76.9041 118.162 76.8529 118.125 76.7942 118.104ZM73.9029 119.262L69.3977 117.395L70.644 116.561L75.7972 118.428L73.9029 119.262Z" fill="#17161B"/>
<path d="M75.8294 118.428L73.8978 119.268L69.3926 117.42L70.67 116.586L75.8294 118.428Z" fill="#17161B"/>
<path d="M68.5822 129.689C68.5597 129.749 68.5197 129.8 68.4675 129.837C68.4152 129.873 68.3532 129.893 68.2893 129.894C68.2523 129.901 68.2142 129.901 68.1772 129.894L36.5911 118.235C36.5119 118.207 36.4471 118.148 36.4108 118.072C36.3746 117.997 36.37 117.91 36.3979 117.83C36.4275 117.751 36.4871 117.686 36.5641 117.65C36.641 117.614 36.729 117.609 36.8092 117.637L68.3953 129.297C68.4696 129.328 68.5298 129.385 68.5644 129.457C68.5989 129.529 68.6053 129.612 68.5822 129.689Z" fill="#17161B"/>
<path d="M48.9162 106.955C48.3803 105.406 47.184 104.329 45.9876 104.329C45.7762 104.327 45.5658 104.358 45.3644 104.423C45.021 104.558 44.7163 104.776 44.4772 105.057C44.2381 105.338 44.072 105.674 43.9936 106.034C43.7841 106.877 43.8319 107.763 44.1307 108.579C44.6603 110.128 45.8629 111.204 47.0469 111.204C47.2588 111.208 47.4697 111.174 47.67 111.105C48.991 110.657 49.5456 108.79 48.9162 106.955ZM47.4706 110.507C47.3399 110.55 47.2031 110.571 47.0656 110.57C46.1558 110.57 45.1962 109.649 44.7475 108.38C44.4911 107.684 44.4477 106.928 44.6229 106.208C44.6736 105.947 44.7883 105.702 44.9568 105.496C45.1254 105.289 45.3425 105.128 45.5888 105.026C45.7171 104.982 45.8518 104.959 45.9876 104.958C46.8973 104.958 47.8569 105.885 48.3118 107.154C48.8352 108.666 48.4551 110.165 47.4706 110.507Z" fill="#17161B"/>
<path d="M47.471 110.508C47.3403 110.551 47.2034 110.572 47.0659 110.57C46.1562 110.57 45.1965 109.649 44.7479 108.38C44.4914 107.685 44.4481 106.929 44.6233 106.209C44.6739 105.947 44.7887 105.702 44.9572 105.496C45.1257 105.29 45.3429 105.128 45.5891 105.026C45.7174 104.982 45.8521 104.959 45.9879 104.958C46.8977 104.958 47.8573 105.885 48.3122 107.154C48.8356 108.666 48.4555 110.166 47.471 110.508Z" fill="#17161B"/>
<path d="M32.4096 100.584H32.3161C30.8268 94.4061 29.6055 89.2172 29.5494 88.7132C29.5194 88.5684 29.52 88.4189 29.5511 88.2743C29.5822 88.1296 29.6432 87.9931 29.7301 87.8733C29.8267 87.7872 29.9406 87.7227 30.0642 87.6841C30.1878 87.6454 30.3182 87.6336 30.4467 87.6493L38.0426 88.8937C38.6782 92.4152 39.2639 99.9373 32.4096 100.584Z" fill="#8053FF"/>
<path d="M144.572 67.9076C143.425 62.5133 141.824 58.2701 139.499 54.7113L139.144 54.1887C137.264 51.4991 134.948 49.1418 132.29 47.2141C131.453 46.6075 130.574 46.0607 129.66 45.5778C128.676 45.0489 127.654 44.5699 126.651 44.097C123.728 42.722 120.719 41.3034 118.806 38.7899C118.818 38.7232 118.805 38.6542 118.768 38.597C118.483 38.057 118.062 37.6007 117.546 37.2733C117.03 36.9459 116.438 36.7588 115.827 36.7305C114.967 36.7453 114.122 36.9647 113.364 37.3705C112.605 37.7762 111.954 38.3566 111.465 39.0636C110.8 40.0975 110.374 41.2666 110.219 42.4856C110.087 43.2553 109.878 44.0098 109.596 44.7378C109.264 45.4993 108.797 46.1948 108.219 46.791C107.801 47.2576 107.34 47.6869 106.867 48.1287C106.393 48.5704 105.801 49.1242 105.296 49.6903C102.953 52.4128 100.791 55.2851 98.822 58.2888L98.5915 58.631C98.255 59.1163 97.9683 59.614 97.6256 60.1118C97.5744 60.1561 97.5376 60.2145 97.5197 60.2797C94.206 65.5331 92.2196 71.5114 91.7309 77.7006C91.5315 80.8115 92.1359 83.8788 92.7216 86.8092C93.4195 90.3307 94.1486 93.9704 93.4818 97.8155C92.4475 103.782 90.5719 109.637 88.4969 113.532C88.4941 113.537 88.4927 113.544 88.4927 113.55C88.4927 113.557 88.4941 113.563 88.4969 113.569C88.4906 113.589 88.4906 113.611 88.4969 113.631C88.4938 113.652 88.4938 113.673 88.4969 113.693V113.749V113.812L88.528 113.868L88.5654 113.905L88.6153 113.948C88.6484 113.952 88.6818 113.952 88.715 113.948H88.7897C92.005 113.438 95.7562 113.899 99.3828 114.334C100.772 114.508 102.1 114.67 103.371 114.77C114.543 115.691 125.866 117.489 132.982 124.407C133.011 124.436 133.046 124.458 133.085 124.473C133.123 124.488 133.165 124.495 133.206 124.494H133.318C133.394 124.495 133.467 124.468 133.524 124.419C133.582 124.37 133.619 124.301 133.63 124.227C134.312 119.151 135.438 114.144 136.994 109.263C137.948 106.258 138.982 103.384 139.992 100.609C143.712 90.3307 147.251 80.5315 144.572 67.9076ZM99.0837 58.9856L99.3143 58.6496C99.6258 58.1955 99.9374 57.7475 100.243 57.3057C100.548 56.864 100.866 56.416 101.159 55.9805C101.452 55.545 101.782 55.1157 102.093 54.6802C102.405 54.2447 102.716 53.8278 103.041 53.4358C103.377 52.9879 103.72 52.5523 104.075 52.1106L104.43 51.6813L104.76 51.2831C105.072 50.9036 105.383 50.5241 105.739 50.1445C106.218 49.6032 106.754 49.1055 107.265 48.6264C107.639 48.2842 108.013 47.9296 108.374 47.5625C109.119 46.8339 109.722 45.9731 110.15 45.024C110.448 44.2579 110.667 43.4637 110.805 42.6536C110.947 41.5175 111.346 40.4284 111.97 39.468C112.4 38.8479 112.971 38.3377 113.636 37.9788C114.3 37.6199 115.04 37.4225 115.796 37.4024C116.501 37.4275 117.17 37.7214 117.665 38.2237C117.659 38.2524 117.659 38.2821 117.665 38.3108C119.609 41.5336 123.043 43.1451 126.389 44.7067C126.813 44.9058 127.249 45.1111 127.679 45.3289L128.302 45.6462C128.476 45.7271 128.657 45.8142 128.825 45.9137L128.931 45.9697L129.399 46.2124L129.791 46.4302C129.953 46.5173 130.115 46.6106 130.277 46.7101C130.414 46.7848 130.558 46.8719 130.695 46.959L131.106 47.2203L131.442 47.4505L131.897 47.7678C134.497 49.6614 136.763 51.9744 138.602 54.6117C138.222 54.8606 137.811 55.0721 137.356 55.2961C136.901 55.5201 136.602 55.6881 136.228 55.9183C135.854 56.1485 135.518 56.3538 135.169 56.5405C134.82 56.7271 134.608 56.8765 134.334 57.032L133.655 57.4177L132.963 57.7973C132.246 58.183 131.53 58.5501 130.807 58.8985L130.184 59.1909L129.723 59.4025L129.031 59.7136L128.352 59.9998H128.37C128.084 60.1242 127.791 60.2424 127.498 60.3544L127.025 60.5348L126.582 60.7028L125.897 60.9517L125.479 61.0948C125.249 61.1819 125.012 61.2628 124.775 61.3374L124.457 61.437L123.685 61.6796L123.373 61.773L122.494 62.0218L121.373 62.3142L120.239 62.588C119.852 62.6751 119.472 62.7622 119.073 62.8431C115.267 63.5503 111.378 63.7075 107.527 63.3097C106.72 63.2307 105.925 63.066 105.153 62.8182C104.922 62.7498 104.692 62.6689 104.461 62.5818C104.231 62.4947 104.044 62.4325 103.838 62.3516L103.558 62.2396C103.365 62.1649 103.184 62.084 102.997 62.0032L102.031 61.5863C100.827 61.0115 99.5766 60.5411 98.2923 60.1802C98.5665 59.7696 98.8282 59.3776 99.0837 58.9856ZM139.356 100.491C138.359 103.278 137.318 106.153 136.359 109.17C134.837 113.921 133.73 118.794 133.05 123.735C125.772 116.941 114.506 115.149 103.389 114.241C102.143 114.135 100.816 113.973 99.4264 113.805C95.9806 113.388 92.4225 112.965 89.2633 113.351C91.2822 109.419 93.0644 103.739 94.0613 97.971C94.7468 94.0078 94.0115 90.3183 93.3011 86.7346C92.7216 83.8414 92.1297 80.8488 92.3166 77.7877C92.791 71.7302 94.7258 65.8771 97.9559 60.7277C99.2728 61.0828 100.554 61.5598 101.782 62.1525C103.565 63.0532 105.485 63.6524 107.465 63.9257C108.948 64.0688 110.425 64.131 111.827 64.131C114.292 64.1494 116.753 63.9222 119.173 63.4528C125.356 62.1943 131.254 59.8089 136.571 56.416C136.926 56.1983 137.3 55.9992 137.667 55.7939C138.035 55.5885 138.521 55.3459 138.914 55.0721C141.188 58.5625 142.758 62.7249 143.899 68.0196C146.597 80.4879 143.244 89.7583 139.369 100.491H139.356Z" fill="#17161B"/>
<path d="M138.634 54.5679C138.254 54.8167 137.842 55.0283 137.387 55.2523C136.933 55.4762 136.633 55.6442 136.26 55.8744C134.173 57.1837 132.002 58.3538 129.76 59.3773C129.299 59.5888 128.832 59.7941 128.371 59.9994C125.368 61.2501 122.25 62.2045 119.061 62.849C115.255 63.5562 111.366 63.7134 107.515 63.3156C106.466 63.2074 105.435 62.9626 104.449 62.5877C103.951 62.4135 103.465 62.2144 102.985 62.0091L102.019 61.5922C100.815 61.0174 99.5646 60.547 98.2803 60.1861C98.5295 59.7879 98.7912 59.3959 99.0592 59.004L99.2897 58.668C100.536 56.8575 101.732 55.1154 103.028 53.4231C103.577 52.6972 104.15 51.9796 104.748 51.2703C105.06 50.8908 105.371 50.5113 105.727 50.1318C106.206 49.5905 106.742 49.0927 107.253 48.6137C108.466 47.6365 109.45 46.4072 110.138 45.0113C110.436 44.2452 110.655 43.451 110.793 42.6408C110.935 41.5047 111.334 40.4157 111.958 39.4553C112.388 38.8351 112.959 38.3249 113.624 37.9661C114.288 37.6072 115.028 37.4097 115.784 37.3896C116.489 37.4147 117.158 37.7086 117.653 38.2109C117.647 38.2396 117.647 38.2693 117.653 38.298C119.597 41.5209 123.031 43.1323 126.377 44.694C127.231 45.0984 128.103 45.509 128.944 45.9383C129.399 46.1685 129.854 46.4174 130.29 46.6787C130.849 47.0014 131.39 47.3545 131.91 47.7364C134.516 49.6247 136.788 51.9335 138.634 54.5679Z" fill="#FFE1D9"/>
<path d="M139.368 100.491C138.371 103.278 137.331 106.153 136.371 109.17C134.849 113.921 133.742 118.794 133.062 123.735C125.784 116.941 114.518 115.149 103.402 114.241C102.155 114.135 100.828 113.973 99.4385 113.805C95.9926 113.389 92.4346 112.966 89.2754 113.351C91.2943 109.419 93.0764 103.739 94.0734 97.9711C94.7589 94.0079 94.0236 90.3184 93.3132 86.7347C92.7337 83.8416 92.1417 80.8489 92.3287 77.7878C92.8031 71.7303 94.7378 65.8772 97.968 60.7278C99.2849 61.0829 100.566 61.5599 101.794 62.1526C103.577 63.0533 105.497 63.6525 107.477 63.9258C108.96 64.0689 110.437 64.1311 111.839 64.1311C114.304 64.1496 116.765 63.9224 119.185 63.4529C125.368 62.1944 131.266 59.809 136.583 56.4162C136.938 56.1984 137.312 55.9993 137.68 55.794C138.047 55.5887 138.533 55.346 138.926 55.0723C141.2 58.5627 142.77 62.725 143.911 68.0197C146.596 80.4881 143.244 89.7584 139.368 100.491Z" fill="#8053FF"/>
<path d="M129.785 59.3771C129.324 59.5886 128.856 59.7939 128.395 59.9992C128.109 56.0547 127.978 50.4675 128.962 45.9443C129.417 46.1745 129.872 46.4234 130.308 46.6847C129.866 48.9183 128.994 54.4121 129.785 59.3771Z" fill="#17161B"/>
<path d="M104.474 62.5693C103.976 62.3951 103.49 62.196 103.01 61.9907C102.826 59.1311 102.84 56.2622 103.053 53.4047C103.602 52.6788 104.175 51.9612 104.773 51.252C104.331 53.9086 103.826 58.4194 104.474 62.5693Z" fill="#17161B"/>
<g style="mix-blend-mode:multiply" opacity="0.3">
<path d="M129.674 45.5778L128.857 45.8702C119.51 49.0495 108.394 47.5252 108.394 47.5252L108.207 46.791C108.786 46.1948 109.252 45.4993 109.584 44.7378C109.867 44.0098 110.075 43.2553 110.207 42.4856C110.363 41.2666 110.788 40.0975 111.453 39.0636C111.943 38.3566 112.593 37.7762 113.352 37.3705C114.11 36.9647 114.955 36.7453 115.815 36.7305C116.426 36.7588 117.019 36.9459 117.534 37.2733C118.05 37.6007 118.472 38.057 118.756 38.597C118.793 38.6542 118.806 38.7232 118.794 38.7899C120.707 41.2786 123.717 42.722 126.639 44.097C127.667 44.5699 128.689 45.0489 129.674 45.5778Z" fill="#958F9F"/>
</g>
<path d="M133.287 26.3586C133.206 25.9 132.997 25.4739 132.682 25.1301C132.368 24.7864 131.961 24.5391 131.511 24.4174C130.566 24.1196 129.542 24.1885 128.645 24.6102C128.593 24.5599 128.524 24.531 128.452 24.5294H128.277L127.654 24.4858C120.999 24.0814 107.397 22.7873 105.122 10.798C105.106 10.7155 105.057 10.6429 104.987 10.5963C104.917 10.5496 104.831 10.5326 104.748 10.5491C104.708 10.5559 104.669 10.5706 104.634 10.5925C104.599 10.6143 104.569 10.6428 104.545 10.6764C104.521 10.7099 104.505 10.7479 104.496 10.788C104.487 10.828 104.486 10.8695 104.493 10.91C104.53 11.1215 104.574 11.3289 104.624 11.5322C101.869 15.1905 99.1776 21.7918 98.3177 25.4688C98.1937 25.9742 98.1062 26.4878 98.056 27.0056C97.7142 26.8218 97.3235 26.7488 96.9383 26.7967C96.5531 26.8447 96.1924 27.0112 95.9062 27.2731C95.4192 27.8062 95.1159 28.481 95.0408 29.1987C94.9657 29.9163 95.1226 30.6391 95.4887 31.2613C95.673 31.5138 95.9165 31.7173 96.1979 31.854C96.4792 31.9906 96.7899 32.0563 97.1026 32.0452C97.588 32.0301 98.066 31.9224 98.5109 31.7279L98.623 32.543C99.1589 36.3942 99.7571 40.7494 102.785 43.3999C104.49 44.8731 106.597 45.8027 108.836 46.069C109.042 46.1001 109.247 46.1188 109.459 46.1437H109.503C110.041 46.1966 110.582 46.2216 111.123 46.2183C112.351 46.2061 113.576 46.1167 114.793 45.9508C115.659 45.8326 116.482 45.7019 117.286 45.5464L117.703 45.4655L118.289 45.3286C120.253 44.9248 122.108 44.106 123.729 42.927C123.773 42.9005 123.815 42.8692 123.853 42.8337L123.953 42.7528C125.209 41.7284 126.242 40.458 126.988 39.0198C128.365 36.4564 128.857 33.2274 128.857 29.9672C129.203 30.1183 129.576 30.1967 129.954 30.1974C130.648 30.1919 131.324 29.9748 131.892 29.5752C132.404 29.2243 132.806 28.7364 133.053 28.1674C133.3 27.5984 133.381 26.9715 133.287 26.3586ZM95.9685 30.8818C95.6922 30.3833 95.5763 29.8119 95.6365 29.2453C95.6967 28.6787 95.9301 28.1444 96.305 27.7149C96.5187 27.5136 96.7985 27.3969 97.092 27.3866C97.3856 27.3763 97.6729 27.4731 97.9002 27.6589C98.0622 28.9032 98.2242 30.048 98.38 31.0809C97.2771 31.5661 96.4296 31.4977 95.9685 30.8818ZM126.377 38.6963C123.928 43.2506 120.083 44.6069 114.668 45.31C110.93 45.8077 106.568 45.9321 103.166 42.9146C100.318 40.4259 99.7322 36.1889 99.215 32.4559C99.1652 32.1137 99.1215 31.7777 99.0779 31.4417C99.1403 31.4118 99.1909 31.362 99.2218 31.3002C99.2527 31.2384 99.2621 31.168 99.2485 31.1003C99.2349 31.0325 99.1992 30.9712 99.1468 30.926C99.0945 30.8808 99.0286 30.8543 98.9595 30.8506C98.8286 29.9174 98.6729 28.8846 98.5358 27.7771C98.5678 27.7364 98.5891 27.6883 98.5979 27.6372C98.6066 27.5861 98.6024 27.5337 98.5856 27.4847C98.5927 27.4477 98.5927 27.4097 98.5856 27.3727C98.5856 24.884 101.57 16.7957 104.736 12.341C107.883 23.5774 121.18 24.7409 127.673 25.1391C128.477 29.7432 128.371 34.9694 126.389 38.6963H126.377ZM131.486 28.9966C131.131 29.2797 130.703 29.4572 130.251 29.5089C129.799 29.5606 129.342 29.4844 128.932 29.289C128.892 29.27 128.85 29.2574 128.807 29.2517C128.765 28.0018 128.651 26.7553 128.464 25.5186C128.871 25.213 129.346 25.0098 129.848 24.9264C130.35 24.843 130.865 24.8818 131.349 25.0395C131.686 25.1302 131.99 25.3128 132.227 25.5667C132.465 25.8206 132.627 26.1358 132.695 26.4768C132.747 26.9674 132.662 27.4628 132.448 27.9077C132.235 28.3526 131.902 28.7296 131.486 28.9966Z" fill="#17161B"/>
<path d="M148.311 53.2427C147.724 52.7071 147.07 52.2491 146.367 51.8801C145.363 51.2579 144.229 50.5984 144.005 50.0136C143.382 48.3026 144.111 46.8405 144.834 45.4344C145.712 43.7172 146.622 41.9502 144.665 40.0402C143.587 38.9825 141.693 38.7958 139.861 38.6589C138.179 38.5158 136.602 38.3852 136.122 37.5701C135.855 37.1159 135.917 36.4378 136.316 35.5045C136.777 34.4157 137.749 33.638 138.771 32.8603C140.017 31.8959 141.263 30.9004 141.668 29.2641C142.254 26.7754 140.952 24.3241 138.179 22.6628C137.02 21.9909 135.794 21.4424 134.521 21.0265C132.402 20.2737 130.87 19.7262 129.686 16.5655C129.368 15.7132 129.062 14.8608 128.819 14.0395C128.266 11.9756 127.427 9.99878 126.327 8.1662C121.915 1.4094 111.372 -1.92545 104.212 1.15431C104.166 1.18128 104.126 1.21725 104.094 1.26008C101.029 2.48806 98.4416 4.66985 96.7162 7.48182C94.6599 10.6549 94.2237 13.9711 93.8187 17.4801C93.6754 18.6125 93.5258 19.7884 93.3264 20.9581C92.8591 23.5961 90.9959 24.9027 89.0269 26.2839C87.1575 27.5842 85.2881 28.9219 84.6214 31.4106C83.3752 36.1453 85.8677 36.8173 88.2231 37.4644C89.8245 37.9061 91.482 38.3541 92.1674 40.065C93.0398 42.2613 91.6876 43.2568 90.1173 44.4203C89.0705 45.1855 87.9925 45.9757 87.575 47.1765C87.404 47.5446 87.3108 47.944 87.3012 48.3497C87.2915 48.7554 87.3656 49.1587 87.5189 49.5345C87.98 50.4242 89.0643 50.7291 90.1173 51.0277C91.3636 51.3824 92.6098 51.7246 92.8653 52.9378C93.233 54.4995 92.7282 54.9599 91.9556 55.6443C91.3477 56.1365 90.8508 56.7514 90.4974 57.4486C90.2406 57.9877 90.134 58.586 90.1888 59.1805C90.2436 59.775 90.4578 60.3438 90.809 60.827C91.7312 62.1211 93.4635 62.849 95.551 62.849C95.7255 62.849 95.8999 62.849 96.0744 62.849L96.4296 62.1895C94.1552 62.4135 92.2484 61.7789 91.3324 60.4786C91.0416 60.0901 90.8633 59.6293 90.8171 59.1464C90.771 58.6636 90.8587 58.1774 91.0707 57.741C91.3851 57.1174 91.8316 56.5697 92.3793 56.1358C93.1769 55.4203 93.9371 54.7421 93.4822 52.8134C93.1146 51.2331 91.6129 50.81 90.2918 50.4367C89.326 50.1629 88.4225 49.9078 88.0798 49.2608C87.9696 48.9592 87.9211 48.6387 87.9372 48.3181C87.9532 47.9975 88.0335 47.6833 88.1732 47.3942C88.5284 46.3801 89.5254 45.6459 90.485 44.9367C92.0428 43.7981 93.8125 42.504 92.7532 39.8473C91.9556 37.8501 90.0613 37.3275 88.3913 36.8733C86.0235 36.2511 84.1541 35.7223 85.2321 31.591C85.8552 29.3201 87.5563 28.1069 89.3883 26.8252C91.3761 25.4253 93.4386 23.9819 93.9496 21.0888C94.1552 19.9004 94.2985 18.7183 94.448 17.5735C94.8655 14.1453 95.2643 10.8975 97.2521 7.8489C98.9483 5.0536 101.532 2.90511 104.592 1.74537C104.648 1.72239 104.696 1.68342 104.73 1.63338C111.628 -1.14773 121.554 2.07512 125.797 8.47729C126.872 10.2643 127.696 12.1903 128.246 14.2013C128.514 15.035 128.795 15.8936 129.119 16.7584C130.408 20.1928 132.141 20.8088 134.334 21.5927C135.567 21.993 136.753 22.5228 137.873 23.173C139.089 23.901 141.824 25.9293 141.076 29.0837C140.74 30.5085 139.599 31.3919 138.403 32.3314C137.362 33.1465 136.284 33.9926 135.761 35.2245C135.269 36.3631 135.225 37.2279 135.605 37.8688C136.26 38.9514 137.998 39.1131 139.842 39.2624C141.562 39.4055 143.344 39.5611 144.26 40.457C145.881 42.0436 145.189 43.3999 144.304 45.1109C143.556 46.573 142.703 48.2217 143.45 50.2002C143.749 51.0028 144.933 51.7121 146.08 52.3965C146.728 52.737 147.333 53.1549 147.881 53.6409C149.42 55.327 150.08 56.9944 149.918 58.7427C149.874 59.2188 149.731 59.6805 149.499 60.0991C149.268 60.5177 148.952 60.8841 148.572 61.1754C147.038 62.2395 145.183 62.7447 143.32 62.6064C143.284 62.5829 143.243 62.568 143.201 62.5628C143.276 62.7868 143.351 63.0108 143.413 63.241H143.656C145.401 63.241 147.526 62.8366 148.971 61.6607C149.418 61.3185 149.789 60.8875 150.06 60.3948C150.332 59.9022 150.498 59.3587 150.548 58.7987C150.704 56.9011 149.987 55.0719 148.311 53.2427Z" fill="#17161B"/>
<path d="M147.849 53.6719C147.302 53.1859 146.697 52.7681 146.049 52.4276C144.902 51.7432 143.718 51.0339 143.419 50.2313C142.671 48.259 143.525 46.604 144.273 45.1419C145.158 43.4309 145.849 42.0746 144.229 40.488C143.313 39.5921 141.531 39.4366 139.811 39.2935C137.942 39.1317 136.228 38.9824 135.574 37.8998C135.194 37.2776 135.237 36.3942 135.73 35.2556C136.253 34.0112 137.331 33.1775 138.372 32.3625C139.568 31.423 140.709 30.5395 141.045 29.1147C141.793 25.9603 139.057 23.932 137.842 23.2041C136.722 22.5538 135.535 22.0241 134.303 21.6237C132.109 20.8398 130.377 20.2239 129.087 16.7895C128.763 15.9246 128.464 15.066 128.215 14.2323C127.665 12.2213 126.841 10.2953 125.766 8.50833C121.554 2.07505 111.596 -1.1478 104.698 1.66442C104.665 1.71446 104.617 1.75343 104.561 1.77641C101.504 2.92533 98.9187 5.06019 97.2146 7.8426C95.2268 10.8912 94.828 14.139 94.4105 17.5672C94.261 18.712 94.1176 19.8941 93.912 21.0825C93.4011 23.9756 91.3385 25.4377 89.3508 26.8189C87.5188 28.1006 85.7927 29.3076 85.1945 31.5847C84.1165 35.716 85.9859 36.2262 88.3538 36.867C90.0237 37.3212 91.918 37.8438 92.7156 39.841C93.7749 42.4977 92.0053 43.7918 90.4475 44.9304C89.4879 45.6396 88.4908 46.3738 88.1357 47.388C87.9959 47.677 87.9157 47.9912 87.8996 48.3118C87.8836 48.6324 87.9321 48.9529 88.0422 49.2545C88.3787 49.8767 89.2885 50.1566 90.2543 50.4304C91.5753 50.8037 93.077 51.2268 93.4447 52.8071C93.8996 54.7358 93.1393 55.414 92.3417 56.1295C91.794 56.5634 91.3475 57.1111 91.0332 57.7347C90.8212 58.1711 90.7334 58.6573 90.7796 59.1401C90.8258 59.623 91.004 60.0838 91.2949 60.4723C92.2109 61.7726 94.1176 62.4072 96.392 62.1832C96.7348 61.5611 97.1024 60.9389 97.4825 60.3167C97.4934 60.247 97.5315 60.1844 97.5884 60.1425C97.9062 59.6448 98.2115 59.1408 98.5667 58.6493L98.7973 58.3071C100.766 55.3034 102.928 52.4312 105.272 49.7087C105.776 49.1425 106.318 48.6323 106.842 48.147C107.559 47.521 108.216 46.8294 108.805 46.0814C106.566 45.8151 104.459 44.8855 102.754 43.4123C99.7257 40.7618 99.1276 36.4066 98.5917 32.5553L98.4795 31.7403C98.0347 31.9348 97.5566 32.0425 97.0713 32.0576C96.7585 32.0687 96.4479 32.003 96.1665 31.8663C95.8851 31.7297 95.6416 31.5262 95.4573 31.2737C95.0913 30.6515 94.9343 29.9287 95.0094 29.2111C95.0846 28.4934 95.3878 27.8186 95.8748 27.2855C96.161 27.0236 96.5217 26.8571 96.907 26.8091C97.2922 26.7612 97.6828 26.8342 98.0246 27.018C98.0749 26.5001 98.1623 25.9866 98.2863 25.4812C99.1462 21.8042 101.838 15.2029 104.592 11.5445C104.542 11.3454 104.499 11.1381 104.461 10.9224C104.454 10.8819 104.455 10.8404 104.464 10.8003C104.473 10.7602 104.49 10.7223 104.514 10.6888C104.538 10.6552 104.568 10.6267 104.603 10.6049C104.638 10.583 104.676 10.5683 104.717 10.5615C104.8 10.545 104.885 10.562 104.955 10.6086C105.026 10.6553 105.074 10.7279 105.091 10.8104C107.365 22.7872 120.968 24.0813 127.623 24.4982L128.246 24.5417H128.421C128.493 24.5434 128.562 24.5723 128.614 24.6226C129.511 24.2008 130.534 24.132 131.48 24.4297C131.93 24.5515 132.336 24.7987 132.651 25.1425C132.965 25.4863 133.175 25.9124 133.256 26.3709C133.332 26.9817 133.235 27.6014 132.976 28.16C132.717 28.7186 132.307 29.1937 131.792 29.5316C131.224 29.9312 130.548 30.1483 129.854 30.1537C129.476 30.153 129.103 30.0747 128.757 29.9235C128.794 33.1837 128.29 36.4128 126.888 38.9762C126.142 40.4144 125.109 41.6848 123.853 42.7092C124.757 43.1883 125.685 43.6238 126.607 44.0593C128.574 44.9107 130.452 45.9526 132.215 47.1702C134.87 49.1035 137.186 51.4623 139.07 54.151C139.201 54.0701 138.951 54.5367 139.07 54.6612C139.188 54.7856 139.581 54.5492 139.45 54.6612C141.025 57.1094 142.262 59.7589 143.126 62.5379C143.169 62.543 143.209 62.5579 143.245 62.5814C145.108 62.7198 146.963 62.2146 148.498 61.1504C148.877 60.8591 149.193 60.4927 149.424 60.0742C149.656 59.6556 149.799 59.1938 149.843 58.7177C150.049 57.0254 149.389 55.358 147.849 53.6719ZM108.811 46.0814C109.017 46.1179 109.225 46.1429 109.434 46.156C109.222 46.1125 109.016 46.0814 108.811 46.0814Z" fill="#17161B"/>
<path d="M98.3919 31.0807C97.2765 31.566 96.429 31.4976 95.9804 30.8816C95.7041 30.3831 95.5881 29.8118 95.6483 29.2452C95.7085 28.6786 95.9419 28.1443 96.3169 27.7147C96.5305 27.5135 96.8103 27.3968 97.1039 27.3865C97.3975 27.3762 97.6847 27.473 97.912 27.6587C98.0741 28.8969 98.2361 30.0479 98.3919 31.0807Z" fill="#FFE1D9"/>
<path d="M131.487 28.9967C131.131 29.2798 130.703 29.4574 130.252 29.5091C129.8 29.5608 129.343 29.4846 128.932 29.2892C128.893 29.2702 128.851 29.2576 128.808 29.2518C128.765 28.0019 128.651 26.7555 128.465 25.5188C128.872 25.2131 129.346 25.01 129.849 24.9266C130.351 24.8432 130.866 24.882 131.35 25.0397C131.686 25.1303 131.99 25.3129 132.228 25.5669C132.466 25.8208 132.628 26.136 132.696 26.4769C132.748 26.9675 132.662 27.4629 132.449 27.9079C132.236 28.3528 131.902 28.7298 131.487 28.9967Z" fill="#FFE1D9"/>
<path d="M126.39 38.6961C123.941 43.2504 120.096 44.6067 114.681 45.3098C110.943 45.8075 106.581 45.932 103.179 42.9144C100.331 40.4257 99.7452 36.1887 99.228 32.4557C99.1782 32.1135 99.1346 31.7775 99.0909 31.4415C99.1533 31.4116 99.2039 31.3618 99.2348 31.3C99.2657 31.2382 99.2751 31.1679 99.2616 31.1001C99.248 31.0324 99.2122 30.9711 99.1599 30.9259C99.1076 30.8807 99.0416 30.8541 98.9725 30.8505C98.8417 29.9172 98.6859 28.8844 98.5488 27.7769C98.5809 27.7362 98.6022 27.6881 98.6109 27.637C98.6196 27.586 98.6154 27.5336 98.5987 27.4845C98.6057 27.4475 98.6057 27.4095 98.5987 27.3725C98.5987 24.8838 101.583 16.7956 104.749 12.3408C107.896 23.5773 121.193 24.7407 127.686 25.1389C128.477 29.743 128.371 34.9693 126.39 38.6961Z" fill="#FFE1D9"/>
<path d="M115.422 26.1221C115.64 26.7007 116.469 26.7443 117.977 27.1424C119.485 27.5406 119.423 27.9699 120.127 27.889C120.7 27.8268 121.024 26.4705 118.501 25.5248C117.042 24.9835 114.943 24.8342 115.422 26.1221Z" fill="#17161B"/>
<path d="M105.254 26.4577C105.173 27.0799 104.381 27.3101 102.992 28.0007C101.602 28.6913 101.745 29.1268 101.054 29.2015C100.48 29.2637 99.8698 28.0131 102.126 26.5386C103.447 25.6924 105.447 25.0889 105.254 26.4577Z" fill="#17161B"/>
<path d="M108.543 37.0659C108.602 37.0648 108.659 37.0449 108.705 37.0091C108.752 36.9732 108.786 36.9234 108.802 36.8669C108.818 36.8104 108.815 36.7503 108.795 36.6954C108.774 36.6404 108.736 36.5937 108.686 36.5619C108.559 36.4986 108.455 36.3962 108.39 36.2697C108.325 36.1432 108.302 35.9992 108.325 35.8588C108.38 35.6726 108.486 35.5055 108.631 35.3768C108.777 35.248 108.956 35.1628 109.148 35.1309C109.322 35.1095 109.499 35.146 109.651 35.2348C109.803 35.3236 109.922 35.4598 109.989 35.6224C110.016 35.671 110.057 35.7101 110.108 35.7346C110.158 35.759 110.214 35.7677 110.269 35.7593C110.325 35.752 110.377 35.7268 110.418 35.6876C110.458 35.6483 110.485 35.5971 110.494 35.5415C110.749 34.1541 110.749 32.2067 109.976 30.9126C109.96 30.8776 109.937 30.8464 109.908 30.821C109.879 30.7956 109.845 30.7765 109.808 30.7652C109.771 30.7538 109.733 30.7503 109.694 30.7549C109.656 30.7595 109.619 30.7721 109.586 30.7919C109.553 30.8117 109.524 30.8383 109.502 30.8698C109.48 30.9014 109.465 30.9372 109.458 30.975C109.451 31.0128 109.451 31.0518 109.46 31.0892C109.469 31.1267 109.486 31.1619 109.509 31.1925C110.048 32.3315 110.235 33.6054 110.045 34.8509C109.91 34.7423 109.754 34.6629 109.586 34.6179C109.419 34.5729 109.244 34.5633 109.073 34.5896C108.777 34.6428 108.502 34.7794 108.281 34.9833C108.06 35.1873 107.903 35.45 107.827 35.7406C107.776 35.9893 107.806 36.2476 107.913 36.4781C108.019 36.7085 108.196 36.8991 108.419 37.0223C108.456 37.0465 108.499 37.0614 108.543 37.0659Z" fill="#17161B"/>
<path d="M110.985 42.4668C111.448 42.4607 111.892 42.2833 112.232 41.9691C112.542 41.6779 112.761 41.3032 112.863 40.8903C112.965 40.4774 112.945 40.0439 112.805 39.6421C112.783 39.5727 112.735 39.5143 112.671 39.4795C112.608 39.4447 112.532 39.4361 112.462 39.4555C112.393 39.477 112.335 39.5251 112.301 39.5893C112.267 39.6534 112.26 39.7284 112.282 39.7977C112.392 40.1008 112.411 40.4295 112.337 40.7434C112.263 41.0574 112.099 41.3428 111.864 41.5647C111.697 41.7272 111.487 41.8397 111.259 41.8892C111.031 41.9387 110.794 41.9232 110.574 41.8446C110.069 41.6393 109.77 41.0545 109.727 40.1959C109.722 40.1244 109.689 40.0576 109.636 40.0099C109.582 39.9622 109.512 39.9374 109.44 39.9408C109.404 39.9416 109.368 39.9497 109.335 39.9646C109.302 39.9796 109.272 40.0011 109.248 40.0279C109.223 40.0546 109.205 40.0861 109.193 40.1203C109.181 40.1546 109.176 40.1908 109.178 40.227C109.253 41.6767 109.951 42.1806 110.362 42.3486C110.559 42.4328 110.772 42.4731 110.985 42.4668Z" fill="#17161B"/>
<path d="M117.097 31.1007C117.142 31.2825 117.237 31.4481 117.371 31.5784C117.506 31.7087 117.674 31.7984 117.858 31.8374C118.041 31.8763 118.232 31.8628 118.408 31.7985C118.584 31.7341 118.738 31.6215 118.853 31.4736C118.967 31.3256 119.038 31.1484 119.057 30.9621C119.075 30.7759 119.041 30.5882 118.957 30.4207C118.873 30.2531 118.744 30.1125 118.584 30.015C118.424 29.9174 118.24 29.8669 118.053 29.8692C117.765 29.9118 117.505 30.0637 117.327 30.2932C117.149 30.5227 117.067 30.812 117.097 31.1007Z" fill="#17161B"/>
<path d="M103.784 32.6876C103.829 32.8694 103.924 33.035 104.059 33.1653C104.193 33.2956 104.362 33.3854 104.545 33.4243C104.728 33.4632 104.919 33.4497 105.095 33.3854C105.271 33.321 105.425 33.2084 105.54 33.0605C105.655 32.9125 105.726 32.7353 105.744 32.549C105.762 32.3628 105.728 32.1751 105.644 32.0076C105.561 31.8401 105.432 31.6994 105.272 31.6019C105.112 31.5043 104.928 31.4538 104.74 31.4561C104.452 31.4968 104.19 31.6482 104.012 31.8782C103.833 32.1081 103.752 32.3985 103.784 32.6876Z" fill="#17161B"/>
<path d="M131.517 36.6677H131.418C130.421 36.4997 129.903 33.6252 129.897 33.5941C129.866 33.4386 129.237 29.7615 130.24 28.4736C130.258 28.4487 130.28 28.4278 130.307 28.412C130.333 28.3962 130.362 28.386 130.392 28.3819C130.423 28.3778 130.454 28.38 130.483 28.3883C130.513 28.3966 130.54 28.4108 130.564 28.4301C130.611 28.4681 130.643 28.5229 130.651 28.5831C130.659 28.6434 130.643 28.7044 130.608 28.7536C129.953 29.5935 130.097 32.0636 130.352 33.5132C130.539 34.5647 131.075 36.1388 131.492 36.2073C131.605 36.2073 131.76 36.0704 131.916 35.7904C132.614 34.5461 132.178 31.6156 131.848 30.2593L131.791 30.0104C131.75 29.7531 131.671 29.5035 131.555 29.27C131.524 29.2164 131.516 29.1528 131.533 29.0933C131.549 29.0338 131.588 28.9832 131.642 28.9527C131.696 28.9222 131.759 28.9142 131.819 28.9305C131.878 28.9469 131.929 28.9862 131.96 29.0398C132.1 29.3137 132.196 29.6075 132.246 29.9109C132.246 29.9917 132.246 30.0726 132.296 30.1535C132.67 31.6716 133.088 34.6145 132.296 36.0144C132.109 36.4437 131.81 36.6677 131.517 36.6677Z" fill="#FFC700"/>
<path d="M98.286 38.391H98.1926C97.2579 38.2355 96.7719 35.5353 96.7656 35.5104C96.7656 35.3611 96.1425 31.9142 97.0896 30.701C97.1063 30.6761 97.128 30.655 97.1532 30.6388C97.1785 30.6227 97.2068 30.6119 97.2364 30.6072C97.266 30.6025 97.2963 30.6039 97.3253 30.6114C97.3543 30.6189 97.3815 30.6323 97.4051 30.6507C97.4287 30.6691 97.4483 30.6922 97.4626 30.7186C97.4769 30.7449 97.4855 30.7739 97.4881 30.8037C97.4907 30.8335 97.487 30.8635 97.4774 30.8919C97.4678 30.9203 97.4525 30.9463 97.4323 30.9685C96.8092 31.7525 96.9525 34.0794 97.1955 35.4357C97.37 36.4188 97.8685 37.9244 98.2611 37.9617C98.367 37.9617 98.5166 37.8311 98.6599 37.5698C98.8087 37.2736 98.9036 36.9534 98.9403 36.6241C98.951 36.5675 98.9825 36.5169 99.0286 36.4823C99.0747 36.4478 99.1321 36.4318 99.1895 36.4374C99.2465 36.4466 99.2975 36.4779 99.3314 36.5246C99.3653 36.5712 99.3793 36.6294 99.3703 36.6863C99.3258 37.0679 99.214 37.4386 99.04 37.7813C98.8157 38.1857 98.5602 38.391 98.286 38.391Z" fill="#FFC700"/>
<path d="M148.311 76.0014C147.732 70.912 144.847 62.7118 141.177 58.2259L141.089 58.1139L141.039 58.0641C140.996 58.0331 140.944 58.0139 140.891 58.0084C140.837 58.003 140.783 58.0115 140.734 58.033L140.653 58.0766C140.603 58.1218 140.568 58.1807 140.551 58.246C140.534 58.3113 140.537 58.3801 140.56 58.4437C140.574 58.4734 140.593 58.5007 140.616 58.5246C144.249 62.8798 147.121 71.0365 147.688 76.0761C148.61 84.1643 148.934 92.5761 145.295 99.3453C140.996 107.291 135.406 113.182 129.132 116.368C122.234 119.877 110.961 121.221 104.898 121.968C100.449 122.496 98.1625 121.644 95.9068 118.371C94.8524 116.826 94.0471 115.126 93.5202 113.332C93.5125 113.283 93.4908 113.238 93.4579 113.201C93.4788 112.977 93.5248 112.756 93.595 112.542C94.6605 109.275 99.2404 108.379 103.278 107.564C104.54 107.347 105.788 107.058 107.017 106.699C115.286 104.024 122.028 99.0218 125.511 92.9743C129.25 86.4913 129.026 78.7576 128.521 72.0133C128.521 71.7831 128.484 71.5529 128.459 71.3164C128.454 71.2585 128.434 71.2028 128.4 71.1556C128.366 71.1085 128.319 71.0715 128.265 71.0489C128.216 71.039 128.165 71.039 128.116 71.0489C128.048 71.0557 127.984 71.0841 127.933 71.1301C127.883 71.1761 127.849 71.237 127.836 71.304C127.833 71.3371 127.833 71.3704 127.836 71.4035C127.838 71.4554 127.838 71.5073 127.836 71.5591C127.836 71.7333 127.836 71.9013 127.873 72.0755C128.371 78.7203 128.596 86.3419 124.95 92.6694C121.542 98.5863 114.931 103.483 106.811 106.108C105.605 106.462 104.38 106.747 103.141 106.961C99.4025 107.695 94.754 108.61 93.2335 111.714H92.9968C91.6508 111.789 89.4512 111.913 88.691 112.959C88.0889 112.706 87.5474 112.328 87.102 111.851C86.8336 111.59 86.5485 111.347 86.2484 111.123C85.3385 110.478 84.2791 110.076 83.1701 109.953C80.7774 109.624 78.4344 111.36 77.0386 113.064C76.9576 113.17 76.8517 113.294 76.7333 113.438C75.1069 115.404 71.2934 120.008 72.9385 122.496C73.1349 122.789 73.4058 123.025 73.7232 123.179C74.0407 123.333 74.3935 123.4 74.7455 123.374C75.8186 123.292 76.871 123.036 77.8611 122.615C78.3035 122.453 78.6837 122.316 78.9578 122.248C79.9771 121.993 80.9801 121.677 81.9613 121.302L82.896 120.966C83.2013 120.966 83.5191 120.997 83.8119 120.997C85.0331 120.974 86.252 120.885 87.4634 120.729C88.5414 120.605 89.6444 120.481 90.766 120.449C90.9752 121.096 91.3962 121.654 91.9612 122.033C92.5263 122.413 93.2027 122.591 93.8816 122.54C94.3906 122.533 94.8976 122.476 95.3958 122.372C96.111 122.261 96.8343 122.211 97.558 122.223C98.1596 122.227 98.7609 122.196 99.3588 122.129C100.444 122.537 101.596 122.733 102.755 122.708C103.519 122.701 104.283 122.651 105.042 122.559C111.136 121.824 122.489 120.474 129.481 116.916C135.774 113.68 141.457 107.676 145.819 99.6378C149.558 92.7441 149.215 84.1892 148.311 76.0014ZM87.3264 120.12C86.0194 120.3 84.7014 120.389 83.382 120.387C83.3461 120.329 83.2916 120.284 83.2271 120.26C83.1627 120.237 83.0921 120.235 83.0268 120.257L82.6779 120.375L81.6809 120.729C80.724 121.097 79.7461 121.406 78.7522 121.657C78.4344 121.737 78.0418 121.88 77.5807 122.042C76.1413 122.565 74.166 123.287 73.437 122.179C72.0474 120.076 75.7862 115.565 77.1757 113.867L77.4935 113.487C78.7771 111.901 80.9144 110.308 83.0455 110.588C84.0511 110.702 85.0114 111.068 85.8371 111.652C86.115 111.861 86.3813 112.086 86.6347 112.324C87.13 112.859 87.7331 113.283 88.4043 113.568C88.2236 114.47 88.7658 115.59 89.2643 116.592C89.4765 116.994 89.6618 117.41 89.8188 117.836L89.9061 118.141C90.0868 118.763 90.255 119.323 90.4357 119.846C89.3827 119.883 88.342 119.995 87.3264 120.12ZM97.4459 121.613C96.6865 121.6 95.9275 121.655 95.1777 121.775C91.8191 122.434 91.439 121.041 90.523 117.973L90.4357 117.675C90.2668 117.2 90.0584 116.74 89.8126 116.3C89.3328 115.323 88.7346 114.11 89.0898 113.438C89.5571 112.56 91.7941 112.417 92.922 112.355C92.786 112.792 92.7207 113.248 92.7288 113.705C92.7293 113.777 92.7552 113.846 92.802 113.901C92.8487 113.956 92.9133 113.992 92.9843 114.004C93.3684 115.189 93.8868 116.327 94.5296 117.395C94.5278 117.45 94.543 117.504 94.5733 117.55C94.8225 117.979 95.078 118.371 95.3335 118.732C95.3335 118.732 95.3335 118.732 95.3335 118.77C96.0631 119.89 97.0128 120.851 98.1251 121.594L97.4459 121.613Z" fill="#17161B"/>
<path d="M90.4413 119.847C89.382 119.884 88.3414 119.996 87.3257 120.108C86.0187 120.288 84.7007 120.378 83.3813 120.375C83.3454 120.317 83.2909 120.272 83.2264 120.248C83.162 120.225 83.0914 120.223 83.0261 120.245L82.6772 120.363L81.6802 120.718C80.7234 121.085 79.7454 121.394 78.7515 121.645C78.4337 121.726 78.0411 121.869 77.58 122.03C76.1406 122.553 74.1653 123.275 73.4363 122.167C72.0467 120.064 75.7855 115.554 77.175 113.855L77.4928 113.476C78.7764 111.889 80.9137 110.296 83.0448 110.576C84.0504 110.69 85.0107 111.056 85.8364 111.64C86.1143 111.849 86.3806 112.074 86.634 112.312C87.1293 112.847 87.7324 113.271 88.4037 113.556C88.2229 114.459 88.7651 115.578 89.2636 116.58C89.4758 116.982 89.6611 117.398 89.8182 117.824L89.9054 118.129C90.0923 118.758 90.2606 119.324 90.4413 119.847Z" fill="#FFE1D9"/>
<path d="M98.1741 121.588H97.4451C96.6857 121.576 95.9267 121.63 95.1769 121.75C91.8183 122.409 91.4382 121.016 90.5222 117.948L90.4349 117.65C90.266 117.175 90.0576 116.715 89.8118 116.275C89.332 115.298 88.7338 114.085 89.089 113.413C89.5564 112.535 91.7933 112.392 92.9212 112.33C92.7852 112.767 92.7199 113.223 92.728 113.68C92.7285 113.752 92.7545 113.821 92.8012 113.876C92.8479 113.931 92.9125 113.967 92.9835 113.979C93.3676 115.164 93.886 116.302 94.5289 117.37C94.527 117.425 94.5422 117.479 94.5725 117.525C94.8217 117.955 95.0772 118.346 95.3327 118.707C95.3327 118.707 95.3327 118.707 95.3327 118.745C96.0748 119.877 97.042 120.844 98.1741 121.588Z" fill="#17161B"/>
<path d="M145.257 99.3397C144.634 100.485 144.011 101.598 143.313 102.656C139.325 108.934 134.459 113.637 129.094 116.344L128.9 116.437C121.984 119.871 110.867 121.203 104.86 121.918C100.411 122.447 98.1245 121.595 95.8688 118.322C94.8133 116.778 94.008 115.077 93.4823 113.283C93.4746 113.234 93.4529 113.189 93.4199 113.152C93.4408 112.928 93.4868 112.707 93.557 112.492C94.6226 109.226 99.2025 108.33 103.24 107.515C104.503 107.3 105.751 107.012 106.979 106.65C115.248 103.981 121.99 98.9727 125.473 92.9251C129.212 86.4421 128.988 78.7085 128.483 71.9641C128.483 71.7401 128.446 71.5037 128.421 71.2673C128.416 71.2095 128.395 71.1541 128.361 71.1071C128.327 71.06 128.281 71.0229 128.228 70.9997C128.178 69.556 128.593 68.1344 129.411 66.9432C130.284 65.879 131.27 64.9131 132.353 64.0625C133.543 62.9861 134.639 61.8476 135.892 60.8396C137.144 59.8317 138.758 58.3509 140.522 58.3945C140.536 58.4262 140.555 58.4556 140.578 58.4816C144.211 62.8368 147.083 70.9935 147.65 76.0269C148.572 84.1587 148.934 92.5705 145.257 99.3397Z" fill="#8053FF"/>
<path d="M143.326 102.655C139.338 108.933 134.471 113.637 129.106 116.343L128.913 116.436C127.766 111.534 128.807 108.647 132.303 105.343C136.34 101.542 140.833 102.699 143.326 102.655Z" fill="#17161B"/>
</g>
<defs>
<clipPath id="clip0_1_2396">
<rect width="171" height="221" fill="white"/>
</clipPath>
</defs>
</svg>
