<svg width="160" height="213" viewBox="0 0 160 213" fill="none" xmlns="http://www.w3.org/2000/svg">
<g clip-path="url(#clip0_1_2718)">
<path d="M97.038 169.587L97.5218 169.461L96.5384 169.569L97.038 169.587ZM97.038 169.587C97.5218 169.461 97.5219 169.461 97.5221 169.462L97.5228 169.465L97.5257 169.476L97.5372 169.52L97.5826 169.694L97.7599 170.374C97.9151 170.969 98.1428 171.843 98.4325 172.956C99.012 175.182 99.8399 178.365 100.833 182.195C102.82 189.854 105.469 200.099 108.119 210.439C110.768 220.78 113.417 231.218 115.405 239.263C116.398 243.286 117.227 246.712 117.807 249.23C118.097 250.489 118.326 251.524 118.482 252.293C118.561 252.678 118.621 253 118.663 253.253C118.703 253.493 118.73 253.704 118.73 253.846C118.73 255.224 119.508 256.746 120.35 257.976C120.764 258.579 121.179 259.091 121.49 259.452C121.645 259.632 121.774 259.774 121.864 259.87C121.909 259.918 121.943 259.955 121.967 259.979L121.993 260.005L121.999 260.012L122 260.013L122 260.013L122.186 260.2L122.136 260.459L120.998 266.37L123.346 268.929C123.36 268.924 123.374 268.918 123.389 268.912C123.631 268.817 123.982 268.686 124.427 268.541C125.318 268.251 126.586 267.904 128.106 267.672C130.95 267.239 134.699 267.208 138.492 268.742L138.142 263.585L135.879 260.638L135.75 260.471L135.781 260.262L136.392 256.036L136.389 256L136.361 255.719C136.337 255.472 136.301 255.107 136.254 254.637C136.16 253.698 136.021 252.338 135.844 250.656C135.49 247.293 134.98 242.645 134.361 237.504C133.122 227.215 131.445 214.979 129.689 207.119C127.917 199.187 126.467 182.04 125.339 166.45C125 161.754 124.689 157.189 124.407 153.054C124.221 150.321 124.048 147.776 123.888 145.504C123.686 142.647 123.505 140.222 123.344 138.394C123.181 136.543 123.042 135.355 122.934 134.93C122.445 133.011 121.396 127.212 120.472 121.923C120.01 119.272 119.577 116.74 119.26 114.87C119.102 113.935 118.972 113.166 118.882 112.631L118.816 112.233L79.5403 114.258L75.7381 135.324L75.7336 135.389L75.7149 135.66C75.6985 135.898 75.6745 136.248 75.6441 136.699C75.5833 137.602 75.4967 138.905 75.3936 140.512C75.1874 143.724 74.9152 148.147 74.6514 152.987C74.1234 162.673 73.6301 174.01 73.7632 180.673C73.8963 187.341 75.1253 205.79 76.2846 222.895C76.3741 224.216 76.4631 225.528 76.5512 226.826C77.0335 233.931 77.4869 240.611 77.823 245.871C78.0218 248.981 78.1797 251.597 78.2784 253.512C78.3277 254.469 78.3623 255.253 78.3798 255.837C78.3967 256.401 78.3997 256.824 78.3745 257.023C78.2063 258.35 77.4529 259.696 76.8117 260.71C76.6488 260.967 76.4899 261.208 76.3462 261.425L76.2959 261.501C76.1717 261.688 76.062 261.854 75.9694 262C75.8656 262.163 75.7951 262.284 75.7546 262.368C75.864 262.715 76.0698 263.48 76.2515 264.167C76.3601 264.578 76.4641 264.976 76.5408 265.272L76.5838 265.438L91.2972 267.55L93.1192 264.094C93.0544 264.007 92.9763 263.9 92.8888 263.779C92.6387 263.431 92.3094 262.953 91.9974 262.439C91.6877 261.929 91.3834 261.364 91.194 260.846C91.0994 260.587 91.0265 260.321 91.0023 260.068C90.9793 259.827 90.9963 259.555 91.1235 259.308C91.9988 257.255 92.7004 255.133 93.221 252.963C93.2211 252.962 93.2213 252.96 93.2215 252.958C93.2227 252.949 93.2255 252.928 93.2292 252.891C93.2348 252.836 93.2413 252.76 93.2486 252.663C93.2632 252.47 93.2804 252.202 93.3 251.863C93.3392 251.185 93.3875 250.232 93.4437 249.041C93.5561 246.661 93.6996 243.339 93.8629 239.393C94.1896 231.499 94.5958 221.11 94.9921 210.766C95.3885 200.421 95.7751 190.122 96.0625 182.409C96.2063 178.552 96.3252 175.342 96.4082 173.096L96.5044 170.49L96.5297 169.804L96.5362 169.628L96.5378 169.584L96.5382 169.573L96.5383 169.57C96.5383 169.569 96.5384 169.569 97.038 169.587Z" fill="#E0D5FF" stroke="#17161B"/>
<path d="M43.7193 15.499H13.6025V58.6939H43.7193V15.499Z" fill="white"/>
<mask id="mask0_1_2718" style="mask-type:luminance" maskUnits="userSpaceOnUse" x="13" y="15" width="31" height="44">
<path d="M43.7194 15.499H13.6025V58.6939H43.7194V15.499Z" fill="white"/>
</mask>
<g mask="url(#mask0_1_2718)">
<path opacity="0.4" d="M43.7193 15.499H13.6025V58.6939H43.7193V15.499Z" fill="#E0D5FF"/>
</g>
<path d="M43.7193 15.499H13.6025V58.6939H43.7193V15.499Z" stroke="#17161B" stroke-linecap="round" stroke-linejoin="round"/>
<path d="M42.7322 9.3986L13.1982 15.3057L21.639 57.6647L51.173 51.7576L42.7322 9.3986Z" fill="white" stroke="#17161B" stroke-linecap="round" stroke-linejoin="round"/>
<path d="M15.4072 14.6494C15.6288 14.1146 16.0035 13.6575 16.484 13.3356C16.9645 13.0138 17.5293 12.8416 18.1073 12.8408C18.8796 12.8408 19.6203 13.1482 20.1664 13.6953C20.7125 14.2424 21.0193 14.9845 21.0193 15.7582V21.8447C21.0193 22.3605 20.8153 22.8554 20.4519 23.2209C20.0886 23.5864 19.5955 23.7928 19.0806 23.7948C18.5643 23.7948 18.0692 23.5894 17.7041 23.2236C17.3391 22.8579 17.134 22.3619 17.134 21.8447V16.0649C17.134 15.823 17.23 15.591 17.4007 15.4199C17.5715 15.2488 17.803 15.1527 18.0445 15.1527C18.1641 15.1527 18.2825 15.1763 18.3929 15.2222C18.5034 15.268 18.6038 15.3352 18.6883 15.4199C18.7729 15.5046 18.8399 15.6052 18.8857 15.7158C18.9314 15.8265 18.955 15.9451 18.955 16.0649V19.171" stroke="#17161B" stroke-width="1.5" stroke-linecap="round" stroke-linejoin="round"/>
<path d="M62.0158 80.5081C62.0158 84.7387 55.7366 86.0126 55.7366 86.0126C44.2456 75.4518 41.6554 62.4768 36.0669 60.4165C35.5613 60.223 35.0956 59.9378 34.6933 59.5751C33.5678 58.4489 32.714 57.0798 32.1973 55.5726L39.6303 54.0863C39.9647 52.1466 40.6425 50.2825 41.6318 48.5818C42.1734 47.7954 41.3885 46.034 40.4702 44.0366C40.3094 43.6266 40.2603 43.1812 40.3278 42.7459C40.3954 42.3107 40.5773 41.9012 40.8548 41.5596C42.5952 42.983 43.9705 44.803 44.8656 46.8675C46.0038 49.9107 44.8656 57.0902 48.2172 60.6131C54.2217 66.9512 55.1243 66.5895 60.7757 71.4649C61.4824 74.4316 61.8978 77.4604 62.0158 80.5081Z" fill="#FFE1D9"/>
<path d="M62.0158 80.5081C62.0158 84.7387 55.7366 86.0126 55.7366 86.0126C44.2456 75.4518 41.6554 62.4768 36.0669 60.4165C35.5613 60.223 35.0956 59.9378 34.6933 59.5751C33.5678 58.4489 32.714 57.0798 32.1973 55.5726L39.6303 54.0863C39.9647 52.1466 40.6425 50.2825 41.6318 48.5818C42.1734 47.7954 41.3885 46.034 40.4702 44.0366C40.3094 43.6266 40.2603 43.1812 40.3278 42.7459C40.3954 42.3107 40.5773 41.9012 40.8548 41.5596C42.5952 42.983 43.9705 44.803 44.8656 46.8675C46.0038 49.9107 44.8656 57.0902 48.2172 60.6131C54.2217 66.9512 55.1243 66.5895 60.7757 71.4649C61.4824 74.4316 61.8978 77.4604 62.0158 80.5081Z" stroke="#17161B" stroke-linecap="round" stroke-linejoin="round"/>
<path d="M82.7371 48.5654V76.151C82.7371 76.151 79.1579 79.6896 75.2727 83.417C71.1205 87.4039 66.6387 91.603 65.7675 91.9412C64.1113 92.586 60.799 90.046 60.799 90.046C58.9388 91.2885 57.0707 88.6463 57.0707 88.6463C55.2105 90.5572 53.3424 87.3488 55.6265 84.0304C57.9106 80.7119 60.799 71.4486 60.799 71.4486C60.9331 71.3087 61.0939 71.1974 61.272 71.1214C61.45 71.0454 61.6416 71.0062 61.8351 71.0062C62.0286 71.0062 62.2202 71.0454 62.3982 71.1214C62.5763 71.1974 62.7371 71.3087 62.8712 71.4486C62.8712 71.4486 77.1172 51.2627 82.7371 48.5654Z" fill="#8053FF"/>
<mask id="mask1_1_2718" style="mask-type:luminance" maskUnits="userSpaceOnUse" x="54" y="48" width="29" height="45">
<path d="M82.7371 48.5654V76.151C82.7371 76.151 79.1579 79.6896 75.2727 83.417C71.1205 87.4039 66.6387 91.603 65.7675 91.9412C64.1113 92.586 60.799 90.046 60.799 90.046C58.9388 91.2885 57.0707 88.6463 57.0707 88.6463C55.2105 90.5572 53.3424 87.3488 55.6265 84.0304C57.9106 80.7119 60.799 71.4486 60.799 71.4486C60.9331 71.3087 61.0939 71.1974 61.272 71.1214C61.45 71.0454 61.6416 71.0062 61.8351 71.0062C62.0286 71.0062 62.2202 71.0454 62.3982 71.1214C62.5763 71.1974 62.7371 71.3087 62.8712 71.4486C62.8712 71.4486 77.1172 51.2627 82.7371 48.5654Z" fill="white"/>
</mask>
<g mask="url(#mask1_1_2718)">
<path opacity="0.2" d="M82.7369 60.3691V76.1514C82.7369 76.1514 79.1578 79.6901 75.2725 83.4174C73.6364 81.6872 72.4975 79.5462 71.9759 77.2209C71.5128 73.9339 75.3902 76.3087 75.3902 76.3087C72.596 73.4935 75.8612 60.5815 76.026 62.7754C76.1673 64.5447 76.6225 68.39 76.8109 69.7819C76.4341 64.8278 81.3948 60.9275 82.7369 60.3691Z" fill="black" fill-opacity="0.7"/>
</g>
<path d="M82.7371 48.5654V76.151C82.7371 76.151 79.1579 79.6896 75.2727 83.417C71.1205 87.4039 66.6387 91.603 65.7675 91.9412C64.1113 92.586 60.799 90.046 60.799 90.046C58.9388 91.2885 57.0707 88.6463 57.0707 88.6463C55.2105 90.5572 53.3424 87.3488 55.6265 84.0304C57.9106 80.7119 60.799 71.4486 60.799 71.4486C60.9331 71.3087 61.0939 71.1974 61.272 71.1214C61.45 71.0454 61.6416 71.0062 61.8351 71.0062C62.0286 71.0062 62.2202 71.0454 62.3982 71.1214C62.5763 71.1974 62.7371 71.3087 62.8712 71.4486C62.8712 71.4486 77.1172 51.2627 82.7371 48.5654Z" fill="#8053FF" stroke="#17161B" stroke-linecap="round" stroke-linejoin="round"/>
<path d="M77.5958 114.868L77.5959 114.868L77.5886 114.863C77.3007 114.673 77.0574 114.423 76.8755 114.129C76.3409 113.258 76.4899 112.116 76.858 111.085C77.0367 110.584 77.2555 110.143 77.4305 109.827C77.5177 109.669 77.5932 109.543 77.6462 109.458C77.6727 109.416 77.6935 109.384 77.7073 109.363L77.7225 109.34L77.7258 109.335L77.726 109.334L77.7262 109.334L77.7263 109.334L77.7263 109.334L77.8145 109.205L77.8132 109.048L77.3132 109.052C77.8132 109.048 77.8132 109.048 77.8132 109.048L77.8132 109.046L77.8132 109.04L77.813 109.017L77.8123 108.923C77.8118 108.84 77.8111 108.716 77.8105 108.553C77.8092 108.228 77.8081 107.75 77.8087 107.134C77.8099 105.903 77.8181 104.125 77.8461 101.94C77.9019 97.5689 78.0367 91.569 78.3523 85.0522C78.9772 72.1475 80.3081 57.3028 83.1066 49.0281C88.5722 48.4411 94.0687 48.1909 99.5651 48.2789L99.5658 48.2789C103.313 48.3338 107.454 48.5453 111.734 49.0618L111.739 49.0623C114.86 49.4062 118.659 50.0481 122.447 50.7553C128.77 51.9485 134.985 53.3461 137.411 53.8965C137.411 53.8967 137.412 53.8968 137.413 53.8969L137.982 54.0303L137.939 54.1572C137.798 54.5795 137.591 55.1992 137.328 55.9887C136.802 57.5678 136.053 59.8263 135.158 62.5441C133.369 67.9797 131 75.2537 128.678 82.6058C126.357 89.9568 124.082 97.3906 122.482 103.144C121.683 106.02 121.05 108.484 120.665 110.311C120.472 111.223 120.339 111.989 120.279 112.573C120.249 112.864 120.235 113.123 120.245 113.34C120.251 113.469 120.266 113.62 120.311 113.763C120.144 113.857 119.846 113.97 119.391 114.089C118.416 114.343 116.914 114.578 115.028 114.788C111.266 115.205 106.066 115.51 100.718 115.675C95.3723 115.84 89.8911 115.865 85.5691 115.725C83.407 115.655 81.543 115.543 80.134 115.389C79.4288 115.312 78.8469 115.225 78.4027 115.129C77.9366 115.029 77.6889 114.932 77.5958 114.868Z" fill="#8053FF" stroke="#17161B"/>
<path d="M118.474 49.2968C118.474 49.2968 102.776 55.5877 97.6504 49.0137C98.5247 49.0635 99.3975 48.8914 100.188 48.5134C100.978 48.1354 101.66 47.5637 102.171 46.8512C102.977 45.6008 103.415 44.1482 103.435 42.6599C103.505 41.2676 103.416 39.8719 103.168 38.5C102.564 34.812 118.019 37.1947 118.019 37.1947C118.019 37.1947 114.699 47.441 118.474 49.2968Z" fill="#FFE1D9" stroke="#17161B" stroke-linecap="round" stroke-linejoin="round"/>
<path d="M109.18 41.1973C109.18 41.1973 106.48 45.8604 102.171 46.8512C102.977 45.6009 103.415 44.1482 103.435 42.6599C106.354 41.8106 109.18 41.1973 109.18 41.1973Z" fill="#17161B"/>
<path d="M118.018 36.3457C122.39 29.8582 129.054 4.25424 107.556 9.2555C96.8652 11.7404 98.2466 25.7691 98.2466 25.7691L94.5654 30.3379L97.6108 32.925L97.4853 35.9682L98.5213 36.3378C98.5213 36.3378 97.6108 43.7375 98.5213 44.2014C100.185 45.0507 111.119 43.7139 111.119 41.056" fill="#FFE1D9"/>
<path d="M118.018 36.3457C122.39 29.8582 129.054 4.25424 107.556 9.2555C96.8652 11.7404 98.2466 25.7691 98.2466 25.7691L94.5654 30.3379L97.6108 32.925L97.4853 35.9682L98.5213 36.3378C98.5213 36.3378 97.6108 43.7375 98.5213 44.2014C100.185 45.0507 111.119 43.7139 111.119 41.056" stroke="#17161B" stroke-linecap="round" stroke-linejoin="round"/>
<path d="M98.5215 36.3457C100.316 36.5708 102.129 36.6025 103.929 36.4401C103.527 37.1518 102.887 37.6991 102.122 37.9866C101.358 38.274 100.517 38.2833 99.7459 38.0128" stroke="#17161B" stroke-linecap="round" stroke-linejoin="round"/>
<path d="M100.067 20.1544C100.067 20.1544 103.717 19.7927 105.444 22.254" stroke="#17161B" stroke-linecap="round" stroke-linejoin="round"/>
<path d="M102.234 25.7694C102.234 26.5007 101.935 27.0905 101.574 27.0905C101.213 27.0905 100.915 26.5007 100.915 25.7694C100.915 25.0381 101.205 24.4404 101.574 24.4404C101.943 24.4404 102.234 25.0381 102.234 25.7694Z" fill="#17161B"/>
<path d="M124.666 13.1561C121.205 9.57814 106.386 4.33311 102.171 6.4956C95.9859 8.85469 97.6499 15.6253 97.6499 15.6253L98.5212 13.2662C98.5212 13.2662 98.9764 15.2635 102.171 16.4667V14.9726C104.191 15.8008 106.376 16.1429 108.552 15.9713L107.877 14.9647C108.712 15.1549 109.533 15.4019 110.334 15.7039C107.979 20.1075 110.64 23.2215 110.64 23.2215V29.1821C110.64 29.1821 113.78 32.2568 114.667 35.3551C114.849 36.194 115.262 36.9651 115.858 37.5819C116.455 38.1987 117.211 38.6367 118.042 38.8465C124.855 34.6631 128.308 16.9228 124.666 13.1561Z" fill="#17161B"/>
<path d="M109.91 30.0628C109.91 30.0628 113.277 25.5177 115.012 26.2411C116.747 26.9646 117.194 31.1559 116.284 33.0746C115.373 34.9933 112.092 38.9094 111.37 37.4546" fill="#FFE1D9"/>
<path d="M109.91 30.0628C109.91 30.0628 113.277 25.5177 115.012 26.2411C116.747 26.9646 117.194 31.1559 116.284 33.0746C115.373 34.9933 112.092 38.9094 111.37 37.4546" stroke="#17161B" stroke-linecap="round" stroke-linejoin="round"/>
<path d="M62.8711 71.4492C64.358 76.6446 64.358 82.1541 62.8711 87.3495" stroke="#17161B" stroke-linecap="round" stroke-linejoin="round"/>
<path d="M98.5211 52.0104L100.091 57.6093C100.091 57.6093 90.8369 88.5999 89.8008 97.5172L91.8729 100.663L95.7974 97.6981C95.7974 97.6981 99.6749 67.1872 102.187 58.6709L106.951 52.207L103.945 51.9082L98.5211 52.0104Z" fill="#17161B"/>
<path d="M100.939 46.8516L102.76 50.6418L118.458 46.8516L122.524 50.2644L105.428 57.609L102.744 52.2303L97.6343 55.8318C97.6343 55.8318 93.8746 47.4099 100.939 46.8516Z" fill="#E0D5FF" stroke="#17161B" stroke-linecap="round" stroke-linejoin="round"/>
<path d="M137.343 99.3252C133.193 103.112 129.587 107.458 126.629 112.237C122.437 119.393 116.072 126.549 112.807 128.413C112.807 128.413 113.121 134.79 117.155 138.368C117.155 138.368 143.701 114.777 146.981 107.417C150.262 100.057 137.343 99.3252 137.343 99.3252Z" fill="#FFE1D9" stroke="#17161B" stroke-linecap="round" stroke-linejoin="round"/>
<path d="M138.63 53.6768C143.598 56.0358 150.403 98.1141 150.607 103.941C150.662 105.805 146.91 109.839 146.91 109.839C146.91 109.839 146.973 113.456 144.665 113.771C144.665 113.771 137.805 106.693 132.005 103.972C131.878 103.654 131.836 103.308 131.883 102.969C131.93 102.629 132.065 102.308 132.275 102.037C132.484 101.766 132.761 101.555 133.077 101.424C133.393 101.293 133.738 101.247 134.077 101.291L129.58 81.6319C124.76 65.4329 134.909 57.2547 134.909 57.2547" fill="#8053FF"/>
<path d="M138.63 53.6768C143.598 56.0358 150.403 98.1141 150.607 103.941C150.662 105.805 146.91 109.839 146.91 109.839C146.91 109.839 146.973 113.456 144.665 113.771C144.665 113.771 137.805 106.693 132.005 103.972C131.878 103.654 131.836 103.308 131.883 102.969C131.93 102.629 132.065 102.308 132.275 102.037C132.484 101.766 132.761 101.555 133.077 101.424C133.393 101.293 133.738 101.247 134.077 101.291L129.58 81.6319C124.76 65.4329 134.909 57.2547 134.909 57.2547" stroke="#17161B" stroke-linecap="round" stroke-linejoin="round"/>
<path d="M134.077 101.299C134.077 101.299 140.906 101.818 144.634 107.417" stroke="#17161B" stroke-linecap="round" stroke-linejoin="round"/>
<path d="M103.129 121.044C107.343 120.894 111.54 120.434 115.687 119.668L115.358 115.886C111.17 116.518 106.952 116.928 102.721 117.112C102.838 118.182 103.019 119.88 103.129 121.044Z" fill="#757575" stroke="#17161B" stroke-linecap="round" stroke-linejoin="round"/>
<path d="M117.217 119.377C118.002 119.212 118.787 119.031 119.572 118.843L119.007 115.265C119.007 115.265 118.269 115.43 116.888 115.666L117.217 119.377Z" fill="#757575" stroke="#17161B" stroke-linecap="round" stroke-linejoin="round"/>
<path d="M100.954 117.176C94.795 117.371 88.6296 117.184 82.4933 116.617L82.0459 120.022C88.3736 120.883 94.7581 121.253 101.143 121.131L100.954 117.176Z" fill="#757575" stroke="#17161B" stroke-linecap="round" stroke-linejoin="round"/>
<path d="M81.2378 116.491L79.668 116.326L79.252 119.59C79.252 119.59 79.8171 119.692 80.8218 119.841L81.2378 116.491Z" fill="#757575" stroke="#17161B" stroke-linecap="round" stroke-linejoin="round"/>
<path d="M93.5611 121.415L86.7324 121.171L87.2505 116.822L94.0791 117.066L93.5611 121.415Z" fill="#BFBFBF" stroke="#17161B" stroke-linecap="round" stroke-linejoin="round"/>
<path d="M108.066 68.0518L119.541 69.2234L116.849 81.2862L110.797 82.0569L105.68 78.8013L106.943 69.2234" stroke="#17161B" stroke-linecap="round" stroke-linejoin="round"/>
<path d="M111.104 124.19C111.104 124.19 111.363 135.789 119.533 140.877" stroke="#17161B" stroke-linecap="round" stroke-linejoin="round"/>
<path d="M24.0186 44.0992L35.7607 41.7559" stroke="#17161B" stroke-linecap="round" stroke-linejoin="round"/>
<path d="M23.4609 41.1028L43.8999 37.0137" stroke="#17161B" stroke-linecap="round" stroke-linejoin="round"/>
<path d="M22.9033 38.1067L43.3422 34.0176" stroke="#17161B" stroke-linecap="round" stroke-linejoin="round"/>
<path d="M22.3467 35.1115L42.7856 31.0225" stroke="#17161B" stroke-linecap="round" stroke-linejoin="round"/>
<path d="M21.7891 32.1076L42.228 28.0186" stroke="#17161B" stroke-linecap="round" stroke-linejoin="round"/>
<path d="M21.2314 29.1115L41.6704 25.0225" stroke="#17161B" stroke-linecap="round" stroke-linejoin="round"/>
<path d="M20.6748 26.1154L41.1216 22.0264" stroke="#17161B" stroke-linecap="round" stroke-linejoin="round"/>
<path d="M25.5723 22.0263L40.5639 19.0303" stroke="#17161B" stroke-linecap="round" stroke-linejoin="round"/>
</g>
<line x1="41" y1="212.5" x2="160" y2="212.5" stroke="#232227"/>
<defs>
<clipPath id="clip0_1_2718">
<rect width="151" height="213" fill="white"/>
</clipPath>
</defs>
</svg>
