<svg width="197" height="213" viewBox="0 0 197 213" fill="none" xmlns="http://www.w3.org/2000/svg">
<line x1="78" y1="212.5" x2="197" y2="212.5" stroke="#232227"/>
<g clip-path="url(#clip0_7_1270)">
<path d="M135.707 215.904L146.886 116.093L121.932 115.585C121.319 128.169 119.765 153.083 118.356 174.968C117.642 186.054 116.965 196.364 116.467 203.903C116.218 207.672 116.013 210.748 115.871 212.882C115.8 213.949 115.744 214.781 115.707 215.346L115.664 215.989L115.653 216.152C115.854 217.318 117.014 218.298 118.953 218.987C120.882 219.672 123.406 220 125.932 219.966C128.459 219.932 130.938 219.536 132.778 218.809C134.661 218.066 135.669 217.07 135.704 215.945L135.705 215.924L135.707 215.904Z" fill="#E0D5FF" stroke="#17161B"/>
<path d="M140.682 120.181L131.455 215.796L131.049 220.001L130.599 224.664C130.515 224.68 130.436 224.696 130.346 224.713C130.24 224.734 130.128 224.751 130.011 224.773C129.841 224.8 129.665 224.827 129.484 224.848L129.928 220.207L130.331 216.033L139.605 119.973" fill="#17161B"/>
<path d="M175.01 217.057L175.007 217.035L175.005 217.014L165.458 115.575H141.931L159.122 217.014C159.122 217.015 159.122 217.015 159.122 217.016C159.176 217.31 159.396 217.626 159.863 217.941C160.328 218.255 160.986 218.532 161.793 218.757C163.403 219.207 165.506 219.428 167.585 219.411C169.666 219.394 171.675 219.14 173.102 218.67C173.82 218.434 174.348 218.157 174.668 217.863C174.974 217.582 175.059 217.324 175.01 217.057Z" fill="#E0D5FF" stroke="#17161B"/>
<path d="M163.412 119.973C164.235 122.933 170.935 190.92 173.435 216.475L173.678 218.937C173.919 221.378 174.099 223.277 174.218 224.502C174.054 224.547 173.88 224.585 173.7 224.623L173.276 224.705C173.239 224.709 173.201 224.717 173.165 224.727C172.994 222.987 172.821 221.17 172.632 219.293C172.548 218.374 172.456 217.438 172.357 216.491C168.769 179.762 163.077 122.726 162.374 120.181" fill="#17161B"/>
<path d="M96.1596 68.1886L110.161 75.7325C120.608 58.8381 127.854 55.707 127.854 55.707L140.544 70.7468C140.544 70.7468 124.826 95.8849 115.956 97.4639C110.636 98.4108 102.611 94.0197 96.1596 89.6107V68.1886Z" fill="#D4E3F6"/>
<path d="M129.923 55.7006L129.923 55.7008L129.923 55.7009L129.923 55.701L129.968 55.7969L129.969 55.9032L130.002 57.7687L132.395 58.5538L145.045 52.4482C145.021 52.3527 144.993 52.2427 144.962 52.1214C144.852 51.6881 144.705 51.1107 144.556 50.5334C144.406 49.9555 144.255 49.3799 144.136 48.9495C144.1 48.8184 144.068 48.7025 144.039 48.6048C144.002 48.6065 143.962 48.6083 143.919 48.6103C143.612 48.6243 143.174 48.646 142.64 48.6759C141.572 48.7356 140.122 48.8281 138.576 48.9577C137.029 49.0873 135.39 49.2537 133.942 49.4606C132.482 49.6693 131.256 49.9142 130.511 50.1905C129.857 50.4328 129.506 50.8532 129.322 51.3603C129.129 51.8901 129.113 52.5362 129.199 53.1968C129.285 53.8514 129.466 54.4792 129.628 54.9481C129.708 55.1812 129.783 55.372 129.838 55.5035C129.865 55.5692 129.887 55.6199 129.902 55.6535L129.918 55.6908L129.922 55.6992L129.923 55.7006Z" fill="#FFC700" stroke="#17161B"/>
<path d="M145.977 53.4846C143.54 53.2014 141.079 53.1966 138.641 53.4704C136.215 53.7572 133.608 54.4698 131.529 55.6884C120.669 62.0632 120.956 125.235 123.41 126.065C127.354 129.788 151.369 128.16 151.901 124.572L145.977 53.4846Z" fill="#946DFF"/>
<path d="M144.044 33.2445L133.49 35.5737L137.173 47.1922L137.173 47.1922L137.175 47.1971L137.243 47.4199L137.244 47.4224L139.114 53.3214L139.158 53.4581L139.122 53.597C138.39 56.4429 138.388 59.3089 138.573 61.4736C138.653 62.4121 138.768 63.2147 138.872 63.8213C140.345 61.1883 141.378 58.0129 142.184 54.5224L142.222 54.3567L142.353 54.2487C143.859 53.0106 145.393 52.5782 146.945 52.2643C147.245 52.2036 147.544 52.1474 147.844 52.0912C148.982 51.8776 150.125 51.6632 151.344 51.1946L146.77 32.3164L144.098 33.2294L144.071 33.2385L144.044 33.2445Z" fill="#FFE1D9" stroke="#17161B"/>
<path d="M132.373 33.7678C132.373 33.7678 137.306 49.3361 137.309 49.3361C137.514 49.2167 145.085 42.5273 146.053 34.8753C146.281 33.0732 145.717 31.8546 144.721 31.0459L132.373 33.7678Z" fill="url(#paint0_linear_7_1270)"/>
<path d="M140.192 129.362L140.141 129.262C139.551 128.099 139.126 126.072 138.86 123.344C138.595 120.636 138.493 117.3 138.513 113.564C138.554 106.095 139.084 97.0651 139.773 88.3395C140.463 79.6156 141.311 71.2038 141.987 64.9724C142.325 61.8569 142.619 59.2868 142.829 57.4958C142.934 56.6003 143.018 55.8995 143.075 55.4227C143.102 55.1984 143.124 55.0235 143.139 54.9013C145.338 53.2576 148.665 52.3742 152.085 52.0064C155.575 51.6311 159.074 51.8017 161.381 52.1889L140.192 129.362ZM140.192 129.362L140.195 129.475C140.197 129.551 140.229 129.649 140.389 129.775C140.56 129.908 140.844 130.043 141.263 130.159C142.098 130.39 143.322 130.507 144.834 130.509C147.847 130.513 151.866 130.06 155.869 129.263C159.874 128.466 163.826 127.332 166.714 125.989C168.161 125.317 169.31 124.606 170.065 123.881C170.82 123.157 171.117 122.486 171.045 121.866M140.192 129.362L171.045 121.866M171.045 121.866L166.981 95.2627L166.967 95.1687L166.988 95.0761L167.476 95.1872C166.988 95.0761 166.988 95.076 166.988 95.0758L166.988 95.0748L166.989 95.0705L166.993 95.0524L167.01 94.9793C167.024 94.9145 167.045 94.8177 167.073 94.6908C167.127 94.437 167.206 94.0629 167.301 93.5835C167.493 92.6246 167.754 91.2447 168.03 89.5635C168.582 86.2 169.193 81.6369 169.432 76.8308C169.671 72.0201 169.536 66.9904 168.608 62.6843C167.677 58.3653 165.968 54.8661 163.139 52.9895C162.52 52.5791 161.971 52.2881 161.381 52.1889L171.045 121.866Z" fill="#8053FF" stroke="#17161B"/>
<path d="M142.87 53.7234C142.893 53.7983 142.916 53.8684 142.938 53.9331C145.47 52.713 149.369 52.0196 153.15 51.7009C156.936 51.3816 160.701 51.4311 163.024 51.7471C163.019 51.7176 163.013 51.6863 163.007 51.653C162.927 51.2114 162.759 50.5953 162.564 49.9556C162.371 49.3207 162.157 48.6808 161.99 48.1983C161.907 47.9574 161.836 47.7565 161.786 47.6159C161.774 47.5816 161.763 47.5509 161.754 47.5241C161.506 47.337 161.126 47.1591 160.608 47.0057C160.03 46.8345 159.318 46.7054 158.507 46.6179C156.887 46.4431 154.92 46.4398 152.935 46.5747C150.952 46.7095 148.968 46.9811 147.316 47.3497C145.637 47.7245 144.387 48.182 143.796 48.6438C142.643 49.5465 142.425 50.8946 142.542 52.1322C142.6 52.7453 142.74 53.3058 142.87 53.7234ZM163.052 52.0976C163.052 52.0978 163.052 52.0955 163.053 52.0905C163.052 52.095 163.052 52.0975 163.052 52.0976Z" fill="#FFC700" stroke="#17161B"/>
<path d="M138.641 53.4704C138.641 53.4704 132.248 56.9912 129.583 65.3197C124.684 80.6283 129.966 127.532 129.966 127.532C129.411 130.364 117.929 127.963 118.484 125.129C118.484 125.129 117.955 61.4115 128.113 55.5428C128.116 55.542 134.124 52.7353 138.641 53.4704Z" fill="#D4E3F6"/>
<path d="M141.227 8.96857C141.263 9.00216 141.304 9.04162 141.351 9.08659C141.524 9.25156 141.771 9.49062 142.071 9.78602C142.67 10.3771 143.477 11.1923 144.306 12.0898C145.137 12.9885 145.985 13.9634 146.67 14.8749C147.367 15.8015 147.855 16.6104 148.02 17.1863L141.227 8.96857ZM141.227 8.96857C141.177 8.96932 141.118 8.97038 141.051 8.97188C140.808 8.97729 140.455 8.98844 140.018 9.01139C139.145 9.05734 137.941 9.15044 136.619 9.33874C133.944 9.71956 130.894 10.4758 129.057 11.9326L129.056 11.933C127.629 13.0616 126.524 14.9623 125.755 17.3363C124.237 22.0394 123.618 28.4214 124.297 33.8363C124.637 36.5434 125.297 38.9763 126.307 40.828C127.315 42.6769 128.645 43.9029 130.318 44.3057C137.181 45.9522 145.077 41.3202 145.662 33.9401L145.705 33.3913L146.247 33.4872C146.638 33.5564 147.033 33.597 147.43 33.6088C149.069 33.5332 150.652 32.4575 151.525 31.0246C152.392 29.6011 152.502 27.9334 151.387 26.616L151.387 26.6158C150.855 25.9866 150.341 25.7034 149.878 25.6064C149.412 25.5086 148.942 25.5882 148.481 25.7855L147.636 26.1473L147.791 25.2414C148.334 22.075 148.566 19.0972 148.02 17.1864L141.227 8.96857Z" fill="#FFE1D9" stroke="#17161B"/>
<path d="M124.502 7.98898C124.502 10.9526 117.654 10.617 117.832 12.4528C118.714 21.5781 142.561 17.9942 142.535 18.0791C141.555 21.2544 143.757 25.2873 143.757 25.2873L141.906 29.5342L143.837 30.1514C145.283 25.7018 148.277 25.3309 148.277 25.3309C149.335 24.8803 150.584 24.9044 151.762 26.298C154.346 29.3502 151.109 33.9515 147.437 34.1137C159.394 34.5252 164.088 8.47178 150.748 8.47178C146.567 -5.5453 124.515 0.391012 124.502 7.98898Z" fill="#17161B"/>
<path d="M125.536 25.3113C125.286 26.141 125.491 26.9879 125.995 27.2057C126.499 27.4234 127.105 26.9271 127.357 26.0967C127.609 25.2662 127.4 24.4253 126.896 24.2075C126.392 23.9898 125.784 24.4861 125.536 25.3113Z" fill="#17161B"/>
<path d="M129.904 23.4355C129.834 23.4356 129.765 23.4164 129.705 23.3798C129.646 23.3433 129.597 23.2909 129.564 23.2282C128.813 21.7851 127.126 22.1672 125.844 22.7417C125.751 22.7833 125.645 22.7857 125.55 22.7483C125.455 22.7109 125.379 22.6368 125.338 22.5423C125.297 22.4478 125.295 22.3406 125.332 22.2444C125.368 22.1482 125.441 22.0707 125.535 22.0291C127.738 21.0417 129.453 21.3473 130.243 22.8648C130.274 22.9241 130.289 22.9904 130.287 23.0574C130.285 23.1245 130.266 23.1898 130.232 23.2473C130.198 23.3047 130.15 23.3522 130.092 23.3851C130.035 23.4181 129.97 23.4355 129.904 23.4355Z" fill="#17161B"/>
<path d="M134.47 27.1296C134.221 27.9593 134.427 28.8063 134.93 29.0241C135.433 29.2418 136.04 28.7455 136.292 27.915C136.543 27.0846 136.335 26.2436 135.831 26.0259C135.328 25.8081 134.718 26.3044 134.47 27.1296Z" fill="#17161B"/>
<path d="M138.631 26.4587C138.561 26.4589 138.492 26.4395 138.432 26.4027C138.372 26.3659 138.323 26.3131 138.291 26.25C137.374 24.4712 135.979 23.6408 134.362 23.9088C134.263 23.9221 134.163 23.8958 134.083 23.8353C134.003 23.7749 133.949 23.6852 133.933 23.5852C133.917 23.4852 133.94 23.3828 133.997 23.2997C134.054 23.2165 134.141 23.1592 134.239 23.1399C136.209 22.8133 137.889 23.7887 138.971 25.8896C138.994 25.9349 139.009 25.9845 139.013 26.0355C139.018 26.0865 139.012 26.1379 138.997 26.1868C138.982 26.2356 138.957 26.281 138.925 26.3202C138.892 26.3594 138.853 26.3917 138.808 26.4152C138.753 26.4444 138.693 26.4594 138.631 26.4587Z" fill="#17161B"/>
<path d="M132.143 27.084C132.3 27.5713 132.246 28.0916 132.18 28.5925C132.101 29.1121 131.93 29.6131 131.676 30.0709C131.536 30.3226 131.354 30.548 131.138 30.7369C131.021 30.8407 130.892 30.9297 130.754 31.002C130.682 31.041 130.608 31.0744 130.532 31.1018L130.368 31.1627C129.977 31.2967 129.611 31.5001 129.29 31.7634C128.999 31.9958 128.786 32.3132 128.679 32.6726C128.634 32.8414 128.628 33.0183 128.659 33.1901C128.691 33.3619 128.76 33.5243 128.862 33.6653C129.075 33.9611 129.446 34.1721 129.872 34.272C130.299 34.3718 130.777 34.3666 131.264 34.3215C130.828 34.5837 130.337 34.7354 129.831 34.7638C129.313 34.7736 128.721 34.6361 128.286 34.1999C127.837 33.7839 127.637 33.0976 127.745 32.4864C127.852 31.8752 128.2 31.3406 128.628 30.9757C129.047 30.6203 129.535 30.3594 130.061 30.2106L130.238 30.1558C130.275 30.1475 130.312 30.1362 130.348 30.122C130.427 30.092 130.501 30.0521 130.57 30.0033C130.728 29.8868 130.871 29.7498 130.993 29.5956C131.268 29.2395 131.498 28.8504 131.679 28.437C131.87 28.0105 132.058 27.5675 132.143 27.084Z" fill="#17161B"/>
<path d="M131.223 40.1434C131.171 40.1434 131.118 40.1434 131.067 40.1389C129.819 40.0638 129.373 39.4631 129.217 39.1094C129.195 39.0625 129.182 39.0115 129.18 38.9596C129.178 38.9077 129.186 38.8558 129.204 38.807C129.221 38.7583 129.249 38.7136 129.284 38.6757C129.319 38.6378 129.361 38.6073 129.408 38.5862C129.454 38.565 129.505 38.5536 129.556 38.5526C129.607 38.5515 129.658 38.5609 129.706 38.5802C129.754 38.5994 129.797 38.6281 129.833 38.6646C129.87 38.701 129.899 38.7446 129.918 38.7926C130.002 38.9833 130.269 39.3107 131.111 39.3617C131.99 39.4165 133.339 38.8279 133.998 38.2677C134.036 38.235 134.081 38.2103 134.13 38.1952C134.178 38.18 134.229 38.1747 134.279 38.1794C134.329 38.1841 134.378 38.1989 134.423 38.2228C134.467 38.2467 134.507 38.2793 134.539 38.3188C134.572 38.3582 134.596 38.4037 134.611 38.4527C134.626 38.5016 134.631 38.5531 134.626 38.6042C134.622 38.6552 134.607 38.7048 134.584 38.7501C134.56 38.7955 134.528 38.8357 134.489 38.8684C133.749 39.4991 132.319 40.1434 131.223 40.1434Z" fill="#17161B"/>
<path d="M134.385 107.157L134.342 107.174L134.297 107.182C133.93 107.253 133.647 107.472 133.432 107.864C133.208 108.272 133.067 108.854 133.025 109.586C132.939 111.048 133.252 112.954 133.839 114.84C134.427 116.722 135.273 118.534 136.217 119.811C136.69 120.45 137.171 120.933 137.636 121.23C138.098 121.525 138.514 121.62 138.892 121.547L138.932 121.54L138.973 121.539C141.56 121.47 150.451 120.828 159.957 118.944C164.708 118.002 169.601 116.752 173.931 115.114C178.268 113.473 181.999 111.458 184.464 109.006L184.464 109.006C185.346 108.13 185.947 106.729 186.257 104.861C186.565 102.999 186.576 100.726 186.325 98.1674C185.822 93.0515 184.278 86.8675 182.064 80.7051C179.851 74.5444 176.977 68.4281 173.828 63.4459C170.667 58.4452 167.273 54.658 164.046 53.0605C162.598 52.3453 160.19 51.95 157.846 52.1302C155.484 52.3119 153.365 53.0628 152.339 54.4555L152.339 54.4556C151.602 55.4563 151.191 56.8214 151.068 58.4912C150.945 60.1584 151.113 62.0937 151.501 64.1979C152.276 68.4067 153.918 73.2199 155.771 77.7809C157.623 82.3376 159.678 86.6223 161.272 89.7692C162.068 91.3422 162.748 92.6298 163.23 93.5238C163.47 93.9707 163.661 94.3192 163.791 94.5556C163.856 94.6738 163.906 94.764 163.94 94.8245L163.978 94.8928L163.988 94.9098L163.99 94.914L163.991 94.915C163.991 94.9151 163.991 94.9152 163.555 95.1605L163.991 94.9152L164.273 95.4158L163.738 95.6259L134.385 107.157Z" fill="#8053FF" stroke="#17161B"/>
<path d="M137.243 122.325C137.289 122.352 137.315 122.359 137.325 122.36L142.943 121.048C143.053 121.02 143.217 120.904 143.342 120.461C143.465 120.026 143.508 119.398 143.466 118.614C143.381 117.054 142.967 115.022 142.365 113.014C141.764 111.007 140.985 109.063 140.189 107.675C139.789 106.978 139.4 106.45 139.047 106.123C138.68 105.782 138.455 105.751 138.342 105.779L138.333 105.781L138.324 105.783L132.562 106.978C132.557 106.985 132.548 106.997 132.536 107.018C132.495 107.091 132.449 107.225 132.419 107.443C132.358 107.877 132.376 108.507 132.471 109.293C132.66 110.853 133.14 112.9 133.761 114.929C134.382 116.956 135.135 118.938 135.862 120.369C136.228 121.088 136.573 121.643 136.877 121.995C137.03 122.171 137.153 122.274 137.243 122.325ZM132.567 106.974C132.568 106.972 132.569 106.972 132.569 106.971C132.569 106.971 132.568 106.972 132.567 106.974ZM137.327 122.361C137.329 122.361 137.33 122.361 137.33 122.361C137.33 122.361 137.329 122.361 137.327 122.361Z" fill="#FFC700" stroke="#17161B"/>
<path d="M137.225 121.724C138.057 121.511 138.622 117.8 137.409 113.961C136.196 110.121 133.663 107.606 132.831 107.819C131.999 108.032 132.309 111.319 133.522 115.159C134.736 118.999 136.394 121.938 137.225 121.724Z" fill="#DD8800"/>
<path d="M139.087 61.2303L127.049 132.23C126.858 133.351 126.236 134.35 125.321 135.006C124.405 135.662 123.269 135.923 122.164 135.73L3.50941 115.018C2.40448 114.824 1.42044 114.194 0.773621 113.264C0.126816 112.335 -0.129822 111.183 0.0601349 110.062L12.1005 39.0627C12.2913 37.9417 12.9128 36.9433 13.8287 36.2871C14.7445 35.6309 15.8797 35.3704 16.9847 35.5629L135.638 56.2747C136.743 56.4682 137.727 57.0989 138.374 58.0281C139.02 58.9574 139.277 60.1091 139.087 61.2303Z" fill="#FFC700"/>
<g opacity="0.3">
<path d="M98.3138 65.8427C98.3245 65.7791 98.3475 65.7182 98.3815 65.6636C98.4154 65.609 98.4596 65.5618 98.5116 65.5245C98.5635 65.4873 98.6222 65.4608 98.6843 65.4466C98.7463 65.4324 98.8106 65.4308 98.8732 65.4417L124.651 69.9402C124.714 69.951 124.774 69.9742 124.827 70.0086C124.881 70.0429 124.928 70.0877 124.965 70.1404C125.001 70.193 125.028 70.2525 125.042 70.3154C125.056 70.3783 125.058 70.4435 125.047 70.5071L124.561 73.3723C124.55 73.436 124.527 73.4969 124.493 73.5515C124.459 73.6062 124.415 73.6535 124.363 73.6908C124.311 73.728 124.252 73.7545 124.19 73.7686C124.128 73.7828 124.064 73.7844 124.001 73.7733L98.2235 69.2741C98.0969 69.2519 97.9843 69.1797 97.9102 69.0733C97.8361 68.9668 97.8066 68.8349 97.8283 68.7065L98.3138 65.8427Z" fill="white"/>
<path d="M105.535 76.1662L123.074 79.2282C123.2 79.2503 123.313 79.3225 123.388 79.4289C123.462 79.5354 123.491 79.6674 123.47 79.7959L122.983 82.6612C122.962 82.7896 122.89 82.9039 122.785 82.9791C122.681 83.0543 122.551 83.0841 122.424 83.0621L104.885 80.0001C104.759 79.9779 104.646 79.9057 104.572 79.7993C104.498 79.6928 104.468 79.5609 104.49 79.4325L104.976 76.5672C104.998 76.4389 105.069 76.3245 105.174 76.2493C105.278 76.1741 105.408 76.1442 105.535 76.1662Z" fill="white"/>
</g>
<path opacity="0.3" d="M139.087 61.2307L136.936 73.9203C132.958 69.1756 126.311 66.9605 120.063 65.9657C112.727 64.8003 104.976 64.6524 98.4543 61.0483C93.9179 58.5441 90.3377 54.5375 85.8523 51.9463C81.2641 49.295 75.9632 48.2491 70.7438 47.4284C65.5243 46.6077 60.216 45.9582 55.3111 43.9812C53.6203 43.307 52.0073 42.4471 50.5009 41.417L135.638 56.275C136.743 56.4686 137.727 57.0993 138.374 58.0285C139.02 58.9578 139.277 60.1095 139.087 61.2307Z" fill="white"/>
<path opacity="0.3" d="M135.049 85.052L127.049 132.229C126.858 133.35 126.237 134.349 125.321 135.005C124.405 135.661 123.27 135.922 122.165 135.729L114.461 134.384C113.444 132.464 111.909 130.762 110.149 129.508C106.539 126.937 102.122 125.865 97.8103 124.913C93.4981 123.961 89.0779 123.052 85.3082 120.723C78.4828 116.512 75.0491 108.559 70.8472 101.665C62.5292 88.0359 49.765 77.2618 35.0495 71.4426C26.2852 67.9774 16.8646 66.285 7.46542 66.3923L10.9266 45.9824C19.2409 46.0718 27.544 47.5209 35.3914 50.3314C55.3531 57.4811 71.6264 72.7514 91.355 80.5416C105.165 85.9958 120.442 87.5599 135.049 85.052Z" fill="white"/>
<path opacity="0.3" d="M43.3779 121.975L3.5108 115.016C2.40586 114.822 1.42182 114.192 0.775009 113.262C0.128197 112.333 -0.128433 111.181 0.0615158 110.06L3.87638 87.5605C4.05103 87.6214 4.23161 87.6769 4.40551 87.737C13.1278 90.6974 21.2922 95.1371 28.5514 100.867C32.5794 104.054 36.3469 107.66 39.179 111.98C41.166 115.014 42.6675 118.422 43.3779 121.975Z" fill="white"/>
<path d="M41.3353 73.1215L17.3841 68.9399C16.8564 68.8478 16.3864 68.5468 16.0775 68.1031C15.7685 67.6594 15.646 67.1093 15.7367 66.5739L18.759 48.7508C18.85 48.2155 19.1467 47.7387 19.584 47.4253C20.0212 47.1119 20.5632 46.9875 21.0909 47.0793L45.0421 51.2609C45.3034 51.3064 45.5533 51.4037 45.7776 51.5473C46.0018 51.6908 46.196 51.8778 46.349 52.0975C46.5019 52.3173 46.6107 52.5654 46.6692 52.8278C46.7276 53.0902 46.7345 53.3617 46.6894 53.6269L43.6671 71.4501C43.5762 71.9853 43.2794 72.4621 42.8422 72.7755C42.4049 73.0889 41.8629 73.2134 41.3353 73.1215Z" fill="white"/>
<path d="M43.462 55.8899C43.4496 55.9635 43.4231 56.0339 43.3839 56.097C43.3447 56.1602 43.2936 56.2149 43.2335 56.258C43.1734 56.3011 43.1055 56.3318 43.0338 56.3482C42.962 56.3647 42.8877 56.3666 42.8152 56.3539L37.7156 55.4641L35.6287 57.5838L35.1847 60.2163L41.9612 61.3997C42.1057 61.4273 42.2337 61.5114 42.3176 61.6339C42.4015 61.7563 42.4346 61.9074 42.4097 62.0544C42.3848 62.2014 42.304 62.3326 42.1847 62.4197C42.0653 62.5068 41.917 62.5428 41.7718 62.52L34.9945 61.3366L34.5505 63.9699L35.8197 66.673L40.9192 67.5627C41.0546 67.5892 41.1756 67.6653 41.2591 67.7765C41.3426 67.8878 41.3828 68.0264 41.3719 68.1659C41.361 68.3053 41.2998 68.4357 41.2001 68.5323C41.1003 68.6288 40.969 68.6846 40.8312 68.689C40.797 68.6896 40.7627 68.6869 40.729 68.6808L35.3438 67.7407C35.2553 67.7254 35.1718 67.6888 35.1002 67.6339C35.0286 67.579 34.971 67.5075 34.9324 67.4253L33.587 64.557L27.5187 63.4968L25.306 65.7442C25.2426 65.8086 25.1649 65.8566 25.0793 65.8841C24.9938 65.9117 24.903 65.918 24.8146 65.9026L19.4294 64.9625C19.3202 64.9435 19.2191 64.892 19.1387 64.8147C19.0583 64.7373 19.0024 64.6375 18.9779 64.5279C18.9535 64.4183 18.9616 64.3038 19.0012 64.1988C19.0409 64.0939 19.1103 64.0033 19.2007 63.9383C19.2606 63.895 19.3285 63.8642 19.4003 63.8477C19.472 63.8312 19.5463 63.8293 19.6188 63.8422L24.7184 64.732L26.8053 62.6123L27.2493 59.9798L20.4728 58.7964C20.3284 58.7688 20.2004 58.6847 20.1164 58.5623C20.0325 58.4398 19.9995 58.2887 20.0243 58.1417C20.0492 57.9947 20.13 57.8635 20.2493 57.7764C20.3687 57.6893 20.517 57.6533 20.6623 57.6762L27.4395 58.8595L27.8835 56.2262L26.6151 53.5231L21.5155 52.6334C21.443 52.6207 21.3736 52.5937 21.3114 52.5539C21.2491 52.514 21.1953 52.462 21.1529 52.401C21.1104 52.34 21.0803 52.271 21.0642 52.1982C21.0481 52.1253 21.0463 52.0499 21.0589 51.9764C21.0843 51.828 21.1666 51.6958 21.2879 51.6089C21.4091 51.5221 21.5594 51.4876 21.7057 51.5131L27.091 52.4532C27.1795 52.4686 27.263 52.5054 27.3346 52.5604C27.4062 52.6154 27.4637 52.687 27.5024 52.7693L28.8471 55.6368L34.919 56.697L37.1317 54.4497C37.1951 54.3851 37.2728 54.337 37.3583 54.3094C37.4439 54.2819 37.5347 54.2756 37.6231 54.2913L43.0084 55.2313C43.1547 55.257 43.285 55.3406 43.3707 55.4636C43.4564 55.5866 43.4906 55.7391 43.4657 55.8876L43.462 55.8899ZM28.9188 56.8059L27.9664 62.4276L33.5063 63.3947L34.4602 57.776L28.9188 56.8059Z" fill="#FFC700"/>
<path d="M109.803 117.937L110.548 117.571C110.578 117.556 110.605 117.535 110.626 117.509C110.647 117.483 110.662 117.453 110.67 117.42C110.691 117.361 110.691 117.296 110.67 117.236C110.658 117.202 110.64 117.171 110.617 117.143L109.979 116.31L111.023 116.405L111.089 116.399C111.099 116.398 111.109 116.398 111.118 116.399C111.149 116.394 111.178 116.384 111.205 116.367C111.231 116.351 111.254 116.329 111.271 116.303C111.315 116.248 111.338 116.179 111.336 116.109L111.223 115.27C111.221 115.237 111.211 115.205 111.194 115.177C111.176 115.149 111.153 115.126 111.125 115.109C111.075 115.069 111.012 115.049 110.949 115.051C110.914 115.054 110.881 115.063 110.85 115.08L109.862 115.435L110.278 114.459C110.287 114.44 110.295 114.42 110.3 114.399C110.302 114.389 110.304 114.379 110.306 114.37C110.317 114.305 110.302 114.238 110.264 114.184C110.247 114.155 110.224 114.129 110.196 114.11C110.169 114.09 110.138 114.076 110.104 114.07L109.281 113.912C109.248 113.906 109.215 113.907 109.182 113.915C109.149 113.923 109.119 113.938 109.093 113.96C109.038 113.996 109 114.052 108.987 114.117C108.987 114.125 108.987 114.134 108.982 114.145C108.98 114.167 108.98 114.189 108.982 114.211L109.023 115.292L108.22 114.582C108.196 114.558 108.169 114.537 108.14 114.519C108.08 114.492 108.012 114.488 107.949 114.506C107.918 114.513 107.889 114.526 107.864 114.546C107.839 114.566 107.819 114.591 107.806 114.62L107.399 115.36C107.371 115.425 107.366 115.497 107.385 115.564C107.391 115.596 107.404 115.626 107.424 115.651C107.443 115.677 107.468 115.697 107.497 115.711C107.507 115.713 107.516 115.717 107.525 115.722C107.534 115.728 107.554 115.738 107.583 115.751L108.601 116.052L107.695 116.588C107.664 116.606 107.636 116.628 107.613 116.655C107.589 116.677 107.57 116.702 107.556 116.732C107.543 116.761 107.535 116.792 107.534 116.824C107.531 116.859 107.536 116.894 107.549 116.926C107.562 116.958 107.582 116.987 107.608 117.01L108.17 117.627C108.223 117.669 108.288 117.693 108.355 117.698C108.387 117.701 108.419 117.697 108.449 117.687C108.479 117.676 108.507 117.659 108.53 117.637C108.533 117.626 108.539 117.617 108.547 117.61C108.556 117.6 108.571 117.586 108.59 117.565L109.188 116.673L109.424 117.725C109.426 117.745 109.432 117.764 109.443 117.782C109.451 117.795 109.46 117.806 109.466 117.815C109.476 117.845 109.494 117.872 109.518 117.893C109.541 117.914 109.57 117.929 109.6 117.936C109.666 117.957 109.737 117.957 109.803 117.937Z" fill="white"/>
<path d="M104.787 116.975L105.533 116.609C105.563 116.595 105.589 116.574 105.61 116.548C105.631 116.522 105.646 116.491 105.654 116.459C105.675 116.4 105.675 116.335 105.654 116.275C105.642 116.242 105.624 116.21 105.601 116.182L104.963 115.349L106.007 115.443C106.029 115.442 106.051 115.441 106.073 115.438C106.082 115.436 106.092 115.436 106.102 115.438C106.132 115.433 106.162 115.423 106.188 115.406C106.215 115.39 106.237 115.368 106.255 115.342C106.298 115.287 106.321 115.218 106.319 115.147L106.207 114.309C106.204 114.276 106.194 114.244 106.177 114.216C106.16 114.188 106.136 114.164 106.108 114.148C106.058 114.108 105.996 114.088 105.933 114.09C105.898 114.093 105.865 114.102 105.835 114.119L104.845 114.474L105.261 113.498C105.271 113.479 105.278 113.458 105.284 113.437C105.284 113.426 105.284 113.416 105.29 113.409C105.3 113.344 105.285 113.277 105.248 113.223C105.231 113.194 105.208 113.168 105.18 113.148C105.153 113.129 105.121 113.115 105.088 113.109L104.266 112.951C104.233 112.945 104.199 112.946 104.166 112.954C104.133 112.962 104.103 112.977 104.076 112.998C104.022 113.034 103.984 113.091 103.97 113.156C103.97 113.162 103.97 113.172 103.965 113.184C103.963 113.206 103.963 113.227 103.965 113.249L104.011 114.324L103.208 113.614C103.184 113.589 103.157 113.568 103.127 113.551C103.068 113.524 103 113.519 102.937 113.537C102.906 113.544 102.877 113.557 102.852 113.577C102.827 113.597 102.807 113.623 102.794 113.652L102.387 114.391C102.359 114.456 102.354 114.528 102.373 114.596C102.379 114.627 102.393 114.657 102.412 114.682C102.432 114.708 102.457 114.728 102.485 114.742C102.495 114.744 102.504 114.748 102.513 114.753C102.522 114.759 102.543 114.769 102.571 114.782L103.589 115.082L102.683 115.618C102.652 115.636 102.624 115.659 102.601 115.686C102.577 115.707 102.557 115.733 102.544 115.762C102.53 115.791 102.523 115.823 102.522 115.855C102.519 115.89 102.524 115.924 102.537 115.956C102.55 115.989 102.57 116.017 102.596 116.04L103.158 116.657C103.211 116.699 103.276 116.724 103.344 116.728C103.375 116.732 103.407 116.728 103.438 116.717C103.468 116.707 103.495 116.689 103.518 116.667C103.521 116.656 103.527 116.647 103.535 116.64L103.578 116.595L104.176 115.703L104.411 116.755C104.413 116.775 104.42 116.794 104.431 116.812C104.439 116.825 104.448 116.836 104.454 116.846C104.464 116.876 104.482 116.903 104.506 116.924C104.529 116.945 104.558 116.959 104.588 116.966C104.652 116.989 104.722 116.992 104.787 116.975Z" fill="white"/>
<path d="M99.772 116.012L100.517 115.646C100.547 115.631 100.574 115.61 100.595 115.585C100.616 115.559 100.631 115.528 100.639 115.495C100.66 115.436 100.66 115.37 100.639 115.311C100.626 115.277 100.608 115.246 100.586 115.218L99.9473 114.386L100.992 114.48L101.058 114.474C101.067 114.473 101.077 114.473 101.086 114.474C101.117 114.47 101.146 114.459 101.173 114.443C101.199 114.427 101.222 114.405 101.239 114.379C101.283 114.324 101.307 114.255 101.305 114.184L101.191 113.346C101.189 113.313 101.179 113.281 101.162 113.253C101.144 113.225 101.121 113.202 101.093 113.185C101.043 113.146 100.981 113.125 100.918 113.127C100.883 113.129 100.849 113.139 100.819 113.156L99.8297 113.511L100.246 112.535C100.256 112.516 100.263 112.495 100.269 112.474C100.269 112.464 100.269 112.454 100.274 112.445C100.285 112.38 100.27 112.314 100.232 112.26C100.215 112.231 100.192 112.205 100.165 112.185C100.137 112.166 100.106 112.152 100.072 112.146L99.2502 111.989C99.2172 111.982 99.1832 111.983 99.1504 111.991C99.1177 111.999 99.0871 112.014 99.0608 112.036C99.0065 112.072 98.9684 112.128 98.955 112.192C98.9538 112.202 98.952 112.212 98.9498 112.221C98.9481 112.243 98.9481 112.265 98.9498 112.286L98.9957 113.361L98.1935 112.65C98.1687 112.626 98.1414 112.605 98.1121 112.587C98.0521 112.561 97.9848 112.556 97.9219 112.575C97.8909 112.581 97.8618 112.595 97.8368 112.615C97.8119 112.634 97.7919 112.66 97.7783 112.689L97.3713 113.428C97.3438 113.493 97.3388 113.565 97.3572 113.633C97.3633 113.664 97.3767 113.694 97.3962 113.719C97.4157 113.745 97.4409 113.765 97.4697 113.779C97.4796 113.781 97.489 113.785 97.4978 113.79C97.5075 113.796 97.5274 113.806 97.5556 113.82L98.5731 114.12L97.6673 114.658C97.6364 114.675 97.6086 114.697 97.5852 114.724C97.5618 114.746 97.5432 114.771 97.5304 114.8C97.5177 114.829 97.5111 114.861 97.5111 114.893C97.5073 114.927 97.5117 114.962 97.524 114.994C97.5362 115.026 97.5559 115.055 97.5815 115.078L98.1431 115.695C98.1967 115.737 98.2614 115.762 98.3289 115.767C98.3607 115.77 98.3928 115.766 98.423 115.756C98.4532 115.745 98.4807 115.728 98.5035 115.705C98.5067 115.695 98.5126 115.686 98.5206 115.679C98.5294 115.668 98.545 115.654 98.5635 115.634L99.1622 114.742L99.3968 115.793C99.3989 115.813 99.4055 115.833 99.416 115.85L99.4389 115.884C99.4497 115.914 99.4677 115.94 99.4912 115.961C99.5147 115.983 99.543 115.997 99.5736 116.005C99.6377 116.026 99.7065 116.029 99.772 116.012Z" fill="white"/>
<path d="M94.7574 115.051L95.5026 114.684C95.5326 114.67 95.559 114.649 95.58 114.623C95.601 114.597 95.616 114.567 95.6239 114.534C95.6459 114.475 95.6459 114.41 95.6239 114.351C95.6119 114.317 95.5942 114.285 95.5714 114.258L94.9328 113.424L95.9777 113.518C95.9997 113.517 96.0217 113.516 96.0435 113.513C96.0529 113.511 96.0624 113.511 96.0717 113.513C96.1023 113.509 96.1318 113.498 96.1582 113.481C96.1846 113.465 96.2073 113.443 96.2249 113.417C96.2684 113.362 96.2915 113.293 96.29 113.223L96.1768 112.384C96.1745 112.351 96.1644 112.319 96.1472 112.291C96.1301 112.263 96.1064 112.24 96.0783 112.223C96.0285 112.183 95.9663 112.163 95.9029 112.166C95.8684 112.168 95.8348 112.177 95.8045 112.194L94.8158 112.549L95.231 111.573C95.2411 111.554 95.2488 111.534 95.2539 111.512C95.2539 111.501 95.2539 111.491 95.2598 111.484C95.27 111.419 95.2549 111.352 95.2177 111.298C95.2009 111.269 95.178 111.243 95.1506 111.224C95.1231 111.204 95.0917 111.19 95.0586 111.184L94.2356 111.027C94.2026 111.02 94.1686 111.021 94.136 111.029C94.1033 111.037 94.0727 111.052 94.0462 111.073C93.9922 111.11 93.9543 111.166 93.9404 111.231C93.9404 111.238 93.9404 111.248 93.9359 111.259C93.9337 111.281 93.9337 111.303 93.9359 111.325L93.9818 112.399L93.1796 111.689C93.1547 111.665 93.1275 111.643 93.0982 111.625C93.0381 111.599 92.9709 111.594 92.908 111.613C92.8769 111.619 92.8478 111.633 92.8228 111.653C92.7979 111.673 92.7779 111.698 92.7645 111.727L92.3574 112.466C92.3303 112.531 92.3253 112.603 92.3434 112.671C92.3498 112.703 92.3633 112.732 92.3828 112.758C92.4023 112.783 92.4273 112.803 92.4559 112.817C92.4658 112.819 92.4753 112.823 92.484 112.828C92.4936 112.834 92.5136 112.844 92.5424 112.857L93.56 113.158L92.6542 113.695C92.6231 113.712 92.5953 113.735 92.572 113.762C92.5481 113.783 92.5288 113.809 92.5153 113.838C92.5018 113.867 92.4944 113.899 92.4936 113.931C92.4903 113.966 92.4953 114.001 92.5082 114.033C92.5211 114.065 92.5415 114.094 92.5676 114.116L93.1293 114.733C93.1825 114.776 93.2472 114.802 93.315 114.808C93.3468 114.811 93.379 114.808 93.4092 114.797C93.4394 114.786 93.4668 114.769 93.4897 114.746C93.4931 114.736 93.4989 114.727 93.5067 114.72L93.5504 114.675L94.1483 113.784L94.3829 114.835C94.3848 114.855 94.3914 114.875 94.4022 114.892L94.4251 114.926C94.4357 114.956 94.4537 114.983 94.4772 115.004C94.5007 115.025 94.5291 115.04 94.5598 115.047C94.624 115.067 94.6925 115.068 94.7574 115.051Z" fill="white"/>
<path d="M84.5804 113.099L85.3256 112.732C85.3556 112.718 85.382 112.697 85.403 112.671C85.424 112.645 85.4391 112.615 85.447 112.582C85.4679 112.523 85.4679 112.458 85.447 112.398C85.4343 112.365 85.4166 112.334 85.3944 112.306L84.7558 111.472L85.8 111.566C85.8318 111.566 85.8525 111.566 85.8651 111.561C85.8749 111.559 85.8849 111.559 85.8947 111.561C85.9245 111.556 85.953 111.546 85.9785 111.529C86.0039 111.513 86.0258 111.492 86.0427 111.466C86.0873 111.411 86.1109 111.342 86.1093 111.271L85.9961 110.432C85.9935 110.4 85.9832 110.368 85.9661 110.34C85.9489 110.312 85.9255 110.289 85.8976 110.272C85.8477 110.232 85.7856 110.212 85.7223 110.214C85.6874 110.216 85.6534 110.226 85.6224 110.242L84.6344 110.598L85.0503 109.622C85.0599 109.603 85.0676 109.582 85.0732 109.561C85.0747 109.552 85.0767 109.542 85.0792 109.533C85.0895 109.468 85.0744 109.401 85.037 109.347C85.0201 109.318 84.997 109.292 84.9694 109.272C84.9418 109.253 84.9103 109.239 84.8771 109.233L84.055 109.076C84.0219 109.069 83.988 109.07 83.9553 109.078C83.9226 109.086 83.892 109.101 83.8655 109.122C83.8111 109.158 83.7731 109.215 83.7597 109.28C83.7597 109.286 83.7597 109.296 83.7545 109.308C83.7516 109.33 83.7516 109.351 83.7545 109.373L83.7997 110.448L82.9974 109.737C82.9728 109.713 82.9458 109.692 82.9168 109.674C82.8568 109.647 82.7895 109.643 82.7266 109.661C82.6948 109.667 82.6648 109.681 82.639 109.701C82.6133 109.721 82.5926 109.746 82.5786 109.776L82.1723 110.515C82.1449 110.58 82.1397 110.652 82.1575 110.72C82.1642 110.751 82.1779 110.781 82.1975 110.806C82.2171 110.832 82.2422 110.852 82.2707 110.866C82.2802 110.868 82.2893 110.872 82.2974 110.877L82.3566 110.906L83.3734 111.206L82.4683 111.743C82.4378 111.761 82.4101 111.784 82.3862 111.81C82.3623 111.831 82.343 111.857 82.3296 111.886C82.3162 111.915 82.309 111.947 82.3085 111.979C82.3051 112.014 82.31 112.049 82.3229 112.081C82.3358 112.113 82.3562 112.142 82.3825 112.165L82.9434 112.782C82.9965 112.825 83.0608 112.851 83.1284 112.857C83.1604 112.86 83.1928 112.856 83.2232 112.846C83.2536 112.835 83.2814 112.818 83.3046 112.795C83.3071 112.785 83.3128 112.776 83.3208 112.769L83.3645 112.723L83.9617 111.832L84.1978 112.883C84.1997 112.904 84.2063 112.923 84.217 112.941L84.24 112.975C84.2506 113.005 84.2685 113.032 84.2921 113.053C84.3156 113.074 84.344 113.089 84.3746 113.096C84.4414 113.117 84.513 113.118 84.5804 113.099Z" fill="white"/>
<path d="M79.5659 112.139L80.3111 111.773C80.3411 111.759 80.3676 111.738 80.3886 111.712C80.4096 111.686 80.4246 111.655 80.4325 111.623C80.4534 111.563 80.4534 111.498 80.4325 111.439C80.4198 111.405 80.402 111.374 80.3799 111.346L79.7413 110.513L80.7855 110.607C80.8173 110.607 80.838 110.607 80.8506 110.601C80.8604 110.6 80.8704 110.6 80.8802 110.601C80.9107 110.596 80.9401 110.586 80.9663 110.569C80.9926 110.553 81.0152 110.531 81.0326 110.505C81.0771 110.451 81.1005 110.382 81.0985 110.311L80.9853 109.472C80.9828 109.439 80.9726 109.408 80.9554 109.38C80.9383 109.352 80.9148 109.328 80.8869 109.311C80.837 109.272 80.7749 109.251 80.7115 109.253C80.6767 109.255 80.6429 109.265 80.6123 109.282L79.6244 109.637L80.0395 108.661C80.0495 108.642 80.0572 108.622 80.0625 108.6C80.0625 108.59 80.0625 108.58 80.0684 108.572C80.0786 108.507 80.0635 108.44 80.0262 108.386C80.0089 108.356 79.9857 108.331 79.9582 108.312C79.9306 108.292 79.8993 108.279 79.8664 108.272L79.0442 108.115C79.0111 108.108 78.9771 108.109 78.9444 108.117C78.9117 108.125 78.8811 108.141 78.8547 108.162C78.8004 108.198 78.7624 108.254 78.7489 108.319C78.7489 108.326 78.7489 108.336 78.7437 108.347C78.7416 108.369 78.7416 108.391 78.7437 108.413L78.7889 109.487L77.9874 108.777C77.9626 108.753 77.9354 108.732 77.906 108.714C77.8461 108.687 77.7787 108.682 77.7158 108.701C77.6841 108.707 77.6542 108.72 77.6285 108.74C77.6028 108.76 77.582 108.786 77.5678 108.815L77.1615 109.555C77.1341 109.619 77.1289 109.691 77.1467 109.759C77.1527 109.791 77.166 109.822 77.1857 109.848C77.2054 109.874 77.2308 109.895 77.26 109.909C77.2694 109.911 77.2784 109.915 77.2866 109.92C77.3058 109.93 77.3256 109.94 77.3458 109.949L78.3626 110.249L77.4583 110.786C77.4043 110.824 77.3769 110.845 77.3761 110.854C77.352 110.874 77.3325 110.9 77.319 110.929C77.3055 110.958 77.2982 110.99 77.2977 111.022C77.2943 111.057 77.2993 111.092 77.3122 111.124C77.3251 111.156 77.3455 111.185 77.3717 111.207L77.9326 111.825C77.9866 111.866 78.051 111.891 78.1184 111.896C78.1503 111.899 78.1825 111.895 78.2127 111.885C78.243 111.874 78.2707 111.857 78.2938 111.834C78.2963 111.824 78.302 111.815 78.3101 111.808C78.3197 111.798 78.3337 111.783 78.3537 111.763L78.9509 110.871L79.187 111.922C79.1891 111.942 79.1956 111.962 79.2062 111.979L79.2292 112.013C79.2399 112.043 79.2578 112.07 79.2814 112.091C79.3049 112.112 79.3333 112.126 79.3639 112.133C79.4291 112.155 79.4995 112.158 79.5659 112.139Z" fill="white"/>
<path d="M74.5503 111.174L75.2955 110.807C75.3255 110.793 75.352 110.772 75.373 110.746C75.394 110.72 75.409 110.69 75.4169 110.657C75.4381 110.598 75.4381 110.533 75.4169 110.473C75.4042 110.44 75.3865 110.409 75.3643 110.381L74.7257 109.547L75.7706 109.641C75.8017 109.641 75.8232 109.638 75.835 109.636C75.8448 109.634 75.8548 109.634 75.8646 109.636C75.8952 109.632 75.9246 109.621 75.9508 109.604C75.9771 109.588 75.9996 109.566 76.017 109.54C76.0614 109.486 76.0848 109.417 76.0829 109.346L75.9697 108.507C75.9671 108.474 75.9568 108.442 75.9397 108.414C75.9225 108.386 75.8991 108.363 75.8713 108.346C75.8215 108.306 75.7592 108.286 75.6959 108.289C75.6612 108.291 75.6273 108.3 75.5967 108.317L74.6087 108.673L75.0239 107.697C75.0339 107.677 75.0416 107.657 75.0469 107.636C75.0469 107.624 75.0469 107.615 75.0528 107.607C75.0634 107.542 75.0483 107.475 75.0106 107.422C74.9938 107.392 74.9709 107.367 74.9434 107.347C74.9159 107.327 74.8846 107.314 74.8515 107.308L74.0286 107.15C73.9955 107.143 73.9615 107.144 73.9288 107.152C73.8961 107.16 73.8655 107.175 73.8391 107.196C73.785 107.233 73.747 107.289 73.7333 107.353C73.7333 107.362 73.7333 107.371 73.7288 107.383C73.7262 107.404 73.7262 107.426 73.7288 107.448L73.774 108.523L72.9725 107.811C72.9479 107.787 72.9206 107.766 72.8911 107.748C72.8311 107.722 72.7637 107.717 72.7009 107.736C72.6692 107.742 72.6392 107.756 72.6135 107.775C72.5877 107.795 72.567 107.821 72.5529 107.85L72.1467 108.589C72.1196 108.654 72.1144 108.726 72.1319 108.794C72.1386 108.826 72.1523 108.855 72.1719 108.881C72.1915 108.906 72.2165 108.927 72.2451 108.941C72.2548 108.942 72.2641 108.946 72.2725 108.951C72.2828 108.957 72.3028 108.967 72.3317 108.981L73.3477 109.281L72.4434 109.818C72.3894 109.855 72.362 109.878 72.3613 109.885C72.3371 109.906 72.3177 109.932 72.3041 109.961C72.2906 109.99 72.2833 110.021 72.2828 110.054C72.2794 110.088 72.2843 110.123 72.2972 110.156C72.3101 110.188 72.3306 110.216 72.3568 110.239L72.9178 110.856C72.9713 110.899 73.0358 110.925 73.1035 110.931C73.1354 110.935 73.1677 110.931 73.198 110.92C73.2284 110.91 73.256 110.892 73.2789 110.87C73.2818 110.86 73.2874 110.85 73.2952 110.843C73.3048 110.833 73.3189 110.819 73.3396 110.798L73.9361 109.906L74.1721 110.958C74.1744 110.978 74.181 110.997 74.1914 111.015L74.2143 111.048C74.225 111.078 74.2429 111.105 74.2664 111.126C74.29 111.147 74.3184 111.162 74.349 111.169C74.4142 111.191 74.4842 111.192 74.5503 111.174Z" fill="white"/>
<path d="M69.5354 110.212L70.2806 109.846C70.3106 109.832 70.3371 109.811 70.3581 109.785C70.3791 109.759 70.3941 109.729 70.402 109.696C70.4232 109.636 70.4232 109.571 70.402 109.512C70.3894 109.478 70.3717 109.447 70.3494 109.419L69.7115 108.586L70.7557 108.68C70.7868 108.68 70.8083 108.68 70.8208 108.674C70.8306 108.672 70.8406 108.672 70.8504 108.674C70.8801 108.669 70.9086 108.658 70.934 108.642C70.9595 108.626 70.9814 108.604 70.9984 108.579C71.0431 108.525 71.0666 108.455 71.0643 108.384L70.9518 107.545C70.9491 107.513 70.9388 107.481 70.9217 107.453C70.9046 107.425 70.8812 107.402 70.8534 107.385C70.8033 107.345 70.7409 107.324 70.6773 107.327C70.6426 107.329 70.6087 107.339 70.5781 107.355L69.5902 107.711L70.0053 106.734C70.0158 106.715 70.0236 106.695 70.0283 106.674C70.0283 106.662 70.0327 106.653 70.0342 106.646C70.0448 106.581 70.0296 106.514 69.992 106.46C69.9752 106.43 69.9523 106.405 69.9248 106.385C69.8973 106.366 69.8659 106.352 69.8329 106.346L69.01 106.188C68.977 106.181 68.9431 106.182 68.9105 106.19C68.8779 106.199 68.8475 106.214 68.8213 106.235C68.7667 106.272 68.7285 106.328 68.7147 106.393C68.7147 106.4 68.7147 106.409 68.7103 106.421C68.7077 106.442 68.7077 106.464 68.7103 106.486L68.7554 107.56L67.9539 106.85C67.9295 106.826 67.9022 106.805 67.8725 106.787C67.8126 106.76 67.7453 106.756 67.6824 106.774C67.6505 106.78 67.6205 106.794 67.5948 106.814C67.5691 106.834 67.5484 106.86 67.5343 106.889L67.1369 107.634C67.1093 107.699 67.1039 107.771 67.1214 107.839C67.1276 107.871 67.1411 107.902 67.1609 107.928C67.1807 107.954 67.2062 107.975 67.2354 107.989C67.2449 107.991 67.2539 107.995 67.262 108C67.2724 108.006 67.2924 108.016 67.3212 108.029L68.3373 108.329L67.433 108.866C67.4022 108.884 67.3745 108.906 67.3508 108.933C67.3269 108.954 67.3075 108.98 67.294 109.009C67.2805 109.039 67.2731 109.07 67.2724 109.103C67.269 109.137 67.274 109.172 67.2869 109.204C67.2998 109.237 67.3202 109.265 67.3464 109.287L67.9073 109.904C67.9607 109.947 68.0253 109.973 68.0931 109.979C68.125 109.982 68.1571 109.978 68.1874 109.968C68.2177 109.957 68.2453 109.94 68.2685 109.917C68.2714 109.907 68.2771 109.898 68.2847 109.89L68.3291 109.846L68.9264 108.954L69.1624 110.005C69.1642 110.025 69.1706 110.044 69.1809 110.062C69.1898 110.076 69.1987 110.087 69.2039 110.096C69.2146 110.126 69.2325 110.153 69.256 110.174C69.2796 110.195 69.308 110.209 69.3385 110.216C69.4032 110.234 69.4715 110.233 69.5354 110.212Z" fill="white"/>
<path d="M59.3589 108.259L60.1041 107.892C60.1341 107.878 60.1605 107.857 60.1815 107.831C60.2025 107.805 60.2176 107.775 60.2255 107.742C60.246 107.682 60.246 107.618 60.2255 107.558C60.2125 107.525 60.1946 107.493 60.1722 107.466L59.5343 106.633L60.5792 106.726C60.6007 106.725 60.6222 106.724 60.6436 106.721C60.6531 106.719 60.6629 106.719 60.6724 106.721C60.7031 106.717 60.7326 106.706 60.759 106.69C60.7854 106.673 60.8081 106.651 60.8256 106.625C60.87 106.571 60.8934 106.502 60.8915 106.431L60.7783 105.592C60.7757 105.559 60.7654 105.528 60.7483 105.499C60.7311 105.471 60.7077 105.448 60.6798 105.431C60.6295 105.391 60.5673 105.371 60.5037 105.373C60.4693 105.375 60.4358 105.385 60.4053 105.401L59.4173 105.757L59.8318 104.781C59.8412 104.762 59.8491 104.741 59.8554 104.72C59.8554 104.709 59.8591 104.699 59.8606 104.692C59.8711 104.627 59.8562 104.56 59.8192 104.506C59.8021 104.476 59.7789 104.451 59.7512 104.431C59.7235 104.412 59.6919 104.398 59.6586 104.392L58.8372 104.235C58.804 104.228 58.7699 104.229 58.7371 104.237C58.7044 104.245 58.6736 104.26 58.647 104.281C58.5932 104.318 58.5555 104.375 58.5419 104.439C58.5419 104.446 58.5419 104.456 58.536 104.467C58.5344 104.489 58.5344 104.51 58.536 104.532L58.5811 105.607L57.7796 104.897C57.755 104.873 57.7276 104.852 57.6982 104.834C57.6381 104.807 57.5704 104.802 57.5073 104.821C57.4763 104.828 57.4472 104.841 57.4223 104.861C57.3974 104.881 57.3774 104.906 57.3637 104.935L56.9567 105.674C56.9299 105.739 56.925 105.811 56.9427 105.879C56.9489 105.911 56.9623 105.942 56.982 105.968C57.0016 105.994 57.0269 106.015 57.0559 106.029C57.0654 106.031 57.0746 106.035 57.0833 106.04C57.0936 106.046 57.1129 106.056 57.141 106.069L58.1585 106.369L57.2542 106.906C57.223 106.924 57.1948 106.946 57.1706 106.973C57.1475 106.995 57.129 107.021 57.1162 107.05C57.1035 107.079 57.0968 107.11 57.0966 107.142C57.0929 107.176 57.0972 107.211 57.1093 107.243C57.1214 107.275 57.1409 107.304 57.1662 107.327L57.7279 107.944C57.7812 107.987 57.8458 108.013 57.9136 108.019C57.9455 108.022 57.9777 108.018 58.0079 108.008C58.0382 107.997 58.0659 107.98 58.089 107.957C58.0916 107.947 58.0973 107.938 58.1053 107.93L58.1482 107.885L58.7461 106.993L58.9822 108.045C58.9839 108.065 58.9903 108.084 59.0007 108.102L59.0237 108.135C59.0345 108.165 59.0525 108.192 59.0762 108.213C59.0998 108.234 59.1283 108.249 59.1591 108.256C59.2241 108.276 59.2934 108.277 59.3589 108.259Z" fill="white"/>
<path d="M54.3442 107.296L55.0894 106.93C55.1194 106.915 55.1459 106.894 55.1669 106.868C55.1879 106.843 55.2029 106.812 55.2108 106.779C55.2313 106.72 55.2313 106.655 55.2108 106.595C55.198 106.562 55.18 106.53 55.1575 106.502L54.5203 105.669L55.5645 105.764C55.5956 105.764 55.6171 105.76 55.6289 105.758C55.6385 105.757 55.6482 105.757 55.6578 105.758C55.6885 105.754 55.718 105.743 55.7444 105.727C55.7708 105.71 55.7935 105.688 55.811 105.662C55.8554 105.608 55.8788 105.538 55.8768 105.468L55.7643 104.629C55.7613 104.596 55.7508 104.565 55.7337 104.537C55.7166 104.509 55.6934 104.486 55.6659 104.468C55.6157 104.429 55.5534 104.408 55.4898 104.41C55.4551 104.412 55.4212 104.422 55.3906 104.439L54.4027 104.794L54.8171 103.818C54.8265 103.799 54.8344 103.779 54.8408 103.758C54.8408 103.747 54.8452 103.737 54.846 103.729C54.8564 103.664 54.8416 103.597 54.8045 103.543C54.7874 103.514 54.7642 103.488 54.7364 103.468C54.7087 103.449 54.6772 103.435 54.6439 103.429L53.8225 103.272C53.7894 103.265 53.7552 103.266 53.7223 103.274C53.6895 103.282 53.6588 103.297 53.6323 103.319C53.5787 103.355 53.541 103.412 53.5272 103.476C53.5272 103.484 53.5272 103.494 53.5213 103.505C53.5197 103.526 53.5197 103.548 53.5213 103.57L53.5664 104.644L52.765 103.934C52.7402 103.91 52.7129 103.889 52.6836 103.871C52.6233 103.844 52.5558 103.839 52.4927 103.858C52.4617 103.865 52.4327 103.878 52.4078 103.898C52.3829 103.918 52.3628 103.943 52.3491 103.972L51.9421 104.712C51.9156 104.777 51.9107 104.849 51.928 104.917C51.9346 104.948 51.9483 104.978 51.9681 105.003C51.9879 105.028 52.0132 105.049 52.042 105.062C52.0513 105.065 52.0602 105.069 52.0686 105.073C52.079 105.079 52.0982 105.089 52.1263 105.103L53.1439 105.403L52.2396 105.941C52.2082 105.958 52.1799 105.981 52.1559 106.008C52.1329 106.029 52.1144 106.055 52.1017 106.084C52.089 106.113 52.0823 106.144 52.0819 106.176C52.0782 106.21 52.0825 106.245 52.0946 106.277C52.1067 106.309 52.1262 106.338 52.1515 106.361L52.7132 106.978C52.7671 107.02 52.8316 107.044 52.8989 107.05C52.9308 107.053 52.9631 107.05 52.9934 107.039C53.0238 107.028 53.0514 107.011 53.0743 106.988C53.0772 106.978 53.0828 106.969 53.0906 106.962C53.1002 106.951 53.115 106.937 53.1335 106.917L53.7322 106.025L53.9675 107.076C53.9694 107.096 53.9757 107.116 53.986 107.133L54.009 107.167C54.0201 107.197 54.0382 107.223 54.0618 107.245C54.0854 107.266 54.1138 107.28 54.1444 107.288C54.2088 107.31 54.2782 107.313 54.3442 107.296Z" fill="white"/>
<path d="M49.3286 106.335L50.0738 105.969C50.1037 105.955 50.1302 105.934 50.1512 105.908C50.1722 105.882 50.1872 105.852 50.1951 105.819C50.2164 105.76 50.2164 105.695 50.1951 105.636C50.1825 105.602 50.1645 105.571 50.1419 105.543L49.5047 104.709L50.5489 104.803C50.5707 104.803 50.5924 104.801 50.614 104.798C50.6233 104.796 50.6328 104.796 50.6421 104.798C50.6728 104.794 50.7023 104.783 50.7286 104.767C50.755 104.75 50.7777 104.728 50.7953 104.702C50.8401 104.648 50.8635 104.579 50.8612 104.508L50.7487 103.669C50.7457 103.636 50.7353 103.605 50.7182 103.577C50.7011 103.549 50.6779 103.525 50.6503 103.508C50.6001 103.468 50.5377 103.448 50.4741 103.451C50.4394 103.453 50.4055 103.462 50.375 103.479L49.387 103.834L49.8029 102.858C49.812 102.839 49.8194 102.818 49.8251 102.798C49.8251 102.786 49.8295 102.777 49.8303 102.77C49.8408 102.705 49.826 102.638 49.7889 102.584C49.7721 102.554 49.7491 102.528 49.7214 102.509C49.6938 102.489 49.6622 102.476 49.629 102.47L48.8068 102.312C48.7737 102.305 48.7396 102.306 48.7068 102.314C48.6741 102.322 48.6433 102.337 48.6166 102.358C48.5633 102.396 48.5258 102.452 48.5116 102.516C48.5116 102.523 48.5116 102.533 48.5064 102.545C48.504 102.566 48.504 102.588 48.5064 102.61L48.5508 103.684L47.7478 102.979C47.7233 102.954 47.696 102.933 47.6664 102.915C47.6063 102.888 47.5386 102.884 47.4755 102.903C47.4445 102.909 47.4154 102.923 47.3904 102.943C47.3655 102.963 47.3455 102.988 47.3319 103.018L46.9249 103.756C46.8985 103.821 46.8935 103.893 46.9109 103.961C46.9176 103.992 46.9313 104.022 46.9511 104.047C46.9708 104.073 46.9961 104.093 47.0248 104.107C47.0342 104.109 47.0432 104.113 47.0515 104.118C47.0618 104.124 47.0811 104.133 47.1099 104.147L48.1275 104.447L47.2224 104.984C47.1914 105.002 47.1634 105.024 47.1395 105.051C47.1158 105.072 47.0967 105.098 47.0833 105.127C47.07 105.156 47.0626 105.188 47.0618 105.22C47.0579 105.254 47.0622 105.289 47.0743 105.321C47.0864 105.353 47.106 105.382 47.1314 105.405L47.6931 106.022C47.7468 106.063 47.8114 106.088 47.8788 106.093C47.9107 106.096 47.9428 106.093 47.9731 106.082C48.0033 106.072 48.031 106.055 48.0542 106.032C48.057 106.022 48.0627 106.013 48.0705 106.005C48.0801 105.995 48.0949 105.98 48.1134 105.96L48.7121 105.068L48.9482 106.119C48.9493 106.14 48.9554 106.159 48.9659 106.176C48.9756 106.19 48.983 106.201 48.9889 106.211C48.9998 106.241 49.0179 106.267 49.0416 106.288C49.0652 106.309 49.0937 106.324 49.1243 106.331C49.1905 106.353 49.2616 106.354 49.3286 106.335Z" fill="white"/>
<path d="M44.3139 105.373L45.0591 105.006C45.0889 104.992 45.1151 104.971 45.1361 104.945C45.157 104.919 45.1722 104.888 45.1805 104.856C45.2014 104.797 45.2014 104.732 45.1805 104.672C45.1678 104.638 45.1498 104.607 45.1272 104.579L44.49 103.746L45.5342 103.84L45.5993 103.835C45.6089 103.834 45.6186 103.834 45.6282 103.835C45.6588 103.831 45.6882 103.82 45.7144 103.804C45.7407 103.788 45.7633 103.766 45.7806 103.74C45.8255 103.686 45.8489 103.616 45.8465 103.545L45.734 102.706C45.7311 102.674 45.7207 102.642 45.7036 102.614C45.6865 102.586 45.6632 102.563 45.6356 102.546C45.5854 102.506 45.523 102.486 45.4595 102.488C45.4248 102.49 45.3909 102.5 45.3603 102.516L44.3724 102.872L44.7883 101.896C44.7969 101.877 44.8046 101.856 44.8112 101.836C44.8112 101.825 44.8112 101.815 44.8156 101.808C44.8268 101.742 44.8122 101.675 44.7749 101.621C44.7577 101.592 44.7345 101.567 44.7068 101.547C44.6791 101.527 44.6475 101.514 44.6143 101.508L43.7922 101.35C43.759 101.344 43.7249 101.344 43.692 101.352C43.6592 101.36 43.6285 101.376 43.602 101.397C43.5485 101.434 43.5109 101.49 43.4969 101.554C43.4969 101.562 43.4932 101.572 43.4917 101.583C43.4894 101.604 43.4894 101.626 43.4917 101.648L43.5361 102.722L42.7347 102.012C42.7097 101.988 42.6824 101.967 42.6533 101.949C42.593 101.922 42.5255 101.918 42.4623 101.936C42.4314 101.943 42.4024 101.956 42.3776 101.976C42.3529 101.996 42.333 102.022 42.3195 102.051L41.9132 102.79C41.8856 102.854 41.8801 102.926 41.8977 102.994C41.9042 103.026 41.9179 103.055 41.9376 103.081C41.9574 103.106 41.9828 103.127 42.0117 103.14C42.021 103.143 42.03 103.147 42.0383 103.152C42.0487 103.158 42.0679 103.167 42.0967 103.181L43.1143 103.481L42.2092 104.018C42.1779 104.035 42.1498 104.058 42.1264 104.085C42.1027 104.106 42.0836 104.132 42.0704 104.162C42.0571 104.191 42.05 104.222 42.0494 104.255C42.0456 104.289 42.0499 104.324 42.062 104.356C42.0741 104.388 42.0936 104.417 42.119 104.44L42.6814 105.057C42.7348 105.099 42.7992 105.124 42.8664 105.129C42.8984 105.132 42.9307 105.128 42.9611 105.117C42.9915 105.107 43.0193 105.09 43.0425 105.067C43.045 105.057 43.0507 105.047 43.0588 105.041C43.0677 105.03 43.0825 105.016 43.1017 104.996L43.6997 104.104L43.9357 105.155C43.9378 105.175 43.9439 105.194 43.9535 105.212L43.9764 105.246C43.9875 105.276 44.0057 105.302 44.0295 105.324C44.0533 105.345 44.0818 105.359 44.1126 105.367C44.1778 105.388 44.2476 105.39 44.3139 105.373Z" fill="white"/>
<path d="M34.1378 103.42L34.8823 103.054C34.9122 103.04 34.9387 103.019 34.9597 102.993C34.9807 102.967 34.9957 102.936 35.0036 102.904C35.0249 102.844 35.0249 102.779 35.0036 102.719C34.9912 102.685 34.9734 102.654 34.9511 102.627L34.3124 101.793L35.3566 101.888L35.4232 101.882C35.4325 101.881 35.442 101.881 35.4514 101.882C35.482 101.878 35.5115 101.868 35.5379 101.851C35.5643 101.835 35.587 101.813 35.6045 101.787C35.6494 101.733 35.6726 101.663 35.6697 101.593L35.5579 100.754C35.5549 100.721 35.5442 100.689 35.5269 100.661C35.5095 100.634 35.4859 100.61 35.458 100.593C35.4081 100.554 35.346 100.533 35.2826 100.535C35.2481 100.537 35.2144 100.547 35.1842 100.564L34.1955 100.919L34.6107 99.943C34.6204 99.9235 34.6284 99.9031 34.6344 99.8822C34.6366 99.8728 34.6383 99.8632 34.6395 99.8536C34.6498 99.7886 34.6347 99.7221 34.5974 99.6682C34.5803 99.6387 34.5572 99.6132 34.5296 99.5935C34.5021 99.5738 34.4706 99.5604 34.4375 99.554L33.6153 99.3971C33.5823 99.3904 33.5483 99.3911 33.5155 99.3992C33.4828 99.4072 33.4522 99.4224 33.4259 99.4437C33.3718 99.48 33.3338 99.5363 33.3201 99.6006C33.3189 99.6102 33.3171 99.6197 33.3149 99.6291C33.3132 99.6509 33.3132 99.6727 33.3149 99.6944L33.3608 100.769L32.5593 100.059C32.5345 100.034 32.5069 100.013 32.4771 99.9955C32.4171 99.969 32.3499 99.9644 32.287 99.9828C32.256 99.9893 32.2269 100.003 32.202 100.023C32.1771 100.043 32.1571 100.068 32.1434 100.097L31.7364 100.837C31.7089 100.901 31.7039 100.973 31.7223 101.041C31.7285 101.072 31.7419 101.102 31.7614 101.127C31.781 101.153 31.8061 101.173 31.8348 101.187C31.8446 101.19 31.8541 101.193 31.8629 101.198C31.8733 101.204 31.8925 101.214 31.9207 101.228L32.9382 101.528L32.0331 102.066C32.0019 102.083 31.9739 102.106 31.9503 102.132C31.9268 102.154 31.9078 102.18 31.8945 102.209C31.8811 102.237 31.8737 102.269 31.8725 102.301C31.8694 102.335 31.8744 102.37 31.8873 102.403C31.9002 102.435 31.9205 102.463 31.9465 102.486L32.5082 103.103C32.5621 103.145 32.6266 103.17 32.694 103.175C32.7258 103.178 32.758 103.175 32.7882 103.164C32.8184 103.153 32.8459 103.136 32.8686 103.113C32.8718 103.103 32.8777 103.094 32.8856 103.087C32.8953 103.076 32.9101 103.062 32.9286 103.042L33.5273 102.15L33.7626 103.201C33.7642 103.221 33.7705 103.241 33.7811 103.258L33.804 103.292C33.815 103.322 33.8331 103.348 33.8565 103.369C33.88 103.39 33.9082 103.405 33.9387 103.413C34.0031 103.434 34.0721 103.437 34.1378 103.42Z" fill="white"/>
<path d="M29.1222 102.458L29.8667 102.091C29.8967 102.077 29.9231 102.056 29.9441 102.03C29.9651 102.004 29.9801 101.974 29.988 101.941C30.01 101.882 30.01 101.817 29.988 101.758C29.976 101.724 29.9583 101.692 29.9355 101.665L29.2968 100.831L30.3418 100.925C30.3743 100.925 30.395 100.925 30.4076 100.92C30.4169 100.918 30.4264 100.918 30.4358 100.92C30.4664 100.916 30.4959 100.905 30.5223 100.889C30.5487 100.872 30.5714 100.85 30.5889 100.825C30.6337 100.77 30.6569 100.701 30.6541 100.63L30.5423 99.7914C30.5394 99.7584 30.5289 99.7265 30.5115 99.6984C30.4941 99.6704 30.4705 99.6469 30.4424 99.6299C30.3926 99.59 30.3304 99.5698 30.267 99.5729C30.2327 99.575 30.1991 99.5844 30.1686 99.6006L29.1799 99.9566L29.5951 98.9804C29.6047 98.9608 29.6129 98.9405 29.6195 98.9196C29.6195 98.9083 29.6232 98.8986 29.6239 98.8911C29.6341 98.8261 29.619 98.7596 29.5818 98.7056C29.565 98.676 29.5421 98.6504 29.5147 98.6307C29.4872 98.611 29.4558 98.5976 29.4227 98.5915L28.5997 98.4338C28.5667 98.4275 28.5327 98.4284 28.5001 98.4365C28.4674 98.4445 28.4368 98.4595 28.4103 98.4804C28.3567 98.5176 28.319 98.5739 28.3045 98.638C28.3045 98.6455 28.3045 98.6553 28.3 98.6666C28.2978 98.6883 28.2978 98.7102 28.3 98.7319L28.3459 99.8064L27.5444 99.0953C27.5194 99.0713 27.4919 99.0501 27.4623 99.0322C27.4022 99.0058 27.3349 99.0016 27.2721 99.0202C27.2411 99.0267 27.212 99.0404 27.1871 99.0602C27.1622 99.08 27.1422 99.1054 27.1285 99.1344L26.7215 99.8732C26.6947 99.9381 26.6897 100.01 26.7075 100.078C26.7139 100.11 26.7274 100.139 26.7469 100.165C26.7664 100.19 26.7914 100.211 26.8199 100.225C26.8299 100.226 26.8394 100.23 26.8481 100.235C26.8584 100.241 26.8777 100.251 26.9065 100.264L27.9241 100.565L27.0183 101.102C26.9874 101.12 26.9596 101.142 26.9361 101.169C26.9124 101.19 26.8933 101.216 26.8798 101.245C26.8663 101.275 26.8588 101.306 26.8577 101.338C26.8545 101.373 26.8596 101.408 26.8725 101.44C26.8853 101.472 26.9057 101.5 26.9317 101.523L27.4934 102.14C27.5467 102.183 27.6113 102.209 27.6791 102.215C27.7109 102.219 27.7431 102.215 27.7733 102.204C27.8035 102.194 27.831 102.176 27.8538 102.154C27.8569 102.143 27.8628 102.134 27.8708 102.127L27.9145 102.082L28.5124 101.19L28.7485 102.241C28.7496 102.262 28.7557 102.281 28.7662 102.298L28.7892 102.332C28.8002 102.362 28.8182 102.389 28.8417 102.41C28.8652 102.431 28.8934 102.446 28.9239 102.453C28.9882 102.474 29.057 102.475 29.1222 102.458Z" fill="white"/>
<path d="M24.1071 101.496L24.8471 101.13C24.8771 101.116 24.9036 101.095 24.9246 101.069C24.9456 101.043 24.9606 101.012 24.9685 100.98C24.9905 100.921 24.9905 100.855 24.9685 100.796C24.9685 100.788 24.9522 100.758 24.9159 100.703L24.278 99.8701L25.3222 99.964C25.3548 99.964 25.3755 99.964 25.3881 99.958C25.3977 99.9568 25.4074 99.9568 25.4169 99.958C25.4474 99.9538 25.4767 99.9432 25.503 99.9269C25.5292 99.9106 25.5518 99.889 25.5694 99.8633C25.6143 99.8087 25.6375 99.7391 25.6345 99.6681L25.5228 98.8294C25.52 98.7965 25.5096 98.7648 25.4924 98.7369C25.4751 98.7089 25.4516 98.6856 25.4236 98.6687C25.3736 98.6287 25.3111 98.6082 25.2475 98.6109C25.213 98.6131 25.1794 98.6228 25.149 98.6394L24.1604 98.9946L24.5755 98.0185C24.585 97.999 24.5932 97.979 24.5999 97.9584C24.5999 97.9471 24.6037 97.9374 24.6044 97.9299C24.615 97.8646 24.5999 97.7977 24.5622 97.7437C24.5454 97.7142 24.5224 97.6888 24.4949 97.6692C24.4675 97.6496 24.4361 97.6364 24.4031 97.6303L23.5802 97.4718C23.5471 97.4656 23.5131 97.4666 23.4804 97.4747C23.4477 97.4829 23.4172 97.498 23.3907 97.5192C23.3371 97.5563 23.2993 97.6126 23.2849 97.6768C23.2849 97.6843 23.2849 97.6941 23.2805 97.7054C23.2782 97.7268 23.2782 97.7485 23.2805 97.7699L23.3264 98.8489L22.5249 98.1386C22.5001 98.1143 22.4725 98.0931 22.4428 98.0755C22.3828 98.0489 22.3155 98.0444 22.2526 98.0628C22.2216 98.0693 22.1926 98.0831 22.1678 98.1031C22.143 98.123 22.1231 98.1486 22.1097 98.1777L21.7027 98.9165C21.6753 98.981 21.6701 99.0529 21.6879 99.1207C21.6937 99.1531 21.707 99.1836 21.7267 99.2097C21.7463 99.2358 21.7719 99.2568 21.8011 99.2709C21.8107 99.2734 21.82 99.2771 21.8285 99.2822C21.8389 99.2882 21.8581 99.2979 21.887 99.3107L22.9045 99.611L21.9987 100.147C21.9679 100.165 21.9401 100.188 21.9166 100.215C21.8928 100.236 21.8736 100.262 21.8601 100.291C21.8466 100.32 21.8391 100.352 21.8381 100.384C21.835 100.418 21.84 100.453 21.8529 100.485C21.8658 100.517 21.8861 100.546 21.9121 100.568L22.4746 101.186C22.5277 101.228 22.592 101.255 22.6596 101.261C22.6914 101.264 22.7235 101.26 22.7537 101.25C22.7839 101.239 22.8114 101.222 22.8342 101.199C22.8375 101.189 22.8436 101.18 22.852 101.173C22.8609 101.162 22.8757 101.147 22.8949 101.128L23.4929 100.236L23.7289 101.287C23.7303 101.307 23.7364 101.327 23.7467 101.344C23.7556 101.358 23.7645 101.369 23.7696 101.378C23.7807 101.408 23.7987 101.434 23.8222 101.455C23.8457 101.476 23.8739 101.491 23.9043 101.498C23.9707 101.517 24.041 101.517 24.1071 101.496Z" fill="white"/>
<path d="M19.0927 100.534L19.8371 100.167C19.867 100.153 19.8933 100.132 19.9142 100.106C19.935 100.08 19.9499 100.05 19.9578 100.017C19.9797 99.9579 19.9797 99.8926 19.9578 99.8333C19.9457 99.7996 19.9279 99.7684 19.9052 99.7409L19.2673 98.9075L20.3115 99.0013C20.3441 99.0013 20.3648 98.9976 20.3774 98.9961C20.3869 98.9945 20.3967 98.9945 20.4062 98.9961C20.4368 98.9918 20.4661 98.9811 20.4924 98.9647C20.5186 98.9483 20.5412 98.9265 20.5587 98.9007C20.6034 98.8463 20.6266 98.777 20.6238 98.7062L20.512 97.8668C20.5093 97.8339 20.4989 97.8022 20.4816 97.7742C20.4644 97.7463 20.4408 97.7229 20.4129 97.7061C20.3627 97.6666 20.3003 97.6464 20.2368 97.649C20.2024 97.6512 20.1689 97.6607 20.1383 97.6768L19.1496 98.0327L19.5655 97.0566C19.5751 97.037 19.583 97.0167 19.5892 96.9958C19.5892 96.9845 19.5929 96.9747 19.5937 96.9672C19.6043 96.9022 19.5892 96.8355 19.5515 96.7818C19.5348 96.7521 19.5119 96.7266 19.4844 96.7068C19.4569 96.6871 19.4255 96.6737 19.3924 96.6676L18.5695 96.51C18.5365 96.5037 18.5027 96.5046 18.4702 96.5126C18.4376 96.5207 18.4071 96.5356 18.3807 96.5565C18.3267 96.5933 18.2885 96.6497 18.2742 96.7142C18.2742 96.7217 18.2742 96.7315 18.2697 96.7427C18.2673 96.7644 18.2673 96.7864 18.2697 96.8081L18.3156 97.8825L17.5134 97.1722C17.4888 97.1477 17.4612 97.1265 17.4313 97.1091C17.3715 97.0817 17.3039 97.0772 17.2411 97.0964C17.2102 97.1028 17.1812 97.1165 17.1564 97.1363C17.1316 97.1561 17.1117 97.1815 17.0983 97.2105L16.6913 97.9501C16.6642 98.0146 16.659 98.0865 16.6764 98.1543C16.6829 98.186 16.6965 98.2157 16.7161 98.2411C16.7357 98.2665 16.7609 98.2869 16.7897 98.3008C16.7994 98.3025 16.8086 98.3061 16.8171 98.3113C16.836 98.3221 16.8555 98.3319 16.8755 98.3406L17.8931 98.6409L16.9873 99.1785C16.9567 99.1964 16.929 99.219 16.9051 99.2453C16.8814 99.2665 16.8623 99.2923 16.8488 99.3212C16.8353 99.3501 16.8278 99.3816 16.8267 99.4135C16.8236 99.4483 16.8287 99.4833 16.8415 99.5157C16.8544 99.5481 16.8747 99.5769 16.9007 99.5998L17.4624 100.216C17.5156 100.258 17.58 100.283 17.6474 100.288C17.6792 100.291 17.7114 100.287 17.7416 100.277C17.7718 100.266 17.7993 100.249 17.822 100.226C17.8256 100.216 17.8317 100.207 17.8398 100.2L17.8827 100.155L18.4807 99.2626L18.7167 100.314C18.7182 100.334 18.7243 100.354 18.7345 100.371L18.7574 100.405C18.7685 100.434 18.7865 100.461 18.81 100.482C18.8334 100.504 18.8616 100.519 18.8921 100.526C18.957 100.548 19.0264 100.55 19.0927 100.534Z" fill="white"/>
<path d="M119.409 104.157L119.408 104.155C119.296 103.808 119.267 103.438 119.324 103.076C119.38 102.715 119.521 102.372 119.735 102.076L119.735 102.076L119.739 102.07C120.716 100.757 122.703 100.875 123.769 102.106L123.795 102.132L123.913 102.248C124.016 102.348 124.165 102.493 124.349 102.67C124.716 103.024 125.221 103.508 125.774 104.025C126.891 105.069 128.169 106.217 128.906 106.734L129.684 107.281L128.792 107.612L124.071 109.364L123.746 109.485L123.519 109.222L120.045 105.21C119.755 104.913 119.538 104.552 119.409 104.157Z" fill="#FFE1D9" stroke="#17161B"/>
<path d="M113.364 113.827C113.627 113.751 113.905 113.683 114.185 113.621C113.439 113.43 112.81 112.964 112.978 111.761C113.287 109.617 124.852 107.98 124.852 107.98L134.076 108.429M113.364 113.827C113.51 113.913 113.662 113.98 113.813 114.032C113.935 114.073 114.058 114.107 114.182 114.134C112.818 114.444 111.619 114.883 111.845 115.909M113.364 113.827C113.135 113.691 112.922 113.508 112.759 113.259C112.488 112.846 112.395 112.322 112.483 111.692L112.483 111.69C112.552 111.214 112.909 110.849 113.284 110.578C113.677 110.294 114.197 110.036 114.777 109.802C115.941 109.332 117.446 108.92 118.918 108.579C120.396 108.238 121.861 107.965 122.956 107.777C123.503 107.683 123.959 107.61 124.278 107.561C124.438 107.536 124.563 107.517 124.649 107.505L124.748 107.49L124.763 107.488L128.513 106.657L128.727 106.61L128.907 106.735C128.943 106.76 129.044 106.811 129.239 106.88C129.422 106.945 129.653 107.014 129.92 107.084C130.452 107.226 131.099 107.367 131.73 107.494C132.359 107.62 132.966 107.731 133.416 107.81C133.641 107.849 133.826 107.88 133.955 107.902L134.104 107.927L134.143 107.933L134.152 107.935L134.155 107.935L134.155 107.935L134.156 107.935L134.076 108.429M113.364 113.827C113.196 113.875 113.035 113.927 112.882 113.983C112.448 114.142 112.018 114.358 111.717 114.68C111.391 115.03 111.24 115.485 111.357 116.016M111.845 115.909C112.171 117.414 113.559 117.715 114.788 117.669C114.764 117.691 114.741 117.715 114.718 117.739C114.597 117.866 114.493 118.011 114.416 118.171M111.845 115.909L111.357 116.015C111.357 116.015 111.357 116.015 111.357 116.016M111.845 115.909L111.357 116.017C111.357 116.016 111.357 116.016 111.357 116.016M114.416 118.171C114.619 118.176 114.821 118.17 115.015 118.157C114.8 118.419 114.692 118.758 114.805 119.192M114.416 118.171C114.121 118.164 113.822 118.136 113.531 118.075C113.058 117.976 112.583 117.789 112.187 117.452C111.785 117.109 111.491 116.635 111.357 116.016M114.416 118.171C114.26 118.492 114.206 118.877 114.321 119.318M114.805 119.192C115.22 120.815 116.648 121.124 118.126 120.958C117.966 121.116 117.824 121.293 117.711 121.492M114.805 119.192L114.32 119.316C114.321 119.317 114.321 119.317 114.321 119.318M114.805 119.192L114.321 119.318C114.321 119.318 114.321 119.318 114.321 119.318M117.711 121.492C117.93 121.483 118.149 121.462 118.366 121.432C117.877 121.99 117.738 122.742 118.379 123.778C120.079 126.506 138.087 119.107 138.087 119.107M117.711 121.492C117.279 121.511 116.849 121.485 116.445 121.392C115.967 121.283 115.51 121.077 115.131 120.73C114.75 120.381 114.473 119.912 114.321 119.318M117.711 121.492C117.672 121.561 117.637 121.633 117.605 121.707C117.316 122.392 117.42 123.178 117.954 124.041L117.955 124.042C118.3 124.597 118.986 124.797 119.669 124.858C120.385 124.923 121.276 124.85 122.255 124.692C124.22 124.376 126.659 123.698 129.023 122.941C131.392 122.183 133.705 121.34 135.424 120.688C136.284 120.361 136.997 120.082 137.495 119.884C137.743 119.785 137.939 119.707 138.072 119.653L138.224 119.591L138.263 119.575L138.273 119.571L138.276 119.57L138.277 119.569C138.277 119.569 138.277 119.569 138.087 119.107M138.087 119.107C138.638 114.771 135.908 109.48 134.076 108.429M138.087 119.107L138.277 119.569L138.546 119.459L138.583 119.17C138.873 116.886 138.3 114.387 137.436 112.342C137.002 111.315 136.49 110.387 135.961 109.642C135.44 108.907 134.875 108.311 134.325 107.995L134.246 107.95L134.156 107.935L134.076 108.429" fill="#FFE1D9" stroke="#17161B"/>
<path d="M116.078 117.778C116.344 117.725 116.608 117.659 116.867 117.579C116.599 117.619 116.334 117.686 116.078 117.778Z" fill="#FFE1D9"/>
<path d="M114.758 110.627C114.269 110.852 113.776 111.093 113.379 111.458C113.185 111.641 113.022 111.871 113.024 112.145C112.992 112.412 113.017 112.682 113.098 112.937C113.265 113.458 113.782 113.74 114.293 113.838C114.811 113.952 115.345 113.931 115.892 113.962C115.913 113.962 115.934 113.97 115.949 113.985C115.965 113.999 115.974 114.02 115.976 114.041C115.978 114.063 115.972 114.084 115.959 114.101C115.946 114.118 115.928 114.13 115.907 114.134H115.902C115.022 114.339 114.126 114.486 113.288 114.772C112.875 114.918 112.454 115.102 112.186 115.407C112.057 115.55 111.986 115.738 111.988 115.933C112.006 116.141 112.059 116.344 112.146 116.533C112.313 116.92 112.608 117.235 112.98 117.424C113.366 117.607 113.785 117.709 114.211 117.724C115.073 117.769 115.968 117.611 116.794 117.355L116.894 117.813C116.259 117.91 115.539 118.126 115.161 118.599C114.976 118.833 114.939 119.133 115.022 119.444C115.098 119.766 115.244 120.067 115.449 120.324C115.86 120.838 116.54 121.064 117.214 121.107C117.888 121.151 118.591 121.051 119.269 120.893C119.3 120.885 119.332 120.89 119.358 120.907C119.385 120.923 119.404 120.95 119.411 120.981C119.417 121.006 119.415 121.034 119.404 121.058C119.393 121.082 119.375 121.102 119.352 121.115C119.014 121.297 118.686 121.507 118.439 121.797C118.184 122.076 118.047 122.446 118.06 122.826C118.076 123.206 118.219 123.577 118.414 123.917C118.571 124.271 118.995 124.368 119.367 124.422C120.141 124.516 120.934 124.437 121.715 124.36C122.497 124.284 123.28 124.168 124.062 124.072C123.283 124.187 122.504 124.314 121.722 124.417C120.94 124.519 120.151 124.611 119.354 124.534C119.151 124.516 118.952 124.471 118.762 124.398C118.56 124.326 118.393 124.18 118.292 123.989C118.067 123.643 117.928 123.247 117.887 122.834C117.862 122.407 118.004 121.986 118.282 121.663C118.545 121.335 118.891 121.104 119.24 120.903L119.324 121.128C118.636 121.309 117.925 121.436 117.196 121.408C116.483 121.382 115.695 121.161 115.182 120.559C114.935 120.266 114.755 119.921 114.655 119.549C114.535 119.178 114.573 118.69 114.833 118.356C115.079 118.018 115.425 117.813 115.763 117.662C116.106 117.513 116.466 117.408 116.834 117.349C116.892 117.34 116.952 117.354 117 117.388C117.049 117.421 117.083 117.472 117.096 117.531C117.108 117.589 117.099 117.65 117.069 117.702C117.039 117.753 116.99 117.791 116.934 117.807C116.033 118.058 115.119 118.196 114.181 118.124C113.704 118.093 113.239 117.964 112.813 117.744C112.378 117.507 112.038 117.125 111.851 116.662C111.753 116.432 111.697 116.187 111.687 115.937C111.69 115.67 111.793 115.413 111.974 115.219C112.326 114.848 112.778 114.682 113.211 114.538C114.088 114.266 114.987 114.145 115.865 113.965L115.876 114.139C115.35 114.096 114.797 114.101 114.263 113.969C113.992 113.909 113.734 113.798 113.504 113.641C113.272 113.476 113.101 113.239 113.015 112.965C112.936 112.697 112.916 112.416 112.957 112.139C112.962 111.852 113.146 111.602 113.348 111.427C113.764 111.065 114.263 110.836 114.758 110.627Z" fill="#17161B"/>
<path d="M115.66 113.914C116.4 113.729 117.14 113.571 117.884 113.417L120.123 112.98L122.367 112.588C123.118 112.464 123.866 112.341 124.622 112.232C123.902 112.49 123.169 112.699 122.433 112.898C121.697 113.098 120.953 113.265 120.213 113.442C119.468 113.592 118.725 113.76 117.976 113.893C117.227 114.025 116.478 114.157 115.722 114.249C115.679 114.255 115.635 114.244 115.6 114.218C115.565 114.192 115.541 114.154 115.534 114.11C115.526 114.067 115.535 114.023 115.558 113.986C115.582 113.949 115.619 113.923 115.661 113.913L115.66 113.914Z" fill="#17161B"/>
<path d="M116.757 117.457C117.497 117.272 118.237 117.114 118.982 116.96L121.217 116.523L123.462 116.131C124.212 116.007 124.961 115.884 125.717 115.775C124.997 116.033 124.263 116.242 123.528 116.441C122.792 116.641 122.048 116.808 121.308 116.985C120.562 117.139 119.819 117.303 119.071 117.436C118.322 117.568 117.573 117.699 116.816 117.791C116.773 117.797 116.73 117.786 116.695 117.76C116.66 117.734 116.636 117.696 116.628 117.653C116.62 117.609 116.629 117.565 116.653 117.528C116.677 117.491 116.714 117.465 116.756 117.455L116.757 117.457Z" fill="#17161B"/>
<path d="M119.083 120.924C119.823 120.739 120.563 120.581 121.308 120.426L123.544 119.99L125.788 119.598C126.538 119.474 127.287 119.35 128.043 119.242C127.323 119.5 126.589 119.708 125.853 119.908C125.118 120.108 124.373 120.275 123.633 120.452C122.888 120.602 122.145 120.769 121.397 120.902C120.649 121.035 119.899 121.167 119.143 121.259C119.1 121.265 119.056 121.254 119.021 121.228C118.986 121.202 118.962 121.163 118.954 121.12C118.947 121.077 118.956 121.032 118.979 120.996C119.003 120.959 119.04 120.933 119.082 120.923L119.083 120.924Z" fill="#17161B"/>
<path d="M74.6657 120.613C76.4248 121.153 76.6823 122.846 76.4611 124.497C77.6703 120.851 78.6072 117.678 81.7153 118.283C82.4931 118.434 83.4744 120.488 83.2886 121.976C84.002 120.882 85.0565 119.075 86.2184 119.419C88.2735 120.031 88.8159 123.999 87.6186 125.876C88.9181 124.702 90.3744 124.021 91.3565 125.51C93.5026 128.759 89.2303 132.784 87.0953 133.221C82.94 134.072 73.0976 133.134 70.4897 129.743C68.9623 127.756 70.9108 119.465 74.6657 120.613Z" fill="#FFE1D9" stroke="#17161B"/>
</g>
<defs>
<linearGradient id="paint0_linear_7_1270" x1="138.284" y1="48.191" x2="138.497" y2="45.084" gradientUnits="userSpaceOnUse">
<stop stop-color="#FFD4CF"/>
<stop offset="1" stop-color="#F8B7B3"/>
</linearGradient>
<clipPath id="clip0_7_1270">
<rect width="187" height="212" fill="white" transform="matrix(-1 0 0 1 187 0)"/>
</clipPath>
</defs>
</svg>
