<svg version="1.2" xmlns="http://www.w3.org/2000/svg" viewBox="0 0 244 186" width="244" height="186"><defs><clipPath clipPathUnits="userSpaceOnUse" id="cp1"><path d="m0 0h244v201h-244z"/></clipPath><clipPath clipPathUnits="userSpaceOnUse" id="cp2"><path d="m177.4 49.27c0 0 4.95 14.94 5.42 21.26 0.43 5.79-18.72 9.66-20.07 3.59-1.42-7.23-3.52-19.51-3.52-19.51"/></clipPath></defs><style>.a{fill:#ffc700}.b{fill:#8053ff;stroke:#17161b}.c{fill:#c6b4f9;stroke:#17161b}.d{fill:#17161b}.e{fill:#ffe1d9}.f{fill:#ffe1d9;stroke:#17161b}.g{fill:#ffc700;stroke:#17161b}.h{fill:#5f7e91;stroke:#17161b}.i{fill:#49687a;stroke:#17161b}.j{fill:none;stroke:#17161b}.k{fill:#e0d5ff;stroke:#17161b}.l{fill:#6a49c6;stroke:#17161b}</style><g clip-path="url(#cp1)"><path class="a" d="m152.8 38.6c0 2-0.8 3.9-2.2 5.3-1.4 1.5-3.3 2.3-5.3 2.3-2 0-3.9-0.8-5.4-2.3-1.4-1.4-2.2-3.3-2.2-5.3v-5.2c0-2 0.8-3.9 2.2-5.4 1.5-1.4 3.4-2.2 5.4-2.2 2 0 3.9 0.8 5.3 2.2 1.4 1.5 2.2 3.4 2.2 5.4z"/><path class="b" d="m210.6 151h-0.4v0.4l-0.2 2.3-73-0.4c3.2-0.2 6.2-0.6 8.5-1 1.3-0.2 2.4-0.4 3.2-0.6q0.6-0.2 1-0.3 0.1 0 0.3-0.1 0-0.1 0.2-0.2c0-0.1 0.1-0.2 0-0.5q0 0 0-0.4-0.1-0.3-0.1-0.9-0.1-0.2-0.1-0.5-0.1-1.1-0.3-2.8c-0.3-2.8-0.9-6.8-1.9-12.1v-0.3l-0.4-0.1c-0.6 0-1.4 0.2-2.3 0.5-1 0.4-2.1 0.9-3.3 1.6-2.4 1.2-5.3 3-8.2 4.8l-0.4 0.2c-2.7 1.7-5.5 3.3-7.8 4.6-1.2 0.7-2.3 1.2-3.2 1.6q-1.4 0.6-2.1 0.6h-0.5v0.5c0.4 2.5 2.7 3.9 5.6 4.7 1.1 0.3 2.5 0.5 3.9 0.6l-25.3-0.2-4.6-16.7c1.9-0.6 3.8-1.2 5.8-1.7q1-0.2 1.9-0.5c2.8-0.8 5.6-1.6 8.2-2.9 5.3-2.6 9.7-6.8 11.7-15.4 1.9-8.4 5.1-17.1 8.7-24.2 1.8-3.6 3.7-6.8 5.7-9.4 1.9-2.6 3.8-4.5 5.6-5.6 7.6-4.6 27.9-12.6 49.6-2.7 10.9 4.9 18.5 14.1 23.7 23.4 5.3 9.4 8 18.7 9 23.8q0.3 1.3 0.7 2.8c0.4 1.9 0.8 3.9 1.2 6 0.5 3.2 0.6 6.4-0.1 9.4-0.7 3-2.3 5.7-5.5 7.7-3.1 2.1-7.8 3.6-14.8 4z"/><path class="c" d="m161.1 154.3c-4.7-13.2-5.7-29.7-5.3-43.9 0.4-13.8 2-25.2 2.8-28.9q0.1 0 0.3 0 0.6-0.1 1.8-0.1c1.5-0.1 3.6-0.3 6.1-0.4 4.5-0.3 10.1-0.6 14.5-0.7-4.3 11.1-5.4 26.1-5.2 40.1 0.2 13.8 1.8 26.8 2.9 33.9q-0.5 0-1.4 0.1c-1.1 0-2.8 0.1-4.6 0.1-3.7 0.1-8.2 0.1-11.9-0.2z"/><path class="c" d="m163.1 69.5h0.1c6.6-1 13.2-0.9 18.1-0.4 2.4 0.2 4.5 0.6 5.9 0.9q1 0.2 1.6 0.5 0.1 0 0.2 0.1c-1.2 5.5-4.3 9.9-8.1 12-1.9 1.1-4 1.5-6.1 1.3-2.1-0.2-4.2-1.2-6.2-3.1l-0.5-0.5-0.3 0.7c-0.2 0.5-0.8 1.2-1.6 1.8-0.7 0.7-1.7 1.2-2.8 1.6-1 0.3-2.1 0.4-3.1 0.2-1-0.3-1.9-0.9-2.7-2.1-1.7-2.4-2.1-5.6-1.2-8.2 0.9-2.5 3.1-4.6 6.7-4.8z"/><path class="a" d="m184.8 27.3c-0.4-7.7-8.3-22.4-26.9-21.5-13.3 1-15 13.6-15 13.6-0.4 1.4-2.8 4.4-2.8 4.4-0.7-5.9 3-21.6 19.8-22 18.9-0.5 28 14.4 28.3 25-1.5 2.5-3.4 0.5-3.4 0.5z"/><path class="d" d="m147.7 12.7c-6.4 4.4-10.3 11.7-7 19 3.2 7.2 4.1 10.4 1 16.1-4.4 8-6.3 15.4-3 22.2 20.1-2.8 28.9-5 28.9-5 0 0-7.8-53.1-19.9-52.3z"/><path class="e" d="m177.4 49.3c0 0 4.9 14.9 5.4 21.2 0.4 5.8-18.7 9.7-20.1 3.6-1.4-7.2-3.5-19.5-3.5-19.5"/><g clip-path="url(#cp2)"><path fill-rule="evenodd" class="d" d="m183.8 70.5c0.2 2-1.4 3.6-3.2 4.7-1.9 1.2-4.4 2.1-7 2.6-2.5 0.4-5.1 0.5-7.3 0.1-2.1-0.4-4.1-1.4-4.5-3.6l0.9-0.2-0.9 0.2c-0.7-3.6-1.6-8.5-2.3-12.5-0.4-2-0.7-3.7-0.9-5q-0.2-0.9-0.3-1.5 0-0.2 0-0.4 0 0-0.1-0.1 0 0 0 0 0 0 0 0 0 0 0 0 0 0 0 0c0 0 0 0 1-0.2 1-0.2 1-0.2 1-0.2q0 0 0 0 0 0 0 0 0 0 0 0.1 0 0 0 0 0 0 0 0.1 0.1 0.1 0.1 0.4 0.1 0.5 0.3 1.5c0.2 1.2 0.5 3 0.8 5 0.7 3.9 1.6 8.8 2.3 12.4 0.2 0.9 1.1 1.7 3 2.1 1.8 0.3 4.2 0.2 6.6-0.2 2.3-0.5 4.6-1.3 6.2-2.3 1.7-1 2.4-2 2.3-2.9l1-0.1-0.3 0.1 0.3-0.1-1 0.1c-0.2-3-1.5-8.3-2.8-12.8-0.7-2.2-1.3-4.3-1.8-5.8q-0.3-1.1-0.5-1.8-0.1-0.3-0.2-0.5 0 0 0-0.1 0 0-0.1 0 0 0 0 0 0 0 0 0 0 0 0 0c0 0 0 0 1-0.3 0.9-0.3 0.9-0.3 0.9-0.3q0 0 0 0 0 0 0 0 0 0 0 0 0.1 0 0.1 0 0 0 0 0.1 0.1 0.2 0.2 0.5 0.2 0.7 0.5 1.8c0.5 1.5 1.1 3.6 1.8 5.9 1.3 4.5 2.7 9.9 2.9 13.2zm-1.3 0.1h-0.7z"/></g><path class="f" d="m146.1 42l-0.9-19.1q0 0 0 0c-0.1-2.3 0.3-4.6 1.1-6.7 0.8-2.2 2-4.2 3.5-5.9 1.6-1.7 3.4-3.1 5.5-4 2.1-1 4.4-1.6 6.7-1.7 2.3-0.1 4.6 0.3 6.7 1.1 2.2 0.8 4.2 2 5.9 3.5 1.7 1.6 3.1 3.4 4 5.5 1 2.1 1.6 4.4 1.7 6.7l0.8 19.1c0.1 2.3-0.2 4.6-1 6.7-0.8 2.2-2 4.2-3.6 5.9-1.5 1.7-3.4 3-5.5 4-2.1 1-4.3 1.5-6.6 1.6-2.3 0.1-4.6-0.2-6.8-1-2.1-0.8-4.1-2-5.8-3.6-1.7-1.5-3.1-3.4-4-5.5-1-2.1-1.6-4.3-1.7-6.6z"/><path class="d" d="m169.4 22.3c-2.3-1.3-5.3-1.8-7.6-0.6-0.9 0.5-0.1 1.8 0.7 1.4 1.9-1 4.4-0.4 6.1 0.5 0.9 0.5 1.7-0.9 0.8-1.3z"/><path class="d" d="m147.7 24.8q0.8-0.8 1.9-1.1 1-0.2 2.1 0c1 0.2 1.4-1.3 0.5-1.5-1-0.2-2-0.2-3 0.1-1 0.2-1.9 0.7-2.6 1.4-0.7 0.7 0.4 1.8 1.1 1.1z"/><path class="d" d="m159.9 46c-1 0-1.9-0.2-2.6-0.7q-0.2-0.2-0.3-0.4 0-0.2 0.1-0.4 0.1-0.2 0.4-0.3 0.2 0 0.4 0.1c0.6 0.3 1.2 0.5 1.9 0.5 0.7 0.1 1.3-0.1 1.9-0.4 0.5-0.3 0.9-0.7 1.2-1.2 0.2-0.5 0.3-1 0.3-1.6q-0.1-0.1 0-0.2 0-0.1 0.1-0.2 0.1-0.1 0.2-0.1 0.1-0.1 0.2-0.1 0.3 0 0.4 0.2 0.2 0.1 0.2 0.4c0.1 0.7-0.1 1.5-0.4 2.2-0.4 0.7-0.9 1.2-1.6 1.6-0.7 0.4-1.6 0.6-2.4 0.6z"/><path class="d" d="m162.4 32.2q0.2 0.6 0.7 1 0.6 0.4 1.2 0.4 0.7 0 1.3-0.3 0.5-0.4 0.8-1 0.3-0.6 0.2-1.3-0.1-0.6-0.6-1.1-0.4-0.5-1.1-0.6-0.6-0.2-1.3 0.1-0.4 0.1-0.7 0.4-0.3 0.3-0.5 0.7-0.2 0.4-0.2 0.8 0 0.5 0.2 0.9z"/><path class="d" d="m149.3 33q0.2 0.6 0.7 1 0.6 0.4 1.3 0.4 0.6 0 1.2-0.4 0.5-0.3 0.8-0.9 0.3-0.6 0.2-1.3-0.1-0.6-0.6-1.1-0.4-0.5-1.1-0.6-0.6-0.2-1.3 0-0.4 0.2-0.7 0.5-0.3 0.3-0.5 0.7-0.2 0.4-0.2 0.8 0 0.5 0.2 0.9z"/><path class="d" d="m198.8 42.1c-3-6.4 0.7-10.4-0.9-16.6-1.4-5.3-7.8-5.2-11.1-12.8-5-11.7-31-22.2-40.7 1.5 10.8-7.3 21.8-3.5 26 1.9 8.4 10.9-0.2 15.5 3 22 2.4 4.7 3.9 7.9 0.9 15-3.1 7.2 1.2 14 1.2 14 10.1-1.1 21.4-2.1 31.8-3.9 0-17.4-7.2-14.6-10.2-21.1z"/><path fill-rule="evenodd" class="f" d="m125.4 145.3l0.2-1q-0.3-0.1-0.4-0.2 0.1 0 0.1-0.1 0.2-0.2 0.6-0.5c1.1-0.8 3.5-2.1 7.4-4.1q1.9-1 3.5-1.9c5.6-3.1 9-5 16.3-5.6l6.3 0.1q0 0 0 0 0.1 0.4 0.3 1c0.2 0.9 0.6 2.1 0.9 3.4 0.5 2.4 1 5.3 0.7 7.6-3.7-1.2-7.6-1.4-11-1.1-3.6 0.4-6.7 1.3-8.5 2.4-1.7 0.9-3.9 1.6-5.8 1.8-1 0.1-1.8 0.1-2.5 0-0.7-0.1-1.1-0.4-1.2-0.6l-0.2-0.3-0.4 0.1c-2.1 0.8-3.8 0.9-4.8 0.8q-0.1-0.1-0.2-0.1 0.1 0 0.2-0.1l-0.4-0.9c-0.7 0.2-1.4 0.3-1.9 0.2-0.6-0.1-1-0.3-1.1-0.4q0 0-0.1 0 0.1-0.1 0.1-0.1c0.2-0.2 0.8-0.4 1.9-0.4zm-2 0.4q0 0 0 0 0 0 0 0zm0 0.1q0 0 0 0 0 0 0 0z"/><path class="g" d="m181.1 149.4l-20-5.9q0-0.3 0-0.9c0-0.7 0-1.8-0.2-3.1-0.2-2.3-0.8-5.3-2.2-8.1 2.5-0.5 6.8-0.9 11.4-1.2 4.9-0.3 10.1-0.4 13.9-0.2 0.2 3-0.5 7.8-1.3 12-0.4 2.1-0.8 4.1-1.2 5.6q-0.2 1-0.3 1.7-0.1 0-0.1 0.1z"/><path class="d" d="m158.3 131.6c9.3-1.3 18.7-1.3 28.2-1.5 4.5-0.2 8.8-0.7 13.3-1.2 4.3-0.5 9.4 0.4 13.5 1.7q0 0 0.1 0 0.1 0 0.2-0.1 0 0 0.1-0.1 0 0 0.1-0.1 0-0.1 0-0.2 0-0.1-0.1-0.1 0-0.1-0.1-0.1-0.1-0.1-0.1-0.1c-4-1.2-8.1-1.9-12.2-1.8q-3 0.1-5.9 0.7-4.1 0.5-8.2 0.5c-9.7 0.3-19.5 0.3-29.1 1.7-0.5 0-0.3 0.8 0.2 0.7z"/><path class="d" d="m199.9 107.6q1.3 9.8 1.4 19.6 0 0.1 0.1 0.3 0.1 0.1 0.3 0.1 0.1 0 0.2-0.1 0.2-0.2 0.2-0.3-0.1-9.9-1.4-19.8c-0.1-0.5-0.8-0.3-0.8 0.2z"/><path class="d" d="m160 144.2c2.8 0 5.5 1.3 8.1 2 3.2 0.8 6.4 1.9 9.5 2.8 6.5 1.8 13.1 2.9 19.8 3.3 10.6 0.6 23.5 0.1 31.5-7.8q0.1-0.2 0.1-0.3 0-0.2-0.1-0.3-0.1-0.1-0.3-0.1-0.2 0-0.3 0.1c-8.4 8.3-22.1 8.3-33.1 7.5-6.6-0.6-13.1-1.8-19.5-3.7-2.8-0.9-5.6-1.7-8.5-2.6-2.3-0.7-4.7-1.7-7.2-1.6q-0.2 0-0.3 0.1-0.1 0.1-0.1 0.2 0 0.2 0.1 0.3 0.1 0.1 0.3 0.1z"/><path class="d" d="m144.4 99.6c-0.7 2.1-0.5 4.3-0.5 6.5 0.1 3 0.3 6 0.4 9 0.2 3 0.3 5.9 0.5 8.9 0.2 2.7 1.3 5.3 1.4 8 0 0.5 0.8 0.5 0.8 0-0.1-2.5-1.1-4.8-1.3-7.3-0.3-2.7-0.4-5.4-0.5-8.1-0.1-2.7-0.3-5.5-0.4-8.2-0.1-2.8-0.5-6 0.3-8.6 0.2-0.5-0.6-0.7-0.8-0.3z"/><path class="d" d="m131.5 147.5c2.5-0.5 4.4-2 6.5-3.3 2.9-1.8 6.1-2.9 9.2-4.1 0.4-0.2 0.2-1-0.2-0.8-2.6 1-5.2 1.9-7.7 3.2-2.7 1.3-5 3.6-8 4.2-0.5 0.1-0.3 0.8 0.2 0.8z"/><path class="d" d="m125.9 147.4c6.3-2.6 12-6.3 18.4-8.6 0.4-0.2 0.2-0.9-0.2-0.8-6.5 2.3-12.3 6-18.6 8.7-0.5 0.2-0.1 0.8 0.4 0.6z"/><path class="d" d="m124.5 145.6c2.5-1.5 5.3-2.2 7.8-3.6 2.6-1.3 5-2.7 7.6-3.8 0.5-0.2 0.1-0.9-0.4-0.7-2.6 1.2-5.1 2.5-7.6 3.9-2.4 1.3-5.3 2-7.8 3.5-0.4 0.3 0 0.9 0.4 0.7z"/><path class="d" d="m165.1 87.7c0.2 1.4 2.2 1.4 2.8 0.3q0.1-0.2 0.2-0.5 0-0.2-0.1-0.4-0.1-0.3-0.3-0.4-0.1-0.2-0.3-0.3c-0.4-0.2-0.8-0.3-1.2-0.2-0.4 0-0.7 0.2-1 0.5-0.2 0.4 0.4 0.8 0.7 0.4 0.3-0.4 1.8 0 1.3 0.6-0.4 0.4-1.2 0.5-1.4-0.2-0.1-0.5-0.8-0.3-0.7 0.2z"/><path class="d" d="m164 93.5c-0.2 1.4 1.5 1.8 2.4 1 0.2-0.2 0.4-0.5 0.5-0.8 0-0.3 0-0.6-0.2-0.9q-0.3-0.3-0.8-0.4-0.5-0.1-1 0.1c-0.5 0.2-0.3 0.9 0.2 0.8q0.2-0.1 0.5-0.1 0.2 0 0.5 0.1c0.2 0.2-0.1 0.6-0.2 0.7-0.3 0.2-1.2 0.4-1.1-0.2 0.1-0.6-0.7-0.7-0.8-0.2z"/><path class="d" d="m163.6 101c0 1.6 2.3 0.9 2.6-0.2 0.3-1.5-2.3-2.3-2.5-0.7-0.1 0.5 0.7 0.7 0.8 0.2 0.1-0.5 0.9-0.2 1 0.3 0 0.5-1.1 0.9-1.1 0.4 0-0.4-0.8-0.5-0.8 0z"/><path class="d" d="m148.3 143.8c-0.1 1.3 0.1 2.5 0.5 3.6 0.2 0.5 1 0.3 0.8-0.2-0.4-1.1-0.6-2.2-0.4-3.4 0-0.5-0.8-0.5-0.8 0z"/><path class="d" d="m158.1 131.7c1.5 1 1.6 3.1 2 4.7 0.5 2.1 1 4.7 0 6.7-0.2 0.5 0.5 0.9 0.7 0.4 1-2.3 0.6-5 0-7.3-0.4-1.9-0.7-4-2.3-5.2-0.4-0.3-0.8 0.4-0.4 0.7z"/><path class="d" d="m139.2 43.1c-1.2 9.2 12.3 9.2 18.1 8.9 0.5 0 0.5-0.8 0-0.8-5.1 0.3-18.4 0.5-17.3-7.9 0.1-0.4-0.7-0.7-0.8-0.2z"/><path class="a" d="m161.8 51.5c0 1.3-1.2 2.4-2.8 2.4-1.6 0-2.9-1.1-2.9-2.4 0-1.3 1.3-2.3 2.9-2.3 1.5 0 2.8 1 2.8 2.3z"/><path class="a" d="m159.9 1.8c-9.6 0.3-14.9 5.5-17.6 11q1.5 0.2 2.8 0.8c1.9-3.5 5.7-7.3 12.8-7.8 18.6-0.8 26.5 13.8 26.9 21.5 0 0 1.9 2 3.4-0.5-0.3-10.6-9.4-25.5-28.3-25z"/><path class="a" d="m194.3 38.6c0 2-0.8 3.9-2.2 5.3-1.4 1.5-3.3 2.3-5.3 2.3-2 0-4-0.8-5.4-2.3-1.4-1.4-2.2-3.3-2.2-5.3v-5.2c0-2 0.8-3.9 2.2-5.4 1.4-1.4 3.4-2.2 5.4-2.2 2 0 3.9 0.8 5.3 2.2 1.4 1.5 2.2 3.4 2.2 5.4z"/><path class="d" d="m192.5 37.8c0 1.1-0.4 2.1-1.1 2.9-0.7 0.8-1.7 1.4-2.8 1.5-1 0.2-2.1 0-3-0.5-1-0.6-1.7-1.4-2.1-2.4-0.5-1.4-0.2-3.5-0.2-5 0-5.2 7.2-6.1 9-1.4 0.5 1.4 0.2 3.4 0.2 4.9q0 0.2 0.1 0.3 0.2 0.1 0.3 0.1 0.2 0 0.3-0.1 0.1-0.1 0.1-0.3c0-3.1 0.3-6.2-2.7-8.1-3.6-2.4-7.9 0.8-8.1 4.6-0.1 3.1-0.2 6.3 2.7 8.2 3.6 2.3 7.9-0.8 8.1-4.7 0-0.5-0.8-0.5-0.8 0z"/><path class="h" d="m103.9 147.6l0.1 0.3h0.3 60.2c0.5 0 0.9 0.2 1.2 0.6 0.3 0.5 0.4 1 0.4 1.6 0 0.6-0.2 1.2-0.7 1.6-0.4 0.4-1.1 0.7-2.2 0.7h-137.6c-2.2-4.5-7.7-18.9-13-32.9-3.2-8.5-6.3-16.8-8.5-22.7-1.5-4-2.6-7-2.9-7.9-0.9-2.3-0.9-4.8 0.1-6.6 1-1.8 3.1-3.1 6.8-3.1h52.9c2.7 0 5.5 0.3 8.2 1.5 2.5 1.2 5 3.5 6.8 7.6 2 4.3 8.9 19.1 15.4 32.8 3.2 6.9 6.4 13.5 8.7 18.4 1.1 2.5 2.1 4.5 2.7 5.9l0.8 1.6 0.2 0.4 0.1 0.2c0 0 0 0 0.4-0.2z"/><path fill-rule="evenodd" class="i" d="m99.4 147.4c0.5-0.2 0.5-0.2 0.5-0.2l-0.1-0.1v-0.1l-0.2-0.4-0.8-1.6c-0.6-1.4-1.6-3.5-2.7-5.9-2.4-4.9-5.5-11.5-8.7-18.4-6.5-13.8-13.4-28.6-15.4-32.8q-1.1-2.4-2.4-4.1l6.1 3.8q0.2 0.3 0.3 0.7 0 0 0 0l0.5-0.2m-6.9-4.3l-8.1-5.1c5.4 0.1 11.3 1.2 15 9.4l-0.8-0.5c-1.8-3.7-4.1-5.8-6.5-6.9-1.9-0.9-3.8-1.3-5.7-1.4q0.6 0.2 1.2 0.5c1.7 0.8 3.4 2.1 4.9 4zm29.8 63.6l0.5-0.2v0.2h-0.5 0.6zm0.5 0l3.9 0.1v0.1l0.2 0.3h60.4c0.8 0 1.4 0.7 1.6 1.7 0.2 0.9-0.1 1.9-1 2.4l-0.1 0.1q-0.2 0.1-0.5 0.1l-0.1 0.1h-0.1q-0.1 0-0.3 0.1-0.4 0-0.7 0h-55l-6.4-0.1zm0 0l4.3-0.1-0.4 0.2zm4.3-0.1l-0.1-0.2c-0.2-0.5-0.7-1.4-1.3-2.6-1.1-2.4-2.8-6-4.9-10.4-7.3-15.7-18.9-40.3-21.5-46zm0 0v0.1l-0.5 0.1zm-4.8 0.1l4.4 0.2m0.4-0.3l-0.4 0.3"/><path class="j" d="m54.4 116.6c1.5 3.8-0.3 6.8-4.1 6.8-3.7 0-8-3-9.5-6.8-1.5-3.8 0.3-6.8 4-6.8 3.8 0 8.1 3 9.6 6.8z"/><path class="k" d="m235 157.2h-216.9v34.5c23.8 5 55.9 8.7 87.5 9.1 43.3 0.6 88.1 0.1 129.4-1.9z"/><path class="l" d="m243.5 156.4c0 0.8-0.3 1.6-0.9 2.2-0.6 0.6-1.5 1-2.3 1h-227.5c-0.9 0-1.7-0.4-2.3-1-0.6-0.6-0.9-1.4-0.9-2.2 0-0.9 0.3-1.7 0.9-2.3 0.6-0.6 1.4-1 2.3-1h227.5c0.8 0 1.7 0.4 2.3 1l0.3-0.4-0.3 0.4c0.6 0.6 0.9 1.4 0.9 2.3z"/></g></svg>